<?xml version="1.0" encoding="UTF-8" standalone="no"?>
<!DOCTYPE svg PUBLIC "-//W3C//DTD SVG 1.1//EN"
 "http://www.w3.org/Graphics/SVG/1.1/DTD/svg11.dtd">
<!-- Generated by graphviz version 8.0.5 (20230430.1635)
 -->
<!-- Title: src/alloc/bpool.hpp Pages: 1 -->
<svg width="531pt" height="90pt"
 viewBox="0.00 0.00 530.75 90.00" xmlns="http://www.w3.org/2000/svg" xmlns:xlink="http://www.w3.org/1999/xlink">
<g id="graph0" class="graph" transform="scale(1 1) rotate(0) translate(4 86)">
<title>src/alloc/bpool.hpp</title>
<!-- Node1 -->
<g id="Node000001" class="node">
<title>Node1</title>
<g id="a_Node000001"><a xlink:title=" ">
<polygon fill="#999999" stroke="#666666" points="287.38,-82 189.62,-82 189.62,-59 287.38,-59 287.38,-82"/>
<text text-anchor="middle" x="238.5" y="-68.5" font-family="Helvetica,sans-Serif" font-size="10.00">src/alloc/bpool.hpp</text>
</a>
</g>
</g>
<!-- Node2 -->
<g id="Node000002" class="node">
<title>Node2</title>
<g id="a_Node000002"><a xlink:title=" ">
<polygon fill="#e0e0e0" stroke="#999999" points="49,-23 0,-23 0,0 49,0 49,-23"/>
<text text-anchor="middle" x="24.5" y="-9.5" font-family="Helvetica,sans-Serif" font-size="10.00">cassert</text>
</a>
</g>
</g>
<!-- Node1&#45;&gt;Node2 -->
<g id="edge1_Node000001_Node000002" class="edge">
<title>Node1&#45;&gt;Node2</title>
<g id="a_edge1_Node000001_Node000002"><a xlink:title=" ">
<path fill="none" stroke="#63b8ff" d="M193.59,-58.52C159.36,-50.01 110.84,-37.65 59.62,-23.23"/>
<polygon fill="#63b8ff" stroke="#63b8ff" points="60.92,-19.68 50.34,-20.32 59.01,-26.41 60.92,-19.68"/>
</a>
</g>
</g>
<!-- Node3 -->
<g id="Node000003" class="node">
<title>Node3</title>
<g id="a_Node000003"><a xlink:title=" ">
<polygon fill="#e0e0e0" stroke="#999999" points="107.5,-23 67.5,-23 67.5,0 107.5,0 107.5,-23"/>
<text text-anchor="middle" x="87.5" y="-9.5" font-family="Helvetica,sans-Serif" font-size="10.00">bitset</text>
</a>
</g>
</g>
<!-- Node1&#45;&gt;Node3 -->
<g id="edge2_Node000001_Node000003" class="edge">
<title>Node1&#45;&gt;Node3</title>
<g id="a_edge2_Node000001_Node000003"><a xlink:title=" ">
<path fill="none" stroke="#63b8ff" d="M209.39,-58.51C183.06,-48.57 144.44,-33.99 117.76,-23.92"/>
<polygon fill="#63b8ff" stroke="#63b8ff" points="119.42,-20.43 108.83,-20.17 116.94,-26.98 119.42,-20.43"/>
</a>
</g>
</g>
<!-- Node4 -->
<g id="Node000004" class="node">
<title>Node4</title>
<g id="a_Node000004"><a xlink:title=" ">
<polygon fill="#e0e0e0" stroke="#999999" points="165.12,-23 125.88,-23 125.88,0 165.12,0 165.12,-23"/>
<text text-anchor="middle" x="145.5" y="-9.5" font-family="Helvetica,sans-Serif" font-size="10.00">limits</text>
</a>
</g>
</g>
<!-- Node1&#45;&gt;Node4 -->
<g id="edge3_Node000001_Node000004" class="edge">
<title>Node1&#45;&gt;Node4</title>
<g id="a_edge3_Node000001_Node000004"><a xlink:title=" ">
<path fill="none" stroke="#63b8ff" d="M220.57,-58.51C206.93,-50.15 187.94,-38.51 172.47,-29.03"/>
<polygon fill="#63b8ff" stroke="#63b8ff" points="174.73,-25.7 164.38,-23.46 171.07,-31.67 174.73,-25.7"/>
</a>
</g>
</g>
<!-- Node5 -->
<g id="Node000005" class="node">
<title>Node5</title>
<g id="a_Node000005"><a xlink:title=" ">
<polygon fill="#e0e0e0" stroke="#999999" points="228.12,-23 182.88,-23 182.88,0 228.12,0 228.12,-23"/>
<text text-anchor="middle" x="205.5" y="-9.5" font-family="Helvetica,sans-Serif" font-size="10.00">cstdint</text>
</a>
</g>
</g>
<!-- Node1&#45;&gt;Node5 -->
<g id="edge4_Node000001_Node000005" class="edge">
<title>Node1&#45;&gt;Node5</title>
<g id="a_edge4_Node000001_Node000005"><a xlink:title=" ">
<path fill="none" stroke="#63b8ff" d="M232.14,-58.51C227.94,-51.26 222.31,-41.53 217.3,-32.89"/>
<polygon fill="#63b8ff" stroke="#63b8ff" points="219.88,-31.36 211.84,-24.46 213.82,-34.86 219.88,-31.36"/>
</a>
</g>
</g>
<!-- Node6 -->
<g id="Node000006" class="node">
<title>Node6</title>
<g id="a_Node000006"><a xlink:title=" ">
<polygon fill="#e0e0e0" stroke="#999999" points="298.5,-23 246.5,-23 246.5,0 298.5,0 298.5,-23"/>
<text text-anchor="middle" x="272.5" y="-9.5" font-family="Helvetica,sans-Serif" font-size="10.00">memory</text>
</a>
</g>
</g>
<!-- Node1&#45;&gt;Node6 -->
<g id="edge5_Node000001_Node000006" class="edge">
<title>Node1&#45;&gt;Node6</title>
<g id="a_edge5_Node000001_Node000006"><a xlink:title=" ">
<path fill="none" stroke="#63b8ff" d="M245.06,-58.51C249.38,-51.26 255.18,-41.53 260.34,-32.89"/>
<polygon fill="#63b8ff" stroke="#63b8ff" points="263.85,-34.84 265.96,-24.46 257.84,-31.25 263.85,-34.84"/>
</a>
</g>
</g>
<!-- Node7 -->
<g id="Node000007" class="node">
<title>Node7</title>
<g id="a_Node000007"><a xlink:title=" ">
<polygon fill="#e0e0e0" stroke="#999999" points="356.5,-23 316.5,-23 316.5,0 356.5,0 356.5,-23"/>
<text text-anchor="middle" x="336.5" y="-9.5" font-family="Helvetica,sans-Serif" font-size="10.00">string</text>
</a>
</g>
</g>
<!-- Node1&#45;&gt;Node7 -->
<g id="edge6_Node000001_Node000007" class="edge">
<title>Node1&#45;&gt;Node7</title>
<g id="a_edge6_Node000001_Node000007"><a xlink:title=" ">
<path fill="none" stroke="#63b8ff" d="M257.4,-58.51C271.9,-50.07 292.16,-38.29 308.54,-28.76"/>
<polygon fill="#63b8ff" stroke="#63b8ff" points="309.78,-31.51 316.66,-23.46 306.26,-25.46 309.78,-31.51"/>
</a>
</g>
</g>
<!-- Node8 -->
<g id="Node000008" class="node">
<title>Node8</title>
<g id="a_Node000008"><a xlink:title=" ">
<polygon fill="#e0e0e0" stroke="#999999" points="418.38,-23 374.62,-23 374.62,0 418.38,0 418.38,-23"/>
<text text-anchor="middle" x="396.5" y="-9.5" font-family="Helvetica,sans-Serif" font-size="10.00">format</text>
</a>
</g>
</g>
<!-- Node1&#45;&gt;Node8 -->
<g id="edge7_Node000001_Node000008" class="edge">
<title>Node1&#45;&gt;Node8</title>
<g id="a_edge7_Node000001_Node000008"><a xlink:title=" ">
<path fill="none" stroke="#63b8ff" d="M268.96,-58.51C296.32,-48.64 336.35,-34.2 364.24,-24.14"/>
<polygon fill="#63b8ff" stroke="#63b8ff" points="365.06,-27.2 373.28,-20.52 362.69,-20.62 365.06,-27.2"/>
</a>
</g>
</g>
<!-- Node9 -->
<g id="Node000009" class="node">
<title>Node9</title>
<g id="a_Node000009"><a xlink:href="logging_8hpp.html" target="_top" xlink:title=" ">
<polygon fill="white" stroke="#666666" points="522.75,-23 436.25,-23 436.25,0 522.75,0 522.75,-23"/>
<text text-anchor="middle" x="479.5" y="-9.5" font-family="Helvetica,sans-Serif" font-size="10.00">utils/logging.hpp</text>
</a>
</g>
</g>
<!-- Node1&#45;&gt;Node9 -->
<g id="edge8_Node000001_Node000009" class="edge">
<title>Node1&#45;&gt;Node9</title>
<g id="a_edge8_Node000001_Node000009"><a xlink:title=" ">
<path fill="none" stroke="#63b8ff" d="M284.97,-58.51C325.11,-49.02 383.14,-35.29 425.37,-25.3"/>
<polygon fill="#63b8ff" stroke="#63b8ff" points="426.09,-28.49 435.01,-22.79 424.48,-21.68 426.09,-28.49"/>
</a>
</g>
</g>
</g>
</svg>
