<?xml version="1.0" encoding="UTF-8" standalone="no"?>
<!DOCTYPE svg PUBLIC "-//W3C//DTD SVG 1.1//EN"
 "http://www.w3.org/Graphics/SVG/1.1/DTD/svg11.dtd">
<!-- Generated by graphviz version 8.0.5 (20230430.1635)
 -->
<!-- Title: src/alloc/bpool_alloc_gbenchmark.cpp Pages: 1 -->
<!--zoomable 223 -->

<svg id="main" version="1.1" xmlns="http://www.w3.org/2000/svg" xmlns:xlink="http://www.w3.org/1999/xlink" xml:space="preserve" onload="init(evt)">
<style type="text/css"><![CDATA[
.node, .edge {opacity: 0.7;}
.node.selected, .edge.selected {opacity: 1;}
.edge:hover path { stroke: red; }
.edge:hover polygon { stroke: red; fill: red; }
]]></style>

<defs>
  <circle id="rim" cx="0" cy="0" r="7"/>
  <circle id="rim2" cx="0" cy="0" r="3.5"/>
  <g id="zoomPlus">
    <use xlink:href="#rim" fill="#404040"><set attributeName="fill" to="#808080" begin="zoomplus.mouseover" end="zoomplus.mouseout"/></use>
    <path d="M-4,0h8M0,-4v8" fill="none" stroke="white" stroke-width="1.5" pointer-events="none"/>
  </g>
  <g id="zoomMin">
    <use xlink:href="#rim" fill="#404040"><set attributeName="fill" to="#808080" begin="zoomminus.mouseover" end="zoomminus.mouseout"/></use>
    <path d="M-4,0h8" fill="none" stroke="white" stroke-width="1.5" pointer-events="none"/>
  </g>
  <g id="arrowUp" transform="translate(30 24)">
    <use xlink:href="#rim"/>
    <path pointer-events="none" fill="none" stroke="white" stroke-width="1.5" d="M0,-3.0v7 M-2.5,-0.5L0,-3.0L2.5,-0.5"/>
  </g>
  <g id="arrowRight" transform="rotate(90) translate(36 -43)">
    <use xlink:href="#rim"/>
    <path pointer-events="none" fill="none" stroke="white" stroke-width="1.5" d="M0,-3.0v7 M-2.5,-0.5L0,-3.0L2.5,-0.5"/>
  </g>
  <g id="arrowDown" transform="rotate(180) translate(-30 -48)">
    <use xlink:href="#rim"/>
    <path pointer-events="none" fill="none" stroke="white" stroke-width="1.5" d="M0,-3.0v7 M-2.5,-0.5L0,-3.0L2.5,-0.5"/>
  </g>
  <g id="arrowLeft" transform="rotate(270) translate(-36 17)">
    <use xlink:href="#rim"/>
    <path pointer-events="none" fill="none" stroke="white" stroke-width="1.5" d="M0,-3.0v7 M-2.5,-0.5L0,-3.0L2.5,-0.5"/>
  </g>
  <g id="resetDef">
    <use xlink:href="#rim2" fill="#404040"><set attributeName="fill" to="#808080" begin="reset.mouseover" end="reset.mouseout"/></use>
  </g>
</defs>
<script type="application/ecmascript">
var viewWidth = 1034;
var viewHeight = 223;
var sectionId = 'dynsection-0';
</script>
<script type="application/ecmascript" xlink:href="svg.min.js"/>
<svg id="graph" class="graph">
<g id="viewport">
<title>src/alloc/bpool_alloc_gbenchmark.cpp</title>
<!-- Node1 -->
<g id="Node000001" class="node">
<title>Node1</title>
<g id="a_Node000001"><a xlink:title=" ">
<polygon fill="#999999" stroke="#666666" points="437.75,-215 333.25,-215 333.25,-177 437.75,-177 437.75,-215"/>
<text text-anchor="start" x="341.25" y="-201.5" font-family="Helvetica,sans-Serif" font-size="10.00">src/alloc/bpool_alloc</text>
<text text-anchor="middle" x="385.5" y="-186.5" font-family="Helvetica,sans-Serif" font-size="10.00">_gbenchmark.cpp</text>
</a>
</g>
</g>
<!-- Node2 -->
<g id="Node000002" class="node">
<title>Node2</title>
<g id="a_Node000002"><a xlink:title=" ">
<polygon fill="#e0e0e0" stroke="#999999" points="386.88,-141 262.12,-141 262.12,-118 386.88,-118 386.88,-141"/>
<text text-anchor="middle" x="324.5" y="-127.5" font-family="Helvetica,sans-Serif" font-size="10.00">benchmark/benchmark.h</text>
</a>
</g>
</g>
<!-- Node1&#45;&gt;Node2 -->
<g id="edge1_Node000001_Node000002" class="edge">
<title>Node1&#45;&gt;Node2</title>
<g id="a_edge1_Node000001_Node000002"><a xlink:title=" ">
<path fill="none" stroke="#63b8ff" d="M368.18,-176.69C359.96,-168 350.16,-157.63 341.92,-148.92"/>
<polygon fill="#63b8ff" stroke="#63b8ff" points="345.03,-147.05 335.61,-142.19 339.94,-151.86 345.03,-147.05"/>
</a>
</g>
</g>
<!-- Node3 -->
<g id="Node000003" class="node">
<title>Node3</title>
<g id="a_Node000003"><a xlink:href="bpool__alloc_8hpp.html" target="_top" xlink:title=" ">
<polygon fill="white" stroke="#666666" points="488.25,-141 404.75,-141 404.75,-118 488.25,-118 488.25,-141"/>
<text text-anchor="middle" x="446.5" y="-127.5" font-family="Helvetica,sans-Serif" font-size="10.00">bpool_alloc.hpp</text>
</a>
</g>
</g>
<!-- Node1&#45;&gt;Node3 -->
<g id="edge2_Node000001_Node000003" class="edge">
<title>Node1&#45;&gt;Node3</title>
<g id="a_edge2_Node000001_Node000003"><a xlink:title=" ">
<path fill="none" stroke="#63b8ff" d="M402.82,-176.69C411.04,-168 420.84,-157.63 429.08,-148.92"/>
<polygon fill="#63b8ff" stroke="#63b8ff" points="431.06,-151.86 435.39,-142.19 425.97,-147.05 431.06,-151.86"/>
</a>
</g>
</g>
<!-- Node4 -->
<g id="Node000004" class="node">
<title>Node4</title>
<g id="a_Node000004"><a xlink:title=" ">
<polygon fill="#e0e0e0" stroke="#999999" points="49,-23 0,-23 0,0 49,0 49,-23"/>
<text text-anchor="middle" x="24.5" y="-9.5" font-family="Helvetica,sans-Serif" font-size="10.00">cassert</text>
</a>
</g>
</g>
<!-- Node3&#45;&gt;Node4 -->
<g id="edge3_Node000003_Node000004" class="edge">
<title>Node3&#45;&gt;Node4</title>
<g id="a_edge3_Node000003_Node000004"><a xlink:title=" ">
<path fill="none" stroke="#63b8ff" d="M404.51,-119.65C401.47,-119.07 398.44,-118.52 395.5,-118 285.8,-98.76 252.9,-118.01 147.5,-82 110.78,-69.45 72.47,-45.87 48.56,-29.69"/>
<polygon fill="#63b8ff" stroke="#63b8ff" points="50.76,-26.26 40.54,-23.46 46.78,-32.02 50.76,-26.26"/>
</a>
</g>
</g>
<!-- Node5 -->
<g id="Node000005" class="node">
<title>Node5</title>
<g id="a_Node000005"><a xlink:title=" ">
<polygon fill="#e0e0e0" stroke="#999999" points="315.62,-82 267.38,-82 267.38,-59 315.62,-59 315.62,-82"/>
<text text-anchor="middle" x="291.5" y="-68.5" font-family="Helvetica,sans-Serif" font-size="10.00">cstddef</text>
</a>
</g>
</g>
<!-- Node3&#45;&gt;Node5 -->
<g id="edge4_Node000003_Node000005" class="edge">
<title>Node3&#45;&gt;Node5</title>
<g id="a_edge4_Node000003_Node000005"><a xlink:title=" ">
<path fill="none" stroke="#63b8ff" d="M416.61,-117.51C390.68,-107.97 353.12,-94.16 325.93,-84.16"/>
<polygon fill="#63b8ff" stroke="#63b8ff" points="327.29,-80.56 316.7,-80.4 324.87,-87.13 327.29,-80.56"/>
</a>
</g>
</g>
<!-- Node6 -->
<g id="Node000006" class="node">
<title>Node6</title>
<g id="a_Node000006"><a xlink:title=" ">
<polygon fill="#e0e0e0" stroke="#999999" points="399.62,-82 333.38,-82 333.38,-59 399.62,-59 399.62,-82"/>
<text text-anchor="middle" x="366.5" y="-68.5" font-family="Helvetica,sans-Serif" font-size="10.00">forward_list</text>
</a>
</g>
</g>
<!-- Node3&#45;&gt;Node6 -->
<g id="edge5_Node000003_Node000006" class="edge">
<title>Node3&#45;&gt;Node6</title>
<g id="a_edge5_Node000003_Node000006"><a xlink:title=" ">
<path fill="none" stroke="#63b8ff" d="M431.08,-117.51C419.57,-109.31 403.62,-97.95 390.46,-88.57"/>
<polygon fill="#63b8ff" stroke="#63b8ff" points="393.05,-85.41 382.88,-82.46 388.99,-91.11 393.05,-85.41"/>
</a>
</g>
</g>
<!-- Node7 -->
<g id="Node000007" class="node">
<title>Node7</title>
<g id="a_Node000007"><a xlink:title=" ">
<polygon fill="#e0e0e0" stroke="#999999" points="475.5,-82 417.5,-82 417.5,-59 475.5,-59 475.5,-82"/>
<text text-anchor="middle" x="446.5" y="-68.5" font-family="Helvetica,sans-Serif" font-size="10.00">functional</text>
</a>
</g>
</g>
<!-- Node3&#45;&gt;Node7 -->
<g id="edge6_Node000003_Node000007" class="edge">
<title>Node3&#45;&gt;Node7</title>
<g id="a_edge6_Node000003_Node000007"><a xlink:title=" ">
<path fill="none" stroke="#63b8ff" d="M446.5,-117.51C446.5,-110.65 446.5,-101.58 446.5,-93.31"/>
<polygon fill="#63b8ff" stroke="#63b8ff" points="450,-93.46 446.5,-83.46 443,-93.46 450,-93.46"/>
</a>
</g>
</g>
<!-- Node8 -->
<g id="Node000008" class="node">
<title>Node8</title>
<g id="a_Node000008"><a xlink:title=" ">
<polygon fill="#e0e0e0" stroke="#999999" points="533.12,-82 493.88,-82 493.88,-59 533.12,-59 533.12,-82"/>
<text text-anchor="middle" x="513.5" y="-68.5" font-family="Helvetica,sans-Serif" font-size="10.00">utility</text>
</a>
</g>
</g>
<!-- Node3&#45;&gt;Node8 -->
<g id="edge7_Node000003_Node000008" class="edge">
<title>Node3&#45;&gt;Node8</title>
<g id="a_edge7_Node000003_Node000008"><a xlink:title=" ">
<path fill="none" stroke="#63b8ff" d="M459.42,-117.51C468.78,-109.55 481.64,-98.6 492.47,-89.39"/>
<polygon fill="#63b8ff" stroke="#63b8ff" points="494.27,-91.6 499.62,-82.46 489.74,-86.27 494.27,-91.6"/>
</a>
</g>
</g>
<!-- Node9 -->
<g id="Node000009" class="node">
<title>Node9</title>
<g id="a_Node000009"><a xlink:title=" ">
<polygon fill="#e0e0e0" stroke="#999999" points="589.38,-82 551.62,-82 551.62,-59 589.38,-59 589.38,-82"/>
<text text-anchor="middle" x="570.5" y="-68.5" font-family="Helvetica,sans-Serif" font-size="10.00">array</text>
</a>
</g>
</g>
<!-- Node3&#45;&gt;Node9 -->
<g id="edge8_Node000003_Node000009" class="edge">
<title>Node3&#45;&gt;Node9</title>
<g id="a_edge8_Node000003_Node000009"><a xlink:title=" ">
<path fill="none" stroke="#63b8ff" d="M470.41,-117.51C490.61,-108.22 519.62,-94.89 541.21,-84.96"/>
<polygon fill="#63b8ff" stroke="#63b8ff" points="542.52,-87.76 550.14,-80.4 539.59,-81.4 542.52,-87.76"/>
</a>
</g>
</g>
<!-- Node10 -->
<g id="Node000010" class="node">
<title>Node10</title>
<g id="a_Node000010"><a xlink:title=" ">
<polygon fill="#e0e0e0" stroke="#999999" points="641.5,-82 607.5,-82 607.5,-59 641.5,-59 641.5,-82"/>
<text text-anchor="middle" x="624.5" y="-68.5" font-family="Helvetica,sans-Serif" font-size="10.00">new</text>
</a>
</g>
</g>
<!-- Node3&#45;&gt;Node10 -->
<g id="edge9_Node000003_Node000010" class="edge">
<title>Node3&#45;&gt;Node10</title>
<g id="a_edge9_Node000003_Node000010"><a xlink:title=" ">
<path fill="none" stroke="#63b8ff" d="M485.54,-117.57C514.13,-109.34 554.05,-97.39 596.88,-82.38"/>
<polygon fill="#63b8ff" stroke="#63b8ff" points="597.98,-85.35 606.24,-78.71 595.64,-78.75 597.98,-85.35"/>
</a>
</g>
</g>
<!-- Node11 -->
<g id="Node000011" class="node">
<title>Node11</title>
<g id="a_Node000011"><a xlink:title=" ">
<polygon fill="#e0e0e0" stroke="#999999" points="694.5,-23 636.5,-23 636.5,0 694.5,0 694.5,-23"/>
<text text-anchor="middle" x="665.5" y="-9.5" font-family="Helvetica,sans-Serif" font-size="10.00">stdexcept</text>
</a>
</g>
</g>
<!-- Node3&#45;&gt;Node11 -->
<g id="edge10_Node000003_Node000011" class="edge">
<title>Node3&#45;&gt;Node11</title>
<g id="a_edge10_Node000003_Node000011"><a xlink:title=" ">
<path fill="none" stroke="#63b8ff" d="M488.59,-124.22C541.53,-117.96 628.22,-104.54 650.5,-82 662.88,-69.48 666.12,-49.33 666.56,-33.95"/>
<polygon fill="#63b8ff" stroke="#63b8ff" points="670.06,-34.28 666.46,-24.32 663.06,-34.35 670.06,-34.28"/>
</a>
</g>
</g>
<!-- Node12 -->
<g id="Node000012" class="node">
<title>Node12</title>
<g id="a_Node000012"><a xlink:href="logging_8hpp.html" target="_top" xlink:title=" ">
<polygon fill="white" stroke="#666666" points="153.75,-23 67.25,-23 67.25,0 153.75,0 153.75,-23"/>
<text text-anchor="middle" x="110.5" y="-9.5" font-family="Helvetica,sans-Serif" font-size="10.00">utils/logging.hpp</text>
</a>
</g>
</g>
<!-- Node3&#45;&gt;Node12 -->
<g id="edge11_Node000003_Node000012" class="edge">
<title>Node3&#45;&gt;Node12</title>
<g id="a_edge11_Node000003_Node000012"><a xlink:title=" ">
<path fill="none" stroke="#63b8ff" d="M404.5,-119.73C401.46,-119.13 398.43,-118.55 395.5,-118 301.13,-100.32 268.2,-125.27 182.5,-82 158.82,-70.04 137.77,-47.62 124.64,-31.47"/>
<polygon fill="#63b8ff" stroke="#63b8ff" points="127.12,-29.96 118.19,-24.25 121.61,-34.28 127.12,-29.96"/>
</a>
</g>
</g>
<!-- Node13 -->
<g id="Node000013" class="node">
<title>Node13</title>
<g id="a_Node000013"><a xlink:href="trace_8hpp.html" target="_top" xlink:title=" ">
<polygon fill="white" stroke="#666666" points="778.25,-82 700.75,-82 700.75,-59 778.25,-59 778.25,-82"/>
<text text-anchor="middle" x="739.5" y="-68.5" font-family="Helvetica,sans-Serif" font-size="10.00">utils/trace.hpp</text>
</a>
</g>
</g>
<!-- Node3&#45;&gt;Node13 -->
<g id="edge12_Node000003_Node000013" class="edge">
<title>Node3&#45;&gt;Node13</title>
<g id="a_edge12_Node000003_Node000013"><a xlink:title=" ">
<path fill="none" stroke="#63b8ff" d="M488.48,-120.33C541.7,-109.98 633.31,-92.16 689.92,-81.15"/>
<polygon fill="#63b8ff" stroke="#63b8ff" points="690.26,-84.45 699.41,-79.11 688.92,-77.58 690.26,-84.45"/>
</a>
</g>
</g>
<!-- Node17 -->
<g id="Node000017" class="node">
<title>Node17</title>
<g id="a_Node000017"><a xlink:href="bpool_8hpp.html" target="_top" xlink:title=" ">
<polygon fill="white" stroke="#666666" points="249.5,-82 191.5,-82 191.5,-59 249.5,-59 249.5,-82"/>
<text text-anchor="middle" x="220.5" y="-68.5" font-family="Helvetica,sans-Serif" font-size="10.00">bpool.hpp</text>
</a>
</g>
</g>
<!-- Node3&#45;&gt;Node17 -->
<g id="edge17_Node000003_Node000017" class="edge">
<title>Node3&#45;&gt;Node17</title>
<g id="a_edge17_Node000003_Node000017"><a xlink:title=" ">
<path fill="none" stroke="#63b8ff" d="M404.6,-118.48C368.76,-109.83 315.52,-96.81 260.58,-82.5"/>
<polygon fill="#63b8ff" stroke="#63b8ff" points="261.5,-78.86 250.94,-79.72 259.73,-85.63 261.5,-78.86"/>
</a>
</g>
</g>
<!-- Node13&#45;&gt;Node11 -->
<g id="edge13_Node000013_Node000011" class="edge">
<title>Node13&#45;&gt;Node11</title>
<g id="a_edge13_Node000013_Node000011"><a xlink:title=" ">
<path fill="none" stroke="#63b8ff" d="M725.23,-58.51C714.79,-50.47 700.4,-39.39 688.37,-30.11"/>
<polygon fill="#63b8ff" stroke="#63b8ff" points="690.78,-26.79 680.72,-23.46 686.51,-32.33 690.78,-26.79"/>
</a>
</g>
</g>
<!-- Node14 -->
<g id="Node000014" class="node">
<title>Node14</title>
<g id="a_Node000014"><a xlink:title=" ">
<polygon fill="#e0e0e0" stroke="#999999" points="766.25,-23 712.75,-23 712.75,0 766.25,0 766.25,-23"/>
<text text-anchor="middle" x="739.5" y="-9.5" font-family="Helvetica,sans-Serif" font-size="10.00">iostream</text>
</a>
</g>
</g>
<!-- Node13&#45;&gt;Node14 -->
<g id="edge14_Node000013_Node000014" class="edge">
<title>Node13&#45;&gt;Node14</title>
<g id="a_edge14_Node000013_Node000014"><a xlink:title=" ">
<path fill="none" stroke="#63b8ff" d="M739.5,-58.51C739.5,-51.65 739.5,-42.58 739.5,-34.31"/>
<polygon fill="#63b8ff" stroke="#63b8ff" points="743,-34.46 739.5,-24.46 736,-34.46 743,-34.46"/>
</a>
</g>
</g>
<!-- Node15 -->
<g id="Node000015" class="node">
<title>Node15</title>
<g id="a_Node000015"><a xlink:title=" ">
<polygon fill="#e0e0e0" stroke="#999999" points="892.25,-23 784.75,-23 784.75,0 892.25,0 892.25,-23"/>
<text text-anchor="middle" x="838.5" y="-9.5" font-family="Helvetica,sans-Serif" font-size="10.00">boost/stacktrace.hpp</text>
</a>
</g>
</g>
<!-- Node13&#45;&gt;Node15 -->
<g id="edge15_Node000013_Node000015" class="edge">
<title>Node13&#45;&gt;Node15</title>
<g id="a_edge15_Node000013_Node000015"><a xlink:title=" ">
<path fill="none" stroke="#63b8ff" d="M758.59,-58.51C773.24,-50.07 793.7,-38.29 810.25,-28.76"/>
<polygon fill="#63b8ff" stroke="#63b8ff" points="811.55,-31.48 818.47,-23.46 808.06,-25.41 811.55,-31.48"/>
</a>
</g>
</g>
<!-- Node16 -->
<g id="Node000016" class="node">
<title>Node16</title>
<g id="a_Node000016"><a xlink:title=" ">
<polygon fill="#e0e0e0" stroke="#999999" points="1026.38,-23 910.62,-23 910.62,0 1026.38,0 1026.38,-23"/>
<text text-anchor="middle" x="968.5" y="-9.5" font-family="Helvetica,sans-Serif" font-size="10.00">boost/exception/all.hpp</text>
</a>
</g>
</g>
<!-- Node13&#45;&gt;Node16 -->
<g id="edge16_Node000013_Node000016" class="edge">
<title>Node13&#45;&gt;Node16</title>
<g id="a_edge16_Node000013_Node000016"><a xlink:title=" ">
<path fill="none" stroke="#63b8ff" d="M778.61,-59.77C815.86,-50.49 872.28,-36.45 913.95,-26.08"/>
<polygon fill="#63b8ff" stroke="#63b8ff" points="914.61,-29.27 923.47,-23.46 912.92,-22.48 914.61,-29.27"/>
</a>
</g>
</g>
<!-- Node17&#45;&gt;Node4 -->
<g id="edge18_Node000017_Node000004" class="edge">
<title>Node17&#45;&gt;Node4</title>
<g id="a_edge18_Node000017_Node000004"><a xlink:title=" ">
<path fill="none" stroke="#63b8ff" d="M191.18,-61.28C160.72,-52.69 111.43,-38.68 59.73,-23.33"/>
<polygon fill="#63b8ff" stroke="#63b8ff" points="60.95,-19.74 50.36,-20.24 58.95,-26.45 60.95,-19.74"/>
</a>
</g>
</g>
<!-- Node17&#45;&gt;Node12 -->
<g id="edge25_Node000017_Node000012" class="edge">
<title>Node17&#45;&gt;Node12</title>
<g id="a_edge25_Node000017_Node000012"><a xlink:title=" ">
<path fill="none" stroke="#63b8ff" d="M199.29,-58.51C182.86,-49.99 159.85,-38.07 141.37,-28.5"/>
<polygon fill="#63b8ff" stroke="#63b8ff" points="143.13,-24.95 132.64,-23.46 139.91,-31.16 143.13,-24.95"/>
</a>
</g>
</g>
<!-- Node18 -->
<g id="Node000018" class="node">
<title>Node18</title>
<g id="a_Node000018"><a xlink:title=" ">
<polygon fill="#e0e0e0" stroke="#999999" points="211.5,-23 171.5,-23 171.5,0 211.5,0 211.5,-23"/>
<text text-anchor="middle" x="191.5" y="-9.5" font-family="Helvetica,sans-Serif" font-size="10.00">bitset</text>
</a>
</g>
</g>
<!-- Node17&#45;&gt;Node18 -->
<g id="edge19_Node000017_Node000018" class="edge">
<title>Node17&#45;&gt;Node18</title>
<g id="a_edge19_Node000017_Node000018"><a xlink:title=" ">
<path fill="none" stroke="#63b8ff" d="M214.91,-58.51C211.26,-51.33 206.38,-41.74 202.02,-33.17"/>
<polygon fill="#63b8ff" stroke="#63b8ff" points="204.73,-31.78 197.07,-24.46 198.49,-34.96 204.73,-31.78"/>
</a>
</g>
</g>
<!-- Node19 -->
<g id="Node000019" class="node">
<title>Node19</title>
<g id="a_Node000019"><a xlink:title=" ">
<polygon fill="#e0e0e0" stroke="#999999" points="269.12,-23 229.88,-23 229.88,0 269.12,0 269.12,-23"/>
<text text-anchor="middle" x="249.5" y="-9.5" font-family="Helvetica,sans-Serif" font-size="10.00">limits</text>
</a>
</g>
</g>
<!-- Node17&#45;&gt;Node19 -->
<g id="edge20_Node000017_Node000019" class="edge">
<title>Node17&#45;&gt;Node19</title>
<g id="a_edge20_Node000017_Node000019"><a xlink:title=" ">
<path fill="none" stroke="#63b8ff" d="M226.09,-58.51C229.74,-51.33 234.62,-41.74 238.98,-33.17"/>
<polygon fill="#63b8ff" stroke="#63b8ff" points="242.51,-34.96 243.93,-24.46 236.27,-31.78 242.51,-34.96"/>
</a>
</g>
</g>
<!-- Node20 -->
<g id="Node000020" class="node">
<title>Node20</title>
<g id="a_Node000020"><a xlink:title=" ">
<polygon fill="#e0e0e0" stroke="#999999" points="332.12,-23 286.88,-23 286.88,0 332.12,0 332.12,-23"/>
<text text-anchor="middle" x="309.5" y="-9.5" font-family="Helvetica,sans-Serif" font-size="10.00">cstdint</text>
</a>
</g>
</g>
<!-- Node17&#45;&gt;Node20 -->
<g id="edge21_Node000017_Node000020" class="edge">
<title>Node17&#45;&gt;Node20</title>
<g id="a_edge21_Node000017_Node000020"><a xlink:title=" ">
<path fill="none" stroke="#63b8ff" d="M237.66,-58.51C250.59,-50.23 268.54,-38.73 283.27,-29.3"/>
<polygon fill="#63b8ff" stroke="#63b8ff" points="284.86,-31.8 291.39,-23.46 281.08,-25.9 284.86,-31.8"/>
</a>
</g>
</g>
<!-- Node21 -->
<g id="Node000021" class="node">
<title>Node21</title>
<g id="a_Node000021"><a xlink:title=" ">
<polygon fill="#e0e0e0" stroke="#999999" points="402.5,-23 350.5,-23 350.5,0 402.5,0 402.5,-23"/>
<text text-anchor="middle" x="376.5" y="-9.5" font-family="Helvetica,sans-Serif" font-size="10.00">memory</text>
</a>
</g>
</g>
<!-- Node17&#45;&gt;Node21 -->
<g id="edge22_Node000017_Node000021" class="edge">
<title>Node17&#45;&gt;Node21</title>
<g id="a_edge22_Node000017_Node000021"><a xlink:title=" ">
<path fill="none" stroke="#63b8ff" d="M249.84,-58.78C275.43,-49.43 312.66,-35.83 340.14,-25.79"/>
<polygon fill="#63b8ff" stroke="#63b8ff" points="340.95,-28.85 349.15,-22.13 338.55,-22.27 340.95,-28.85"/>
</a>
</g>
</g>
<!-- Node22 -->
<g id="Node000022" class="node">
<title>Node22</title>
<g id="a_Node000022"><a xlink:title=" ">
<polygon fill="#e0e0e0" stroke="#999999" points="460.5,-23 420.5,-23 420.5,0 460.5,0 460.5,-23"/>
<text text-anchor="middle" x="440.5" y="-9.5" font-family="Helvetica,sans-Serif" font-size="10.00">string</text>
</a>
</g>
</g>
<!-- Node17&#45;&gt;Node22 -->
<g id="edge23_Node000017_Node000022" class="edge">
<title>Node17&#45;&gt;Node22</title>
<g id="a_edge23_Node000017_Node000022"><a xlink:title=" ">
<path fill="none" stroke="#63b8ff" d="M249.93,-61.25C252.82,-60.47 255.71,-59.71 258.5,-59 323.01,-42.51 342.71,-42.85 409.76,-23.29"/>
<polygon fill="#63b8ff" stroke="#63b8ff" points="410.41,-26.45 419,-20.26 408.42,-19.74 410.41,-26.45"/>
</a>
</g>
</g>
<!-- Node23 -->
<g id="Node000023" class="node">
<title>Node23</title>
<g id="a_Node000023"><a xlink:title=" ">
<polygon fill="#e0e0e0" stroke="#999999" points="522.38,-23 478.62,-23 478.62,0 522.38,0 522.38,-23"/>
<text text-anchor="middle" x="500.5" y="-9.5" font-family="Helvetica,sans-Serif" font-size="10.00">format</text>
</a>
</g>
</g>
<!-- Node17&#45;&gt;Node23 -->
<g id="edge24_Node000017_Node000023" class="edge">
<title>Node17&#45;&gt;Node23</title>
<g id="a_edge24_Node000017_Node000023"><a xlink:title=" ">
<path fill="none" stroke="#63b8ff" d="M249.89,-61.07C252.79,-60.33 255.69,-59.63 258.5,-59 348,-39.05 375.31,-45.79 467.61,-23.17"/>
<polygon fill="#63b8ff" stroke="#63b8ff" points="468.42,-26.32 477.27,-20.5 466.72,-19.53 468.42,-26.32"/>
</a>
</g>
</g>
</g>
</svg>

<g id="navigator" transform="translate(0 0)" fill="#404254">
  <rect fill="#f2f5e9" fill-opacity="0.5" stroke="#606060" stroke-width=".5" x="0" y="0" width="60" height="60"/>
  <use id="zoomplus" xlink:href="#zoomPlus" x="17" y="9" onmousedown="handleZoom(evt,'in')"/>
  <use id="zoomminus" xlink:href="#zoomMin" x="42" y="9" onmousedown="handleZoom(evt,'out')"/>
  <use id="reset" xlink:href="#resetDef" x="30" y="36" onmousedown="handleReset()"/>
   <use id="arrowup" xlink:href="#arrowUp" x="0" y="0" onmousedown="handlePan(0,-1)"/>
  <use id="arrowright" xlink:href="#arrowRight" x="0" y="0" onmousedown="handlePan(1,0)"/>
  <use id="arrowdown" xlink:href="#arrowDown" x="0" y="0" onmousedown="handlePan(0,1)"/>
  <use id="arrowleft" xlink:href="#arrowLeft" x="0" y="0" onmousedown="handlePan(-1,0)"/>
</g>
<svg viewBox="0 0 15 15" width="100%" height="30px" preserveAspectRatio="xMaxYMin meet">
 <g id="arrow_out" transform="scale(0.3 0.3)">
  <a xlink:href="bpool__alloc__gbenchmark_8cpp__incl_org.svg" target="_base">
   <rect id="button" ry="5" rx="5" y="6" x="6" height="38" width="38"
        fill="#f2f5e9" fill-opacity="0.5" stroke="#606060" stroke-width="1.0"/>
   <path id="arrow"
     d="M 11.500037,31.436501 C 11.940474,20.09759 22.043105,11.32322 32.158766,21.979434 L 37.068811,17.246167 C 37.068811,17.246167 37.088388,32 37.088388,32 L 22.160133,31.978069 C 22.160133,31.978069 26.997745,27.140456 26.997745,27.140456 C 18.528582,18.264221 13.291696,25.230495 11.500037,31.436501 z"
     style="fill:#404040;"/>
  </a>
 </g>
</svg>

<style type='text/css'>
<![CDATA[
[data-mouse-over-selected='false'] { opacity: 0.7; }
[data-mouse-over-selected='true']  { opacity: 1.0; }
]]>
</style>
<script type="application/ecmascript"><![CDATA[
document.addEventListener('DOMContentLoaded', (event) => {
  highlightEdges();
  highlightAdjacentNodes();
});
]]></script>
</svg>
