<?xml version="1.0" encoding="UTF-8" standalone="no"?>
<!DOCTYPE svg PUBLIC "-//W3C//DTD SVG 1.1//EN"
 "http://www.w3.org/Graphics/SVG/1.1/DTD/svg11.dtd">
<!-- Generated by graphviz version 8.0.5 (20230430.1635)
 -->
<!-- Title: TEST Pages: 1 -->
<svg width="303pt" height="200pt"
 viewBox="0.00 0.00 302.75 200.00" xmlns="http://www.w3.org/2000/svg" xmlns:xlink="http://www.w3.org/1999/xlink">
<g id="graph0" class="graph" transform="scale(1 1) rotate(0) translate(4 196)">
<title>TEST</title>
<!-- Node1 -->
<g id="Node000001" class="node">
<title>Node1</title>
<g id="a_Node000001"><a xlink:title=" ">
<polygon fill="#999999" stroke="#666666" points="40.75,-103.5 0,-103.5 0,-80.5 40.75,-80.5 40.75,-103.5"/>
<text text-anchor="middle" x="20.38" y="-90" font-family="Helvetica,sans-Serif" font-size="10.00">TEST</text>
</a>
</g>
</g>
<!-- Node2 -->
<g id="Node000002" class="node">
<title>Node2</title>
<g id="a_Node000002"><a xlink:href="structalloc_1_1bpool__alloc.html#acb2524d16480f987bafd356360c8bf98" target="_top" xlink:title=" ">
<polygon fill="white" stroke="#666666" points="167.75,-192 76.75,-192 76.75,-154 167.75,-154 167.75,-192"/>
<text text-anchor="start" x="84.75" y="-178.5" font-family="Helvetica,sans-Serif" font-size="10.00">alloc::bpool_alloc</text>
<text text-anchor="middle" x="122.25" y="-163.5" font-family="Helvetica,sans-Serif" font-size="10.00">::allocate</text>
</a>
</g>
</g>
<!-- Node1&#45;&gt;Node2 -->
<g id="edge1_Node000001_Node000002" class="edge">
<title>Node1&#45;&gt;Node2</title>
<g id="a_edge1_Node000001_Node000002"><a xlink:title=" ">
<path fill="none" stroke="#63b8ff" d="M32.22,-103.67C42.96,-114.91 60.17,-132.07 76.75,-145 77.8,-145.82 78.88,-146.64 79.98,-147.45"/>
<polygon fill="#63b8ff" stroke="#63b8ff" points="77.45,-150.66 87.64,-153.56 81.48,-144.94 77.45,-150.66"/>
</a>
</g>
</g>
<!-- Node4 -->
<g id="Node000004" class="node">
<title>Node4</title>
<g id="a_Node000004"><a xlink:href="structalloc_1_1bpool__alloc.html#acbcf550309a3deac64c64f20c8a54935" target="_top" xlink:title=" ">
<polygon fill="white" stroke="#666666" points="167.75,-136 76.75,-136 76.75,-98 167.75,-98 167.75,-136"/>
<text text-anchor="start" x="84.75" y="-122.5" font-family="Helvetica,sans-Serif" font-size="10.00">alloc::bpool_alloc</text>
<text text-anchor="middle" x="122.25" y="-107.5" font-family="Helvetica,sans-Serif" font-size="10.00">::deallocate</text>
</a>
</g>
</g>
<!-- Node1&#45;&gt;Node4 -->
<g id="edge3_Node000001_Node000004" class="edge">
<title>Node1&#45;&gt;Node4</title>
<g id="a_edge3_Node000001_Node000004"><a xlink:title=" ">
<path fill="none" stroke="#63b8ff" d="M41.11,-96.94C48.38,-98.76 57.02,-100.92 65.9,-103.14"/>
<polygon fill="#63b8ff" stroke="#63b8ff" points="64.8,-106.73 75.35,-105.76 66.5,-99.94 64.8,-106.73"/>
</a>
</g>
</g>
<!-- Node6 -->
<g id="Node000006" class="node">
<title>Node6</title>
<g id="a_Node000006"><a xlink:href="memuse_8hpp.html#a091fc3d2791767cf442bbc7435058de3" target="_top" xlink:title=" ">
<polygon fill="white" stroke="#666666" points="149,-79.5 95.5,-79.5 95.5,-56.5 149,-56.5 149,-79.5"/>
<text text-anchor="middle" x="122.25" y="-66" font-family="Helvetica,sans-Serif" font-size="10.00">memuse</text>
</a>
</g>
</g>
<!-- Node1&#45;&gt;Node6 -->
<g id="edge5_Node000001_Node000006" class="edge">
<title>Node1&#45;&gt;Node6</title>
<g id="a_edge5_Node000001_Node000006"><a xlink:title=" ">
<path fill="none" stroke="#63b8ff" d="M41.11,-87.26C53.55,-84.27 70,-80.32 84.76,-76.77"/>
<polygon fill="#63b8ff" stroke="#63b8ff" points="85.22,-80.02 94.12,-74.28 83.58,-73.21 85.22,-80.02"/>
</a>
</g>
</g>
<!-- Node7 -->
<g id="Node000007" class="node">
<title>Node7</title>
<g id="a_Node000007"><a xlink:href="structalloc_1_1bpool__alloc.html#ab2e42c3ab5610434a5a08f70c47e4e31" target="_top" xlink:title=" ">
<polygon fill="white" stroke="#666666" points="167.75,-38 76.75,-38 76.75,0 167.75,0 167.75,-38"/>
<text text-anchor="start" x="84.75" y="-24.5" font-family="Helvetica,sans-Serif" font-size="10.00">alloc::bpool_alloc</text>
<text text-anchor="middle" x="122.25" y="-9.5" font-family="Helvetica,sans-Serif" font-size="10.00">::repr</text>
</a>
</g>
</g>
<!-- Node1&#45;&gt;Node7 -->
<g id="edge6_Node000001_Node000007" class="edge">
<title>Node1&#45;&gt;Node7</title>
<g id="a_edge6_Node000001_Node000007"><a xlink:title=" ">
<path fill="none" stroke="#63b8ff" d="M35.12,-80.05C46.11,-70.69 62.05,-57.54 76.75,-47 78,-46.1 79.28,-45.2 80.58,-44.3"/>
<polygon fill="#63b8ff" stroke="#63b8ff" points="81.99,-46.9 88.34,-38.42 78.08,-41.09 81.99,-46.9"/>
</a>
</g>
</g>
<!-- Node3 -->
<g id="Node000003" class="node">
<title>Node3</title>
<g id="a_Node000003"><a xlink:href="structalloc_1_1bpool__alloc.html#a9fe5dd0cd2c07bfb85c6db1abbed4311" target="_top" xlink:title=" ">
<polygon fill="white" stroke="#666666" points="294.75,-192 203.75,-192 203.75,-154 294.75,-154 294.75,-192"/>
<text text-anchor="start" x="211.75" y="-178.5" font-family="Helvetica,sans-Serif" font-size="10.00">alloc::bpool_alloc</text>
<text text-anchor="middle" x="249.25" y="-163.5" font-family="Helvetica,sans-Serif" font-size="10.00">::_extend_bpool</text>
</a>
</g>
</g>
<!-- Node2&#45;&gt;Node3 -->
<g id="edge2_Node000002_Node000003" class="edge">
<title>Node2&#45;&gt;Node3</title>
<g id="a_edge2_Node000002_Node000003"><a xlink:title=" ">
<path fill="none" stroke="#63b8ff" d="M168.02,-173C175.92,-173 184.23,-173 192.39,-173"/>
<polygon fill="#63b8ff" stroke="#63b8ff" points="192.37,-176.5 202.37,-173 192.37,-169.5 192.37,-176.5"/>
</a>
</g>
</g>
<!-- Node5 -->
<g id="Node000005" class="node">
<title>Node5</title>
<g id="a_Node000005"><a xlink:href="trace_8hpp.html#a69ce0e01b2658249ba2618e9cd7f29fd" target="_top" xlink:title=" ">
<polygon fill="white" stroke="#666666" points="294.38,-128.5 204.12,-128.5 204.12,-105.5 294.38,-105.5 294.38,-128.5"/>
<text text-anchor="middle" x="249.25" y="-115" font-family="Helvetica,sans-Serif" font-size="10.00">throw_with_trace</text>
</a>
</g>
</g>
<!-- Node4&#45;&gt;Node5 -->
<g id="edge4_Node000004_Node000005" class="edge">
<title>Node4&#45;&gt;Node5</title>
<g id="a_edge4_Node000004_Node000005"><a xlink:title=" ">
<path fill="none" stroke="#63b8ff" d="M168.02,-117C176.11,-117 184.63,-117 192.97,-117"/>
<polygon fill="#63b8ff" stroke="#63b8ff" points="192.79,-120.5 202.79,-117 192.79,-113.5 192.79,-120.5"/>
</a>
</g>
</g>
</g>
</svg>
