<?xml version="1.0" encoding="UTF-8" standalone="no"?>
<!DOCTYPE svg PUBLIC "-//W3C//DTD SVG 1.1//EN"
 "http://www.w3.org/Graphics/SVG/1.1/DTD/svg11.dtd">
<!-- Generated by graphviz version 8.0.5 (20230430.1635)
 -->
<!-- Title: TEST Pages: 1 -->
<svg width="334pt" height="121pt"
 viewBox="0.00 0.00 334.25 120.50" xmlns="http://www.w3.org/2000/svg" xmlns:xlink="http://www.w3.org/1999/xlink">

<svg id="main" version="1.1" xmlns="http://www.w3.org/2000/svg" xmlns:xlink="http://www.w3.org/1999/xlink" xml:space="preserve" onload="init(evt)">
<style type="text/css"><![CDATA[
.node, .edge {opacity: 0.7;}
.node.selected, .edge.selected {opacity: 1;}
.edge:hover path { stroke: red; }
.edge:hover polygon { stroke: red; fill: red; }
]]></style>
<script type="application/ecmascript" xlink:href="svg.min.js"/>
<svg id="graph" class="graph">
<g id="graph0" class="graph" transform="scale(1 1) rotate(0) translate(4 116.5)">
<title>TEST</title>
<!-- Node1 -->
<g id="Node000001" class="node">
<title>Node1</title>
<g id="a_Node000001"><a xlink:title=" ">
<polygon fill="#999999" stroke="#666666" points="40.75,-64 0,-64 0,-41 40.75,-41 40.75,-64"/>
<text text-anchor="middle" x="20.38" y="-50.5" font-family="Helvetica,sans-Serif" font-size="10.00">TEST</text>
</a>
</g>
</g>
<!-- Node2 -->
<g id="Node000002" class="node">
<title>Node2</title>
<g id="a_Node000002"><a xlink:href="structalloc_1_1bpool.html#a21161441539b62582473a250fffc5e00" target="_top" xlink:title=" ">
<polygon fill="white" stroke="#666666" points="187.25,-105 82,-105 82,-82 187.25,-82 187.25,-105"/>
<text text-anchor="middle" x="134.62" y="-91.5" font-family="Helvetica,sans-Serif" font-size="10.00">alloc::bpool::allocate</text>
</a>
</g>
</g>
<!-- Node1&#45;&gt;Node2 -->
<g id="edge1_Node000001_Node000002" class="edge">
<title>Node1&#45;&gt;Node2</title>
<g id="a_edge1_Node000001_Node000002"><a xlink:title=" ">
<path fill="none" stroke="#63b8ff" d="M41.07,-60.1C51.62,-64.14 64.87,-69.16 76.75,-73.5 80.73,-74.95 84.87,-76.45 89.02,-77.93"/>
<polygon fill="#63b8ff" stroke="#63b8ff" points="87.7,-81.53 98.29,-81.58 90.04,-74.93 87.7,-81.53"/>
</a>
</g>
</g>
<!-- Node4 -->
<g id="Node000004" class="node">
<title>Node4</title>
<g id="a_Node000004"><a xlink:href="structalloc_1_1bpool.html#a26c33896820dc8db591d97f67f62c0a1" target="_top" xlink:title=" ">
<polygon fill="white" stroke="#666666" points="192.5,-64 76.75,-64 76.75,-41 192.5,-41 192.5,-64"/>
<text text-anchor="middle" x="134.62" y="-50.5" font-family="Helvetica,sans-Serif" font-size="10.00">alloc::bpool::deallocate</text>
</a>
</g>
</g>
<!-- Node1&#45;&gt;Node4 -->
<g id="edge3_Node000001_Node000004" class="edge">
<title>Node1&#45;&gt;Node4</title>
<g id="a_edge3_Node000001_Node000004"><a xlink:title=" ">
<path fill="none" stroke="#63b8ff" d="M41.18,-52.5C48.25,-52.5 56.67,-52.5 65.5,-52.5"/>
<polygon fill="#63b8ff" stroke="#63b8ff" points="65.42,-56 75.42,-52.5 65.42,-49 65.42,-56"/>
</a>
</g>
</g>
<!-- Node5 -->
<g id="Node000005" class="node">
<title>Node5</title>
<g id="a_Node000005"><a xlink:href="structalloc_1_1bpool.html#aaa359830c277e94ff4539d855937dbc9" target="_top" xlink:title=" ">
<polygon fill="white" stroke="#666666" points="178.62,-23 90.62,-23 90.62,0 178.62,0 178.62,-23"/>
<text text-anchor="middle" x="134.62" y="-9.5" font-family="Helvetica,sans-Serif" font-size="10.00">alloc::bpool::repr</text>
</a>
</g>
</g>
<!-- Node1&#45;&gt;Node5 -->
<g id="edge4_Node000001_Node000005" class="edge">
<title>Node1&#45;&gt;Node5</title>
<g id="a_edge4_Node000001_Node000005"><a xlink:title=" ">
<path fill="none" stroke="#63b8ff" d="M41.18,-45.26C54.84,-40.28 73.52,-33.45 90.52,-27.24"/>
<polygon fill="#63b8ff" stroke="#63b8ff" points="91.63,-30.2 99.82,-23.48 89.23,-23.62 91.63,-30.2"/>
</a>
</g>
</g>
<!-- Node3 -->
<g id="Node000003" class="node">
<title>Node3</title>
<g id="a_Node000003"><a xlink:href="structalloc_1_1bpool__base.html#ab65307339d29e7c9691f12a10b8dc019" target="_top" xlink:title=" ">
<polygon fill="white" stroke="#666666" points="326.25,-112.5 228.5,-112.5 228.5,-74.5 326.25,-74.5 326.25,-112.5"/>
<text text-anchor="start" x="236.5" y="-99" font-family="Helvetica,sans-Serif" font-size="10.00">alloc::bpool_base::</text>
<text text-anchor="middle" x="277.38" y="-84" font-family="Helvetica,sans-Serif" font-size="10.00">free_count</text>
</a>
</g>
</g>
<!-- Node2&#45;&gt;Node3 -->
<g id="edge2_Node000002_Node000003" class="edge">
<title>Node2&#45;&gt;Node3</title>
<g id="a_edge2_Node000002_Node000003"><a xlink:title=" ">
<path fill="none" stroke="#63b8ff" d="M187.64,-93.5C197.31,-93.5 207.48,-93.5 217.34,-93.5"/>
<polygon fill="#63b8ff" stroke="#63b8ff" points="217.31,-97 227.31,-93.5 217.31,-90 217.31,-97"/>
</a>
</g>
</g>
</g>
</svg>
</svg>

<style type='text/css'>
<![CDATA[
[data-mouse-over-selected='false'] { opacity: 0.7; }
[data-mouse-over-selected='true']  { opacity: 1.0; }
]]>
</style>
<script type="application/ecmascript"><![CDATA[
document.addEventListener('DOMContentLoaded', (event) => {
  highlightEdges();
  highlightAdjacentNodes();
});
]]></script>
</svg>
