<?xml version="1.0" encoding="UTF-8" standalone="no"?>
<!DOCTYPE svg PUBLIC "-//W3C//DTD SVG 1.1//EN"
 "http://www.w3.org/Graphics/SVG/1.1/DTD/svg11.dtd">
<!-- Generated by graphviz version 8.0.5 (20230430.1635)
 -->
<!-- Title: src/alloc/bpool_alloc_gtest.cpp Pages: 1 -->
<svg width="992pt" height="223pt"
 viewBox="0.00 0.00 992.00 223.00" xmlns="http://www.w3.org/2000/svg" xmlns:xlink="http://www.w3.org/1999/xlink">
<g id="graph0" class="graph" transform="scale(1 1) rotate(0) translate(4 219)">
<title>src/alloc/bpool_alloc_gtest.cpp</title>
<!-- Node1 -->
<g id="Node000001" class="node">
<title>Node1</title>
<g id="a_Node000001"><a xlink:title=" ">
<polygon fill="#999999" stroke="#666666" points="251.75,-215 147.25,-215 147.25,-177 251.75,-177 251.75,-215"/>
<text text-anchor="start" x="155.25" y="-201.5" font-family="Helvetica,sans-Serif" font-size="10.00">src/alloc/bpool_alloc</text>
<text text-anchor="middle" x="199.5" y="-186.5" font-family="Helvetica,sans-Serif" font-size="10.00">_gtest.cpp</text>
</a>
</g>
</g>
<!-- Node2 -->
<g id="Node000002" class="node">
<title>Node2</title>
<g id="a_Node000002"><a xlink:title=" ">
<polygon fill="#e0e0e0" stroke="#999999" points="171.88,-141 101.12,-141 101.12,-118 171.88,-118 171.88,-141"/>
<text text-anchor="middle" x="136.5" y="-127.5" font-family="Helvetica,sans-Serif" font-size="10.00">gtest/gtest.h</text>
</a>
</g>
</g>
<!-- Node1&#45;&gt;Node2 -->
<g id="edge1_Node000001_Node000002" class="edge">
<title>Node1&#45;&gt;Node2</title>
<g id="a_edge1_Node000001_Node000002"><a xlink:title=" ">
<path fill="none" stroke="#63b8ff" d="M181.62,-176.69C173.12,-168 163,-157.63 154.49,-148.92"/>
<polygon fill="#63b8ff" stroke="#63b8ff" points="157.43,-146.9 147.94,-142.19 152.43,-151.79 157.43,-146.9"/>
</a>
</g>
</g>
<!-- Node3 -->
<g id="Node000003" class="node">
<title>Node3</title>
<g id="a_Node000003"><a xlink:href="memuse_8hpp.html" target="_top" xlink:title=" ">
<polygon fill="white" stroke="#666666" points="117.62,-82 45.38,-82 45.38,-59 117.62,-59 117.62,-82"/>
<text text-anchor="middle" x="81.5" y="-68.5" font-family="Helvetica,sans-Serif" font-size="10.00">memuse.hpp</text>
</a>
</g>
</g>
<!-- Node1&#45;&gt;Node3 -->
<g id="edge2_Node000001_Node000003" class="edge">
<title>Node1&#45;&gt;Node3</title>
<g id="a_edge2_Node000001_Node000003"><a xlink:title=" ">
<path fill="none" stroke="#63b8ff" d="M199.3,-176.53C198.2,-159.57 194.12,-134.61 180.5,-118 167.19,-101.77 146.92,-90.89 128.18,-83.76"/>
<polygon fill="#63b8ff" stroke="#63b8ff" points="129.57,-80.19 118.98,-80.17 127.25,-86.79 129.57,-80.19"/>
</a>
</g>
</g>
<!-- Node7 -->
<g id="Node000007" class="node">
<title>Node7</title>
<g id="a_Node000007"><a xlink:href="bpool__alloc_8hpp.html" target="_top" xlink:title=" ">
<polygon fill="white" stroke="#666666" points="462.25,-141 378.75,-141 378.75,-118 462.25,-118 462.25,-141"/>
<text text-anchor="middle" x="420.5" y="-127.5" font-family="Helvetica,sans-Serif" font-size="10.00">bpool_alloc.hpp</text>
</a>
</g>
</g>
<!-- Node1&#45;&gt;Node7 -->
<g id="edge6_Node000001_Node000007" class="edge">
<title>Node1&#45;&gt;Node7</title>
<g id="a_edge6_Node000001_Node000007"><a xlink:title=" ">
<path fill="none" stroke="#63b8ff" d="M252.15,-179.63C288.87,-168.92 337.46,-154.74 373,-144.36"/>
<polygon fill="#63b8ff" stroke="#63b8ff" points="373.5,-147.57 382.11,-141.41 371.53,-140.85 373.5,-147.57"/>
</a>
</g>
</g>
<!-- Node4 -->
<g id="Node000004" class="node">
<title>Node4</title>
<g id="a_Node000004"><a xlink:title=" ">
<polygon fill="#e0e0e0" stroke="#999999" points="108.25,-23 54.75,-23 54.75,0 108.25,0 108.25,-23"/>
<text text-anchor="middle" x="81.5" y="-9.5" font-family="Helvetica,sans-Serif" font-size="10.00">iostream</text>
</a>
</g>
</g>
<!-- Node3&#45;&gt;Node4 -->
<g id="edge3_Node000003_Node000004" class="edge">
<title>Node3&#45;&gt;Node4</title>
<g id="a_edge3_Node000003_Node000004"><a xlink:title=" ">
<path fill="none" stroke="#63b8ff" d="M81.5,-58.51C81.5,-51.65 81.5,-42.58 81.5,-34.31"/>
<polygon fill="#63b8ff" stroke="#63b8ff" points="85,-34.46 81.5,-24.46 78,-34.46 85,-34.46"/>
</a>
</g>
</g>
<!-- Node5 -->
<g id="Node000005" class="node">
<title>Node5</title>
<g id="a_Node000005"><a xlink:title=" ">
<polygon fill="#e0e0e0" stroke="#999999" points="368.5,-23 328.5,-23 328.5,0 368.5,0 368.5,-23"/>
<text text-anchor="middle" x="348.5" y="-9.5" font-family="Helvetica,sans-Serif" font-size="10.00">string</text>
</a>
</g>
</g>
<!-- Node3&#45;&gt;Node5 -->
<g id="edge4_Node000003_Node000005" class="edge">
<title>Node3&#45;&gt;Node5</title>
<g id="a_edge4_Node000003_Node000005"><a xlink:title=" ">
<path fill="none" stroke="#63b8ff" d="M117.82,-60.88C120.75,-60.23 123.67,-59.59 126.5,-59 208.56,-41.78 233.39,-45.59 317.48,-23.23"/>
<polygon fill="#63b8ff" stroke="#63b8ff" points="318.3,-26.37 327.04,-20.38 316.47,-19.61 318.3,-26.37"/>
</a>
</g>
</g>
<!-- Node6 -->
<g id="Node000006" class="node">
<title>Node6</title>
<g id="a_Node000006"><a xlink:title=" ">
<polygon fill="#e0e0e0" stroke="#999999" points="37,-23 0,-23 0,0 37,0 37,-23"/>
<text text-anchor="middle" x="18.5" y="-9.5" font-family="Helvetica,sans-Serif" font-size="10.00">tuple</text>
</a>
</g>
</g>
<!-- Node3&#45;&gt;Node6 -->
<g id="edge5_Node000003_Node000006" class="edge">
<title>Node3&#45;&gt;Node6</title>
<g id="a_edge5_Node000003_Node000006"><a xlink:title=" ">
<path fill="none" stroke="#63b8ff" d="M69.35,-58.51C60.64,-50.62 48.69,-39.82 38.57,-30.66"/>
<polygon fill="#63b8ff" stroke="#63b8ff" points="41.37,-28.57 31.61,-24.46 36.68,-33.76 41.37,-28.57"/>
</a>
</g>
</g>
<!-- Node8 -->
<g id="Node000008" class="node">
<title>Node8</title>
<g id="a_Node000008"><a xlink:title=" ">
<polygon fill="#e0e0e0" stroke="#999999" points="984,-23 935,-23 935,0 984,0 984,-23"/>
<text text-anchor="middle" x="959.5" y="-9.5" font-family="Helvetica,sans-Serif" font-size="10.00">cassert</text>
</a>
</g>
</g>
<!-- Node7&#45;&gt;Node8 -->
<g id="edge7_Node000007_Node000008" class="edge">
<title>Node7&#45;&gt;Node8</title>
<g id="a_edge7_Node000007_Node000008"><a xlink:title=" ">
<path fill="none" stroke="#63b8ff" d="M462.62,-126.03C516.49,-121.8 611.98,-110.63 688.5,-82 706.99,-75.08 708.03,-65.98 726.5,-59 807.77,-28.3 836.63,-43.47 924.06,-23.32"/>
<polygon fill="#63b8ff" stroke="#63b8ff" points="924.83,-26.5 933.73,-20.76 923.19,-19.69 924.83,-26.5"/>
</a>
</g>
</g>
<!-- Node9 -->
<g id="Node000009" class="node">
<title>Node9</title>
<g id="a_Node000009"><a xlink:title=" ">
<polygon fill="#e0e0e0" stroke="#999999" points="783.62,-82 735.38,-82 735.38,-59 783.62,-59 783.62,-82"/>
<text text-anchor="middle" x="759.5" y="-68.5" font-family="Helvetica,sans-Serif" font-size="10.00">cstddef</text>
</a>
</g>
</g>
<!-- Node7&#45;&gt;Node9 -->
<g id="edge8_Node000007_Node000009" class="edge">
<title>Node7&#45;&gt;Node9</title>
<g id="a_edge8_Node000007_Node000009"><a xlink:title=" ">
<path fill="none" stroke="#63b8ff" d="M462.66,-123.56C521.13,-116.35 629.99,-101.64 721.5,-82 722.47,-81.79 723.44,-81.58 724.43,-81.35"/>
<polygon fill="#63b8ff" stroke="#63b8ff" points="725.22,-84.51 734.07,-78.7 723.52,-77.72 725.22,-84.51"/>
</a>
</g>
</g>
<!-- Node10 -->
<g id="Node000010" class="node">
<title>Node10</title>
<g id="a_Node000010"><a xlink:title=" ">
<polygon fill="#e0e0e0" stroke="#999999" points="867.62,-82 801.38,-82 801.38,-59 867.62,-59 867.62,-82"/>
<text text-anchor="middle" x="834.5" y="-68.5" font-family="Helvetica,sans-Serif" font-size="10.00">forward_list</text>
</a>
</g>
</g>
<!-- Node7&#45;&gt;Node10 -->
<g id="edge9_Node000007_Node000010" class="edge">
<title>Node7&#45;&gt;Node10</title>
<g id="a_edge9_Node000007_Node000010"><a xlink:title=" ">
<path fill="none" stroke="#63b8ff" d="M462.6,-124.91C529.92,-118.8 666.11,-104.95 790.64,-82.18"/>
<polygon fill="#63b8ff" stroke="#63b8ff" points="790.92,-85.5 800.11,-80.23 789.64,-78.62 790.92,-85.5"/>
</a>
</g>
</g>
<!-- Node11 -->
<g id="Node000011" class="node">
<title>Node11</title>
<g id="a_Node000011"><a xlink:title=" ">
<polygon fill="#e0e0e0" stroke="#999999" points="193.5,-82 135.5,-82 135.5,-59 193.5,-59 193.5,-82"/>
<text text-anchor="middle" x="164.5" y="-68.5" font-family="Helvetica,sans-Serif" font-size="10.00">functional</text>
</a>
</g>
</g>
<!-- Node7&#45;&gt;Node11 -->
<g id="edge10_Node000007_Node000011" class="edge">
<title>Node7&#45;&gt;Node11</title>
<g id="a_edge10_Node000007_Node000011"><a xlink:title=" ">
<path fill="none" stroke="#63b8ff" d="M378.54,-120.32C336.75,-112 270.55,-98.37 204.51,-82.4"/>
<polygon fill="#63b8ff" stroke="#63b8ff" points="205.46,-78.78 194.91,-79.81 203.8,-85.58 205.46,-78.78"/>
</a>
</g>
</g>
<!-- Node12 -->
<g id="Node000012" class="node">
<title>Node12</title>
<g id="a_Node000012"><a xlink:title=" ">
<polygon fill="#e0e0e0" stroke="#999999" points="251.12,-82 211.88,-82 211.88,-59 251.12,-59 251.12,-82"/>
<text text-anchor="middle" x="231.5" y="-68.5" font-family="Helvetica,sans-Serif" font-size="10.00">utility</text>
</a>
</g>
</g>
<!-- Node7&#45;&gt;Node12 -->
<g id="edge11_Node000007_Node000012" class="edge">
<title>Node7&#45;&gt;Node12</title>
<g id="a_edge11_Node000007_Node000012"><a xlink:title=" ">
<path fill="none" stroke="#63b8ff" d="M380.17,-117.56C349.97,-109.19 307.43,-97.04 261.81,-82.29"/>
<polygon fill="#63b8ff" stroke="#63b8ff" points="263,-78.67 252.41,-78.9 260.83,-85.33 263,-78.67"/>
</a>
</g>
</g>
<!-- Node13 -->
<g id="Node000013" class="node">
<title>Node13</title>
<g id="a_Node000013"><a xlink:title=" ">
<polygon fill="#e0e0e0" stroke="#999999" points="307.38,-82 269.62,-82 269.62,-59 307.38,-59 307.38,-82"/>
<text text-anchor="middle" x="288.5" y="-68.5" font-family="Helvetica,sans-Serif" font-size="10.00">array</text>
</a>
</g>
</g>
<!-- Node7&#45;&gt;Node13 -->
<g id="edge12_Node000007_Node000013" class="edge">
<title>Node7&#45;&gt;Node13</title>
<g id="a_edge12_Node000007_Node000013"><a xlink:title=" ">
<path fill="none" stroke="#63b8ff" d="M395.05,-117.51C372.96,-107.97 340.98,-94.16 317.82,-84.16"/>
<polygon fill="#63b8ff" stroke="#63b8ff" points="319.44,-80.62 308.87,-79.86 316.66,-87.04 319.44,-80.62"/>
</a>
</g>
</g>
<!-- Node14 -->
<g id="Node000014" class="node">
<title>Node14</title>
<g id="a_Node000014"><a xlink:title=" ">
<polygon fill="#e0e0e0" stroke="#999999" points="359.5,-82 325.5,-82 325.5,-59 359.5,-59 359.5,-82"/>
<text text-anchor="middle" x="342.5" y="-68.5" font-family="Helvetica,sans-Serif" font-size="10.00">new</text>
</a>
</g>
</g>
<!-- Node7&#45;&gt;Node14 -->
<g id="edge13_Node000007_Node000014" class="edge">
<title>Node7&#45;&gt;Node14</title>
<g id="a_edge13_Node000007_Node000014"><a xlink:title=" ">
<path fill="none" stroke="#63b8ff" d="M405.46,-117.51C394.35,-109.39 378.99,-98.17 366.23,-88.84"/>
<polygon fill="#63b8ff" stroke="#63b8ff" points="368.63,-85.53 358.49,-82.46 364.5,-91.18 368.63,-85.53"/>
</a>
</g>
</g>
<!-- Node15 -->
<g id="Node000015" class="node">
<title>Node15</title>
<g id="a_Node000015"><a xlink:title=" ">
<polygon fill="#e0e0e0" stroke="#999999" points="184.5,-23 126.5,-23 126.5,0 184.5,0 184.5,-23"/>
<text text-anchor="middle" x="155.5" y="-9.5" font-family="Helvetica,sans-Serif" font-size="10.00">stdexcept</text>
</a>
</g>
</g>
<!-- Node7&#45;&gt;Node15 -->
<g id="edge14_Node000007_Node000015" class="edge">
<title>Node7&#45;&gt;Node15</title>
<g id="a_edge14_Node000007_Node000015"><a xlink:title=" ">
<path fill="none" stroke="#63b8ff" d="M415.53,-117.6C407.8,-101.99 391.4,-73.54 368.5,-59 304.21,-18.19 273.29,-39.64 195.19,-23.16"/>
<polygon fill="#63b8ff" stroke="#63b8ff" points="196.43,-19.63 185.91,-20.83 194.89,-26.46 196.43,-19.63"/>
</a>
</g>
</g>
<!-- Node16 -->
<g id="Node000016" class="node">
<title>Node16</title>
<g id="a_Node000016"><a xlink:href="logging_8hpp.html" target="_top" xlink:title=" ">
<polygon fill="white" stroke="#666666" points="606.75,-23 520.25,-23 520.25,0 606.75,0 606.75,-23"/>
<text text-anchor="middle" x="563.5" y="-9.5" font-family="Helvetica,sans-Serif" font-size="10.00">utils/logging.hpp</text>
</a>
</g>
</g>
<!-- Node7&#45;&gt;Node16 -->
<g id="edge15_Node000007_Node000016" class="edge">
<title>Node7&#45;&gt;Node16</title>
<g id="a_edge15_Node000007_Node000016"><a xlink:title=" ">
<path fill="none" stroke="#63b8ff" d="M444.44,-117.6C461.54,-109.19 484.6,-96.57 502.5,-82 520.65,-67.23 537.9,-46.75 549.4,-31.85"/>
<polygon fill="#63b8ff" stroke="#63b8ff" points="552.55,-34.49 555.77,-24.39 546.96,-30.27 552.55,-34.49"/>
</a>
</g>
</g>
<!-- Node17 -->
<g id="Node000017" class="node">
<title>Node17</title>
<g id="a_Node000017"><a xlink:href="trace_8hpp.html" target="_top" xlink:title=" ">
<polygon fill="white" stroke="#666666" points="493.25,-82 415.75,-82 415.75,-59 493.25,-59 493.25,-82"/>
<text text-anchor="middle" x="454.5" y="-68.5" font-family="Helvetica,sans-Serif" font-size="10.00">utils/trace.hpp</text>
</a>
</g>
</g>
<!-- Node7&#45;&gt;Node17 -->
<g id="edge16_Node000007_Node000017" class="edge">
<title>Node7&#45;&gt;Node17</title>
<g id="a_edge16_Node000007_Node000017"><a xlink:title=" ">
<path fill="none" stroke="#63b8ff" d="M427.06,-117.51C431.38,-110.26 437.18,-100.53 442.34,-91.89"/>
<polygon fill="#63b8ff" stroke="#63b8ff" points="445.85,-93.84 447.96,-83.46 439.84,-90.25 445.85,-93.84"/>
</a>
</g>
</g>
<!-- Node20 -->
<g id="Node000020" class="node">
<title>Node20</title>
<g id="a_Node000020"><a xlink:href="bpool_8hpp.html" target="_top" xlink:title=" ">
<polygon fill="white" stroke="#666666" points="679.5,-82 621.5,-82 621.5,-59 679.5,-59 679.5,-82"/>
<text text-anchor="middle" x="650.5" y="-68.5" font-family="Helvetica,sans-Serif" font-size="10.00">bpool.hpp</text>
</a>
</g>
</g>
<!-- Node7&#45;&gt;Node20 -->
<g id="edge21_Node000007_Node000020" class="edge">
<title>Node7&#45;&gt;Node20</title>
<g id="a_edge21_Node000007_Node000020"><a xlink:title=" ">
<path fill="none" stroke="#63b8ff" d="M462.69,-118.05C504.95,-107.57 569.5,-91.57 610.84,-81.33"/>
<polygon fill="#63b8ff" stroke="#63b8ff" points="611.47,-84.53 620.34,-78.73 609.79,-77.74 611.47,-84.53"/>
</a>
</g>
</g>
<!-- Node17&#45;&gt;Node4 -->
<g id="edge18_Node000017_Node000004" class="edge">
<title>Node17&#45;&gt;Node4</title>
<g id="a_edge18_Node000017_Node000004"><a xlink:title=" ">
<path fill="none" stroke="#63b8ff" d="M415.47,-64.44C339.11,-54.5 173.32,-32.7 119.26,-22.94"/>
<polygon fill="#63b8ff" stroke="#63b8ff" points="120,-19.33 109.52,-20.84 118.66,-26.2 120,-19.33"/>
</a>
</g>
</g>
<!-- Node17&#45;&gt;Node15 -->
<g id="edge17_Node000017_Node000015" class="edge">
<title>Node17&#45;&gt;Node15</title>
<g id="a_edge17_Node000017_Node000015"><a xlink:title=" ">
<path fill="none" stroke="#63b8ff" d="M415.45,-61.65C410.75,-60.74 406.02,-59.84 401.5,-59 312.59,-42.5 286.89,-43.42 195.45,-23.28"/>
<polygon fill="#63b8ff" stroke="#63b8ff" points="196.41,-19.69 185.89,-20.93 194.89,-26.52 196.41,-19.69"/>
</a>
</g>
</g>
<!-- Node18 -->
<g id="Node000018" class="node">
<title>Node18</title>
<g id="a_Node000018"><a xlink:title=" ">
<polygon fill="#e0e0e0" stroke="#999999" points="310.25,-23 202.75,-23 202.75,0 310.25,0 310.25,-23"/>
<text text-anchor="middle" x="256.5" y="-9.5" font-family="Helvetica,sans-Serif" font-size="10.00">boost/stacktrace.hpp</text>
</a>
</g>
</g>
<!-- Node17&#45;&gt;Node18 -->
<g id="edge19_Node000017_Node000018" class="edge">
<title>Node17&#45;&gt;Node18</title>
<g id="a_edge19_Node000017_Node000018"><a xlink:title=" ">
<path fill="none" stroke="#63b8ff" d="M416.32,-58.51C384.55,-49.36 339.13,-36.29 304.82,-26.41"/>
<polygon fill="#63b8ff" stroke="#63b8ff" points="306.14,-22.86 295.56,-23.46 304.2,-29.59 306.14,-22.86"/>
</a>
</g>
</g>
<!-- Node19 -->
<g id="Node000019" class="node">
<title>Node19</title>
<g id="a_Node000019"><a xlink:title=" ">
<polygon fill="#e0e0e0" stroke="#999999" points="502.38,-23 386.62,-23 386.62,0 502.38,0 502.38,-23"/>
<text text-anchor="middle" x="444.5" y="-9.5" font-family="Helvetica,sans-Serif" font-size="10.00">boost/exception/all.hpp</text>
</a>
</g>
</g>
<!-- Node17&#45;&gt;Node19 -->
<g id="edge20_Node000017_Node000019" class="edge">
<title>Node17&#45;&gt;Node19</title>
<g id="a_edge20_Node000017_Node000019"><a xlink:title=" ">
<path fill="none" stroke="#63b8ff" d="M452.57,-58.51C451.35,-51.57 449.74,-42.37 448.28,-34.02"/>
<polygon fill="#63b8ff" stroke="#63b8ff" points="451.6,-33.7 446.42,-24.46 444.7,-34.91 451.6,-33.7"/>
</a>
</g>
</g>
<!-- Node20&#45;&gt;Node5 -->
<g id="edge27_Node000020_Node000005" class="edge">
<title>Node20&#45;&gt;Node5</title>
<g id="a_edge27_Node000020_Node000005"><a xlink:title=" ">
<path fill="none" stroke="#63b8ff" d="M621.04,-66.24C572.42,-60.47 472.25,-47.02 379.36,-23.15"/>
<polygon fill="#63b8ff" stroke="#63b8ff" points="380.51,-19.57 369.95,-20.42 378.74,-26.34 380.51,-19.57"/>
</a>
</g>
</g>
<!-- Node20&#45;&gt;Node8 -->
<g id="edge22_Node000020_Node000008" class="edge">
<title>Node20&#45;&gt;Node8</title>
<g id="a_edge22_Node000020_Node000008"><a xlink:title=" ">
<path fill="none" stroke="#63b8ff" d="M679.57,-62.04C684.21,-60.95 688.98,-59.9 693.5,-59 792.96,-39.21 822.59,-46.45 924.34,-23.25"/>
<polygon fill="#63b8ff" stroke="#63b8ff" points="924.8,-26.5 933.75,-20.83 923.22,-19.68 924.8,-26.5"/>
</a>
</g>
</g>
<!-- Node20&#45;&gt;Node16 -->
<g id="edge29_Node000020_Node000016" class="edge">
<title>Node20&#45;&gt;Node16</title>
<g id="a_edge29_Node000020_Node000016"><a xlink:title=" ">
<path fill="none" stroke="#63b8ff" d="M633.73,-58.51C621.09,-50.23 603.54,-38.73 589.14,-29.3"/>
<polygon fill="#63b8ff" stroke="#63b8ff" points="591.51,-26.01 581.22,-23.46 587.67,-31.86 591.51,-26.01"/>
</a>
</g>
</g>
<!-- Node21 -->
<g id="Node000021" class="node">
<title>Node21</title>
<g id="a_Node000021"><a xlink:title=" ">
<polygon fill="#e0e0e0" stroke="#999999" points="796.5,-23 756.5,-23 756.5,0 796.5,0 796.5,-23"/>
<text text-anchor="middle" x="776.5" y="-9.5" font-family="Helvetica,sans-Serif" font-size="10.00">bitset</text>
</a>
</g>
</g>
<!-- Node20&#45;&gt;Node21 -->
<g id="edge23_Node000020_Node000021" class="edge">
<title>Node20&#45;&gt;Node21</title>
<g id="a_edge23_Node000020_Node000021"><a xlink:title=" ">
<path fill="none" stroke="#63b8ff" d="M674.79,-58.51C695.17,-49.29 724.36,-36.09 746.24,-26.19"/>
<polygon fill="#63b8ff" stroke="#63b8ff" points="747.36,-29.07 755.03,-21.76 744.47,-22.69 747.36,-29.07"/>
</a>
</g>
</g>
<!-- Node22 -->
<g id="Node000022" class="node">
<title>Node22</title>
<g id="a_Node000022"><a xlink:title=" ">
<polygon fill="#e0e0e0" stroke="#999999" points="854.12,-23 814.88,-23 814.88,0 854.12,0 854.12,-23"/>
<text text-anchor="middle" x="834.5" y="-9.5" font-family="Helvetica,sans-Serif" font-size="10.00">limits</text>
</a>
</g>
</g>
<!-- Node20&#45;&gt;Node22 -->
<g id="edge24_Node000020_Node000022" class="edge">
<title>Node20&#45;&gt;Node22</title>
<g id="a_edge24_Node000020_Node000022"><a xlink:title=" ">
<path fill="none" stroke="#63b8ff" d="M679.79,-61.24C709.06,-52.88 755.54,-39.28 804.44,-23.23"/>
<polygon fill="#63b8ff" stroke="#63b8ff" points="805.19,-26.34 813.58,-19.88 802.99,-19.69 805.19,-26.34"/>
</a>
</g>
</g>
<!-- Node23 -->
<g id="Node000023" class="node">
<title>Node23</title>
<g id="a_Node000023"><a xlink:title=" ">
<polygon fill="#e0e0e0" stroke="#999999" points="917.12,-23 871.88,-23 871.88,0 917.12,0 917.12,-23"/>
<text text-anchor="middle" x="894.5" y="-9.5" font-family="Helvetica,sans-Serif" font-size="10.00">cstdint</text>
</a>
</g>
</g>
<!-- Node20&#45;&gt;Node23 -->
<g id="edge25_Node000020_Node000023" class="edge">
<title>Node20&#45;&gt;Node23</title>
<g id="a_edge25_Node000020_Node000023"><a xlink:title=" ">
<path fill="none" stroke="#63b8ff" d="M679.62,-62.26C684.25,-61.15 689,-60.02 693.5,-59 765.56,-42.58 787.18,-43.32 861.26,-23.41"/>
<polygon fill="#63b8ff" stroke="#63b8ff" points="861.84,-26.61 870.57,-20.6 860,-19.86 861.84,-26.61"/>
</a>
</g>
</g>
<!-- Node24 -->
<g id="Node000024" class="node">
<title>Node24</title>
<g id="a_Node000024"><a xlink:title=" ">
<polygon fill="#e0e0e0" stroke="#999999" points="676.5,-23 624.5,-23 624.5,0 676.5,0 676.5,-23"/>
<text text-anchor="middle" x="650.5" y="-9.5" font-family="Helvetica,sans-Serif" font-size="10.00">memory</text>
</a>
</g>
</g>
<!-- Node20&#45;&gt;Node24 -->
<g id="edge26_Node000020_Node000024" class="edge">
<title>Node20&#45;&gt;Node24</title>
<g id="a_edge26_Node000020_Node000024"><a xlink:title=" ">
<path fill="none" stroke="#63b8ff" d="M650.5,-58.51C650.5,-51.65 650.5,-42.58 650.5,-34.31"/>
<polygon fill="#63b8ff" stroke="#63b8ff" points="654,-34.46 650.5,-24.46 647,-34.46 654,-34.46"/>
</a>
</g>
</g>
<!-- Node25 -->
<g id="Node000025" class="node">
<title>Node25</title>
<g id="a_Node000025"><a xlink:title=" ">
<polygon fill="#e0e0e0" stroke="#999999" points="738.38,-23 694.62,-23 694.62,0 738.38,0 738.38,-23"/>
<text text-anchor="middle" x="716.5" y="-9.5" font-family="Helvetica,sans-Serif" font-size="10.00">format</text>
</a>
</g>
</g>
<!-- Node20&#45;&gt;Node25 -->
<g id="edge28_Node000020_Node000025" class="edge">
<title>Node20&#45;&gt;Node25</title>
<g id="a_edge28_Node000020_Node000025"><a xlink:title=" ">
<path fill="none" stroke="#63b8ff" d="M663.23,-58.51C672.45,-50.55 685.12,-39.6 695.79,-30.39"/>
<polygon fill="#63b8ff" stroke="#63b8ff" points="697.53,-32.64 702.81,-23.46 692.96,-27.34 697.53,-32.64"/>
</a>
</g>
</g>
</g>
</svg>
