<?xml version="1.0" encoding="UTF-8" standalone="no"?>
<!DOCTYPE svg PUBLIC "-//W3C//DTD SVG 1.1//EN"
 "http://www.w3.org/Graphics/SVG/1.1/DTD/svg11.dtd">
<!-- Generated by graphviz version 8.0.5 (20230430.1635)
 -->
<!-- Title: src/alloc/bpool_gtest.cpp Pages: 1 -->
<svg width="666pt" height="149pt"
 viewBox="0.00 0.00 665.62 149.00" xmlns="http://www.w3.org/2000/svg" xmlns:xlink="http://www.w3.org/1999/xlink">
<g id="graph0" class="graph" transform="scale(1 1) rotate(0) translate(4 145)">
<title>src/alloc/bpool_gtest.cpp</title>
<!-- Node1 -->
<g id="Node000001" class="node">
<title>Node1</title>
<g id="a_Node000001"><a xlink:title=" ">
<polygon fill="#999999" stroke="#666666" points="187.75,-141 63,-141 63,-118 187.75,-118 187.75,-141"/>
<text text-anchor="middle" x="125.38" y="-127.5" font-family="Helvetica,sans-Serif" font-size="10.00">src/alloc/bpool_gtest.cpp</text>
</a>
</g>
</g>
<!-- Node2 -->
<g id="Node000002" class="node">
<title>Node2</title>
<g id="a_Node000002"><a xlink:title=" ">
<polygon fill="#e0e0e0" stroke="#999999" points="70.75,-82 0,-82 0,-59 70.75,-59 70.75,-82"/>
<text text-anchor="middle" x="35.38" y="-68.5" font-family="Helvetica,sans-Serif" font-size="10.00">gtest/gtest.h</text>
</a>
</g>
</g>
<!-- Node1&#45;&gt;Node2 -->
<g id="edge1_Node000001_Node000002" class="edge">
<title>Node1&#45;&gt;Node2</title>
<g id="a_edge1_Node000001_Node000002"><a xlink:title=" ">
<path fill="none" stroke="#63b8ff" d="M108.02,-117.51C94.95,-109.23 76.79,-97.73 61.9,-88.3"/>
<polygon fill="#63b8ff" stroke="#63b8ff" points="64,-84.85 53.67,-82.46 60.25,-90.76 64,-84.85"/>
</a>
</g>
</g>
<!-- Node3 -->
<g id="Node000003" class="node">
<title>Node3</title>
<g id="a_Node000003"><a xlink:href="memuse_8hpp.html" target="_top" xlink:title=" ">
<polygon fill="white" stroke="#666666" points="161.5,-82 89.25,-82 89.25,-59 161.5,-59 161.5,-82"/>
<text text-anchor="middle" x="125.38" y="-68.5" font-family="Helvetica,sans-Serif" font-size="10.00">memuse.hpp</text>
</a>
</g>
</g>
<!-- Node1&#45;&gt;Node3 -->
<g id="edge2_Node000001_Node000003" class="edge">
<title>Node1&#45;&gt;Node3</title>
<g id="a_edge2_Node000001_Node000003"><a xlink:title=" ">
<path fill="none" stroke="#63b8ff" d="M125.38,-117.51C125.38,-110.65 125.38,-101.58 125.38,-93.31"/>
<polygon fill="#63b8ff" stroke="#63b8ff" points="128.88,-93.46 125.38,-83.46 121.88,-93.46 128.88,-93.46"/>
</a>
</g>
</g>
<!-- Node7 -->
<g id="Node000007" class="node">
<title>Node7</title>
<g id="a_Node000007"><a xlink:href="bpool_8hpp.html" target="_top" xlink:title=" ">
<polygon fill="white" stroke="#666666" points="367.38,-82 309.38,-82 309.38,-59 367.38,-59 367.38,-82"/>
<text text-anchor="middle" x="338.38" y="-68.5" font-family="Helvetica,sans-Serif" font-size="10.00">bpool.hpp</text>
</a>
</g>
</g>
<!-- Node1&#45;&gt;Node7 -->
<g id="edge6_Node000001_Node000007" class="edge">
<title>Node1&#45;&gt;Node7</title>
<g id="a_edge6_Node000001_Node000007"><a xlink:title=" ">
<path fill="none" stroke="#63b8ff" d="M166.44,-117.51C204.51,-107.32 260.8,-92.26 298.48,-82.18"/>
<polygon fill="#63b8ff" stroke="#63b8ff" points="299.31,-85.31 308.07,-79.34 297.5,-78.55 299.31,-85.31"/>
</a>
</g>
</g>
<!-- Node4 -->
<g id="Node000004" class="node">
<title>Node4</title>
<g id="a_Node000004"><a xlink:title=" ">
<polygon fill="#e0e0e0" stroke="#999999" points="61.12,-23 7.62,-23 7.62,0 61.12,0 61.12,-23"/>
<text text-anchor="middle" x="34.38" y="-9.5" font-family="Helvetica,sans-Serif" font-size="10.00">iostream</text>
</a>
</g>
</g>
<!-- Node3&#45;&gt;Node4 -->
<g id="edge3_Node000003_Node000004" class="edge">
<title>Node3&#45;&gt;Node4</title>
<g id="a_edge3_Node000003_Node000004"><a xlink:title=" ">
<path fill="none" stroke="#63b8ff" d="M107.83,-58.51C94.48,-50.15 75.9,-38.51 60.77,-29.03"/>
<polygon fill="#63b8ff" stroke="#63b8ff" points="63.2,-25.8 52.87,-23.46 59.48,-31.73 63.2,-25.8"/>
</a>
</g>
</g>
<!-- Node5 -->
<g id="Node000005" class="node">
<title>Node5</title>
<g id="a_Node000005"><a xlink:title=" ">
<polygon fill="#e0e0e0" stroke="#999999" points="174.38,-23 134.38,-23 134.38,0 174.38,0 174.38,-23"/>
<text text-anchor="middle" x="154.38" y="-9.5" font-family="Helvetica,sans-Serif" font-size="10.00">string</text>
</a>
</g>
</g>
<!-- Node3&#45;&gt;Node5 -->
<g id="edge4_Node000003_Node000005" class="edge">
<title>Node3&#45;&gt;Node5</title>
<g id="a_edge4_Node000003_Node000005"><a xlink:title=" ">
<path fill="none" stroke="#63b8ff" d="M130.97,-58.51C134.62,-51.33 139.5,-41.74 143.86,-33.17"/>
<polygon fill="#63b8ff" stroke="#63b8ff" points="147.39,-34.96 148.8,-24.46 141.15,-31.78 147.39,-34.96"/>
</a>
</g>
</g>
<!-- Node6 -->
<g id="Node000006" class="node">
<title>Node6</title>
<g id="a_Node000006"><a xlink:title=" ">
<polygon fill="#e0e0e0" stroke="#999999" points="115.88,-23 78.88,-23 78.88,0 115.88,0 115.88,-23"/>
<text text-anchor="middle" x="97.38" y="-9.5" font-family="Helvetica,sans-Serif" font-size="10.00">tuple</text>
</a>
</g>
</g>
<!-- Node3&#45;&gt;Node6 -->
<g id="edge5_Node000003_Node000006" class="edge">
<title>Node3&#45;&gt;Node6</title>
<g id="a_edge5_Node000003_Node000006"><a xlink:title=" ">
<path fill="none" stroke="#63b8ff" d="M119.98,-58.51C116.45,-51.33 111.74,-41.74 107.53,-33.17"/>
<polygon fill="#63b8ff" stroke="#63b8ff" points="110.31,-31.89 102.76,-24.46 104.02,-34.98 110.31,-31.89"/>
</a>
</g>
</g>
<!-- Node7&#45;&gt;Node5 -->
<g id="edge12_Node000007_Node000005" class="edge">
<title>Node7&#45;&gt;Node5</title>
<g id="a_edge12_Node000007_Node000005"><a xlink:title=" ">
<path fill="none" stroke="#63b8ff" d="M309.08,-61.24C279.88,-52.89 233.53,-39.34 184.99,-23.42"/>
<polygon fill="#63b8ff" stroke="#63b8ff" points="186.2,-19.8 175.61,-19.99 184,-26.45 186.2,-19.8"/>
</a>
</g>
</g>
<!-- Node8 -->
<g id="Node000008" class="node">
<title>Node8</title>
<g id="a_Node000008"><a xlink:title=" ">
<polygon fill="#e0e0e0" stroke="#999999" points="241.88,-23 192.88,-23 192.88,0 241.88,0 241.88,-23"/>
<text text-anchor="middle" x="217.38" y="-9.5" font-family="Helvetica,sans-Serif" font-size="10.00">cassert</text>
</a>
</g>
</g>
<!-- Node7&#45;&gt;Node8 -->
<g id="edge7_Node000007_Node000008" class="edge">
<title>Node7&#45;&gt;Node8</title>
<g id="a_edge7_Node000007_Node000008"><a xlink:title=" ">
<path fill="none" stroke="#63b8ff" d="M315.04,-58.51C296.72,-49.88 270.95,-37.74 250.49,-28.1"/>
<polygon fill="#63b8ff" stroke="#63b8ff" points="252.17,-24.55 241.63,-23.46 249.19,-30.88 252.17,-24.55"/>
</a>
</g>
</g>
<!-- Node9 -->
<g id="Node000009" class="node">
<title>Node9</title>
<g id="a_Node000009"><a xlink:title=" ">
<polygon fill="#e0e0e0" stroke="#999999" points="300.38,-23 260.38,-23 260.38,0 300.38,0 300.38,-23"/>
<text text-anchor="middle" x="280.38" y="-9.5" font-family="Helvetica,sans-Serif" font-size="10.00">bitset</text>
</a>
</g>
</g>
<!-- Node7&#45;&gt;Node9 -->
<g id="edge8_Node000007_Node000009" class="edge">
<title>Node7&#45;&gt;Node9</title>
<g id="a_edge8_Node000007_Node000009"><a xlink:title=" ">
<path fill="none" stroke="#63b8ff" d="M327.19,-58.51C319.25,-50.7 308.39,-40.03 299.13,-30.94"/>
<polygon fill="#63b8ff" stroke="#63b8ff" points="302.11,-28.97 292.52,-24.46 297.2,-33.96 302.11,-28.97"/>
</a>
</g>
</g>
<!-- Node10 -->
<g id="Node000010" class="node">
<title>Node10</title>
<g id="a_Node000010"><a xlink:title=" ">
<polygon fill="#e0e0e0" stroke="#999999" points="358,-23 318.75,-23 318.75,0 358,0 358,-23"/>
<text text-anchor="middle" x="338.38" y="-9.5" font-family="Helvetica,sans-Serif" font-size="10.00">limits</text>
</a>
</g>
</g>
<!-- Node7&#45;&gt;Node10 -->
<g id="edge9_Node000007_Node000010" class="edge">
<title>Node7&#45;&gt;Node10</title>
<g id="a_edge9_Node000007_Node000010"><a xlink:title=" ">
<path fill="none" stroke="#63b8ff" d="M338.38,-58.51C338.38,-51.65 338.38,-42.58 338.38,-34.31"/>
<polygon fill="#63b8ff" stroke="#63b8ff" points="341.88,-34.46 338.38,-24.46 334.88,-34.46 341.88,-34.46"/>
</a>
</g>
</g>
<!-- Node11 -->
<g id="Node000011" class="node">
<title>Node11</title>
<g id="a_Node000011"><a xlink:title=" ">
<polygon fill="#e0e0e0" stroke="#999999" points="421,-23 375.75,-23 375.75,0 421,0 421,-23"/>
<text text-anchor="middle" x="398.38" y="-9.5" font-family="Helvetica,sans-Serif" font-size="10.00">cstdint</text>
</a>
</g>
</g>
<!-- Node7&#45;&gt;Node11 -->
<g id="edge10_Node000007_Node000011" class="edge">
<title>Node7&#45;&gt;Node11</title>
<g id="a_edge10_Node000007_Node000011"><a xlink:title=" ">
<path fill="none" stroke="#63b8ff" d="M349.94,-58.51C358.16,-50.7 369.39,-40.03 378.97,-30.94"/>
<polygon fill="#63b8ff" stroke="#63b8ff" points="381,-33.88 385.84,-24.46 376.18,-28.81 381,-33.88"/>
</a>
</g>
</g>
<!-- Node12 -->
<g id="Node000012" class="node">
<title>Node12</title>
<g id="a_Node000012"><a xlink:title=" ">
<polygon fill="#e0e0e0" stroke="#999999" points="491.38,-23 439.38,-23 439.38,0 491.38,0 491.38,-23"/>
<text text-anchor="middle" x="465.38" y="-9.5" font-family="Helvetica,sans-Serif" font-size="10.00">memory</text>
</a>
</g>
</g>
<!-- Node7&#45;&gt;Node12 -->
<g id="edge11_Node000007_Node000012" class="edge">
<title>Node7&#45;&gt;Node12</title>
<g id="a_edge11_Node000007_Node000012"><a xlink:title=" ">
<path fill="none" stroke="#63b8ff" d="M362.86,-58.51C382.28,-49.8 409.63,-37.52 431.2,-27.84"/>
<polygon fill="#63b8ff" stroke="#63b8ff" points="432.27,-30.74 439.96,-23.46 429.41,-24.36 432.27,-30.74"/>
</a>
</g>
</g>
<!-- Node13 -->
<g id="Node000013" class="node">
<title>Node13</title>
<g id="a_Node000013"><a xlink:title=" ">
<polygon fill="#e0e0e0" stroke="#999999" points="553.25,-23 509.5,-23 509.5,0 553.25,0 553.25,-23"/>
<text text-anchor="middle" x="531.38" y="-9.5" font-family="Helvetica,sans-Serif" font-size="10.00">format</text>
</a>
</g>
</g>
<!-- Node7&#45;&gt;Node13 -->
<g id="edge13_Node000007_Node000013" class="edge">
<title>Node7&#45;&gt;Node13</title>
<g id="a_edge13_Node000007_Node000013"><a xlink:title=" ">
<path fill="none" stroke="#63b8ff" d="M367.76,-61.51C398.28,-53.12 447.63,-39.28 498.81,-23.4"/>
<polygon fill="#63b8ff" stroke="#63b8ff" points="499.56,-26.52 508.06,-20.2 497.48,-19.84 499.56,-26.52"/>
</a>
</g>
</g>
<!-- Node14 -->
<g id="Node000014" class="node">
<title>Node14</title>
<g id="a_Node000014"><a xlink:href="logging_8hpp.html" target="_top" xlink:title=" ">
<polygon fill="white" stroke="#666666" points="657.62,-23 571.12,-23 571.12,0 657.62,0 657.62,-23"/>
<text text-anchor="middle" x="614.38" y="-9.5" font-family="Helvetica,sans-Serif" font-size="10.00">utils/logging.hpp</text>
</a>
</g>
</g>
<!-- Node7&#45;&gt;Node14 -->
<g id="edge14_Node000007_Node000014" class="edge">
<title>Node7&#45;&gt;Node14</title>
<g id="a_edge14_Node000007_Node000014"><a xlink:title=" ">
<path fill="none" stroke="#63b8ff" d="M367.65,-63.45C413.4,-54.01 502.56,-35.59 560.23,-23.68"/>
<polygon fill="#63b8ff" stroke="#63b8ff" points="560.89,-26.91 569.97,-21.46 559.47,-20.06 560.89,-26.91"/>
</a>
</g>
</g>
</g>
</svg>
