<?xml version="1.0" encoding="UTF-8" standalone="no"?>
<!DOCTYPE svg PUBLIC "-//W3C//DTD SVG 1.1//EN"
 "http://www.w3.org/Graphics/SVG/1.1/DTD/svg11.dtd">
<!-- Generated by graphviz version 8.0.5 (20230430.1635)
 -->
<!-- Title: src/alloc/bpool_alloc.hpp Pages: 1 -->
<svg width="461pt" height="105pt"
 viewBox="0.00 0.00 461.38 105.00" xmlns="http://www.w3.org/2000/svg" xmlns:xlink="http://www.w3.org/1999/xlink">
<g id="graph0" class="graph" transform="scale(1 1) rotate(0) translate(4 101)">
<title>src/alloc/bpool_alloc.hpp</title>
<!-- Node1 -->
<g id="Node000001" class="node">
<title>Node1</title>
<g id="a_Node000001"><a xlink:title=" ">
<polygon fill="#999999" stroke="#666666" points="300.88,-97 177.62,-97 177.62,-74 300.88,-74 300.88,-97"/>
<text text-anchor="middle" x="239.25" y="-83.5" font-family="Helvetica,sans-Serif" font-size="10.00">src/alloc/bpool_alloc.hpp</text>
</a>
</g>
</g>
<!-- Node2 -->
<g id="Node000002" class="node">
<title>Node2</title>
<g id="a_Node000002"><a xlink:href="bpool__alloc__gbenchmark_8cpp.html" target="_top" xlink:title=" ">
<polygon fill="white" stroke="#666666" points="104.5,-38 0,-38 0,0 104.5,0 104.5,-38"/>
<text text-anchor="start" x="8" y="-24.5" font-family="Helvetica,sans-Serif" font-size="10.00">src/alloc/bpool_alloc</text>
<text text-anchor="middle" x="52.25" y="-9.5" font-family="Helvetica,sans-Serif" font-size="10.00">_gbenchmark.cpp</text>
</a>
</g>
</g>
<!-- Node1&#45;&gt;Node2 -->
<g id="edge1_Node000001_Node000002" class="edge">
<title>Node1&#45;&gt;Node2</title>
<g id="a_edge1_Node000001_Node000002"><a xlink:title=" ">
<path fill="none" stroke="#63b8ff" d="M197.48,-70.09C170.07,-60.64 134,-48.2 104.67,-38.08"/>
<polygon fill="#63b8ff" stroke="#63b8ff" points="195.93,-73.61 206.53,-73.56 198.22,-66.99 195.93,-73.61"/>
</a>
</g>
</g>
<!-- Node3 -->
<g id="Node000003" class="node">
<title>Node3</title>
<g id="a_Node000003"><a xlink:href="bpool__alloc__gtest_8cpp.html" target="_top" xlink:title=" ">
<polygon fill="white" stroke="#666666" points="227.5,-38 123,-38 123,0 227.5,0 227.5,-38"/>
<text text-anchor="start" x="131" y="-24.5" font-family="Helvetica,sans-Serif" font-size="10.00">src/alloc/bpool_alloc</text>
<text text-anchor="middle" x="175.25" y="-9.5" font-family="Helvetica,sans-Serif" font-size="10.00">_gtest.cpp</text>
</a>
</g>
</g>
<!-- Node1&#45;&gt;Node3 -->
<g id="edge2_Node000001_Node000003" class="edge">
<title>Node1&#45;&gt;Node3</title>
<g id="a_edge2_Node000001_Node000003"><a xlink:title=" ">
<path fill="none" stroke="#63b8ff" d="M220.75,-65.86C212.17,-57.2 201.99,-46.95 193.44,-38.33"/>
<polygon fill="#63b8ff" stroke="#63b8ff" points="217.87,-67.93 227.39,-72.56 222.83,-62.99 217.87,-67.93"/>
</a>
</g>
</g>
<!-- Node4 -->
<g id="Node000004" class="node">
<title>Node4</title>
<g id="a_Node000004"><a xlink:href="slist__gtest_8cpp.html" target="_top" xlink:title=" ">
<polygon fill="white" stroke="#666666" points="363.25,-30.5 245.25,-30.5 245.25,-7.5 363.25,-7.5 363.25,-30.5"/>
<text text-anchor="middle" x="304.25" y="-17" font-family="Helvetica,sans-Serif" font-size="10.00">src/cont/slist_gtest.cpp</text>
</a>
</g>
</g>
<!-- Node1&#45;&gt;Node4 -->
<g id="edge3_Node000001_Node000004" class="edge">
<title>Node1&#45;&gt;Node4</title>
<g id="a_edge3_Node000001_Node000004"><a xlink:title=" ">
<path fill="none" stroke="#63b8ff" d="M258.03,-65.87C269.5,-54.48 283.76,-40.33 293.39,-30.78"/>
<polygon fill="#63b8ff" stroke="#63b8ff" points="255.91,-63.03 251.28,-72.56 260.84,-68 255.91,-63.03"/>
</a>
</g>
</g>
<!-- Node5 -->
<g id="Node000005" class="node">
<title>Node5</title>
<g id="a_Node000005"><a xlink:href="main_8cpp.html" target="_top" xlink:title=" ">
<polygon fill="white" stroke="#666666" points="453.38,-30.5 381.12,-30.5 381.12,-7.5 453.38,-7.5 453.38,-30.5"/>
<text text-anchor="middle" x="417.25" y="-17" font-family="Helvetica,sans-Serif" font-size="10.00">src/main.cpp</text>
</a>
</g>
</g>
<!-- Node1&#45;&gt;Node5 -->
<g id="edge4_Node000001_Node000005" class="edge">
<title>Node1&#45;&gt;Node5</title>
<g id="a_edge4_Node000001_Node000005"><a xlink:title=" ">
<path fill="none" stroke="#63b8ff" d="M282.24,-70.01C308.37,-61.07 342.35,-49.2 372.25,-38 378.24,-35.76 384.64,-33.26 390.68,-30.86"/>
<polygon fill="#63b8ff" stroke="#63b8ff" points="281.25,-66.99 272.92,-73.53 283.51,-73.61 281.25,-66.99"/>
</a>
</g>
</g>
</g>
</svg>
