<?xml version="1.0" encoding="UTF-8" standalone="no"?>
<!DOCTYPE svg PUBLIC "-//W3C//DTD SVG 1.1//EN"
 "http://www.w3.org/Graphics/SVG/1.1/DTD/svg11.dtd">
<!-- Generated by graphviz version 8.0.5 (20230430.1635)
 -->
<!-- Title: src Pages: 1 -->
<svg width="320pt" height="240pt"
 viewBox="0.00 0.00 320.00 240.00" xmlns="http://www.w3.org/2000/svg" xmlns:xlink="http://www.w3.org/1999/xlink">
<g id="graph0" class="graph" transform="scale(1 1) rotate(0) translate(4 236)">
<title>src</title>
<g id="clust1" class="cluster">
<title>clusterdir_68267d1309a1af8e8297ef4c3efbcdba</title>
<g id="a_clust1"><a xlink:href="dir_68267d1309a1af8e8297ef4c3efbcdba.html" target="_top">
<polygon fill="#edf0f7" stroke="#404040" stroke-width="2" points="8,-8 8,-224 304,-224 304,-8 8,-8"/>
</a>
</g>
</g>
<g id="clust2" class="cluster">
<title>clusterdir_4b9d01165433dba703e06bc6af058de1</title>
<g id="a_clust2"><a xlink:href="dir_4b9d01165433dba703e06bc6af058de1.html" target="_top">
<polygon fill="#e9edf5" stroke="#404040" points="100,-59 100,-165 252,-165 252,-59 100,-59"/>
</a>
</g>
</g>
<g id="clust3" class="cluster">
<title>clusterdir_e307ad8ef99ef159cd3a817b3316e956</title>
<g id="a_clust3"><a xlink:href="dir_e307ad8ef99ef159cd3a817b3316e956.html" target="_top">
<polygon fill="#e5e9f3" stroke="#404040" points="132,-67 132,-106 244,-106 244,-67 132,-67"/>
</a>
</g>
</g>
<!-- dir_68267d1309a1af8e8297ef4c3efbcdba -->
<g id="node1" class="node">
<title>dir_68267d1309a1af8e8297ef4c3efbcdba</title>
<text text-anchor="middle" x="55" y="-202.5" font-family="Helvetica,sans-Serif" font-size="10.00">src</text>
</g>
<!-- dir_2e53991d0abfe4d26476f40debcf47e2 -->
<g id="node2" class="node">
<title>dir_2e53991d0abfe4d26476f40debcf47e2</title>
<g id="a_node2"><a xlink:href="dir_2e53991d0abfe4d26476f40debcf47e2.html" target="_top" xlink:title="alloc">
<polygon fill="#e9edf5" stroke="#404040" points="72.12,-98 35.88,-98 35.88,-75 72.12,-75 72.12,-98"/>
<text text-anchor="middle" x="54" y="-84.5" font-family="Helvetica,sans-Serif" font-size="10.00">alloc</text>
</a>
</g>
</g>
<!-- dir_68267d1309a1af8e8297ef4c3efbcdba&#45;&gt;dir_2e53991d0abfe4d26476f40debcf47e2 -->
<g id="edge2" class="edge">
<title>dir_68267d1309a1af8e8297ef4c3efbcdba&#45;&gt;dir_2e53991d0abfe4d26476f40debcf47e2</title>
<path fill="none" stroke="#63b8ff" d="M52.24,-193.13C50.34,-185.43 47.99,-174.64 47,-165 45.04,-145.94 47.4,-124.21 49.9,-108.62"/>
<polygon fill="#63b8ff" stroke="#63b8ff" points="53.47,-109.49 51.76,-99.04 46.58,-108.28 53.47,-109.49"/>
<g id="a_edge2&#45;headlabel"><a xlink:href="dir_000006_000000.html" target="_top" xlink:title="2">
<text text-anchor="middle" x="55.64" y="-110.53" font-family="Helvetica,sans-Serif" font-size="10.00" fill="#63b8ff">2</text>
</a>
</g>
</g>
<!-- dir_6a31b2397dc4c9d870dd3b4cb40afb8c -->
<g id="node3" class="node">
<title>dir_6a31b2397dc4c9d870dd3b4cb40afb8c</title>
<g id="a_node3"><a xlink:href="dir_6a31b2397dc4c9d870dd3b4cb40afb8c.html" target="_top" xlink:title="args">
<polygon fill="#e9edf5" stroke="#404040" points="296.38,-157 261.62,-157 261.62,-134 296.38,-134 296.38,-157"/>
<text text-anchor="middle" x="279" y="-143.5" font-family="Helvetica,sans-Serif" font-size="10.00">args</text>
</a>
</g>
</g>
<!-- dir_68267d1309a1af8e8297ef4c3efbcdba&#45;&gt;dir_6a31b2397dc4c9d870dd3b4cb40afb8c -->
<g id="edge4" class="edge">
<title>dir_68267d1309a1af8e8297ef4c3efbcdba&#45;&gt;dir_6a31b2397dc4c9d870dd3b4cb40afb8c</title>
<path fill="none" stroke="#63b8ff" d="M69.62,-203.1C103.81,-201.65 191.02,-195.06 256,-165 256.9,-164.59 257.79,-164.13 258.67,-163.64"/>
<polygon fill="#63b8ff" stroke="#63b8ff" points="260.33,-166.06 266.57,-157.5 256.35,-160.29 260.33,-166.06"/>
<g id="a_edge4&#45;headlabel"><a xlink:href="dir_000006_000001.html" target="_top" xlink:title="1">
<text text-anchor="middle" x="259.98" y="-168.43" font-family="Helvetica,sans-Serif" font-size="10.00" fill="#63b8ff">1</text>
</a>
</g>
</g>
<!-- dir_0623da0befcaef9bf33d5cada14fe376 -->
<g id="node4" class="node">
<title>dir_0623da0befcaef9bf33d5cada14fe376</title>
<g id="a_node4"><a xlink:href="dir_0623da0befcaef9bf33d5cada14fe376.html" target="_top" xlink:title="cont">
<polygon fill="#e9edf5" stroke="#404040" points="90.38,-157 55.62,-157 55.62,-134 90.38,-134 90.38,-157"/>
<text text-anchor="middle" x="73" y="-143.5" font-family="Helvetica,sans-Serif" font-size="10.00">cont</text>
</a>
</g>
</g>
<!-- dir_68267d1309a1af8e8297ef4c3efbcdba&#45;&gt;dir_0623da0befcaef9bf33d5cada14fe376 -->
<g id="edge1" class="edge">
<title>dir_68267d1309a1af8e8297ef4c3efbcdba&#45;&gt;dir_0623da0befcaef9bf33d5cada14fe376</title>
<path fill="none" stroke="#63b8ff" d="M58.3,-193.05C60.56,-185.9 63.62,-176.2 66.37,-167.49"/>
<polygon fill="#63b8ff" stroke="#63b8ff" points="69.92,-168.87 69.6,-158.28 63.25,-166.76 69.92,-168.87"/>
<g id="a_edge1&#45;headlabel"><a xlink:href="dir_000006_000002.html" target="_top" xlink:title="1">
<text text-anchor="middle" x="71.55" y="-170.15" font-family="Helvetica,sans-Serif" font-size="10.00" fill="#63b8ff">1</text>
</a>
</g>
</g>
<!-- dir_313caf1132e152dd9b58bea13a4052ca -->
<g id="node10" class="node">
<title>dir_313caf1132e152dd9b58bea13a4052ca</title>
<g id="a_node10"><a xlink:href="dir_313caf1132e152dd9b58bea13a4052ca.html" target="_top" xlink:title="utils">
<polygon fill="#e9edf5" stroke="#404040" points="71,-39 37,-39 37,-16 71,-16 71,-39"/>
<text text-anchor="middle" x="54" y="-25.5" font-family="Helvetica,sans-Serif" font-size="10.00">utils</text>
</a>
</g>
</g>
<!-- dir_68267d1309a1af8e8297ef4c3efbcdba&#45;&gt;dir_313caf1132e152dd9b58bea13a4052ca -->
<g id="edge3" class="edge">
<title>dir_68267d1309a1af8e8297ef4c3efbcdba&#45;&gt;dir_313caf1132e152dd9b58bea13a4052ca</title>
<path fill="none" stroke="#63b8ff" d="M49.16,-193.01C36.44,-168.72 8.8,-107.03 27,-59 28.56,-54.88 30.97,-50.95 33.71,-47.38"/>
<polygon fill="#63b8ff" stroke="#63b8ff" points="35.88,-50.07 39.93,-40.28 30.66,-45.41 35.88,-50.07"/>
<g id="a_edge3&#45;headlabel"><a xlink:href="dir_000006_000009.html" target="_top" xlink:title="7">
<text text-anchor="middle" x="36.61" y="-51.65" font-family="Helvetica,sans-Serif" font-size="10.00" fill="#63b8ff">7</text>
</a>
</g>
</g>
<!-- dir_2e53991d0abfe4d26476f40debcf47e2&#45;&gt;dir_313caf1132e152dd9b58bea13a4052ca -->
<g id="edge5" class="edge">
<title>dir_2e53991d0abfe4d26476f40debcf47e2&#45;&gt;dir_313caf1132e152dd9b58bea13a4052ca</title>
<path fill="none" stroke="#63b8ff" d="M54,-74.51C54,-67.65 54,-58.58 54,-50.31"/>
<polygon fill="#63b8ff" stroke="#63b8ff" points="57.5,-50.46 54,-40.46 50.5,-50.46 57.5,-50.46"/>
<g id="a_edge5&#45;headlabel"><a xlink:href="dir_000000_000009.html" target="_top" xlink:title="3">
<text text-anchor="middle" x="60.34" y="-51.05" font-family="Helvetica,sans-Serif" font-size="10.00" fill="#63b8ff">3</text>
</a>
</g>
</g>
<!-- dir_55243687adda8a5165b7d7e63c20f3e3 -->
<g id="node7" class="node">
<title>dir_55243687adda8a5165b7d7e63c20f3e3</title>
<g id="a_node7"><a xlink:href="dir_55243687adda8a5165b7d7e63c20f3e3.html" target="_top" xlink:title="info">
<polygon fill="#e1e7f2" stroke="#404040" points="171.88,-98 140.12,-98 140.12,-75 171.88,-75 171.88,-98"/>
<text text-anchor="middle" x="156" y="-84.5" font-family="Helvetica,sans-Serif" font-size="10.00">info</text>
</a>
</g>
</g>
<!-- dir_6a31b2397dc4c9d870dd3b4cb40afb8c&#45;&gt;dir_55243687adda8a5165b7d7e63c20f3e3 -->
<g id="edge6" class="edge">
<title>dir_6a31b2397dc4c9d870dd3b4cb40afb8c&#45;&gt;dir_55243687adda8a5165b7d7e63c20f3e3</title>
<path fill="none" stroke="#63b8ff" d="M261.22,-136.23C259.47,-135.46 257.7,-134.71 256,-134 223.13,-120.38 212.27,-122.97 181,-106 180.13,-105.53 179.25,-105.03 178.38,-104.5"/>
<polygon fill="#63b8ff" stroke="#63b8ff" points="180.55,-101.07 170.29,-98.4 176.64,-106.88 180.55,-101.07"/>
<g id="a_edge6&#45;headlabel"><a xlink:href="dir_000001_000005.html" target="_top" xlink:title="1">
<text text-anchor="middle" x="184.11" y="-98.72" font-family="Helvetica,sans-Serif" font-size="10.00" fill="#63b8ff">1</text>
</a>
</g>
</g>
<!-- dir_0623da0befcaef9bf33d5cada14fe376&#45;&gt;dir_2e53991d0abfe4d26476f40debcf47e2 -->
<g id="edge7" class="edge">
<title>dir_0623da0befcaef9bf33d5cada14fe376&#45;&gt;dir_2e53991d0abfe4d26476f40debcf47e2</title>
<path fill="none" stroke="#63b8ff" d="M69.34,-133.51C67,-126.49 63.89,-117.16 61.08,-108.74"/>
<polygon fill="#63b8ff" stroke="#63b8ff" points="64.13,-107.84 57.65,-99.46 57.49,-110.05 64.13,-107.84"/>
<g id="a_edge7&#45;headlabel"><a xlink:href="dir_000002_000000.html" target="_top" xlink:title="1">
<text text-anchor="middle" x="67.97" y="-107.35" font-family="Helvetica,sans-Serif" font-size="10.00" fill="#63b8ff">1</text>
</a>
</g>
</g>
<!-- dir_0623da0befcaef9bf33d5cada14fe376&#45;&gt;dir_313caf1132e152dd9b58bea13a4052ca -->
<g id="edge8" class="edge">
<title>dir_0623da0befcaef9bf33d5cada14fe376&#45;&gt;dir_313caf1132e152dd9b58bea13a4052ca</title>
<path fill="none" stroke="#63b8ff" d="M77.03,-133.56C82.52,-116.88 90.62,-84.37 81,-59 79.44,-54.88 77.03,-50.95 74.29,-47.38"/>
<polygon fill="#63b8ff" stroke="#63b8ff" points="77.34,-45.41 68.07,-40.28 72.12,-50.07 77.34,-45.41"/>
<g id="a_edge8&#45;headlabel"><a xlink:href="dir_000002_000009.html" target="_top" xlink:title="1">
<text text-anchor="middle" x="80.85" y="-43.2" font-family="Helvetica,sans-Serif" font-size="10.00" fill="#63b8ff">1</text>
</a>
</g>
</g>
<!-- dir_4b9d01165433dba703e06bc6af058de1 -->
<g id="node5" class="node">
<title>dir_4b9d01165433dba703e06bc6af058de1</title>
<text text-anchor="middle" x="228" y="-143.5" font-family="Helvetica,sans-Serif" font-size="10.00">info</text>
</g>
<!-- dir_e307ad8ef99ef159cd3a817b3316e956 -->
<g id="node6" class="node">
<title>dir_e307ad8ef99ef159cd3a817b3316e956</title>
<text text-anchor="middle" x="213" y="-84.5" font-family="Helvetica,sans-Serif" font-size="10.00">include</text>
</g>
<!-- dir_5a39514f9f31a40f7d76cd75ab81b250 -->
<g id="node8" class="node">
<title>dir_5a39514f9f31a40f7d76cd75ab81b250</title>
<g id="a_node8"><a xlink:href="dir_5a39514f9f31a40f7d76cd75ab81b250.html" target="_top" xlink:title="src">
<polygon fill="#e5e9f3" stroke="#404040" points="193.75,-157 164.25,-157 164.25,-134 193.75,-134 193.75,-157"/>
<text text-anchor="middle" x="179" y="-143.5" font-family="Helvetica,sans-Serif" font-size="10.00">src</text>
</a>
</g>
</g>
<!-- dir_5a39514f9f31a40f7d76cd75ab81b250&#45;&gt;dir_55243687adda8a5165b7d7e63c20f3e3 -->
<g id="edge9" class="edge">
<title>dir_5a39514f9f31a40f7d76cd75ab81b250&#45;&gt;dir_55243687adda8a5165b7d7e63c20f3e3</title>
<path fill="none" stroke="#63b8ff" d="M174.57,-133.51C171.7,-126.41 167.88,-116.95 164.45,-108.45"/>
<polygon fill="#63b8ff" stroke="#63b8ff" points="167.41,-107.42 160.42,-99.46 160.92,-110.04 167.41,-107.42"/>
<g id="a_edge9&#45;headlabel"><a xlink:href="dir_000007_000005.html" target="_top" xlink:title="1">
<text text-anchor="middle" x="171.39" y="-106.69" font-family="Helvetica,sans-Serif" font-size="10.00" fill="#63b8ff">1</text>
</a>
</g>
</g>
<!-- dir_7d3730c0e184c233f92515fc7143aa77 -->
<g id="node9" class="node">
<title>dir_7d3730c0e184c233f92515fc7143aa77</title>
<g id="a_node9"><a xlink:href="dir_7d3730c0e184c233f92515fc7143aa77.html" target="_top" xlink:title="tests">
<polygon fill="#e5e9f3" stroke="#404040" points="145.88,-157 108.12,-157 108.12,-134 145.88,-134 145.88,-157"/>
<text text-anchor="middle" x="127" y="-143.5" font-family="Helvetica,sans-Serif" font-size="10.00">tests</text>
</a>
</g>
</g>
<!-- dir_7d3730c0e184c233f92515fc7143aa77&#45;&gt;dir_55243687adda8a5165b7d7e63c20f3e3 -->
<g id="edge10" class="edge">
<title>dir_7d3730c0e184c233f92515fc7143aa77&#45;&gt;dir_55243687adda8a5165b7d7e63c20f3e3</title>
<path fill="none" stroke="#63b8ff" d="M132.59,-133.51C136.24,-126.33 141.12,-116.74 145.48,-108.17"/>
<polygon fill="#63b8ff" stroke="#63b8ff" points="149.01,-109.96 150.43,-99.46 142.77,-106.78 149.01,-109.96"/>
<g id="a_edge10&#45;headlabel"><a xlink:href="dir_000008_000005.html" target="_top" xlink:title="1">
<text text-anchor="middle" x="149.91" y="-111.45" font-family="Helvetica,sans-Serif" font-size="10.00" fill="#63b8ff">1</text>
</a>
</g>
</g>
</g>
</svg>
