<?xml version="1.0" encoding="UTF-8" standalone="no"?>
<!DOCTYPE svg PUBLIC "-//W3C//DTD SVG 1.1//EN"
 "http://www.w3.org/Graphics/SVG/1.1/DTD/svg11.dtd">
<!-- Generated by graphviz version 8.0.5 (20230430.1635)
 -->
<!-- Title: Graphical Class Hierarchy Pages: 1 -->
<svg width="250pt" height="102pt"
 viewBox="0.00 0.00 250.00 102.00" xmlns="http://www.w3.org/2000/svg" xmlns:xlink="http://www.w3.org/1999/xlink">
<g id="graph0" class="graph" transform="scale(1 1) rotate(0) translate(4 98)">
<title>Graphical Class Hierarchy</title>
<!-- Node0 -->
<g id="Node000000" class="node">
<title>Node0</title>
<g id="a_Node000000"><a xlink:href="structcont_1_1slist__details_1_1node__base.html" target="_top" xlink:title=" ">
<polygon fill="white" stroke="#666666" points="98.5,-66 0,-66 0,-28 98.5,-28 98.5,-66"/>
<text text-anchor="start" x="8" y="-52.5" font-family="Helvetica,sans-Serif" font-size="10.00">cont::slist_details</text>
<text text-anchor="middle" x="49.25" y="-37.5" font-family="Helvetica,sans-Serif" font-size="10.00">::node_base&lt; Tp &gt;</text>
</a>
</g>
</g>
<!-- Node1 -->
<g id="Node000001" class="node">
<title>Node1</title>
<g id="a_Node000001"><a xlink:href="structcont_1_1slist__details_1_1node.html" target="_top" xlink:title=" ">
<polygon fill="white" stroke="#666666" points="242,-94 134.5,-94 134.5,-56 242,-56 242,-94"/>
<text text-anchor="start" x="142.5" y="-80.5" font-family="Helvetica,sans-Serif" font-size="10.00">cont::slist_details</text>
<text text-anchor="middle" x="188.25" y="-65.5" font-family="Helvetica,sans-Serif" font-size="10.00">::node&lt; value_type &gt;</text>
</a>
</g>
</g>
<!-- Node0&#45;&gt;Node1 -->
<g id="edge3_Node000000_Node000001" class="edge">
<title>Node0&#45;&gt;Node1</title>
<g id="a_edge3_Node000000_Node000001"><a xlink:title=" ">
<path fill="none" stroke="#63b8ff" d="M109.52,-59.11C117.69,-60.78 126.03,-62.49 134.07,-64.13"/>
<polygon fill="#63b8ff" stroke="#63b8ff" points="110.44,-55.52 99.94,-56.95 109.03,-62.38 110.44,-55.52"/>
</a>
</g>
</g>
<!-- Node2 -->
<g id="Node000002" class="node">
<title>Node2</title>
<g id="a_Node000002"><a xlink:href="structcont_1_1slist__details_1_1node.html" target="_top" xlink:title=" ">
<polygon fill="white" stroke="#666666" points="234.12,-38 142.38,-38 142.38,0 234.12,0 234.12,-38"/>
<text text-anchor="start" x="150.38" y="-24.5" font-family="Helvetica,sans-Serif" font-size="10.00">cont::slist_details</text>
<text text-anchor="middle" x="188.25" y="-9.5" font-family="Helvetica,sans-Serif" font-size="10.00">::node&lt; Tp &gt;</text>
</a>
</g>
</g>
<!-- Node0&#45;&gt;Node2 -->
<g id="edge4_Node000000_Node000002" class="edge">
<title>Node0&#45;&gt;Node2</title>
<g id="a_edge4_Node000000_Node000002"><a xlink:title=" ">
<path fill="none" stroke="#63b8ff" d="M109.62,-34.87C120.45,-32.65 131.59,-30.38 141.93,-28.26"/>
<polygon fill="#63b8ff" stroke="#63b8ff" points="109.03,-31.62 99.94,-37.05 110.44,-38.48 109.03,-31.62"/>
</a>
</g>
</g>
</g>
</svg>
