<?xml version="1.0" encoding="UTF-8" standalone="no"?>
<!DOCTYPE svg PUBLIC "-//W3C//DTD SVG 1.1//EN"
 "http://www.w3.org/Graphics/SVG/1.1/DTD/svg11.dtd">
<!-- Generated by graphviz version 8.0.5 (20230430.1635)
 -->
<!-- Title: Graphical Class Hierarchy Pages: 1 -->
<svg width="276pt" height="102pt"
 viewBox="0.00 0.00 275.50 102.00" xmlns="http://www.w3.org/2000/svg" xmlns:xlink="http://www.w3.org/1999/xlink">
<g id="graph0" class="graph" transform="scale(1 1) rotate(0) translate(4 98)">
<title>Graphical Class Hierarchy</title>
<!-- Node0 -->
<g id="Node000000" class="node">
<title>Node0</title>
<g id="a_Node000000"><a xlink:title=" ">
<polygon fill="#e0e0e0" stroke="#999999" points="109.75,-58.5 0,-58.5 0,-35.5 109.75,-35.5 109.75,-58.5"/>
<text text-anchor="middle" x="54.88" y="-45" font-family="Helvetica,sans-Serif" font-size="10.00">std::integral_constant</text>
</a>
</g>
</g>
<!-- Node1 -->
<g id="Node000001" class="node">
<title>Node1</title>
<g id="a_Node000001"><a xlink:href="structanonymous__namespace_02main_8cpp_03_1_1fact.html" target="_top" xlink:title=" ">
<polygon fill="white" stroke="#666666" points="267.5,-94 145.75,-94 145.75,-56 267.5,-56 267.5,-94"/>
<text text-anchor="start" x="153.75" y="-80.5" font-family="Helvetica,sans-Serif" font-size="10.00">anonymous_namespace</text>
<text text-anchor="middle" x="206.62" y="-65.5" font-family="Helvetica,sans-Serif" font-size="10.00">{main.cpp}::fact&lt; N &gt;</text>
</a>
</g>
</g>
<!-- Node0&#45;&gt;Node1 -->
<g id="edge5_Node000000_Node000001" class="edge">
<title>Node0&#45;&gt;Node1</title>
<g id="a_edge5_Node000000_Node000001"><a xlink:title=" ">
<path fill="none" stroke="#63b8ff" d="M120.59,-59.1C128.8,-60.63 137.16,-62.2 145.3,-63.72"/>
<polygon fill="#63b8ff" stroke="#63b8ff" points="121.41,-55.51 110.94,-57.11 120.12,-62.39 121.41,-55.51"/>
</a>
</g>
</g>
<!-- Node2 -->
<g id="Node000002" class="node">
<title>Node2</title>
<g id="a_Node000002"><a xlink:href="structanonymous__namespace_02main_8cpp_03_1_1fact_3_010_01_4.html" target="_top" xlink:title=" ">
<polygon fill="white" stroke="#666666" points="267.5,-38 145.75,-38 145.75,0 267.5,0 267.5,-38"/>
<text text-anchor="start" x="153.75" y="-24.5" font-family="Helvetica,sans-Serif" font-size="10.00">anonymous_namespace</text>
<text text-anchor="middle" x="206.62" y="-9.5" font-family="Helvetica,sans-Serif" font-size="10.00">{main.cpp}::fact&lt; 0 &gt;</text>
</a>
</g>
</g>
<!-- Node0&#45;&gt;Node2 -->
<g id="edge6_Node000000_Node000002" class="edge">
<title>Node0&#45;&gt;Node2</title>
<g id="a_edge6_Node000000_Node000002"><a xlink:title=" ">
<path fill="none" stroke="#63b8ff" d="M120.59,-34.9C128.8,-33.37 137.16,-31.8 145.3,-30.28"/>
<polygon fill="#63b8ff" stroke="#63b8ff" points="120.12,-31.61 110.94,-36.89 121.41,-38.49 120.12,-31.61"/>
</a>
</g>
</g>
</g>
</svg>
