<?xml version="1.0" encoding="UTF-8" standalone="no"?>
<!DOCTYPE svg PUBLIC "-//W3C//DTD SVG 1.1//EN"
 "http://www.w3.org/Graphics/SVG/1.1/DTD/svg11.dtd">
<!-- Generated by graphviz version 8.0.5 (20230430.1635)
 -->
<!-- Title: src/utils/logging.hpp Pages: 1 -->
<svg width="502pt" height="223pt"
 viewBox="0.00 0.00 502.06 223.00" xmlns="http://www.w3.org/2000/svg" xmlns:xlink="http://www.w3.org/1999/xlink">
<g id="graph0" class="graph" transform="scale(1 1) rotate(0) translate(4 219)">
<title>src/utils/logging.hpp</title>
<!-- Node1 -->
<g id="Node000001" class="node">
<title>Node1</title>
<g id="a_Node000001"><a xlink:title=" ">
<polygon fill="#999999" stroke="#666666" points="424.75,-215 321.75,-215 321.75,-192 424.75,-192 424.75,-215"/>
<text text-anchor="middle" x="373.25" y="-201.5" font-family="Helvetica,sans-Serif" font-size="10.00">src/utils/logging.hpp</text>
</a>
</g>
</g>
<!-- Node2 -->
<g id="Node000002" class="node">
<title>Node2</title>
<g id="a_Node000002"><a xlink:href="bpool_8hpp.html" target="_top" xlink:title=" ">
<polygon fill="white" stroke="#666666" points="359.12,-156 261.38,-156 261.38,-133 359.12,-133 359.12,-156"/>
<text text-anchor="middle" x="310.25" y="-142.5" font-family="Helvetica,sans-Serif" font-size="10.00">src/alloc/bpool.hpp</text>
</a>
</g>
</g>
<!-- Node1&#45;&gt;Node2 -->
<g id="edge1_Node000001_Node000002" class="edge">
<title>Node1&#45;&gt;Node2</title>
<g id="a_edge1_Node000001_Node000002"><a xlink:title=" ">
<path fill="none" stroke="#63b8ff" d="M353.13,-184.3C343.01,-175.14 331.07,-164.33 322.36,-156.46"/>
<polygon fill="#63b8ff" stroke="#63b8ff" points="350.34,-186.4 360.1,-190.51 355.04,-181.21 350.34,-186.4"/>
</a>
</g>
</g>
<!-- Node3 -->
<g id="Node000003" class="node">
<title>Node3</title>
<g id="a_Node000003"><a xlink:href="bpool__alloc_8hpp.html" target="_top" xlink:title=" ">
<polygon fill="white" stroke="#666666" points="229.88,-97 106.62,-97 106.62,-74 229.88,-74 229.88,-97"/>
<text text-anchor="middle" x="168.25" y="-83.5" font-family="Helvetica,sans-Serif" font-size="10.00">src/alloc/bpool_alloc.hpp</text>
</a>
</g>
</g>
<!-- Node1&#45;&gt;Node3 -->
<g id="edge8_Node000001_Node000003" class="edge">
<title>Node1&#45;&gt;Node3</title>
<g id="a_edge8_Node000001_Node000003"><a xlink:title=" ">
<path fill="none" stroke="#63b8ff" d="M325.37,-188.12C302.44,-180.24 275.08,-169.35 252.25,-156 223.33,-139.09 194.24,-112.34 179.05,-97.44"/>
<polygon fill="#63b8ff" stroke="#63b8ff" points="323.97,-191.67 334.56,-191.52 326.18,-185.03 323.97,-191.67"/>
</a>
</g>
</g>
<!-- Node7 -->
<g id="Node000007" class="node">
<title>Node7</title>
<g id="a_Node000007"><a xlink:href="main_8cpp.html" target="_top" xlink:title=" ">
<polygon fill="white" stroke="#666666" points="472.38,-30.5 400.12,-30.5 400.12,-7.5 472.38,-7.5 472.38,-30.5"/>
<text text-anchor="middle" x="436.25" y="-17" font-family="Helvetica,sans-Serif" font-size="10.00">src/main.cpp</text>
</a>
</g>
</g>
<!-- Node1&#45;&gt;Node7 -->
<g id="edge12_Node000001_Node000007" class="edge">
<title>Node1&#45;&gt;Node7</title>
<g id="a_edge12_Node000001_Node000007"><a xlink:title=" ">
<path fill="none" stroke="#63b8ff" d="M403.05,-186.03C431.73,-168.28 473.3,-137.12 491.25,-97 502.86,-71.06 473.66,-45.01 453.51,-30.85"/>
<polygon fill="#63b8ff" stroke="#63b8ff" points="401.66,-183.38 394.88,-191.52 405.25,-189.39 401.66,-183.38"/>
</a>
</g>
</g>
<!-- Node9 -->
<g id="Node000009" class="node">
<title>Node9</title>
<g id="a_Node000009"><a xlink:href="slist_8hpp.html" target="_top" xlink:title=" ">
<polygon fill="white" stroke="#666666" points="481.75,-97 390.75,-97 390.75,-74 481.75,-74 481.75,-97"/>
<text text-anchor="middle" x="436.25" y="-83.5" font-family="Helvetica,sans-Serif" font-size="10.00">src/cont/slist.hpp</text>
</a>
</g>
</g>
<!-- Node1&#45;&gt;Node9 -->
<g id="edge9_Node000001_Node000009" class="edge">
<title>Node1&#45;&gt;Node9</title>
<g id="a_edge9_Node000001_Node000009"><a xlink:title=" ">
<path fill="none" stroke="#63b8ff" d="M384.23,-182.29C397.67,-157.53 419.96,-116.5 430.45,-97.18"/>
<polygon fill="#63b8ff" stroke="#63b8ff" points="380.76,-180.34 379.06,-190.79 386.91,-183.68 380.76,-180.34"/>
</a>
</g>
</g>
<!-- Node2&#45;&gt;Node3 -->
<g id="edge2_Node000002_Node000003" class="edge">
<title>Node2&#45;&gt;Node3</title>
<g id="a_edge2_Node000002_Node000003"><a xlink:title=" ">
<path fill="none" stroke="#63b8ff" d="M272.93,-128.52C248.65,-118.77 217.52,-106.28 195.54,-97.46"/>
<polygon fill="#63b8ff" stroke="#63b8ff" points="271.29,-132.03 281.87,-132.51 273.89,-125.54 271.29,-132.03"/>
</a>
</g>
</g>
<!-- Node8 -->
<g id="Node000008" class="node">
<title>Node8</title>
<g id="a_Node000008"><a xlink:href="bpool__gtest_8cpp.html" target="_top" xlink:title=" ">
<polygon fill="white" stroke="#666666" points="372.62,-97 247.88,-97 247.88,-74 372.62,-74 372.62,-97"/>
<text text-anchor="middle" x="310.25" y="-83.5" font-family="Helvetica,sans-Serif" font-size="10.00">src/alloc/bpool_gtest.cpp</text>
</a>
</g>
</g>
<!-- Node2&#45;&gt;Node8 -->
<g id="edge7_Node000002_Node000008" class="edge">
<title>Node2&#45;&gt;Node8</title>
<g id="a_edge7_Node000002_Node000008"><a xlink:title=" ">
<path fill="none" stroke="#63b8ff" d="M310.25,-121.65C310.25,-113.38 310.25,-104.31 310.25,-97.46"/>
<polygon fill="#63b8ff" stroke="#63b8ff" points="306.75,-121.51 310.25,-131.51 313.75,-121.51 306.75,-121.51"/>
</a>
</g>
</g>
<!-- Node4 -->
<g id="Node000004" class="node">
<title>Node4</title>
<g id="a_Node000004"><a xlink:href="bpool__alloc__gbenchmark_8cpp.html" target="_top" xlink:title=" ">
<polygon fill="white" stroke="#666666" points="104.5,-38 0,-38 0,0 104.5,0 104.5,-38"/>
<text text-anchor="start" x="8" y="-24.5" font-family="Helvetica,sans-Serif" font-size="10.00">src/alloc/bpool_alloc</text>
<text text-anchor="middle" x="52.25" y="-9.5" font-family="Helvetica,sans-Serif" font-size="10.00">_gbenchmark.cpp</text>
</a>
</g>
</g>
<!-- Node3&#45;&gt;Node4 -->
<g id="edge3_Node000003_Node000004" class="edge">
<title>Node3&#45;&gt;Node4</title>
<g id="a_edge3_Node000003_Node000004"><a xlink:title=" ">
<path fill="none" stroke="#63b8ff" d="M138.98,-68.22C122.61,-59.12 102.16,-47.75 85.22,-38.33"/>
<polygon fill="#63b8ff" stroke="#63b8ff" points="137.13,-71.76 147.57,-73.56 140.53,-65.64 137.13,-71.76"/>
</a>
</g>
</g>
<!-- Node5 -->
<g id="Node000005" class="node">
<title>Node5</title>
<g id="a_Node000005"><a xlink:href="bpool__alloc__gtest_8cpp.html" target="_top" xlink:title=" ">
<polygon fill="white" stroke="#666666" points="227.5,-38 123,-38 123,0 227.5,0 227.5,-38"/>
<text text-anchor="start" x="131" y="-24.5" font-family="Helvetica,sans-Serif" font-size="10.00">src/alloc/bpool_alloc</text>
<text text-anchor="middle" x="175.25" y="-9.5" font-family="Helvetica,sans-Serif" font-size="10.00">_gtest.cpp</text>
</a>
</g>
</g>
<!-- Node3&#45;&gt;Node5 -->
<g id="edge4_Node000003_Node000005" class="edge">
<title>Node3&#45;&gt;Node5</title>
<g id="a_edge4_Node000003_Node000005"><a xlink:title=" ">
<path fill="none" stroke="#63b8ff" d="M170.6,-62.86C171.46,-54.9 172.43,-45.97 173.26,-38.33"/>
<polygon fill="#63b8ff" stroke="#63b8ff" points="167.04,-62.24 169.44,-72.56 174,-62.99 167.04,-62.24"/>
</a>
</g>
</g>
<!-- Node6 -->
<g id="Node000006" class="node">
<title>Node6</title>
<g id="a_Node000006"><a xlink:href="slist__gtest_8cpp.html" target="_top" xlink:title=" ">
<polygon fill="white" stroke="#666666" points="376.25,-30.5 258.25,-30.5 258.25,-7.5 376.25,-7.5 376.25,-30.5"/>
<text text-anchor="middle" x="317.25" y="-17" font-family="Helvetica,sans-Serif" font-size="10.00">src/cont/slist_gtest.cpp</text>
</a>
</g>
</g>
<!-- Node3&#45;&gt;Node6 -->
<g id="edge5_Node000003_Node000006" class="edge">
<title>Node3&#45;&gt;Node6</title>
<g id="a_edge5_Node000003_Node000006"><a xlink:title=" ">
<path fill="none" stroke="#63b8ff" d="M203.41,-69.28C230.57,-57.52 267.51,-41.53 291.85,-31"/>
<polygon fill="#63b8ff" stroke="#63b8ff" points="202.31,-66.37 194.53,-73.56 205.09,-72.8 202.31,-66.37"/>
</a>
</g>
</g>
<!-- Node3&#45;&gt;Node7 -->
<g id="edge6_Node000003_Node000007" class="edge">
<title>Node3&#45;&gt;Node7</title>
<g id="a_edge6_Node000003_Node000007"><a xlink:title=" ">
<path fill="none" stroke="#63b8ff" d="M240.1,-71.51C282.64,-63.22 337.39,-51.51 385.25,-38 392.48,-35.96 400.17,-33.44 407.33,-30.93"/>
<polygon fill="#63b8ff" stroke="#63b8ff" points="239.72,-68.21 230.56,-73.54 241.04,-75.08 239.72,-68.21"/>
</a>
</g>
</g>
<!-- Node9&#45;&gt;Node6 -->
<g id="edge10_Node000009_Node000006" class="edge">
<title>Node9&#45;&gt;Node6</title>
<g id="a_edge10_Node000009_Node000006"><a xlink:title=" ">
<path fill="none" stroke="#63b8ff" d="M406.43,-68.34C384.93,-56.68 356.46,-41.25 337.54,-31"/>
<polygon fill="#63b8ff" stroke="#63b8ff" points="404.6,-71.87 415.06,-73.56 407.94,-65.72 404.6,-71.87"/>
</a>
</g>
</g>
<!-- Node9&#45;&gt;Node7 -->
<g id="edge11_Node000009_Node000007" class="edge">
<title>Node9&#45;&gt;Node7</title>
<g id="a_edge11_Node000009_Node000007"><a xlink:title=" ">
<path fill="none" stroke="#63b8ff" d="M436.25,-62.82C436.25,-52.05 436.25,-39.5 436.25,-30.78"/>
<polygon fill="#63b8ff" stroke="#63b8ff" points="432.75,-62.56 436.25,-72.56 439.75,-62.56 432.75,-62.56"/>
</a>
</g>
</g>
</g>
</svg>
