<?xml version="1.0" encoding="UTF-8" standalone="no"?>
<!DOCTYPE svg PUBLIC "-//W3C//DTD SVG 1.1//EN"
 "http://www.w3.org/Graphics/SVG/1.1/DTD/svg11.dtd">
<!-- Generated by graphviz version 8.0.5 (20230430.1635)
 -->
<!-- Title: src/main.cpp Pages: 1 -->
<svg width="1760pt" height="208pt"
 viewBox="0.00 0.00 1759.54 208.00" xmlns="http://www.w3.org/2000/svg" xmlns:xlink="http://www.w3.org/1999/xlink">
<g id="graph0" class="graph" transform="scale(1 1) rotate(0) translate(4 204)">
<title>src/main.cpp</title>
<!-- Node1 -->
<g id="Node000001" class="node">
<title>Node1</title>
<g id="a_Node000001"><a xlink:title=" ">
<polygon fill="#999999" stroke="#666666" points="807.88,-200 735.62,-200 735.62,-177 807.88,-177 807.88,-200"/>
<text text-anchor="middle" x="771.75" y="-186.5" font-family="Helvetica,sans-Serif" font-size="10.00">src/main.cpp</text>
</a>
</g>
</g>
<!-- Node2 -->
<g id="Node000002" class="node">
<title>Node2</title>
<g id="a_Node000002"><a xlink:title=" ">
<polygon fill="#e0e0e0" stroke="#999999" points="386.5,-23 333,-23 333,0 386.5,0 386.5,-23"/>
<text text-anchor="middle" x="359.75" y="-9.5" font-family="Helvetica,sans-Serif" font-size="10.00">iostream</text>
</a>
</g>
</g>
<!-- Node1&#45;&gt;Node2 -->
<g id="edge1_Node000001_Node000002" class="edge">
<title>Node1&#45;&gt;Node2</title>
<g id="a_edge1_Node000001_Node000002"><a xlink:title=" ">
<path fill="none" stroke="#63b8ff" d="M735.21,-187.71C612.61,-187.53 219.99,-179.24 154.75,-82 114.29,-21.7 251.72,-12.83 321.54,-12.11"/>
<polygon fill="#63b8ff" stroke="#63b8ff" points="321.54,-15.61 331.52,-12.06 321.51,-8.61 321.54,-15.61"/>
</a>
</g>
</g>
<!-- Node3 -->
<g id="Node000003" class="node">
<title>Node3</title>
<g id="a_Node000003"><a xlink:title=" ">
<polygon fill="#e0e0e0" stroke="#999999" points="933.25,-23 884.25,-23 884.25,0 933.25,0 933.25,-23"/>
<text text-anchor="middle" x="908.75" y="-9.5" font-family="Helvetica,sans-Serif" font-size="10.00">cassert</text>
</a>
</g>
</g>
<!-- Node1&#45;&gt;Node3 -->
<g id="edge2_Node000001_Node000003" class="edge">
<title>Node1&#45;&gt;Node3</title>
<g id="a_edge2_Node000001_Node000003"><a xlink:title=" ">
<path fill="none" stroke="#63b8ff" d="M780.32,-176.55C803,-147.58 864.82,-68.61 893.62,-31.83"/>
<polygon fill="#63b8ff" stroke="#63b8ff" points="896.77,-34.47 900.18,-24.44 891.26,-30.16 896.77,-34.47"/>
</a>
</g>
</g>
<!-- Node4 -->
<g id="Node000004" class="node">
<title>Node4</title>
<g id="a_Node000004"><a xlink:title=" ">
<polygon fill="#e0e0e0" stroke="#999999" points="866.38,-23 821.12,-23 821.12,0 866.38,0 866.38,-23"/>
<text text-anchor="middle" x="843.75" y="-9.5" font-family="Helvetica,sans-Serif" font-size="10.00">cstdint</text>
</a>
</g>
</g>
<!-- Node1&#45;&gt;Node4 -->
<g id="edge3_Node000001_Node000004" class="edge">
<title>Node1&#45;&gt;Node4</title>
<g id="a_edge3_Node000001_Node000004"><a xlink:title=" ">
<path fill="none" stroke="#63b8ff" d="M770.81,-176.73C769.3,-153.61 768.38,-98.15 789.75,-59 796.01,-47.53 806.3,-37.6 816.23,-29.9"/>
<polygon fill="#63b8ff" stroke="#63b8ff" points="818.07,-32.17 824.12,-23.48 813.97,-26.5 818.07,-32.17"/>
</a>
</g>
</g>
<!-- Node5 -->
<g id="Node000005" class="node">
<title>Node5</title>
<g id="a_Node000005"><a xlink:title=" ">
<polygon fill="#e0e0e0" stroke="#999999" points="585.62,-141 523.88,-141 523.88,-118 585.62,-118 585.62,-141"/>
<text text-anchor="middle" x="554.75" y="-127.5" font-family="Helvetica,sans-Serif" font-size="10.00">type_traits</text>
</a>
</g>
</g>
<!-- Node1&#45;&gt;Node5 -->
<g id="edge4_Node000001_Node000005" class="edge">
<title>Node1&#45;&gt;Node5</title>
<g id="a_edge4_Node000001_Node000005"><a xlink:title=" ">
<path fill="none" stroke="#63b8ff" d="M735.43,-177.96C697.08,-167.89 636.71,-152.03 596.44,-141.45"/>
<polygon fill="#63b8ff" stroke="#63b8ff" points="597.47,-137.84 586.9,-138.68 595.69,-144.61 597.47,-137.84"/>
</a>
</g>
</g>
<!-- Node6 -->
<g id="Node000006" class="node">
<title>Node6</title>
<g id="a_Node000006"><a xlink:title=" ">
<polygon fill="#e0e0e0" stroke="#999999" points="638.12,-141 603.38,-141 603.38,-118 638.12,-118 638.12,-141"/>
<text text-anchor="middle" x="620.75" y="-127.5" font-family="Helvetica,sans-Serif" font-size="10.00">map</text>
</a>
</g>
</g>
<!-- Node1&#45;&gt;Node6 -->
<g id="edge5_Node000001_Node000006" class="edge">
<title>Node1&#45;&gt;Node6</title>
<g id="a_edge5_Node000001_Node000006"><a xlink:title=" ">
<path fill="none" stroke="#63b8ff" d="M742.64,-176.51C715.52,-166.27 675.37,-151.12 648.65,-141.03"/>
<polygon fill="#63b8ff" stroke="#63b8ff" points="650.03,-137.44 639.44,-137.18 647.56,-143.98 650.03,-137.44"/>
</a>
</g>
</g>
<!-- Node7 -->
<g id="Node000007" class="node">
<title>Node7</title>
<g id="a_Node000007"><a xlink:title=" ">
<polygon fill="#e0e0e0" stroke="#999999" points="1395.38,-82 1356.12,-82 1356.12,-59 1395.38,-59 1395.38,-82"/>
<text text-anchor="middle" x="1375.75" y="-68.5" font-family="Helvetica,sans-Serif" font-size="10.00">utility</text>
</a>
</g>
</g>
<!-- Node1&#45;&gt;Node7 -->
<g id="edge6_Node000001_Node000007" class="edge">
<title>Node1&#45;&gt;Node7</title>
<g id="a_edge6_Node000001_Node000007"><a xlink:title=" ">
<path fill="none" stroke="#63b8ff" d="M808.26,-182.68C865.32,-174.97 979.02,-158.9 1074.75,-141 1194.21,-118.66 1224.26,-113.07 1341.75,-82 1342.88,-81.7 1344.04,-81.39 1345.2,-81.06"/>
<polygon fill="#63b8ff" stroke="#63b8ff" points="1346.08,-84.16 1354.69,-77.99 1344.11,-77.44 1346.08,-84.16"/>
</a>
</g>
</g>
<!-- Node8 -->
<g id="Node000008" class="node">
<title>Node8</title>
<g id="a_Node000008"><a xlink:title=" ">
<polygon fill="#e0e0e0" stroke="#999999" points="744,-141 693.5,-141 693.5,-118 744,-118 744,-141"/>
<text text-anchor="middle" x="718.75" y="-127.5" font-family="Helvetica,sans-Serif" font-size="10.00">numeric</text>
</a>
</g>
</g>
<!-- Node1&#45;&gt;Node8 -->
<g id="edge7_Node000001_Node000008" class="edge">
<title>Node1&#45;&gt;Node8</title>
<g id="a_edge7_Node000001_Node000008"><a xlink:title=" ">
<path fill="none" stroke="#63b8ff" d="M761.53,-176.51C754.42,-168.86 744.75,-158.46 736.41,-149.49"/>
<polygon fill="#63b8ff" stroke="#63b8ff" points="739.31,-147.4 729.94,-142.46 734.18,-152.16 739.31,-147.4"/>
</a>
</g>
</g>
<!-- Node9 -->
<g id="Node000009" class="node">
<title>Node9</title>
<g id="a_Node000009"><a xlink:title=" ">
<polygon fill="#e0e0e0" stroke="#999999" points="1469.62,-82 1413.88,-82 1413.88,-59 1469.62,-59 1469.62,-82"/>
<text text-anchor="middle" x="1441.75" y="-68.5" font-family="Helvetica,sans-Serif" font-size="10.00">algorithm</text>
</a>
</g>
</g>
<!-- Node1&#45;&gt;Node9 -->
<g id="edge8_Node000001_Node000009" class="edge">
<title>Node1&#45;&gt;Node9</title>
<g id="a_edge8_Node000001_Node000009"><a xlink:title=" ">
<path fill="none" stroke="#63b8ff" d="M808.13,-184.23C875.34,-177.91 1023.34,-162.7 1146.75,-141 1259.2,-121.22 1289.07,-111.74 1402.96,-82.39"/>
<polygon fill="#63b8ff" stroke="#63b8ff" points="1403.7,-85.56 1412.51,-79.68 1401.95,-78.78 1403.7,-85.56"/>
</a>
</g>
</g>
<!-- Node10 -->
<g id="Node000010" class="node">
<title>Node10</title>
<g id="a_Node000010"><a xlink:title=" ">
<polygon fill="#e0e0e0" stroke="#999999" points="1737.75,-82 1691.75,-82 1691.75,-59 1737.75,-59 1737.75,-82"/>
<text text-anchor="middle" x="1714.75" y="-68.5" font-family="Helvetica,sans-Serif" font-size="10.00">iterator</text>
</a>
</g>
</g>
<!-- Node1&#45;&gt;Node10 -->
<g id="edge9_Node000001_Node000010" class="edge">
<title>Node1&#45;&gt;Node10</title>
<g id="a_edge9_Node000001_Node000010"><a xlink:title=" ">
<path fill="none" stroke="#63b8ff" d="M808.3,-186.87C941.56,-184.33 1401.02,-173.38 1543.75,-141 1595.15,-129.34 1651.1,-103.97 1684.52,-87.32"/>
<polygon fill="#63b8ff" stroke="#63b8ff" points="1685.8,-90.1 1693.14,-82.46 1682.64,-83.85 1685.8,-90.1"/>
</a>
</g>
</g>
<!-- Node11 -->
<g id="Node000011" class="node">
<title>Node11</title>
<g id="a_Node000011"><a xlink:href="options_8hpp.html" target="_top" xlink:title=" ">
<polygon fill="white" stroke="#666666" points="395.75,-141 307.75,-141 307.75,-118 395.75,-118 395.75,-141"/>
<text text-anchor="middle" x="351.75" y="-127.5" font-family="Helvetica,sans-Serif" font-size="10.00">args/options.hpp</text>
</a>
</g>
</g>
<!-- Node1&#45;&gt;Node11 -->
<g id="edge10_Node000001_Node000011" class="edge">
<title>Node1&#45;&gt;Node11</title>
<g id="a_edge10_Node000001_Node000011"><a xlink:title=" ">
<path fill="none" stroke="#63b8ff" d="M735.17,-183.72C670.83,-176.88 533.01,-161.41 406.85,-141.26"/>
<polygon fill="#63b8ff" stroke="#63b8ff" points="407.67,-137.68 397.24,-139.55 406.56,-144.6 407.67,-137.68"/>
</a>
</g>
</g>
<!-- Node20 -->
<g id="Node000020" class="node">
<title>Node20</title>
<g id="a_Node000020"><a xlink:href="logs__init_8hpp.html" target="_top" xlink:title=" ">
<polygon fill="white" stroke="#666666" points="505.62,-141 413.88,-141 413.88,-118 505.62,-118 505.62,-141"/>
<text text-anchor="middle" x="459.75" y="-127.5" font-family="Helvetica,sans-Serif" font-size="10.00">utils/logs_init.hpp</text>
</a>
</g>
</g>
<!-- Node1&#45;&gt;Node20 -->
<g id="edge20_Node000001_Node000020" class="edge">
<title>Node1&#45;&gt;Node20</title>
<g id="a_edge20_Node000001_Node000020"><a xlink:title=" ">
<path fill="none" stroke="#63b8ff" d="M735.13,-180.99C687.3,-172.46 600.69,-156.93 516.71,-141.35"/>
<polygon fill="#63b8ff" stroke="#63b8ff" points="517.43,-137.74 506.96,-139.35 516.15,-144.62 517.43,-137.74"/>
</a>
</g>
</g>
<!-- Node21 -->
<g id="Node000021" class="node">
<title>Node21</title>
<g id="a_Node000021"><a xlink:href="logging_8hpp.html" target="_top" xlink:title=" ">
<polygon fill="white" stroke="#666666" points="1475,-23 1388.5,-23 1388.5,0 1475,0 1475,-23"/>
<text text-anchor="middle" x="1431.75" y="-9.5" font-family="Helvetica,sans-Serif" font-size="10.00">utils/logging.hpp</text>
</a>
</g>
</g>
<!-- Node1&#45;&gt;Node21 -->
<g id="edge22_Node000001_Node000021" class="edge">
<title>Node1&#45;&gt;Node21</title>
<g id="a_edge22_Node000001_Node000021"><a xlink:title=" ">
<path fill="none" stroke="#63b8ff" d="M808.1,-186.9C946.17,-184.41 1438.03,-173.42 1590.75,-141 1663.26,-125.61 1704.61,-142.99 1746.75,-82 1752.56,-73.59 1753.43,-66.74 1746.75,-59 1713.76,-20.78 1567.48,-13.43 1486.38,-12.35"/>
<polygon fill="#63b8ff" stroke="#63b8ff" points="1486.42,-8.84 1476.38,-12.24 1486.35,-15.84 1486.42,-8.84"/>
</a>
</g>
</g>
<!-- Node22 -->
<g id="Node000022" class="node">
<title>Node22</title>
<g id="a_Node000022"><a xlink:href="trace_8hpp.html" target="_top" xlink:title=" ">
<polygon fill="white" stroke="#666666" points="711.5,-82 634,-82 634,-59 711.5,-59 711.5,-82"/>
<text text-anchor="middle" x="672.75" y="-68.5" font-family="Helvetica,sans-Serif" font-size="10.00">utils/trace.hpp</text>
</a>
</g>
</g>
<!-- Node1&#45;&gt;Node22 -->
<g id="edge23_Node000001_Node000022" class="edge">
<title>Node1&#45;&gt;Node22</title>
<g id="a_edge23_Node000001_Node000022"><a xlink:title=" ">
<path fill="none" stroke="#63b8ff" d="M735.25,-176.54C717.31,-169.29 696.98,-157.94 684.75,-141 674.68,-127.06 672.05,-107.49 671.72,-92.67"/>
<polygon fill="#63b8ff" stroke="#63b8ff" points="675.23,-93.05 671.86,-83 668.23,-92.96 675.23,-93.05"/>
</a>
</g>
</g>
<!-- Node26 -->
<g id="Node000026" class="node">
<title>Node26</title>
<g id="a_Node000026"><a xlink:href="bpool__alloc_8hpp.html" target="_top" xlink:title=" ">
<polygon fill="white" stroke="#666666" points="1066.12,-141 959.38,-141 959.38,-118 1066.12,-118 1066.12,-141"/>
<text text-anchor="middle" x="1012.75" y="-127.5" font-family="Helvetica,sans-Serif" font-size="10.00">alloc/bpool_alloc.hpp</text>
</a>
</g>
</g>
<!-- Node1&#45;&gt;Node26 -->
<g id="edge28_Node000001_Node000026" class="edge">
<title>Node1&#45;&gt;Node26</title>
<g id="a_edge28_Node000001_Node000026"><a xlink:title=" ">
<path fill="none" stroke="#63b8ff" d="M808.35,-178.84C847.48,-169.59 910.05,-154.79 955.66,-144"/>
<polygon fill="#63b8ff" stroke="#63b8ff" points="956.36,-147.2 965.29,-141.49 954.75,-140.39 956.36,-147.2"/>
</a>
</g>
</g>
<!-- Node37 -->
<g id="Node000037" class="node">
<title>Node37</title>
<g id="a_Node000037"><a xlink:href="slist_8hpp.html" target="_top" xlink:title=" ">
<polygon fill="white" stroke="#666666" points="1535,-141 1460.5,-141 1460.5,-118 1535,-118 1535,-141"/>
<text text-anchor="middle" x="1497.75" y="-127.5" font-family="Helvetica,sans-Serif" font-size="10.00">cont/slist.hpp</text>
</a>
</g>
</g>
<!-- Node1&#45;&gt;Node37 -->
<g id="edge48_Node000001_Node000037" class="edge">
<title>Node1&#45;&gt;Node37</title>
<g id="a_edge48_Node000001_Node000037"><a xlink:title=" ">
<path fill="none" stroke="#63b8ff" d="M808.34,-186.28C909.04,-182.62 1198.73,-170.18 1437.75,-141 1441.48,-140.54 1445.34,-140.01 1449.21,-139.43"/>
<polygon fill="#63b8ff" stroke="#63b8ff" points="1449.74,-142.73 1459.07,-137.71 1448.65,-135.82 1449.74,-142.73"/>
</a>
</g>
</g>
<!-- Node11&#45;&gt;Node2 -->
<g id="edge12_Node000011_Node000002" class="edge">
<title>Node11&#45;&gt;Node2</title>
<g id="a_edge12_Node000011_Node000002"><a xlink:title=" ">
<path fill="none" stroke="#63b8ff" d="M352.49,-117.79C353.8,-98.8 356.55,-58.88 358.27,-34.02"/>
<polygon fill="#63b8ff" stroke="#63b8ff" points="361.82,-34.4 359.01,-24.18 354.83,-33.91 361.82,-34.4"/>
</a>
</g>
</g>
<!-- Node12 -->
<g id="Node000012" class="node">
<title>Node12</title>
<g id="a_Node000012"><a xlink:title=" ">
<polygon fill="#e0e0e0" stroke="#999999" points="331.25,-82 282.25,-82 282.25,-59 331.25,-59 331.25,-82"/>
<text text-anchor="middle" x="306.75" y="-68.5" font-family="Helvetica,sans-Serif" font-size="10.00">fstream</text>
</a>
</g>
</g>
<!-- Node11&#45;&gt;Node12 -->
<g id="edge11_Node000011_Node000012" class="edge">
<title>Node11&#45;&gt;Node12</title>
<g id="a_edge11_Node000011_Node000012"><a xlink:title=" ">
<path fill="none" stroke="#63b8ff" d="M343.07,-117.51C337.16,-110.02 329.16,-99.89 322.18,-91.05"/>
<polygon fill="#63b8ff" stroke="#63b8ff" points="324.34,-89.14 315.4,-83.46 318.85,-93.47 324.34,-89.14"/>
</a>
</g>
</g>
<!-- Node13 -->
<g id="Node000013" class="node">
<title>Node13</title>
<g id="a_Node000013"><a xlink:title=" ">
<polygon fill="#e0e0e0" stroke="#999999" points="600.75,-23 560.75,-23 560.75,0 600.75,0 600.75,-23"/>
<text text-anchor="middle" x="580.75" y="-9.5" font-family="Helvetica,sans-Serif" font-size="10.00">string</text>
</a>
</g>
</g>
<!-- Node11&#45;&gt;Node13 -->
<g id="edge13_Node000011_Node000013" class="edge">
<title>Node11&#45;&gt;Node13</title>
<g id="a_edge13_Node000011_Node000013"><a xlink:title=" ">
<path fill="none" stroke="#63b8ff" d="M371.65,-117.6C388.53,-108.29 413.34,-94.47 434.75,-82 451.81,-72.06 455.2,-68.04 472.75,-59 498.33,-45.83 528.48,-33.07 550.41,-24.26"/>
<polygon fill="#63b8ff" stroke="#63b8ff" points="551.46,-27.21 559.46,-20.26 548.88,-20.7 551.46,-27.21"/>
</a>
</g>
</g>
<!-- Node14 -->
<g id="Node000014" class="node">
<title>Node14</title>
<g id="a_Node000014"><a xlink:title=" ">
<polygon fill="#e0e0e0" stroke="#999999" points="425.25,-82 388.25,-82 388.25,-59 425.25,-59 425.25,-82"/>
<text text-anchor="middle" x="406.75" y="-68.5" font-family="Helvetica,sans-Serif" font-size="10.00">tuple</text>
</a>
</g>
</g>
<!-- Node11&#45;&gt;Node14 -->
<g id="edge14_Node000011_Node000014" class="edge">
<title>Node11&#45;&gt;Node14</title>
<g id="a_edge14_Node000011_Node000014"><a xlink:title=" ">
<path fill="none" stroke="#63b8ff" d="M362.35,-117.51C369.81,-109.78 379.97,-99.25 388.69,-90.21"/>
<polygon fill="#63b8ff" stroke="#63b8ff" points="390.75,-93.08 395.18,-83.46 385.72,-88.22 390.75,-93.08"/>
</a>
</g>
</g>
<!-- Node15 -->
<g id="Node000015" class="node">
<title>Node15</title>
<g id="a_Node000015"><a xlink:title=" ">
<polygon fill="#e0e0e0" stroke="#999999" points="615.62,-82 481.88,-82 481.88,-59 615.62,-59 615.62,-82"/>
<text text-anchor="middle" x="548.75" y="-68.5" font-family="Helvetica,sans-Serif" font-size="10.00">boost/program_options.hpp</text>
</a>
</g>
</g>
<!-- Node11&#45;&gt;Node15 -->
<g id="edge15_Node000011_Node000015" class="edge">
<title>Node11&#45;&gt;Node15</title>
<g id="a_edge15_Node000011_Node000015"><a xlink:title=" ">
<path fill="none" stroke="#63b8ff" d="M389.73,-117.51C421.35,-108.36 466.54,-95.29 500.67,-85.41"/>
<polygon fill="#63b8ff" stroke="#63b8ff" points="501.25,-88.6 509.88,-82.46 499.3,-81.87 501.25,-88.6"/>
</a>
</g>
</g>
<!-- Node16 -->
<g id="Node000016" class="node">
<title>Node16</title>
<g id="a_Node000016"><a xlink:title=" ">
<polygon fill="#e0e0e0" stroke="#999999" points="264.12,-82 163.38,-82 163.38,-59 264.12,-59 264.12,-82"/>
<text text-anchor="middle" x="213.75" y="-68.5" font-family="Helvetica,sans-Serif" font-size="10.00">boost/log/trivial.hpp</text>
</a>
</g>
</g>
<!-- Node11&#45;&gt;Node16 -->
<g id="edge16_Node000011_Node000016" class="edge">
<title>Node11&#45;&gt;Node16</title>
<g id="a_edge16_Node000011_Node000016"><a xlink:title=" ">
<path fill="none" stroke="#63b8ff" d="M325.14,-117.51C303.86,-108.72 273.78,-96.3 250.25,-86.57"/>
<polygon fill="#63b8ff" stroke="#63b8ff" points="251.85,-83.04 241.28,-82.46 249.18,-89.51 251.85,-83.04"/>
</a>
</g>
</g>
<!-- Node17 -->
<g id="Node000017" class="node">
<title>Node17</title>
<g id="a_Node000017"><a xlink:href="version_8h.html" target="_top" xlink:title=" ">
<polygon fill="white" stroke="#666666" points="108,-82 33.5,-82 33.5,-59 108,-59 108,-82"/>
<text text-anchor="middle" x="70.75" y="-68.5" font-family="Helvetica,sans-Serif" font-size="10.00">info/version.h</text>
</a>
</g>
</g>
<!-- Node11&#45;&gt;Node17 -->
<g id="edge17_Node000011_Node000017" class="edge">
<title>Node11&#45;&gt;Node17</title>
<g id="a_edge17_Node000011_Node000017"><a xlink:title=" ">
<path fill="none" stroke="#63b8ff" d="M307.53,-119.53C256.2,-109.12 171.83,-92 118.89,-81.26"/>
<polygon fill="#63b8ff" stroke="#63b8ff" points="119.91,-77.7 109.41,-79.14 118.52,-84.56 119.91,-77.7"/>
</a>
</g>
</g>
<!-- Node18 -->
<g id="Node000018" class="node">
<title>Node18</title>
<g id="a_Node000018"><a xlink:title=" ">
<polygon fill="#e0e0e0" stroke="#999999" points="65.5,-23 0,-23 0,0 65.5,0 65.5,-23"/>
<text text-anchor="middle" x="32.75" y="-9.5" font-family="Helvetica,sans-Serif" font-size="10.00">string_view</text>
</a>
</g>
</g>
<!-- Node17&#45;&gt;Node18 -->
<g id="edge18_Node000017_Node000018" class="edge">
<title>Node17&#45;&gt;Node18</title>
<g id="a_edge18_Node000017_Node000018"><a xlink:title=" ">
<path fill="none" stroke="#63b8ff" d="M63.42,-58.51C58.53,-51.18 51.96,-41.32 46.15,-32.61"/>
<polygon fill="#63b8ff" stroke="#63b8ff" points="48.51,-30.84 40.05,-24.46 42.69,-34.72 48.51,-30.84"/>
</a>
</g>
</g>
<!-- Node19 -->
<g id="Node000019" class="node">
<title>Node19</title>
<g id="a_Node000019"><a xlink:href="config_8h.html" target="_top" xlink:title=" ">
<polygon fill="white" stroke="#666666" points="134,-23 83.5,-23 83.5,0 134,0 134,-23"/>
<text text-anchor="middle" x="108.75" y="-9.5" font-family="Helvetica,sans-Serif" font-size="10.00">config.h</text>
</a>
</g>
</g>
<!-- Node17&#45;&gt;Node19 -->
<g id="edge19_Node000017_Node000019" class="edge">
<title>Node17&#45;&gt;Node19</title>
<g id="a_edge19_Node000017_Node000019"><a xlink:title=" ">
<path fill="none" stroke="#63b8ff" d="M78.08,-58.51C82.97,-51.18 89.54,-41.32 95.35,-32.61"/>
<polygon fill="#63b8ff" stroke="#63b8ff" points="98.81,-34.72 101.45,-24.46 92.99,-30.84 98.81,-34.72"/>
</a>
</g>
</g>
<!-- Node20&#45;&gt;Node15 -->
<g id="edge21_Node000020_Node000015" class="edge">
<title>Node20&#45;&gt;Node15</title>
<g id="a_edge21_Node000020_Node000015"><a xlink:title=" ">
<path fill="none" stroke="#63b8ff" d="M476.91,-117.51C489.84,-109.23 507.79,-97.73 522.52,-88.3"/>
<polygon fill="#63b8ff" stroke="#63b8ff" points="524.11,-90.8 530.64,-82.46 520.33,-84.9 524.11,-90.8"/>
</a>
</g>
</g>
<!-- Node22&#45;&gt;Node2 -->
<g id="edge25_Node000022_Node000002" class="edge">
<title>Node22&#45;&gt;Node2</title>
<g id="a_edge25_Node000022_Node000002"><a xlink:title=" ">
<path fill="none" stroke="#63b8ff" d="M633.75,-60.82C630.71,-60.19 627.68,-59.57 624.75,-59 533.12,-41.02 509.69,-39.32 417.75,-23 411.14,-21.83 404.1,-20.56 397.3,-19.34"/>
<polygon fill="#63b8ff" stroke="#63b8ff" points="398.35,-15.79 387.89,-17.45 397.11,-22.68 398.35,-15.79"/>
</a>
</g>
</g>
<!-- Node23 -->
<g id="Node000023" class="node">
<title>Node23</title>
<g id="a_Node000023"><a xlink:title=" ">
<polygon fill="#e0e0e0" stroke="#999999" points="802.75,-23 744.75,-23 744.75,0 802.75,0 802.75,-23"/>
<text text-anchor="middle" x="773.75" y="-9.5" font-family="Helvetica,sans-Serif" font-size="10.00">stdexcept</text>
</a>
</g>
</g>
<!-- Node22&#45;&gt;Node23 -->
<g id="edge24_Node000022_Node000023" class="edge">
<title>Node22&#45;&gt;Node23</title>
<g id="a_edge24_Node000022_Node000023"><a xlink:title=" ">
<path fill="none" stroke="#63b8ff" d="M692.22,-58.51C707.17,-50.07 728.05,-38.29 744.93,-28.76"/>
<polygon fill="#63b8ff" stroke="#63b8ff" points="746.35,-31.42 753.34,-23.46 742.91,-25.32 746.35,-31.42"/>
</a>
</g>
</g>
<!-- Node24 -->
<g id="Node000024" class="node">
<title>Node24</title>
<g id="a_Node000024"><a xlink:title=" ">
<polygon fill="#e0e0e0" stroke="#999999" points="726.5,-23 619,-23 619,0 726.5,0 726.5,-23"/>
<text text-anchor="middle" x="672.75" y="-9.5" font-family="Helvetica,sans-Serif" font-size="10.00">boost/stacktrace.hpp</text>
</a>
</g>
</g>
<!-- Node22&#45;&gt;Node24 -->
<g id="edge26_Node000022_Node000024" class="edge">
<title>Node22&#45;&gt;Node24</title>
<g id="a_edge26_Node000022_Node000024"><a xlink:title=" ">
<path fill="none" stroke="#63b8ff" d="M672.75,-58.51C672.75,-51.65 672.75,-42.58 672.75,-34.31"/>
<polygon fill="#63b8ff" stroke="#63b8ff" points="676.25,-34.46 672.75,-24.46 669.25,-34.46 676.25,-34.46"/>
</a>
</g>
</g>
<!-- Node25 -->
<g id="Node000025" class="node">
<title>Node25</title>
<g id="a_Node000025"><a xlink:title=" ">
<polygon fill="#e0e0e0" stroke="#999999" points="542.62,-23 426.88,-23 426.88,0 542.62,0 542.62,-23"/>
<text text-anchor="middle" x="484.75" y="-9.5" font-family="Helvetica,sans-Serif" font-size="10.00">boost/exception/all.hpp</text>
</a>
</g>
</g>
<!-- Node22&#45;&gt;Node25 -->
<g id="edge27_Node000022_Node000025" class="edge">
<title>Node22&#45;&gt;Node25</title>
<g id="a_edge27_Node000022_Node000025"><a xlink:title=" ">
<path fill="none" stroke="#63b8ff" d="M636.5,-58.51C606.46,-49.4 563.58,-36.4 531.05,-26.54"/>
<polygon fill="#63b8ff" stroke="#63b8ff" points="532.47,-23.01 521.89,-23.46 530.44,-29.71 532.47,-23.01"/>
</a>
</g>
</g>
<!-- Node26&#45;&gt;Node3 -->
<g id="edge29_Node000026_Node000003" class="edge">
<title>Node26&#45;&gt;Node3</title>
<g id="a_edge29_Node000026_Node000003"><a xlink:title=" ">
<path fill="none" stroke="#63b8ff" d="M958.98,-120.12C936.44,-113.66 912.34,-102.22 898.75,-82 889.12,-67.67 893.21,-47.93 898.78,-33.14"/>
<polygon fill="#63b8ff" stroke="#63b8ff" points="902.23,-34.97 902.92,-24.4 895.79,-32.23 902.23,-34.97"/>
</a>
</g>
</g>
<!-- Node26&#45;&gt;Node7 -->
<g id="edge33_Node000026_Node000007" class="edge">
<title>Node26&#45;&gt;Node7</title>
<g id="a_edge33_Node000026_Node000007"><a xlink:title=" ">
<path fill="none" stroke="#63b8ff" d="M1066.5,-123.56C1132.03,-116.92 1245.91,-103.43 1341.75,-82 1342.9,-81.74 1344.06,-81.47 1345.23,-81.18"/>
<polygon fill="#63b8ff" stroke="#63b8ff" points="1346.06,-84.3 1354.76,-78.25 1344.18,-77.56 1346.06,-84.3"/>
</a>
</g>
</g>
<!-- Node26&#45;&gt;Node21 -->
<g id="edge37_Node000026_Node000021" class="edge">
<title>Node26&#45;&gt;Node21</title>
<g id="a_edge37_Node000026_Node000021"><a xlink:title=" ">
<path fill="none" stroke="#63b8ff" d="M1066.43,-126.3C1126.95,-122.41 1227.51,-111.66 1308.75,-82 1327.29,-75.23 1329.64,-68.85 1346.75,-59 1364.86,-48.57 1385.41,-37.32 1401.76,-28.49"/>
<polygon fill="#63b8ff" stroke="#63b8ff" points="1403.2,-31.16 1410.35,-23.34 1399.88,-24.99 1403.2,-31.16"/>
</a>
</g>
</g>
<!-- Node26&#45;&gt;Node22 -->
<g id="edge38_Node000026_Node000022" class="edge">
<title>Node26&#45;&gt;Node22</title>
<g id="a_edge38_Node000026_Node000022"><a xlink:title=" ">
<path fill="none" stroke="#63b8ff" d="M958.88,-119.47C893.74,-108.55 785.03,-90.32 722.02,-79.76"/>
<polygon fill="#63b8ff" stroke="#63b8ff" points="723.01,-76.21 712.57,-78.01 721.85,-83.11 723.01,-76.21"/>
</a>
</g>
</g>
<!-- Node26&#45;&gt;Node23 -->
<g id="edge36_Node000026_Node000023" class="edge">
<title>Node26&#45;&gt;Node23</title>
<g id="a_edge36_Node000026_Node000023"><a xlink:title=" ">
<path fill="none" stroke="#63b8ff" d="M978.36,-117.52C953.07,-108.99 918.13,-96.24 888.75,-82 856.42,-66.34 821.37,-44.37 798.57,-29.35"/>
<polygon fill="#63b8ff" stroke="#63b8ff" points="800.86,-26 790.6,-23.37 796.98,-31.83 800.86,-26"/>
</a>
</g>
</g>
<!-- Node27 -->
<g id="Node000027" class="node">
<title>Node27</title>
<g id="a_Node000027"><a xlink:title=" ">
<polygon fill="#e0e0e0" stroke="#999999" points="1139.88,-82 1091.62,-82 1091.62,-59 1139.88,-59 1139.88,-82"/>
<text text-anchor="middle" x="1115.75" y="-68.5" font-family="Helvetica,sans-Serif" font-size="10.00">cstddef</text>
</a>
</g>
</g>
<!-- Node26&#45;&gt;Node27 -->
<g id="edge30_Node000026_Node000027" class="edge">
<title>Node26&#45;&gt;Node27</title>
<g id="a_edge30_Node000026_Node000027"><a xlink:title=" ">
<path fill="none" stroke="#63b8ff" d="M1032.61,-117.51C1047.86,-109.07 1069.14,-97.29 1086.36,-87.76"/>
<polygon fill="#63b8ff" stroke="#63b8ff" points="1087.9,-90.36 1094.95,-82.46 1084.51,-84.24 1087.9,-90.36"/>
</a>
</g>
</g>
<!-- Node28 -->
<g id="Node000028" class="node">
<title>Node28</title>
<g id="a_Node000028"><a xlink:title=" ">
<polygon fill="#e0e0e0" stroke="#999999" points="1223.88,-82 1157.62,-82 1157.62,-59 1223.88,-59 1223.88,-82"/>
<text text-anchor="middle" x="1190.75" y="-68.5" font-family="Helvetica,sans-Serif" font-size="10.00">forward_list</text>
</a>
</g>
</g>
<!-- Node26&#45;&gt;Node28 -->
<g id="edge31_Node000026_Node000028" class="edge">
<title>Node26&#45;&gt;Node28</title>
<g id="a_edge31_Node000026_Node000028"><a xlink:title=" ">
<path fill="none" stroke="#63b8ff" d="M1047.07,-117.51C1075.45,-108.42 1115.93,-95.46 1146.7,-85.61"/>
<polygon fill="#63b8ff" stroke="#63b8ff" points="1147.68,-88.65 1156.14,-82.26 1145.55,-81.98 1147.68,-88.65"/>
</a>
</g>
</g>
<!-- Node29 -->
<g id="Node000029" class="node">
<title>Node29</title>
<g id="a_Node000029"><a xlink:title=" ">
<polygon fill="#e0e0e0" stroke="#999999" points="1299.75,-82 1241.75,-82 1241.75,-59 1299.75,-59 1299.75,-82"/>
<text text-anchor="middle" x="1270.75" y="-68.5" font-family="Helvetica,sans-Serif" font-size="10.00">functional</text>
</a>
</g>
</g>
<!-- Node26&#45;&gt;Node29 -->
<g id="edge32_Node000026_Node000029" class="edge">
<title>Node26&#45;&gt;Node29</title>
<g id="a_edge32_Node000026_Node000029"><a xlink:title=" ">
<path fill="none" stroke="#63b8ff" d="M1066.3,-118.14C1108.54,-109.75 1169.16,-97.23 1230.66,-82.41"/>
<polygon fill="#63b8ff" stroke="#63b8ff" points="1231.45,-85.58 1240.34,-79.82 1229.79,-78.78 1231.45,-85.58"/>
</a>
</g>
</g>
<!-- Node30 -->
<g id="Node000030" class="node">
<title>Node30</title>
<g id="a_Node000030"><a xlink:title=" ">
<polygon fill="#e0e0e0" stroke="#999999" points="945.62,-82 907.88,-82 907.88,-59 945.62,-59 945.62,-82"/>
<text text-anchor="middle" x="926.75" y="-68.5" font-family="Helvetica,sans-Serif" font-size="10.00">array</text>
</a>
</g>
</g>
<!-- Node26&#45;&gt;Node30 -->
<g id="edge34_Node000026_Node000030" class="edge">
<title>Node26&#45;&gt;Node30</title>
<g id="a_edge34_Node000026_Node000030"><a xlink:title=" ">
<path fill="none" stroke="#63b8ff" d="M996.17,-117.51C983.68,-109.23 966.33,-97.73 952.1,-88.3"/>
<polygon fill="#63b8ff" stroke="#63b8ff" points="954.55,-85.06 944.28,-82.46 950.68,-90.9 954.55,-85.06"/>
</a>
</g>
</g>
<!-- Node31 -->
<g id="Node000031" class="node">
<title>Node31</title>
<g id="a_Node000031"><a xlink:title=" ">
<polygon fill="#e0e0e0" stroke="#999999" points="997.75,-82 963.75,-82 963.75,-59 997.75,-59 997.75,-82"/>
<text text-anchor="middle" x="980.75" y="-68.5" font-family="Helvetica,sans-Serif" font-size="10.00">new</text>
</a>
</g>
</g>
<!-- Node26&#45;&gt;Node31 -->
<g id="edge35_Node000026_Node000031" class="edge">
<title>Node26&#45;&gt;Node31</title>
<g id="a_edge35_Node000026_Node000031"><a xlink:title=" ">
<path fill="none" stroke="#63b8ff" d="M1006.58,-117.51C1002.51,-110.26 997.05,-100.53 992.2,-91.89"/>
<polygon fill="#63b8ff" stroke="#63b8ff" points="994.85,-90.46 986.9,-83.46 988.74,-93.89 994.85,-90.46"/>
</a>
</g>
</g>
<!-- Node32 -->
<g id="Node000032" class="node">
<title>Node32</title>
<g id="a_Node000032"><a xlink:href="bpool_8hpp.html" target="_top" xlink:title=" ">
<polygon fill="white" stroke="#666666" points="1073.75,-82 1015.75,-82 1015.75,-59 1073.75,-59 1073.75,-82"/>
<text text-anchor="middle" x="1044.75" y="-68.5" font-family="Helvetica,sans-Serif" font-size="10.00">bpool.hpp</text>
</a>
</g>
</g>
<!-- Node26&#45;&gt;Node32 -->
<g id="edge39_Node000026_Node000032" class="edge">
<title>Node26&#45;&gt;Node32</title>
<g id="a_edge39_Node000026_Node000032"><a xlink:title=" ">
<path fill="none" stroke="#63b8ff" d="M1018.92,-117.51C1022.99,-110.26 1028.45,-100.53 1033.3,-91.89"/>
<polygon fill="#63b8ff" stroke="#63b8ff" points="1036.76,-93.89 1038.6,-83.46 1030.65,-90.46 1036.76,-93.89"/>
</a>
</g>
</g>
<!-- Node32&#45;&gt;Node3 -->
<g id="edge40_Node000032_Node000003" class="edge">
<title>Node32&#45;&gt;Node3</title>
<g id="a_edge40_Node000032_Node000003"><a xlink:title=" ">
<path fill="none" stroke="#63b8ff" d="M1018.53,-58.51C997.15,-49.55 966.77,-36.82 943.39,-27.02"/>
<polygon fill="#63b8ff" stroke="#63b8ff" points="945.09,-23.52 934.52,-22.88 942.39,-29.97 945.09,-23.52"/>
</a>
</g>
</g>
<!-- Node32&#45;&gt;Node4 -->
<g id="edge43_Node000032_Node000004" class="edge">
<title>Node32&#45;&gt;Node4</title>
<g id="a_edge43_Node000032_Node000004"><a xlink:title=" ">
<path fill="none" stroke="#63b8ff" d="M1015.29,-61.36C1012.41,-60.56 1009.52,-59.76 1006.75,-59 951.72,-43.84 935.33,-40.74 877.29,-23.37"/>
<polygon fill="#63b8ff" stroke="#63b8ff" points="878.36,-19.74 867.78,-20.21 876.35,-26.44 878.36,-19.74"/>
</a>
</g>
</g>
<!-- Node32&#45;&gt;Node13 -->
<g id="edge45_Node000032_Node000013" class="edge">
<title>Node32&#45;&gt;Node13</title>
<g id="a_edge45_Node000032_Node000013"><a xlink:title=" ">
<path fill="none" stroke="#63b8ff" d="M1015.41,-60.83C1012.5,-60.14 1009.58,-59.51 1006.75,-59 835.85,-27.9 784.68,-60.16 611.64,-22.93"/>
<polygon fill="#63b8ff" stroke="#63b8ff" points="612.67,-19.35 602.15,-20.62 611.17,-26.19 612.67,-19.35"/>
</a>
</g>
</g>
<!-- Node32&#45;&gt;Node21 -->
<g id="edge47_Node000032_Node000021" class="edge">
<title>Node32&#45;&gt;Node21</title>
<g id="a_edge47_Node000032_Node000021"><a xlink:title=" ">
<path fill="none" stroke="#63b8ff" d="M1074.11,-60.96C1077.02,-60.24 1079.93,-59.57 1082.75,-59 1110.95,-53.25 1286.56,-30.79 1377.42,-19.32"/>
<polygon fill="#63b8ff" stroke="#63b8ff" points="1377.58,-22.7 1387.06,-17.98 1376.7,-15.76 1377.58,-22.7"/>
</a>
</g>
</g>
<!-- Node33 -->
<g id="Node000033" class="node">
<title>Node33</title>
<g id="a_Node000033"><a xlink:title=" ">
<polygon fill="#e0e0e0" stroke="#999999" points="1064.75,-23 1024.75,-23 1024.75,0 1064.75,0 1064.75,-23"/>
<text text-anchor="middle" x="1044.75" y="-9.5" font-family="Helvetica,sans-Serif" font-size="10.00">bitset</text>
</a>
</g>
</g>
<!-- Node32&#45;&gt;Node33 -->
<g id="edge41_Node000032_Node000033" class="edge">
<title>Node32&#45;&gt;Node33</title>
<g id="a_edge41_Node000032_Node000033"><a xlink:title=" ">
<path fill="none" stroke="#63b8ff" d="M1044.75,-58.51C1044.75,-51.65 1044.75,-42.58 1044.75,-34.31"/>
<polygon fill="#63b8ff" stroke="#63b8ff" points="1048.25,-34.46 1044.75,-24.46 1041.25,-34.46 1048.25,-34.46"/>
</a>
</g>
</g>
<!-- Node34 -->
<g id="Node000034" class="node">
<title>Node34</title>
<g id="a_Node000034"><a xlink:title=" ">
<polygon fill="#e0e0e0" stroke="#999999" points="1122.38,-23 1083.12,-23 1083.12,0 1122.38,0 1122.38,-23"/>
<text text-anchor="middle" x="1102.75" y="-9.5" font-family="Helvetica,sans-Serif" font-size="10.00">limits</text>
</a>
</g>
</g>
<!-- Node32&#45;&gt;Node34 -->
<g id="edge42_Node000032_Node000034" class="edge">
<title>Node32&#45;&gt;Node34</title>
<g id="a_edge42_Node000032_Node000034"><a xlink:title=" ">
<path fill="none" stroke="#63b8ff" d="M1055.93,-58.51C1063.88,-50.7 1074.73,-40.03 1083.99,-30.94"/>
<polygon fill="#63b8ff" stroke="#63b8ff" points="1085.92,-33.96 1090.6,-24.46 1081.02,-28.97 1085.92,-33.96"/>
</a>
</g>
</g>
<!-- Node35 -->
<g id="Node000035" class="node">
<title>Node35</title>
<g id="a_Node000035"><a xlink:title=" ">
<polygon fill="#e0e0e0" stroke="#999999" points="1333.75,-23 1281.75,-23 1281.75,0 1333.75,0 1333.75,-23"/>
<text text-anchor="middle" x="1307.75" y="-9.5" font-family="Helvetica,sans-Serif" font-size="10.00">memory</text>
</a>
</g>
</g>
<!-- Node32&#45;&gt;Node35 -->
<g id="edge44_Node000032_Node000035" class="edge">
<title>Node32&#45;&gt;Node35</title>
<g id="a_edge44_Node000032_Node000035"><a xlink:title=" ">
<path fill="none" stroke="#63b8ff" d="M1074.16,-61.17C1077.06,-60.41 1079.96,-59.67 1082.75,-59 1148.52,-43.13 1225.92,-27.88 1270.66,-19.39"/>
<polygon fill="#63b8ff" stroke="#63b8ff" points="1271.12,-22.68 1280.3,-17.38 1269.82,-15.8 1271.12,-22.68"/>
</a>
</g>
</g>
<!-- Node36 -->
<g id="Node000036" class="node">
<title>Node36</title>
<g id="a_Node000036"><a xlink:title=" ">
<polygon fill="#e0e0e0" stroke="#999999" points="1006.62,-23 962.88,-23 962.88,0 1006.62,0 1006.62,-23"/>
<text text-anchor="middle" x="984.75" y="-9.5" font-family="Helvetica,sans-Serif" font-size="10.00">format</text>
</a>
</g>
</g>
<!-- Node32&#45;&gt;Node36 -->
<g id="edge46_Node000032_Node000036" class="edge">
<title>Node32&#45;&gt;Node36</title>
<g id="a_edge46_Node000032_Node000036"><a xlink:title=" ">
<path fill="none" stroke="#63b8ff" d="M1033.18,-58.51C1024.96,-50.7 1013.73,-40.03 1004.16,-30.94"/>
<polygon fill="#63b8ff" stroke="#63b8ff" points="1006.94,-28.81 997.28,-24.46 1002.12,-33.88 1006.94,-28.81"/>
</a>
</g>
</g>
<!-- Node37&#45;&gt;Node7 -->
<g id="edge51_Node000037_Node000007" class="edge">
<title>Node37&#45;&gt;Node7</title>
<g id="a_edge51_Node000037_Node000007"><a xlink:title=" ">
<path fill="none" stroke="#63b8ff" d="M1474.23,-117.51C1454.59,-108.34 1426.49,-95.21 1405.33,-85.32"/>
<polygon fill="#63b8ff" stroke="#63b8ff" points="1407.11,-81.82 1396.57,-80.76 1404.15,-88.17 1407.11,-81.82"/>
</a>
</g>
</g>
<!-- Node37&#45;&gt;Node9 -->
<g id="edge49_Node000037_Node000009" class="edge">
<title>Node37&#45;&gt;Node9</title>
<g id="a_edge49_Node000037_Node000009"><a xlink:title=" ">
<path fill="none" stroke="#63b8ff" d="M1486.95,-117.51C1479.36,-109.78 1469.01,-99.25 1460.13,-90.21"/>
<polygon fill="#63b8ff" stroke="#63b8ff" points="1463.02,-88.14 1453.51,-83.46 1458.03,-93.04 1463.02,-88.14"/>
</a>
</g>
</g>
<!-- Node37&#45;&gt;Node10 -->
<g id="edge50_Node000037_Node000010" class="edge">
<title>Node37&#45;&gt;Node10</title>
<g id="a_edge50_Node000037_Node000010"><a xlink:title=" ">
<path fill="none" stroke="#63b8ff" d="M1535.16,-119.92C1570.48,-111.63 1625.13,-98.35 1680.96,-82.39"/>
<polygon fill="#63b8ff" stroke="#63b8ff" points="1681.75,-85.51 1690.39,-79.38 1679.81,-78.79 1681.75,-85.51"/>
</a>
</g>
</g>
<!-- Node37&#45;&gt;Node21 -->
<g id="edge54_Node000037_Node000021" class="edge">
<title>Node37&#45;&gt;Node21</title>
<g id="a_edge54_Node000037_Node000021"><a xlink:title=" ">
<path fill="none" stroke="#63b8ff" d="M1504.29,-117.64C1512.01,-103.29 1522.49,-77.67 1511.75,-59 1503.81,-45.2 1490.02,-35.11 1476.11,-27.93"/>
<polygon fill="#63b8ff" stroke="#63b8ff" points="1478.06,-24.52 1467.53,-23.42 1475.08,-30.85 1478.06,-24.52"/>
</a>
</g>
</g>
<!-- Node37&#45;&gt;Node35 -->
<g id="edge52_Node000037_Node000035" class="edge">
<title>Node37&#45;&gt;Node35</title>
<g id="a_edge52_Node000037_Node000035"><a xlink:title=" ">
<path fill="none" stroke="#63b8ff" d="M1497.93,-117.71C1497.57,-102.5 1494.59,-74.82 1478.75,-59 1460.04,-40.31 1389.33,-25.75 1344.91,-18.2"/>
<polygon fill="#63b8ff" stroke="#63b8ff" points="1345.67,-14.62 1335.23,-16.44 1344.52,-21.52 1345.67,-14.62"/>
</a>
</g>
</g>
<!-- Node38 -->
<g id="Node000038" class="node">
<title>Node38</title>
<g id="a_Node000038"><a xlink:title=" ">
<polygon fill="#e0e0e0" stroke="#999999" points="1673.25,-82 1564.25,-82 1564.25,-59 1673.25,-59 1673.25,-82"/>
<text text-anchor="middle" x="1618.75" y="-68.5" font-family="Helvetica,sans-Serif" font-size="10.00">boost/type_index.hpp</text>
</a>
</g>
</g>
<!-- Node37&#45;&gt;Node38 -->
<g id="edge53_Node000037_Node000038" class="edge">
<title>Node37&#45;&gt;Node38</title>
<g id="a_edge53_Node000037_Node000038"><a xlink:title=" ">
<path fill="none" stroke="#63b8ff" d="M1521.08,-117.51C1539.41,-108.88 1565.17,-96.74 1585.63,-87.1"/>
<polygon fill="#63b8ff" stroke="#63b8ff" points="1586.94,-89.88 1594.49,-82.46 1583.95,-83.55 1586.94,-89.88"/>
</a>
</g>
</g>
</g>
</svg>
