<?xml version="1.0" encoding="UTF-8" standalone="no"?>
<!DOCTYPE svg PUBLIC "-//W3C//DTD SVG 1.1//EN"
 "http://www.w3.org/Graphics/SVG/1.1/DTD/svg11.dtd">
<!-- Generated by graphviz version 8.0.5 (20230430.1635)
 -->
<!-- Title: main Pages: 1 -->
<svg width="480pt" height="326pt"
 viewBox="0.00 0.00 480.00 326.00" xmlns="http://www.w3.org/2000/svg" xmlns:xlink="http://www.w3.org/1999/xlink">
<g id="graph0" class="graph" transform="scale(1 1) rotate(0) translate(4 322)">
<title>main</title>
<!-- Node1 -->
<g id="Node000001" class="node">
<title>Node1</title>
<g id="a_Node000001"><a xlink:title=" ">
<polygon fill="#999999" stroke="#666666" points="37,-169.5 0,-169.5 0,-146.5 37,-146.5 37,-169.5"/>
<text text-anchor="middle" x="18.5" y="-156" font-family="Helvetica,sans-Serif" font-size="10.00">main</text>
</a>
</g>
</g>
<!-- Node2 -->
<g id="Node000002" class="node">
<title>Node2</title>
<g id="a_Node000002"><a xlink:href="structcont_1_1slist.html#aefb63000899494fd4885f6b9c77fdbd6" target="_top" xlink:title=" ">
<polygon fill="white" stroke="#666666" points="177.12,-284.5 90.62,-284.5 90.62,-261.5 177.12,-261.5 177.12,-284.5"/>
<text text-anchor="middle" x="133.88" y="-271" font-family="Helvetica,sans-Serif" font-size="10.00">cont::slist::begin</text>
</a>
</g>
</g>
<!-- Node1&#45;&gt;Node2 -->
<g id="edge1_Node000001_Node000002" class="edge">
<title>Node1&#45;&gt;Node2</title>
<g id="a_edge1_Node000001_Node000002"><a xlink:title=" ">
<path fill="none" stroke="#63b8ff" d="M23.01,-169.75C29.57,-189.73 45.56,-230.34 73,-253 75.38,-254.96 77.95,-256.73 80.66,-258.34"/>
<polygon fill="#63b8ff" stroke="#63b8ff" points="78.73,-261.79 89.24,-263.14 81.87,-255.53 78.73,-261.79"/>
</a>
</g>
</g>
<!-- Node3 -->
<g id="Node000003" class="node">
<title>Node3</title>
<g id="a_Node000003"><a xlink:href="structcont_1_1slist.html#a4782ed19e147834da19769a24ba744e6" target="_top" xlink:title=" ">
<polygon fill="white" stroke="#666666" points="173.38,-243.5 94.38,-243.5 94.38,-220.5 173.38,-220.5 173.38,-243.5"/>
<text text-anchor="middle" x="133.88" y="-230" font-family="Helvetica,sans-Serif" font-size="10.00">cont::slist::end</text>
</a>
</g>
</g>
<!-- Node1&#45;&gt;Node3 -->
<g id="edge2_Node000001_Node000003" class="edge">
<title>Node1&#45;&gt;Node3</title>
<g id="a_edge2_Node000001_Node000003"><a xlink:title=" ">
<path fill="none" stroke="#63b8ff" d="M28.58,-169.65C38.39,-181.53 55.04,-199.77 73,-211 76.52,-213.2 80.31,-215.22 84.2,-217.04"/>
<polygon fill="#63b8ff" stroke="#63b8ff" points="82.45,-220.52 93.02,-221.21 85.18,-214.08 82.45,-220.52"/>
</a>
</g>
</g>
<!-- Node4 -->
<g id="Node000004" class="node">
<title>Node4</title>
<g id="a_Node000004"><a xlink:href="namespaceanonymous__namespace_02main_8cpp_03.html#a0353fa7202a1a9ea7d9631ec740902c8" target="_top" xlink:title=" ">
<polygon fill="white" stroke="#666666" points="194.75,-202 73,-202 73,-164 194.75,-164 194.75,-202"/>
<text text-anchor="start" x="81" y="-188.5" font-family="Helvetica,sans-Serif" font-size="10.00">anonymous_namespace</text>
<text text-anchor="middle" x="133.88" y="-173.5" font-family="Helvetica,sans-Serif" font-size="10.00">{main::cpp}::fill_map</text>
</a>
</g>
</g>
<!-- Node1&#45;&gt;Node4 -->
<g id="edge3_Node000001_Node000004" class="edge">
<title>Node1&#45;&gt;Node4</title>
<g id="a_edge3_Node000001_Node000004"><a xlink:title=" ">
<path fill="none" stroke="#63b8ff" d="M37.46,-161.96C44.54,-163.52 53.16,-165.42 62.29,-167.44"/>
<polygon fill="#63b8ff" stroke="#63b8ff" points="61.25,-171.01 71.77,-169.75 62.75,-164.17 61.25,-171.01"/>
</a>
</g>
</g>
<!-- Node5 -->
<g id="Node000005" class="node">
<title>Node5</title>
<g id="a_Node000005"><a xlink:href="namespaceargs.html#ac5abfe1ee497dcb11ea7435db4aed06d" target="_top" xlink:title=" ">
<polygon fill="white" stroke="#666666" points="186.12,-145.5 81.62,-145.5 81.62,-122.5 186.12,-122.5 186.12,-145.5"/>
<text text-anchor="middle" x="133.88" y="-132" font-family="Helvetica,sans-Serif" font-size="10.00">args::info_requested</text>
</a>
</g>
</g>
<!-- Node1&#45;&gt;Node5 -->
<g id="edge4_Node000001_Node000005" class="edge">
<title>Node1&#45;&gt;Node5</title>
<g id="a_edge4_Node000001_Node000005"><a xlink:title=" ">
<path fill="none" stroke="#63b8ff" d="M37.46,-154.2C46.64,-152.25 58.41,-149.76 70.53,-147.2"/>
<polygon fill="#63b8ff" stroke="#63b8ff" points="71.15,-150.43 80.21,-144.94 69.7,-143.58 71.15,-150.43"/>
</a>
</g>
</g>
<!-- Node14 -->
<g id="Node000014" class="node">
<title>Node14</title>
<g id="a_Node000014"><a xlink:href="namespaceLogger.html#affb06b75c3f37ef7955a6689e93fcd83" target="_top" xlink:title=" ">
<polygon fill="white" stroke="#666666" points="165.88,-104.5 101.88,-104.5 101.88,-81.5 165.88,-81.5 165.88,-104.5"/>
<text text-anchor="middle" x="133.88" y="-91" font-family="Helvetica,sans-Serif" font-size="10.00">Logger::init</text>
</a>
</g>
</g>
<!-- Node1&#45;&gt;Node14 -->
<g id="edge13_Node000001_Node000014" class="edge">
<title>Node1&#45;&gt;Node14</title>
<g id="a_edge13_Node000001_Node000014"><a xlink:title=" ">
<path fill="none" stroke="#63b8ff" d="M31.34,-146.17C41.62,-136.44 57.28,-122.85 73,-114 78.8,-110.74 85.19,-107.85 91.57,-105.33"/>
<polygon fill="#63b8ff" stroke="#63b8ff" points="92.33,-108.42 100.51,-101.69 89.92,-101.84 92.33,-108.42"/>
</a>
</g>
</g>
<!-- Node15 -->
<g id="Node000015" class="node">
<title>Node15</title>
<g id="a_Node000015"><a xlink:href="namespaceargs.html#a5a8c271969692f3fe8100517303b959e" target="_top" xlink:title=" ">
<polygon fill="white" stroke="#666666" points="166.62,-63.5 101.12,-63.5 101.12,-40.5 166.62,-40.5 166.62,-63.5"/>
<text text-anchor="middle" x="133.88" y="-50" font-family="Helvetica,sans-Serif" font-size="10.00">args::parse</text>
</a>
</g>
</g>
<!-- Node1&#45;&gt;Node15 -->
<g id="edge14_Node000001_Node000015" class="edge">
<title>Node1&#45;&gt;Node15</title>
<g id="a_edge14_Node000001_Node000015"><a xlink:title=" ">
<path fill="none" stroke="#63b8ff" d="M23.98,-146.06C31.43,-127.78 48.05,-92.89 73,-73 78.26,-68.81 84.41,-65.42 90.73,-62.69"/>
<polygon fill="#63b8ff" stroke="#63b8ff" points="91.59,-65.74 99.71,-58.93 89.11,-59.19 91.59,-65.74"/>
</a>
</g>
</g>
<!-- Node6 -->
<g id="Node000006" class="node">
<title>Node6</title>
<g id="a_Node000006"><a xlink:href="namespaceinfo.html#a88d21aeb33571d3a6911aac2fedc31ee" target="_top" xlink:title=" ">
<polygon fill="white" stroke="#666666" points="336.75,-170.5 230.75,-170.5 230.75,-147.5 336.75,-147.5 336.75,-170.5"/>
<text text-anchor="middle" x="283.75" y="-157" font-family="Helvetica,sans-Serif" font-size="10.00">info::info_project_full</text>
</a>
</g>
</g>
<!-- Node5&#45;&gt;Node6 -->
<g id="edge5_Node000005_Node000006" class="edge">
<title>Node5&#45;&gt;Node6</title>
<g id="a_edge5_Node000005_Node000006"><a xlink:title=" ">
<path fill="none" stroke="#63b8ff" d="M186.59,-142.74C197.21,-144.54 208.51,-146.45 219.48,-148.3"/>
<polygon fill="#63b8ff" stroke="#63b8ff" points="218.87,-151.92 229.31,-150.13 220.03,-145.02 218.87,-151.92"/>
</a>
</g>
</g>
<!-- Node13 -->
<g id="Node000013" class="node">
<title>Node13</title>
<g id="a_Node000013"><a xlink:href="namespaceinfo.html#a0b0e75f2a6d438265b88d1b0e2b21b52" target="_top" xlink:title=" ">
<polygon fill="white" stroke="#666666" points="327.75,-129 239.75,-129 239.75,-91 327.75,-91 327.75,-129"/>
<text text-anchor="start" x="247.75" y="-115.5" font-family="Helvetica,sans-Serif" font-size="10.00">info::info_project</text>
<text text-anchor="middle" x="283.75" y="-100.5" font-family="Helvetica,sans-Serif" font-size="10.00">_version</text>
</a>
</g>
</g>
<!-- Node5&#45;&gt;Node13 -->
<g id="edge12_Node000005_Node000013" class="edge">
<title>Node5&#45;&gt;Node13</title>
<g id="a_edge12_Node000005_Node000013"><a xlink:title=" ">
<path fill="none" stroke="#63b8ff" d="M186.59,-125.61C200.26,-123.39 215.05,-120.99 228.83,-118.75"/>
<polygon fill="#63b8ff" stroke="#63b8ff" points="229.32,-122.06 238.63,-117 228.2,-115.15 229.32,-122.06"/>
</a>
</g>
</g>
<!-- Node7 -->
<g id="Node000007" class="node">
<title>Node7</title>
<g id="a_Node000007"><a xlink:href="namespaceinfo.html#a28d71fb524538a7bdfbb1483a8a3a4cb" target="_top" xlink:title=" ">
<polygon fill="white" stroke="#666666" points="466.38,-318 378.38,-318 378.38,-280 466.38,-280 466.38,-318"/>
<text text-anchor="start" x="386.38" y="-304.5" font-family="Helvetica,sans-Serif" font-size="10.00">info::info_project</text>
<text text-anchor="middle" x="422.38" y="-289.5" font-family="Helvetica,sans-Serif" font-size="10.00">_author</text>
</a>
</g>
</g>
<!-- Node6&#45;&gt;Node7 -->
<g id="edge6_Node000006_Node000007" class="edge">
<title>Node6&#45;&gt;Node7</title>
<g id="a_edge6_Node000006_Node000007"><a xlink:title=" ">
<path fill="none" stroke="#63b8ff" d="M291.77,-170.67C305.3,-192.46 336.86,-239.92 372.75,-271 373.63,-271.77 374.54,-272.52 375.47,-273.26"/>
<polygon fill="#63b8ff" stroke="#63b8ff" points="373.09,-276.59 383.24,-279.65 377.21,-270.93 373.09,-276.59"/>
</a>
</g>
</g>
<!-- Node8 -->
<g id="Node000008" class="node">
<title>Node8</title>
<g id="a_Node000008"><a xlink:href="namespaceinfo.html#aae86ae087e0d5fde160d4328e106c21f" target="_top" xlink:title=" ">
<polygon fill="white" stroke="#666666" points="472,-262 372.75,-262 372.75,-224 472,-224 472,-262"/>
<text text-anchor="start" x="380.75" y="-248.5" font-family="Helvetica,sans-Serif" font-size="10.00">info::info_project</text>
<text text-anchor="middle" x="422.38" y="-233.5" font-family="Helvetica,sans-Serif" font-size="10.00">_repository_branch</text>
</a>
</g>
</g>
<!-- Node6&#45;&gt;Node8 -->
<g id="edge7_Node000006_Node000008" class="edge">
<title>Node6&#45;&gt;Node8</title>
<g id="a_edge7_Node000006_Node000008"><a xlink:title=" ">
<path fill="none" stroke="#63b8ff" d="M302.81,-170.82C320.49,-182.32 348.28,-200.18 372.75,-215 374.5,-216.06 376.29,-217.13 378.1,-218.21"/>
<polygon fill="#63b8ff" stroke="#63b8ff" points="375.86,-221.55 386.26,-223.61 379.42,-215.52 375.86,-221.55"/>
</a>
</g>
</g>
<!-- Node9 -->
<g id="Node000009" class="node">
<title>Node9</title>
<g id="a_Node000009"><a xlink:href="namespaceinfo.html#ace228211052ca615450b84d638e882a7" target="_top" xlink:title=" ">
<polygon fill="white" stroke="#666666" points="466.38,-206 378.38,-206 378.38,-168 466.38,-168 466.38,-206"/>
<text text-anchor="start" x="386.38" y="-192.5" font-family="Helvetica,sans-Serif" font-size="10.00">info::info_project</text>
<text text-anchor="middle" x="422.38" y="-177.5" font-family="Helvetica,sans-Serif" font-size="10.00">_repository_url</text>
</a>
</g>
</g>
<!-- Node6&#45;&gt;Node9 -->
<g id="edge8_Node000006_Node000009" class="edge">
<title>Node6&#45;&gt;Node9</title>
<g id="a_edge8_Node000006_Node000009"><a xlink:title=" ">
<path fill="none" stroke="#63b8ff" d="M337.18,-169.75C347.13,-171.78 357.55,-173.92 367.54,-175.97"/>
<polygon fill="#63b8ff" stroke="#63b8ff" points="366.67,-179.57 377.17,-178.15 368.08,-172.71 366.67,-179.57"/>
</a>
</g>
</g>
<!-- Node10 -->
<g id="Node000010" class="node">
<title>Node10</title>
<g id="a_Node000010"><a xlink:href="namespaceinfo.html#ab6318ad2c6e0287114caeea0c9434a94" target="_top" xlink:title=" ">
<polygon fill="white" stroke="#666666" points="466.38,-150 378.38,-150 378.38,-112 466.38,-112 466.38,-150"/>
<text text-anchor="start" x="386.38" y="-136.5" font-family="Helvetica,sans-Serif" font-size="10.00">info::info_project</text>
<text text-anchor="middle" x="422.38" y="-121.5" font-family="Helvetica,sans-Serif" font-size="10.00">_revision</text>
</a>
</g>
</g>
<!-- Node6&#45;&gt;Node10 -->
<g id="edge9_Node000006_Node000010" class="edge">
<title>Node6&#45;&gt;Node10</title>
<g id="a_edge9_Node000006_Node000010"><a xlink:title=" ">
<path fill="none" stroke="#63b8ff" d="M337.18,-148.25C347.13,-146.22 357.55,-144.08 367.54,-142.03"/>
<polygon fill="#63b8ff" stroke="#63b8ff" points="368.08,-145.29 377.17,-139.85 366.67,-138.43 368.08,-145.29"/>
</a>
</g>
</g>
<!-- Node11 -->
<g id="Node000011" class="node">
<title>Node11</title>
<g id="a_Node000011"><a xlink:href="namespaceinfo.html#a5600a5c71779aaecafbe4fff68152d02" target="_top" xlink:title=" ">
<polygon fill="white" stroke="#666666" points="471.25,-94 373.5,-94 373.5,-56 471.25,-56 471.25,-94"/>
<text text-anchor="start" x="381.5" y="-80.5" font-family="Helvetica,sans-Serif" font-size="10.00">info::info_project</text>
<text text-anchor="middle" x="422.38" y="-65.5" font-family="Helvetica,sans-Serif" font-size="10.00">_revision_datetime</text>
</a>
</g>
</g>
<!-- Node6&#45;&gt;Node11 -->
<g id="edge10_Node000006_Node000011" class="edge">
<title>Node6&#45;&gt;Node11</title>
<g id="a_edge10_Node000006_Node000011"><a xlink:title=" ">
<path fill="none" stroke="#63b8ff" d="M319.82,-147.02C325.67,-144.42 331.53,-141.4 336.75,-138 355.45,-125.82 354.94,-116.45 372.75,-103 373.99,-102.06 375.26,-101.14 376.56,-100.22"/>
<polygon fill="#63b8ff" stroke="#63b8ff" points="378,-102.8 384.4,-94.35 374.13,-96.97 378,-102.8"/>
</a>
</g>
</g>
<!-- Node12 -->
<g id="Node000012" class="node">
<title>Node12</title>
<g id="a_Node000012"><a xlink:href="namespaceinfo.html#a9d8c1cc05c7db3face2e4a8b5fc29539" target="_top" xlink:title=" ">
<polygon fill="white" stroke="#666666" points="467.5,-38 377.25,-38 377.25,0 467.5,0 467.5,-38"/>
<text text-anchor="start" x="385.25" y="-24.5" font-family="Helvetica,sans-Serif" font-size="10.00">info::info_project</text>
<text text-anchor="middle" x="422.38" y="-9.5" font-family="Helvetica,sans-Serif" font-size="10.00">_revision_history</text>
</a>
</g>
</g>
<!-- Node6&#45;&gt;Node12 -->
<g id="edge11_Node000006_Node000012" class="edge">
<title>Node6&#45;&gt;Node12</title>
<g id="a_edge11_Node000006_Node000012"><a xlink:title=" ">
<path fill="none" stroke="#63b8ff" d="M324.39,-147.09C328.92,-144.59 333.18,-141.59 336.75,-138 367.4,-107.14 344.32,-79.91 372.75,-47 373.08,-46.61 373.43,-46.23 373.77,-45.85"/>
<polygon fill="#63b8ff" stroke="#63b8ff" points="375.81,-48.82 380.85,-39.5 371.1,-43.64 375.81,-48.82"/>
</a>
</g>
</g>
</g>
</svg>
