<?xml version="1.0" encoding="UTF-8" standalone="no"?>
<!DOCTYPE svg PUBLIC "-//W3C//DTD SVG 1.1//EN"
 "http://www.w3.org/Graphics/SVG/1.1/DTD/svg11.dtd">
<!-- Generated by graphviz version 8.0.5 (20230430.1635)
 -->
<!-- Title: src/alloc/memuse.hpp Pages: 1 -->
<svg width="175pt" height="90pt"
 viewBox="0.00 0.00 175.25 90.00" xmlns="http://www.w3.org/2000/svg" xmlns:xlink="http://www.w3.org/1999/xlink">
<g id="graph0" class="graph" transform="scale(1 1) rotate(0) translate(4 86)">
<title>src/alloc/memuse.hpp</title>
<!-- Node1 -->
<g id="Node000001" class="node">
<title>Node1</title>
<g id="a_Node000001"><a xlink:title=" ">
<polygon fill="#999999" stroke="#666666" points="147.75,-82 35.75,-82 35.75,-59 147.75,-59 147.75,-82"/>
<text text-anchor="middle" x="91.75" y="-68.5" font-family="Helvetica,sans-Serif" font-size="10.00">src/alloc/memuse.hpp</text>
</a>
</g>
</g>
<!-- Node2 -->
<g id="Node000002" class="node">
<title>Node2</title>
<g id="a_Node000002"><a xlink:title=" ">
<polygon fill="#e0e0e0" stroke="#999999" points="53.5,-23 0,-23 0,0 53.5,0 53.5,-23"/>
<text text-anchor="middle" x="26.75" y="-9.5" font-family="Helvetica,sans-Serif" font-size="10.00">iostream</text>
</a>
</g>
</g>
<!-- Node1&#45;&gt;Node2 -->
<g id="edge1_Node000001_Node000002" class="edge">
<title>Node1&#45;&gt;Node2</title>
<g id="a_edge1_Node000001_Node000002"><a xlink:title=" ">
<path fill="none" stroke="#63b8ff" d="M79.22,-58.51C70.23,-50.62 57.9,-39.82 47.46,-30.66"/>
<polygon fill="#63b8ff" stroke="#63b8ff" points="50.07,-27.42 40.24,-23.46 45.46,-32.68 50.07,-27.42"/>
</a>
</g>
</g>
<!-- Node3 -->
<g id="Node000003" class="node">
<title>Node3</title>
<g id="a_Node000003"><a xlink:title=" ">
<polygon fill="#e0e0e0" stroke="#999999" points="111.75,-23 71.75,-23 71.75,0 111.75,0 111.75,-23"/>
<text text-anchor="middle" x="91.75" y="-9.5" font-family="Helvetica,sans-Serif" font-size="10.00">string</text>
</a>
</g>
</g>
<!-- Node1&#45;&gt;Node3 -->
<g id="edge2_Node000001_Node000003" class="edge">
<title>Node1&#45;&gt;Node3</title>
<g id="a_edge2_Node000001_Node000003"><a xlink:title=" ">
<path fill="none" stroke="#63b8ff" d="M91.75,-58.51C91.75,-51.65 91.75,-42.58 91.75,-34.31"/>
<polygon fill="#63b8ff" stroke="#63b8ff" points="95.25,-34.46 91.75,-24.46 88.25,-34.46 95.25,-34.46"/>
</a>
</g>
</g>
<!-- Node4 -->
<g id="Node000004" class="node">
<title>Node4</title>
<g id="a_Node000004"><a xlink:title=" ">
<polygon fill="#e0e0e0" stroke="#999999" points="167.25,-23 130.25,-23 130.25,0 167.25,0 167.25,-23"/>
<text text-anchor="middle" x="148.75" y="-9.5" font-family="Helvetica,sans-Serif" font-size="10.00">tuple</text>
</a>
</g>
</g>
<!-- Node1&#45;&gt;Node4 -->
<g id="edge3_Node000001_Node000004" class="edge">
<title>Node1&#45;&gt;Node4</title>
<g id="a_edge3_Node000001_Node000004"><a xlink:title=" ">
<path fill="none" stroke="#63b8ff" d="M102.74,-58.51C110.47,-50.78 121,-40.25 130.04,-31.21"/>
<polygon fill="#63b8ff" stroke="#63b8ff" points="132.2,-34 136.79,-24.46 127.25,-29.05 132.2,-34"/>
</a>
</g>
</g>
</g>
</svg>
