<?xml version="1.0" encoding="UTF-8" standalone="no"?>
<!DOCTYPE svg PUBLIC "-//W3C//DTD SVG 1.1//EN"
 "http://www.w3.org/Graphics/SVG/1.1/DTD/svg11.dtd">
<!-- Generated by graphviz version 8.0.5 (20230430.1635)
 -->
<!-- Title: src/args/options.hpp Pages: 1 -->
<svg width="631pt" height="149pt"
 viewBox="0.00 0.00 630.75 149.00" xmlns="http://www.w3.org/2000/svg" xmlns:xlink="http://www.w3.org/1999/xlink">
<g id="graph0" class="graph" transform="scale(1 1) rotate(0) translate(4 145)">
<title>src/args/options.hpp</title>
<!-- Node1 -->
<g id="Node000001" class="node">
<title>Node1</title>
<g id="a_Node000001"><a xlink:title=" ">
<polygon fill="#999999" stroke="#666666" points="267.75,-141 163.25,-141 163.25,-118 267.75,-118 267.75,-141"/>
<text text-anchor="middle" x="215.5" y="-127.5" font-family="Helvetica,sans-Serif" font-size="10.00">src/args/options.hpp</text>
</a>
</g>
</g>
<!-- Node2 -->
<g id="Node000002" class="node">
<title>Node2</title>
<g id="a_Node000002"><a xlink:title=" ">
<polygon fill="#e0e0e0" stroke="#999999" points="49,-82 0,-82 0,-59 49,-59 49,-82"/>
<text text-anchor="middle" x="24.5" y="-68.5" font-family="Helvetica,sans-Serif" font-size="10.00">fstream</text>
</a>
</g>
</g>
<!-- Node1&#45;&gt;Node2 -->
<g id="edge1_Node000001_Node000002" class="edge">
<title>Node1&#45;&gt;Node2</title>
<g id="a_edge1_Node000001_Node000002"><a xlink:title=" ">
<path fill="none" stroke="#63b8ff" d="M177.44,-117.55C147.65,-108.92 104.91,-96.43 59.66,-82.62"/>
<polygon fill="#63b8ff" stroke="#63b8ff" points="60.93,-79.05 50.35,-79.47 58.89,-85.74 60.93,-79.05"/>
</a>
</g>
</g>
<!-- Node3 -->
<g id="Node000003" class="node">
<title>Node3</title>
<g id="a_Node000003"><a xlink:title=" ">
<polygon fill="#e0e0e0" stroke="#999999" points="120.25,-82 66.75,-82 66.75,-59 120.25,-59 120.25,-82"/>
<text text-anchor="middle" x="93.5" y="-68.5" font-family="Helvetica,sans-Serif" font-size="10.00">iostream</text>
</a>
</g>
</g>
<!-- Node1&#45;&gt;Node3 -->
<g id="edge2_Node000001_Node000003" class="edge">
<title>Node1&#45;&gt;Node3</title>
<g id="a_edge2_Node000001_Node000003"><a xlink:title=" ">
<path fill="none" stroke="#63b8ff" d="M191.98,-117.51C173.5,-108.88 147.52,-96.74 126.89,-87.1"/>
<polygon fill="#63b8ff" stroke="#63b8ff" points="128.49,-83.52 117.95,-82.46 125.53,-89.86 128.49,-83.52"/>
</a>
</g>
</g>
<!-- Node4 -->
<g id="Node000004" class="node">
<title>Node4</title>
<g id="a_Node000004"><a xlink:title=" ">
<polygon fill="#e0e0e0" stroke="#999999" points="178.5,-82 138.5,-82 138.5,-59 178.5,-59 178.5,-82"/>
<text text-anchor="middle" x="158.5" y="-68.5" font-family="Helvetica,sans-Serif" font-size="10.00">string</text>
</a>
</g>
</g>
<!-- Node1&#45;&gt;Node4 -->
<g id="edge3_Node000001_Node000004" class="edge">
<title>Node1&#45;&gt;Node4</title>
<g id="a_edge3_Node000001_Node000004"><a xlink:title=" ">
<path fill="none" stroke="#63b8ff" d="M204.51,-117.51C196.78,-109.78 186.25,-99.25 177.21,-90.21"/>
<polygon fill="#63b8ff" stroke="#63b8ff" points="180,-88.05 170.46,-83.46 175.05,-93 180,-88.05"/>
</a>
</g>
</g>
<!-- Node5 -->
<g id="Node000005" class="node">
<title>Node5</title>
<g id="a_Node000005"><a xlink:title=" ">
<polygon fill="#e0e0e0" stroke="#999999" points="234,-82 197,-82 197,-59 234,-59 234,-82"/>
<text text-anchor="middle" x="215.5" y="-68.5" font-family="Helvetica,sans-Serif" font-size="10.00">tuple</text>
</a>
</g>
</g>
<!-- Node1&#45;&gt;Node5 -->
<g id="edge4_Node000001_Node000005" class="edge">
<title>Node1&#45;&gt;Node5</title>
<g id="a_edge4_Node000001_Node000005"><a xlink:title=" ">
<path fill="none" stroke="#63b8ff" d="M215.5,-117.51C215.5,-110.65 215.5,-101.58 215.5,-93.31"/>
<polygon fill="#63b8ff" stroke="#63b8ff" points="219,-93.46 215.5,-83.46 212,-93.46 219,-93.46"/>
</a>
</g>
</g>
<!-- Node6 -->
<g id="Node000006" class="node">
<title>Node6</title>
<g id="a_Node000006"><a xlink:title=" ">
<polygon fill="#e0e0e0" stroke="#999999" points="385.38,-82 251.62,-82 251.62,-59 385.38,-59 385.38,-82"/>
<text text-anchor="middle" x="318.5" y="-68.5" font-family="Helvetica,sans-Serif" font-size="10.00">boost/program_options.hpp</text>
</a>
</g>
</g>
<!-- Node1&#45;&gt;Node6 -->
<g id="edge5_Node000001_Node000006" class="edge">
<title>Node1&#45;&gt;Node6</title>
<g id="a_edge5_Node000001_Node000006"><a xlink:title=" ">
<path fill="none" stroke="#63b8ff" d="M235.36,-117.51C250.61,-109.07 271.89,-97.29 289.11,-87.76"/>
<polygon fill="#63b8ff" stroke="#63b8ff" points="290.65,-90.36 297.7,-82.46 287.26,-84.24 290.65,-90.36"/>
</a>
</g>
</g>
<!-- Node7 -->
<g id="Node000007" class="node">
<title>Node7</title>
<g id="a_Node000007"><a xlink:title=" ">
<polygon fill="#e0e0e0" stroke="#999999" points="503.88,-82 403.12,-82 403.12,-59 503.88,-59 503.88,-82"/>
<text text-anchor="middle" x="453.5" y="-68.5" font-family="Helvetica,sans-Serif" font-size="10.00">boost/log/trivial.hpp</text>
</a>
</g>
</g>
<!-- Node1&#45;&gt;Node7 -->
<g id="edge6_Node000001_Node000007" class="edge">
<title>Node1&#45;&gt;Node7</title>
<g id="a_edge6_Node000001_Node000007"><a xlink:title=" ">
<path fill="none" stroke="#63b8ff" d="M261.39,-117.51C300.16,-108.22 355.83,-94.89 397.27,-84.97"/>
<polygon fill="#63b8ff" stroke="#63b8ff" points="397.84,-88.19 406.75,-82.46 396.21,-81.38 397.84,-88.19"/>
</a>
</g>
</g>
<!-- Node8 -->
<g id="Node000008" class="node">
<title>Node8</title>
<g id="a_Node000008"><a xlink:href="version_8h.html" target="_top" xlink:title=" ">
<polygon fill="white" stroke="#666666" points="596.75,-82 522.25,-82 522.25,-59 596.75,-59 596.75,-82"/>
<text text-anchor="middle" x="559.5" y="-68.5" font-family="Helvetica,sans-Serif" font-size="10.00">info/version.h</text>
</a>
</g>
</g>
<!-- Node1&#45;&gt;Node8 -->
<g id="edge7_Node000001_Node000008" class="edge">
<title>Node1&#45;&gt;Node8</title>
<g id="a_edge7_Node000001_Node000008"><a xlink:title=" ">
<path fill="none" stroke="#63b8ff" d="M267.98,-121.33C325.26,-113.27 419.9,-99.27 511.29,-82.13"/>
<polygon fill="#63b8ff" stroke="#63b8ff" points="511.66,-85.44 520.83,-80.14 510.36,-78.56 511.66,-85.44"/>
</a>
</g>
</g>
<!-- Node9 -->
<g id="Node000009" class="node">
<title>Node9</title>
<g id="a_Node000009"><a xlink:title=" ">
<polygon fill="#e0e0e0" stroke="#999999" points="554.25,-23 488.75,-23 488.75,0 554.25,0 554.25,-23"/>
<text text-anchor="middle" x="521.5" y="-9.5" font-family="Helvetica,sans-Serif" font-size="10.00">string_view</text>
</a>
</g>
</g>
<!-- Node8&#45;&gt;Node9 -->
<g id="edge8_Node000008_Node000009" class="edge">
<title>Node8&#45;&gt;Node9</title>
<g id="a_edge8_Node000008_Node000009"><a xlink:title=" ">
<path fill="none" stroke="#63b8ff" d="M552.17,-58.51C547.28,-51.18 540.71,-41.32 534.9,-32.61"/>
<polygon fill="#63b8ff" stroke="#63b8ff" points="537.26,-30.84 528.8,-24.46 531.44,-34.72 537.26,-30.84"/>
</a>
</g>
</g>
<!-- Node10 -->
<g id="Node000010" class="node">
<title>Node10</title>
<g id="a_Node000010"><a xlink:href="config_8h.html" target="_top" xlink:title=" ">
<polygon fill="white" stroke="#666666" points="622.75,-23 572.25,-23 572.25,0 622.75,0 622.75,-23"/>
<text text-anchor="middle" x="597.5" y="-9.5" font-family="Helvetica,sans-Serif" font-size="10.00">config.h</text>
</a>
</g>
</g>
<!-- Node8&#45;&gt;Node10 -->
<g id="edge9_Node000008_Node000010" class="edge">
<title>Node8&#45;&gt;Node10</title>
<g id="a_edge9_Node000008_Node000010"><a xlink:title=" ">
<path fill="none" stroke="#63b8ff" d="M566.83,-58.51C571.72,-51.18 578.29,-41.32 584.1,-32.61"/>
<polygon fill="#63b8ff" stroke="#63b8ff" points="587.56,-34.72 590.2,-24.46 581.74,-30.84 587.56,-34.72"/>
</a>
</g>
</g>
</g>
</svg>
