<?xml version="1.0" encoding="UTF-8" standalone="no"?>
<!DOCTYPE svg PUBLIC "-//W3C//DTD SVG 1.1//EN"
 "http://www.w3.org/Graphics/SVG/1.1/DTD/svg11.dtd">
<!-- Generated by graphviz version 8.0.5 (20230430.1635)
 -->
<!-- Title: src/cont/slist.hpp Pages: 1 -->
<svg width="488pt" height="90pt"
 viewBox="0.00 0.00 488.12 90.00" xmlns="http://www.w3.org/2000/svg" xmlns:xlink="http://www.w3.org/1999/xlink">

<svg id="main" version="1.1" xmlns="http://www.w3.org/2000/svg" xmlns:xlink="http://www.w3.org/1999/xlink" xml:space="preserve" onload="init(evt)">
<style type="text/css"><![CDATA[
.node, .edge {opacity: 0.7;}
.node.selected, .edge.selected {opacity: 1;}
.edge:hover path { stroke: red; }
.edge:hover polygon { stroke: red; fill: red; }
]]></style>
<script type="application/ecmascript" xlink:href="svg.min.js"/>
<svg id="graph" class="graph">
<g id="graph0" class="graph" transform="scale(1 1) rotate(0) translate(4 86)">
<title>src/cont/slist.hpp</title>
<!-- Node1 -->
<g id="Node000001" class="node">
<title>Node1</title>
<g id="a_Node000001"><a xlink:title=" ">
<polygon fill="#999999" stroke="#666666" points="235.38,-82 144.38,-82 144.38,-59 235.38,-59 235.38,-82"/>
<text text-anchor="middle" x="189.88" y="-68.5" font-family="Helvetica,sans-Serif" font-size="10.00">src/cont/slist.hpp</text>
</a>
</g>
</g>
<!-- Node2 -->
<g id="Node000002" class="node">
<title>Node2</title>
<g id="a_Node000002"><a xlink:title=" ">
<polygon fill="#e0e0e0" stroke="#999999" points="55.75,-23 0,-23 0,0 55.75,0 55.75,-23"/>
<text text-anchor="middle" x="27.88" y="-9.5" font-family="Helvetica,sans-Serif" font-size="10.00">algorithm</text>
</a>
</g>
</g>
<!-- Node1&#45;&gt;Node2 -->
<g id="edge1_Node000001_Node000002" class="edge">
<title>Node1&#45;&gt;Node2</title>
<g id="a_edge1_Node000001_Node000002"><a xlink:title=" ">
<path fill="none" stroke="#63b8ff" d="M158.64,-58.51C132.31,-49.24 94.52,-35.95 66.33,-26.03"/>
<polygon fill="#63b8ff" stroke="#63b8ff" points="67.63,-22.43 57.04,-22.41 65.31,-29.03 67.63,-22.43"/>
</a>
</g>
</g>
<!-- Node3 -->
<g id="Node000003" class="node">
<title>Node3</title>
<g id="a_Node000003"><a xlink:title=" ">
<polygon fill="#e0e0e0" stroke="#999999" points="119.88,-23 73.88,-23 73.88,0 119.88,0 119.88,-23"/>
<text text-anchor="middle" x="96.88" y="-9.5" font-family="Helvetica,sans-Serif" font-size="10.00">iterator</text>
</a>
</g>
</g>
<!-- Node1&#45;&gt;Node3 -->
<g id="edge2_Node000001_Node000003" class="edge">
<title>Node1&#45;&gt;Node3</title>
<g id="a_edge2_Node000001_Node000003"><a xlink:title=" ">
<path fill="none" stroke="#63b8ff" d="M171.94,-58.51C158.31,-50.15 139.32,-38.51 123.85,-29.03"/>
<polygon fill="#63b8ff" stroke="#63b8ff" points="126.11,-25.7 115.75,-23.46 122.45,-31.67 126.11,-25.7"/>
</a>
</g>
</g>
<!-- Node4 -->
<g id="Node000004" class="node">
<title>Node4</title>
<g id="a_Node000004"><a xlink:title=" ">
<polygon fill="#e0e0e0" stroke="#999999" points="177.5,-23 138.25,-23 138.25,0 177.5,0 177.5,-23"/>
<text text-anchor="middle" x="157.88" y="-9.5" font-family="Helvetica,sans-Serif" font-size="10.00">utility</text>
</a>
</g>
</g>
<!-- Node1&#45;&gt;Node4 -->
<g id="edge3_Node000001_Node000004" class="edge">
<title>Node1&#45;&gt;Node4</title>
<g id="a_edge3_Node000001_Node000004"><a xlink:title=" ">
<path fill="none" stroke="#63b8ff" d="M183.71,-58.51C179.63,-51.26 174.17,-41.53 169.32,-32.89"/>
<polygon fill="#63b8ff" stroke="#63b8ff" points="171.97,-31.46 164.03,-24.46 165.87,-34.89 171.97,-31.46"/>
</a>
</g>
</g>
<!-- Node5 -->
<g id="Node000005" class="node">
<title>Node5</title>
<g id="a_Node000005"><a xlink:title=" ">
<polygon fill="#e0e0e0" stroke="#999999" points="247.88,-23 195.88,-23 195.88,0 247.88,0 247.88,-23"/>
<text text-anchor="middle" x="221.88" y="-9.5" font-family="Helvetica,sans-Serif" font-size="10.00">memory</text>
</a>
</g>
</g>
<!-- Node1&#45;&gt;Node5 -->
<g id="edge4_Node000001_Node000005" class="edge">
<title>Node1&#45;&gt;Node5</title>
<g id="a_edge4_Node000001_Node000005"><a xlink:title=" ">
<path fill="none" stroke="#63b8ff" d="M196.04,-58.51C200.12,-51.26 205.58,-41.53 210.43,-32.89"/>
<polygon fill="#63b8ff" stroke="#63b8ff" points="213.88,-34.89 215.72,-24.46 207.78,-31.46 213.88,-34.89"/>
</a>
</g>
</g>
<!-- Node6 -->
<g id="Node000006" class="node">
<title>Node6</title>
<g id="a_Node000006"><a xlink:title=" ">
<polygon fill="#e0e0e0" stroke="#999999" points="375.38,-23 266.38,-23 266.38,0 375.38,0 375.38,-23"/>
<text text-anchor="middle" x="320.88" y="-9.5" font-family="Helvetica,sans-Serif" font-size="10.00">boost/type_index.hpp</text>
</a>
</g>
</g>
<!-- Node1&#45;&gt;Node6 -->
<g id="edge5_Node000001_Node000006" class="edge">
<title>Node1&#45;&gt;Node6</title>
<g id="a_edge5_Node000001_Node000006"><a xlink:title=" ">
<path fill="none" stroke="#63b8ff" d="M215.13,-58.51C235.16,-49.8 263.38,-37.52 285.63,-27.84"/>
<polygon fill="#63b8ff" stroke="#63b8ff" points="286.92,-30.66 294.69,-23.46 284.13,-24.24 286.92,-30.66"/>
</a>
</g>
</g>
<!-- Node7 -->
<g id="Node000007" class="node">
<title>Node7</title>
<g id="a_Node000007"><a xlink:href="logging_8hpp.html" target="_top" xlink:title=" ">
<polygon fill="white" stroke="#666666" points="480.12,-23 393.62,-23 393.62,0 480.12,0 480.12,-23"/>
<text text-anchor="middle" x="436.88" y="-9.5" font-family="Helvetica,sans-Serif" font-size="10.00">utils/logging.hpp</text>
</a>
</g>
</g>
<!-- Node1&#45;&gt;Node7 -->
<g id="edge6_Node000001_Node000007" class="edge">
<title>Node1&#45;&gt;Node7</title>
<g id="a_edge6_Node000001_Node000007"><a xlink:title=" ">
<path fill="none" stroke="#63b8ff" d="M235.75,-58.91C277.39,-49.31 338.8,-35.13 382.8,-24.98"/>
<polygon fill="#63b8ff" stroke="#63b8ff" points="383.36,-28.21 392.31,-22.55 381.78,-21.39 383.36,-28.21"/>
</a>
</g>
</g>
</g>
</svg>
</svg>

<style type='text/css'>
<![CDATA[
[data-mouse-over-selected='false'] { opacity: 0.7; }
[data-mouse-over-selected='true']  { opacity: 1.0; }
]]>
</style>
<script type="application/ecmascript"><![CDATA[
document.addEventListener('DOMContentLoaded', (event) => {
  highlightEdges();
  highlightAdjacentNodes();
});
]]></script>
</svg>
