<?xml version="1.0" encoding="UTF-8" standalone="no"?>
<!DOCTYPE svg PUBLIC "-//W3C//DTD SVG 1.1//EN"
 "http://www.w3.org/Graphics/SVG/1.1/DTD/svg11.dtd">
<!-- Generated by graphviz version 8.0.5 (20230430.1635)
 -->
<!-- Title: TEST Pages: 1 -->
<svg width="331pt" height="129pt"
 viewBox="0.00 0.00 331.25 128.80" xmlns="http://www.w3.org/2000/svg" xmlns:xlink="http://www.w3.org/1999/xlink">

<svg id="main" version="1.1" xmlns="http://www.w3.org/2000/svg" xmlns:xlink="http://www.w3.org/1999/xlink" xml:space="preserve" onload="init(evt)">
<style type="text/css"><![CDATA[
.node, .edge {opacity: 0.7;}
.node.selected, .edge.selected {opacity: 1;}
.edge:hover path { stroke: red; }
.edge:hover polygon { stroke: red; fill: red; }
]]></style>
<script type="application/ecmascript" xlink:href="svg.min.js"/>
<svg id="graph" class="graph">
<g id="graph0" class="graph" transform="scale(1 1) rotate(0) translate(4 124.8)">
<title>TEST</title>
<!-- Node1 -->
<g id="Node000001" class="node">
<title>Node1</title>
<g id="a_Node000001"><a xlink:title=" ">
<polygon fill="#999999" stroke="#666666" points="40.75,-64.8 0,-64.8 0,-41.8 40.75,-41.8 40.75,-64.8"/>
<text text-anchor="middle" x="20.38" y="-51.3" font-family="Helvetica,sans-Serif" font-size="10.00">TEST</text>
</a>
</g>
</g>
<!-- Node2 -->
<g id="Node000002" class="node">
<title>Node2</title>
<g id="a_Node000002"><a xlink:href="structcont_1_1slist.html#aefb63000899494fd4885f6b9c77fdbd6" target="_top" xlink:title=" ">
<polygon fill="white" stroke="#666666" points="316.5,-120.8 230,-120.8 230,-97.8 316.5,-97.8 316.5,-120.8"/>
<text text-anchor="middle" x="273.25" y="-107.3" font-family="Helvetica,sans-Serif" font-size="10.00">cont::slist::begin</text>
</a>
</g>
</g>
<!-- Node1&#45;&gt;Node2 -->
<g id="edge1_Node000001_Node000002" class="edge">
<title>Node1&#45;&gt;Node2</title>
<g id="a_edge1_Node000001_Node000002"><a xlink:title=" ">
<path fill="none" stroke="#63b8ff" d="M32.87,-65.27C43.28,-75.24 59.59,-88.84 76.75,-95.3 122.45,-112.51 178.35,-114.83 218.65,-113.54"/>
<polygon fill="#63b8ff" stroke="#63b8ff" points="218.73,-117 228.58,-113.09 218.45,-110 218.73,-117"/>
</a>
</g>
</g>
<!-- Node3 -->
<g id="Node000003" class="node">
<title>Node3</title>
<g id="a_Node000003"><a xlink:href="structcont_1_1slist.html#a4782ed19e147834da19769a24ba744e6" target="_top" xlink:title=" ">
<polygon fill="white" stroke="#666666" points="312.75,-23.8 233.75,-23.8 233.75,-0.8 312.75,-0.8 312.75,-23.8"/>
<text text-anchor="middle" x="273.25" y="-10.3" font-family="Helvetica,sans-Serif" font-size="10.00">cont::slist::end</text>
</a>
</g>
</g>
<!-- Node1&#45;&gt;Node3 -->
<g id="edge2_Node000001_Node000003" class="edge">
<title>Node1&#45;&gt;Node3</title>
<g id="a_edge2_Node000001_Node000003"><a xlink:title=" ">
<path fill="none" stroke="#63b8ff" d="M32.82,-41.32C43.2,-31.39 59.48,-18 76.75,-12.3 124.33,3.39 182.05,0.99 222.38,-3.86"/>
<polygon fill="#63b8ff" stroke="#63b8ff" points="221.91,-7.46 232.28,-5.28 222.81,-0.52 221.91,-7.46"/>
</a>
</g>
</g>
<!-- Node4 -->
<g id="Node000004" class="node">
<title>Node4</title>
<g id="a_Node000004"><a xlink:href="structcont_1_1slist.html#a7476c307cd7a30879c82289dd07e154f" target="_top" xlink:title=" ">
<polygon fill="white" stroke="#666666" points="187.25,-44.8 76.75,-44.8 76.75,-21.8 187.25,-21.8 187.25,-44.8"/>
<text text-anchor="middle" x="132" y="-31.3" font-family="Helvetica,sans-Serif" font-size="10.00">cont::slist::push_back</text>
</a>
</g>
</g>
<!-- Node1&#45;&gt;Node4 -->
<g id="edge3_Node000001_Node000004" class="edge">
<title>Node1&#45;&gt;Node4</title>
<g id="a_edge3_Node000001_Node000004"><a xlink:title=" ">
<path fill="none" stroke="#63b8ff" d="M41.23,-49.68C48.41,-48.37 56.97,-46.81 65.91,-45.18"/>
<polygon fill="#63b8ff" stroke="#63b8ff" points="66.31,-48.48 75.51,-43.24 65.05,-41.59 66.31,-48.48"/>
</a>
</g>
</g>
<!-- Node6 -->
<g id="Node000006" class="node">
<title>Node6</title>
<g id="a_Node000006"><a xlink:href="structcont_1_1slist.html#ab7ccea9953e3150c3b8c881a294a9010" target="_top" xlink:title=" ">
<polygon fill="white" stroke="#666666" points="186.5,-85.8 77.5,-85.8 77.5,-62.8 186.5,-62.8 186.5,-85.8"/>
<text text-anchor="middle" x="132" y="-72.3" font-family="Helvetica,sans-Serif" font-size="10.00">cont::slist::push_front</text>
</a>
</g>
</g>
<!-- Node1&#45;&gt;Node6 -->
<g id="edge6_Node000001_Node000006" class="edge">
<title>Node1&#45;&gt;Node6</title>
<g id="a_edge6_Node000001_Node000006"><a xlink:title=" ">
<path fill="none" stroke="#63b8ff" d="M41.23,-57.11C48.67,-58.53 57.59,-60.24 66.87,-62.02"/>
<polygon fill="#63b8ff" stroke="#63b8ff" points="65.97,-65.6 76.45,-64.05 67.29,-58.73 65.97,-65.6"/>
</a>
</g>
</g>
<!-- Node4&#45;&gt;Node3 -->
<g id="edge5_Node000004_Node000003" class="edge">
<title>Node4&#45;&gt;Node3</title>
<g id="a_edge5_Node000004_Node000003"><a xlink:title=" ">
<path fill="none" stroke="#63b8ff" d="M187.64,-25.06C199.18,-23.32 211.31,-21.49 222.66,-19.78"/>
<polygon fill="#63b8ff" stroke="#63b8ff" points="222.89,-23.14 232.26,-18.18 221.85,-16.21 222.89,-23.14"/>
</a>
</g>
</g>
<!-- Node5 -->
<g id="Node000005" class="node">
<title>Node5</title>
<g id="a_Node000005"><a xlink:href="structcont_1_1slist.html#ad50169f77851a298b6af377bfe55fbf0" target="_top" xlink:title=" ">
<polygon fill="white" stroke="#666666" points="323.25,-74.8 223.25,-74.8 223.25,-51.8 323.25,-51.8 323.25,-74.8"/>
<text text-anchor="middle" x="273.25" y="-61.3" font-family="Helvetica,sans-Serif" font-size="10.00">cont::slist::emplace</text>
</a>
</g>
</g>
<!-- Node4&#45;&gt;Node5 -->
<g id="edge4_Node000004_Node000005" class="edge">
<title>Node4&#45;&gt;Node5</title>
<g id="a_edge4_Node000004_Node000005"><a xlink:title=" ">
<path fill="none" stroke="#63b8ff" d="M187.64,-45.07C195.69,-46.81 204.02,-48.6 212.18,-50.36"/>
<polygon fill="#63b8ff" stroke="#63b8ff" points="211.24,-53.96 221.76,-52.64 212.72,-47.11 211.24,-53.96"/>
</a>
</g>
</g>
<!-- Node6&#45;&gt;Node2 -->
<g id="edge7_Node000006_Node000002" class="edge">
<title>Node6&#45;&gt;Node2</title>
<g id="a_edge7_Node000006_Node000002"><a xlink:title=" ">
<path fill="none" stroke="#63b8ff" d="M180.53,-86.25C192.97,-89.38 206.45,-92.76 219.15,-95.96"/>
<polygon fill="#63b8ff" stroke="#63b8ff" points="218.05,-99.54 228.6,-98.58 219.75,-92.75 218.05,-99.54"/>
</a>
</g>
</g>
<!-- Node6&#45;&gt;Node5 -->
<g id="edge8_Node000006_Node000005" class="edge">
<title>Node6&#45;&gt;Node5</title>
<g id="a_edge8_Node000006_Node000005"><a xlink:title=" ">
<path fill="none" stroke="#63b8ff" d="M186.84,-70.05C195.14,-69.39 203.76,-68.71 212.18,-68.05"/>
<polygon fill="#63b8ff" stroke="#63b8ff" points="212.42,-71.46 222.11,-67.18 211.87,-64.48 212.42,-71.46"/>
</a>
</g>
</g>
</g>
</svg>
</svg>

<style type='text/css'>
<![CDATA[
[data-mouse-over-selected='false'] { opacity: 0.7; }
[data-mouse-over-selected='true']  { opacity: 1.0; }
]]>
</style>
<script type="application/ecmascript"><![CDATA[
document.addEventListener('DOMContentLoaded', (event) => {
  highlightEdges();
  highlightAdjacentNodes();
});
]]></script>
</svg>
