<?xml version="1.0" encoding="UTF-8" standalone="no"?>
<!DOCTYPE svg PUBLIC "-//W3C//DTD SVG 1.1//EN"
 "http://www.w3.org/Graphics/SVG/1.1/DTD/svg11.dtd">
<!-- Generated by graphviz version 8.0.5 (20230430.1635)
 -->
<!-- Title: TEST Pages: 1 -->
<svg width="171pt" height="72pt"
 viewBox="0.00 0.00 171.25 72.00" xmlns="http://www.w3.org/2000/svg" xmlns:xlink="http://www.w3.org/1999/xlink">
<g id="graph0" class="graph" transform="scale(1 1) rotate(0) translate(4 68)">
<title>TEST</title>
<!-- Node1 -->
<g id="Node000001" class="node">
<title>Node1</title>
<g id="a_Node000001"><a xlink:title=" ">
<polygon fill="#999999" stroke="#666666" points="40.75,-43 0,-43 0,-20 40.75,-20 40.75,-43"/>
<text text-anchor="middle" x="20.38" y="-29.5" font-family="Helvetica,sans-Serif" font-size="10.00">TEST</text>
</a>
</g>
</g>
<!-- Node2 -->
<g id="Node000002" class="node">
<title>Node2</title>
<g id="a_Node000002"><a xlink:href="structcont_1_1slist.html#aefb63000899494fd4885f6b9c77fdbd6" target="_top" xlink:title=" ">
<polygon fill="white" stroke="#666666" points="163.25,-64 76.75,-64 76.75,-41 163.25,-41 163.25,-64"/>
<text text-anchor="middle" x="120" y="-50.5" font-family="Helvetica,sans-Serif" font-size="10.00">cont::slist::begin</text>
</a>
</g>
</g>
<!-- Node1&#45;&gt;Node2 -->
<g id="edge1_Node000001_Node000002" class="edge">
<title>Node1&#45;&gt;Node2</title>
<g id="a_edge1_Node000001_Node000002"><a xlink:title=" ">
<path fill="none" stroke="#63b8ff" d="M41.13,-35.75C48.34,-37.3 56.88,-39.14 65.61,-41.02"/>
<polygon fill="#63b8ff" stroke="#63b8ff" points="64.78,-44.63 75.29,-43.31 66.25,-37.79 64.78,-44.63"/>
</a>
</g>
</g>
<!-- Node3 -->
<g id="Node000003" class="node">
<title>Node3</title>
<g id="a_Node000003"><a xlink:href="structcont_1_1slist.html#a4782ed19e147834da19769a24ba744e6" target="_top" xlink:title=" ">
<polygon fill="white" stroke="#666666" points="159.5,-23 80.5,-23 80.5,0 159.5,0 159.5,-23"/>
<text text-anchor="middle" x="120" y="-9.5" font-family="Helvetica,sans-Serif" font-size="10.00">cont::slist::end</text>
</a>
</g>
</g>
<!-- Node1&#45;&gt;Node3 -->
<g id="edge2_Node000001_Node000003" class="edge">
<title>Node1&#45;&gt;Node3</title>
<g id="a_edge2_Node000001_Node000003"><a xlink:title=" ">
<path fill="none" stroke="#63b8ff" d="M41.13,-27.45C49.48,-25.74 59.62,-23.66 69.78,-21.58"/>
<polygon fill="#63b8ff" stroke="#63b8ff" points="70.21,-24.86 79.31,-19.43 68.81,-18.01 70.21,-24.86"/>
</a>
</g>
</g>
</g>
</svg>
