<?xml version="1.0" encoding="UTF-8" standalone="no"?>
<!DOCTYPE svg PUBLIC "-//W3C//DTD SVG 1.1//EN"
 "http://www.w3.org/Graphics/SVG/1.1/DTD/svg11.dtd">
<!-- Generated by graphviz version 8.0.5 (20230430.1635)
 -->
<!-- Title: src/cont/slist_gtest.cpp Pages: 1 -->
<svg width="1041pt" height="208pt"
 viewBox="0.00 0.00 1040.87 208.00" xmlns="http://www.w3.org/2000/svg" xmlns:xlink="http://www.w3.org/1999/xlink">
<g id="graph0" class="graph" transform="scale(1 1) rotate(0) translate(4 204)">
<title>src/cont/slist_gtest.cpp</title>
<!-- Node1 -->
<g id="Node000001" class="node">
<title>Node1</title>
<g id="a_Node000001"><a xlink:title=" ">
<polygon fill="#999999" stroke="#666666" points="864.75,-200 746.75,-200 746.75,-177 864.75,-177 864.75,-200"/>
<text text-anchor="middle" x="805.75" y="-186.5" font-family="Helvetica,sans-Serif" font-size="10.00">src/cont/slist_gtest.cpp</text>
</a>
</g>
</g>
<!-- Node2 -->
<g id="Node000002" class="node">
<title>Node2</title>
<g id="a_Node000002"><a xlink:title=" ">
<polygon fill="#e0e0e0" stroke="#999999" points="53.5,-23 0,-23 0,0 53.5,0 53.5,-23"/>
<text text-anchor="middle" x="26.75" y="-9.5" font-family="Helvetica,sans-Serif" font-size="10.00">iostream</text>
</a>
</g>
</g>
<!-- Node1&#45;&gt;Node2 -->
<g id="edge1_Node000001_Node000002" class="edge">
<title>Node1&#45;&gt;Node2</title>
<g id="a_edge1_Node000001_Node000002"><a xlink:title=" ">
<path fill="none" stroke="#63b8ff" d="M746.42,-187.59C585.91,-186.6 148.25,-175.2 45.75,-82 32.55,-70 28.16,-49.79 26.86,-34.25"/>
<polygon fill="#63b8ff" stroke="#63b8ff" points="30.32,-34.32 26.38,-24.49 23.33,-34.64 30.32,-34.32"/>
</a>
</g>
</g>
<!-- Node3 -->
<g id="Node000003" class="node">
<title>Node3</title>
<g id="a_Node000003"><a xlink:title=" ">
<polygon fill="#e0e0e0" stroke="#999999" points="866.38,-141 815.12,-141 815.12,-118 866.38,-118 866.38,-141"/>
<text text-anchor="middle" x="840.75" y="-127.5" font-family="Helvetica,sans-Serif" font-size="10.00">sstream</text>
</a>
</g>
</g>
<!-- Node1&#45;&gt;Node3 -->
<g id="edge2_Node000001_Node000003" class="edge">
<title>Node1&#45;&gt;Node3</title>
<g id="a_edge2_Node000001_Node000003"><a xlink:title=" ">
<path fill="none" stroke="#63b8ff" d="M812.5,-176.51C817,-169.18 823.06,-159.32 828.4,-150.61"/>
<polygon fill="#63b8ff" stroke="#63b8ff" points="831.77,-152.81 834.02,-142.46 825.81,-149.15 831.77,-152.81"/>
</a>
</g>
</g>
<!-- Node4 -->
<g id="Node000004" class="node">
<title>Node4</title>
<g id="a_Node000004"><a xlink:title=" ">
<polygon fill="#e0e0e0" stroke="#999999" points="935,-141 884.5,-141 884.5,-118 935,-118 935,-141"/>
<text text-anchor="middle" x="909.75" y="-127.5" font-family="Helvetica,sans-Serif" font-size="10.00">numeric</text>
</a>
</g>
</g>
<!-- Node1&#45;&gt;Node4 -->
<g id="edge3_Node000001_Node000004" class="edge">
<title>Node1&#45;&gt;Node4</title>
<g id="a_edge3_Node000001_Node000004"><a xlink:title=" ">
<path fill="none" stroke="#63b8ff" d="M825.8,-176.51C841.34,-167.99 863.09,-156.07 880.56,-146.5"/>
<polygon fill="#63b8ff" stroke="#63b8ff" points="881.67,-149.33 888.76,-141.46 878.31,-143.19 881.67,-149.33"/>
</a>
</g>
</g>
<!-- Node5 -->
<g id="Node000005" class="node">
<title>Node5</title>
<g id="a_Node000005"><a xlink:title=" ">
<polygon fill="#e0e0e0" stroke="#999999" points="1024.12,-141 953.38,-141 953.38,-118 1024.12,-118 1024.12,-141"/>
<text text-anchor="middle" x="988.75" y="-127.5" font-family="Helvetica,sans-Serif" font-size="10.00">gtest/gtest.h</text>
</a>
</g>
</g>
<!-- Node1&#45;&gt;Node5 -->
<g id="edge4_Node000001_Node000005" class="edge">
<title>Node1&#45;&gt;Node5</title>
<g id="a_edge4_Node000001_Node000005"><a xlink:title=" ">
<path fill="none" stroke="#63b8ff" d="M841.03,-176.51C870.15,-167.44 911.66,-154.51 943.27,-144.67"/>
<polygon fill="#63b8ff" stroke="#63b8ff" points="944.07,-147.77 952.57,-141.46 941.99,-141.09 944.07,-147.77"/>
</a>
</g>
</g>
<!-- Node6 -->
<g id="Node000006" class="node">
<title>Node6</title>
<g id="a_Node000006"><a xlink:href="bpool__alloc_8hpp.html" target="_top" xlink:title=" ">
<polygon fill="white" stroke="#666666" points="501.12,-141 394.38,-141 394.38,-118 501.12,-118 501.12,-141"/>
<text text-anchor="middle" x="447.75" y="-127.5" font-family="Helvetica,sans-Serif" font-size="10.00">alloc/bpool_alloc.hpp</text>
</a>
</g>
</g>
<!-- Node1&#45;&gt;Node6 -->
<g id="edge5_Node000001_Node000006" class="edge">
<title>Node1&#45;&gt;Node6</title>
<g id="a_edge5_Node000001_Node000006"><a xlink:title=" ">
<path fill="none" stroke="#63b8ff" d="M746.63,-178.09C682.01,-167.8 578.81,-151.37 512.17,-140.76"/>
<polygon fill="#63b8ff" stroke="#63b8ff" points="512.82,-137.16 502.39,-139.04 511.72,-144.07 512.82,-137.16"/>
</a>
</g>
</g>
<!-- Node26 -->
<g id="Node000026" class="node">
<title>Node26</title>
<g id="a_Node000026"><a xlink:href="slist_8hpp.html" target="_top" xlink:title=" ">
<polygon fill="white" stroke="#666666" points="797.12,-141 744.38,-141 744.38,-118 797.12,-118 797.12,-141"/>
<text text-anchor="middle" x="770.75" y="-127.5" font-family="Helvetica,sans-Serif" font-size="10.00">slist.hpp</text>
</a>
</g>
</g>
<!-- Node1&#45;&gt;Node26 -->
<g id="edge29_Node000001_Node000026" class="edge">
<title>Node1&#45;&gt;Node26</title>
<g id="a_edge29_Node000001_Node000026"><a xlink:title=" ">
<path fill="none" stroke="#63b8ff" d="M799,-176.51C794.5,-169.18 788.44,-159.32 783.1,-150.61"/>
<polygon fill="#63b8ff" stroke="#63b8ff" points="785.69,-149.15 777.48,-142.46 779.73,-152.81 785.69,-149.15"/>
</a>
</g>
</g>
<!-- Node7 -->
<g id="Node000007" class="node">
<title>Node7</title>
<g id="a_Node000007"><a xlink:title=" ">
<polygon fill="#e0e0e0" stroke="#999999" points="457.25,-23 408.25,-23 408.25,0 457.25,0 457.25,-23"/>
<text text-anchor="middle" x="432.75" y="-9.5" font-family="Helvetica,sans-Serif" font-size="10.00">cassert</text>
</a>
</g>
</g>
<!-- Node6&#45;&gt;Node7 -->
<g id="edge6_Node000006_Node000007" class="edge">
<title>Node6&#45;&gt;Node7</title>
<g id="a_edge6_Node000006_Node000007"><a xlink:title=" ">
<path fill="none" stroke="#63b8ff" d="M447.44,-117.62C446.94,-103.89 445.69,-79.6 442.75,-59 441.56,-50.65 439.73,-41.56 437.95,-33.66"/>
<polygon fill="#63b8ff" stroke="#63b8ff" points="441.18,-33.07 435.48,-24.14 434.36,-34.67 441.18,-33.07"/>
</a>
</g>
</g>
<!-- Node8 -->
<g id="Node000008" class="node">
<title>Node8</title>
<g id="a_Node000008"><a xlink:title=" ">
<polygon fill="#e0e0e0" stroke="#999999" points="618.88,-82 570.62,-82 570.62,-59 618.88,-59 618.88,-82"/>
<text text-anchor="middle" x="594.75" y="-68.5" font-family="Helvetica,sans-Serif" font-size="10.00">cstddef</text>
</a>
</g>
</g>
<!-- Node6&#45;&gt;Node8 -->
<g id="edge7_Node000006_Node000008" class="edge">
<title>Node6&#45;&gt;Node8</title>
<g id="a_edge7_Node000006_Node000008"><a xlink:title=" ">
<path fill="none" stroke="#63b8ff" d="M476.09,-117.51C500.14,-108.18 534.73,-94.77 560.36,-84.83"/>
<polygon fill="#63b8ff" stroke="#63b8ff" points="561.34,-87.82 569.39,-80.94 558.8,-81.3 561.34,-87.82"/>
</a>
</g>
</g>
<!-- Node9 -->
<g id="Node000009" class="node">
<title>Node9</title>
<g id="a_Node000009"><a xlink:title=" ">
<polygon fill="#e0e0e0" stroke="#999999" points="120.88,-82 54.62,-82 54.62,-59 120.88,-59 120.88,-82"/>
<text text-anchor="middle" x="87.75" y="-68.5" font-family="Helvetica,sans-Serif" font-size="10.00">forward_list</text>
</a>
</g>
</g>
<!-- Node6&#45;&gt;Node9 -->
<g id="edge8_Node000006_Node000009" class="edge">
<title>Node6&#45;&gt;Node9</title>
<g id="a_edge8_Node000006_Node000009"><a xlink:title=" ">
<path fill="none" stroke="#63b8ff" d="M394.02,-122.3C332.8,-114.87 229.56,-101.23 131.81,-82.26"/>
<polygon fill="#63b8ff" stroke="#63b8ff" points="132.64,-78.66 122.15,-80.17 131.29,-85.53 132.64,-78.66"/>
</a>
</g>
</g>
<!-- Node10 -->
<g id="Node000010" class="node">
<title>Node10</title>
<g id="a_Node000010"><a xlink:title=" ">
<polygon fill="#e0e0e0" stroke="#999999" points="196.75,-82 138.75,-82 138.75,-59 196.75,-59 196.75,-82"/>
<text text-anchor="middle" x="167.75" y="-68.5" font-family="Helvetica,sans-Serif" font-size="10.00">functional</text>
</a>
</g>
</g>
<!-- Node6&#45;&gt;Node10 -->
<g id="edge9_Node000006_Node000010" class="edge">
<title>Node6&#45;&gt;Node10</title>
<g id="a_edge9_Node000006_Node000010"><a xlink:title=" ">
<path fill="none" stroke="#63b8ff" d="M394.14,-119.46C347.33,-111.29 277.36,-98.39 207.85,-82.36"/>
<polygon fill="#63b8ff" stroke="#63b8ff" points="208.68,-78.73 198.15,-79.87 207.09,-85.55 208.68,-78.73"/>
</a>
</g>
</g>
<!-- Node11 -->
<g id="Node000011" class="node">
<title>Node11</title>
<g id="a_Node000011"><a xlink:title=" ">
<polygon fill="#e0e0e0" stroke="#999999" points="714.38,-82 675.12,-82 675.12,-59 714.38,-59 714.38,-82"/>
<text text-anchor="middle" x="694.75" y="-68.5" font-family="Helvetica,sans-Serif" font-size="10.00">utility</text>
</a>
</g>
</g>
<!-- Node6&#45;&gt;Node11 -->
<g id="edge10_Node000006_Node000011" class="edge">
<title>Node6&#45;&gt;Node11</title>
<g id="a_edge10_Node000006_Node000011"><a xlink:title=" ">
<path fill="none" stroke="#63b8ff" d="M501.45,-118.09C544.7,-109.39 606.94,-96.16 660.75,-82 661.89,-81.7 663.04,-81.39 664.2,-81.07"/>
<polygon fill="#63b8ff" stroke="#63b8ff" points="665.08,-84.17 673.7,-78 663.11,-77.45 665.08,-84.17"/>
</a>
</g>
</g>
<!-- Node12 -->
<g id="Node000012" class="node">
<title>Node12</title>
<g id="a_Node000012"><a xlink:title=" ">
<polygon fill="#e0e0e0" stroke="#999999" points="252.62,-82 214.88,-82 214.88,-59 252.62,-59 252.62,-82"/>
<text text-anchor="middle" x="233.75" y="-68.5" font-family="Helvetica,sans-Serif" font-size="10.00">array</text>
</a>
</g>
</g>
<!-- Node6&#45;&gt;Node12 -->
<g id="edge11_Node000006_Node000012" class="edge">
<title>Node6&#45;&gt;Node12</title>
<g id="a_edge11_Node000006_Node000012"><a xlink:title=" ">
<path fill="none" stroke="#63b8ff" d="M397.59,-117.59C362.34,-109.56 313.93,-97.79 263.4,-82.28"/>
<polygon fill="#63b8ff" stroke="#63b8ff" points="264.52,-78.65 253.93,-79.02 262.44,-85.33 264.52,-78.65"/>
</a>
</g>
</g>
<!-- Node13 -->
<g id="Node000013" class="node">
<title>Node13</title>
<g id="a_Node000013"><a xlink:title=" ">
<polygon fill="#e0e0e0" stroke="#999999" points="304.75,-82 270.75,-82 270.75,-59 304.75,-59 304.75,-82"/>
<text text-anchor="middle" x="287.75" y="-68.5" font-family="Helvetica,sans-Serif" font-size="10.00">new</text>
</a>
</g>
</g>
<!-- Node6&#45;&gt;Node13 -->
<g id="edge12_Node000006_Node000013" class="edge">
<title>Node6&#45;&gt;Node13</title>
<g id="a_edge12_Node000006_Node000013"><a xlink:title=" ">
<path fill="none" stroke="#63b8ff" d="M414.82,-117.58C389.72,-109.15 354.1,-96.94 315.04,-82.38"/>
<polygon fill="#63b8ff" stroke="#63b8ff" points="316.64,-78.86 306.05,-78.62 314.18,-85.41 316.64,-78.86"/>
</a>
</g>
</g>
<!-- Node14 -->
<g id="Node000014" class="node">
<title>Node14</title>
<g id="a_Node000014"><a xlink:title=" ">
<polygon fill="#e0e0e0" stroke="#999999" points="389.75,-23 331.75,-23 331.75,0 389.75,0 389.75,-23"/>
<text text-anchor="middle" x="360.75" y="-9.5" font-family="Helvetica,sans-Serif" font-size="10.00">stdexcept</text>
</a>
</g>
</g>
<!-- Node6&#45;&gt;Node14 -->
<g id="edge13_Node000006_Node000014" class="edge">
<title>Node6&#45;&gt;Node14</title>
<g id="a_edge13_Node000006_Node000014"><a xlink:title=" ">
<path fill="none" stroke="#63b8ff" d="M443.04,-117.51C436.65,-103.25 424.34,-77.96 409.75,-59 401.84,-48.72 391.61,-38.64 382.55,-30.51"/>
<polygon fill="#63b8ff" stroke="#63b8ff" points="385.17,-27.28 375.33,-23.36 380.58,-32.56 385.17,-27.28"/>
</a>
</g>
</g>
<!-- Node15 -->
<g id="Node000015" class="node">
<title>Node15</title>
<g id="a_Node000015"><a xlink:href="logging_8hpp.html" target="_top" xlink:title=" ">
<polygon fill="white" stroke="#666666" points="861,-23 774.5,-23 774.5,0 861,0 861,-23"/>
<text text-anchor="middle" x="817.75" y="-9.5" font-family="Helvetica,sans-Serif" font-size="10.00">utils/logging.hpp</text>
</a>
</g>
</g>
<!-- Node6&#45;&gt;Node15 -->
<g id="edge14_Node000006_Node000015" class="edge">
<title>Node6&#45;&gt;Node15</title>
<g id="a_edge14_Node000006_Node000015"><a xlink:title=" ">
<path fill="none" stroke="#63b8ff" d="M501.46,-118.9C537.96,-111.36 586.85,-99.22 627.75,-82 645.94,-74.34 647.73,-67.06 665.75,-59 697.16,-44.95 734.03,-33.56 763.59,-25.56"/>
<polygon fill="#63b8ff" stroke="#63b8ff" points="764.36,-28.72 773.13,-22.77 762.57,-21.95 764.36,-28.72"/>
</a>
</g>
</g>
<!-- Node16 -->
<g id="Node000016" class="node">
<title>Node16</title>
<g id="a_Node000016"><a xlink:href="trace_8hpp.html" target="_top" xlink:title=" ">
<polygon fill="white" stroke="#666666" points="400.5,-82 323,-82 323,-59 400.5,-59 400.5,-82"/>
<text text-anchor="middle" x="361.75" y="-68.5" font-family="Helvetica,sans-Serif" font-size="10.00">utils/trace.hpp</text>
</a>
</g>
</g>
<!-- Node6&#45;&gt;Node16 -->
<g id="edge15_Node000006_Node000016" class="edge">
<title>Node6&#45;&gt;Node16</title>
<g id="a_edge15_Node000006_Node000016"><a xlink:title=" ">
<path fill="none" stroke="#63b8ff" d="M431.17,-117.51C418.68,-109.23 401.33,-97.73 387.1,-88.3"/>
<polygon fill="#63b8ff" stroke="#63b8ff" points="389.55,-85.06 379.28,-82.46 385.68,-90.9 389.55,-85.06"/>
</a>
</g>
</g>
<!-- Node19 -->
<g id="Node000019" class="node">
<title>Node19</title>
<g id="a_Node000019"><a xlink:href="bpool_8hpp.html" target="_top" xlink:title=" ">
<polygon fill="white" stroke="#666666" points="552.75,-82 494.75,-82 494.75,-59 552.75,-59 552.75,-82"/>
<text text-anchor="middle" x="523.75" y="-68.5" font-family="Helvetica,sans-Serif" font-size="10.00">bpool.hpp</text>
</a>
</g>
</g>
<!-- Node6&#45;&gt;Node19 -->
<g id="edge20_Node000006_Node000019" class="edge">
<title>Node6&#45;&gt;Node19</title>
<g id="a_edge20_Node000006_Node000019"><a xlink:title=" ">
<path fill="none" stroke="#63b8ff" d="M462.4,-117.51C473.23,-109.39 488.19,-98.17 500.63,-88.84"/>
<polygon fill="#63b8ff" stroke="#63b8ff" points="502.24,-91.26 508.14,-82.46 498.04,-85.66 502.24,-91.26"/>
</a>
</g>
</g>
<!-- Node16&#45;&gt;Node2 -->
<g id="edge17_Node000016_Node000002" class="edge">
<title>Node16&#45;&gt;Node2</title>
<g id="a_edge17_Node000016_Node000002"><a xlink:title=" ">
<path fill="none" stroke="#63b8ff" d="M322.5,-60.67C319.55,-60.08 316.6,-59.52 313.75,-59 206.21,-39.55 174.79,-46.38 64.35,-23.1"/>
<polygon fill="#63b8ff" stroke="#63b8ff" points="65.28,-19.5 54.77,-20.83 63.81,-26.35 65.28,-19.5"/>
</a>
</g>
</g>
<!-- Node16&#45;&gt;Node14 -->
<g id="edge16_Node000016_Node000014" class="edge">
<title>Node16&#45;&gt;Node14</title>
<g id="a_edge16_Node000016_Node000014"><a xlink:title=" ">
<path fill="none" stroke="#63b8ff" d="M361.56,-58.51C361.44,-51.65 361.28,-42.58 361.13,-34.31"/>
<polygon fill="#63b8ff" stroke="#63b8ff" points="364.62,-34.39 360.94,-24.46 357.62,-34.52 364.62,-34.39"/>
</a>
</g>
</g>
<!-- Node17 -->
<g id="Node000017" class="node">
<title>Node17</title>
<g id="a_Node000017"><a xlink:title=" ">
<polygon fill="#e0e0e0" stroke="#999999" points="313.5,-23 206,-23 206,0 313.5,0 313.5,-23"/>
<text text-anchor="middle" x="259.75" y="-9.5" font-family="Helvetica,sans-Serif" font-size="10.00">boost/stacktrace.hpp</text>
</a>
</g>
</g>
<!-- Node16&#45;&gt;Node17 -->
<g id="edge18_Node000016_Node000017" class="edge">
<title>Node16&#45;&gt;Node17</title>
<g id="a_edge18_Node000016_Node000017"><a xlink:title=" ">
<path fill="none" stroke="#63b8ff" d="M342.08,-58.51C326.98,-50.07 305.9,-38.29 288.85,-28.76"/>
<polygon fill="#63b8ff" stroke="#63b8ff" points="290.79,-25.28 280.36,-23.46 287.38,-31.39 290.79,-25.28"/>
</a>
</g>
</g>
<!-- Node18 -->
<g id="Node000018" class="node">
<title>Node18</title>
<g id="a_Node000018"><a xlink:title=" ">
<polygon fill="#e0e0e0" stroke="#999999" points="187.62,-23 71.88,-23 71.88,0 187.62,0 187.62,-23"/>
<text text-anchor="middle" x="129.75" y="-9.5" font-family="Helvetica,sans-Serif" font-size="10.00">boost/exception/all.hpp</text>
</a>
</g>
</g>
<!-- Node16&#45;&gt;Node18 -->
<g id="edge19_Node000016_Node000018" class="edge">
<title>Node16&#45;&gt;Node18</title>
<g id="a_edge19_Node000016_Node000018"><a xlink:title=" ">
<path fill="none" stroke="#63b8ff" d="M322.66,-59.9C284.8,-50.59 227.05,-36.41 184.6,-25.98"/>
<polygon fill="#63b8ff" stroke="#63b8ff" points="185.71,-22.4 175.16,-23.41 184.04,-29.2 185.71,-22.4"/>
</a>
</g>
</g>
<!-- Node19&#45;&gt;Node7 -->
<g id="edge21_Node000019_Node000007" class="edge">
<title>Node19&#45;&gt;Node7</title>
<g id="a_edge21_Node000019_Node000007"><a xlink:title=" ">
<path fill="none" stroke="#63b8ff" d="M506.2,-58.51C492.86,-50.15 474.28,-38.51 459.14,-29.03"/>
<polygon fill="#63b8ff" stroke="#63b8ff" points="461.57,-25.8 451.24,-23.46 457.86,-31.73 461.57,-25.8"/>
</a>
</g>
</g>
<!-- Node19&#45;&gt;Node15 -->
<g id="edge28_Node000019_Node000015" class="edge">
<title>Node19&#45;&gt;Node15</title>
<g id="a_edge28_Node000019_Node000015"><a xlink:title=" ">
<path fill="none" stroke="#63b8ff" d="M553.14,-61.08C556.04,-60.34 558.95,-59.63 561.75,-59 648.22,-39.47 673.43,-40.04 763.38,-23.4"/>
<polygon fill="#63b8ff" stroke="#63b8ff" points="763.89,-26.68 773.07,-21.4 762.6,-19.8 763.89,-26.68"/>
</a>
</g>
</g>
<!-- Node20 -->
<g id="Node000020" class="node">
<title>Node20</title>
<g id="a_Node000020"><a xlink:title=" ">
<polygon fill="#e0e0e0" stroke="#999999" points="515.75,-23 475.75,-23 475.75,0 515.75,0 515.75,-23"/>
<text text-anchor="middle" x="495.75" y="-9.5" font-family="Helvetica,sans-Serif" font-size="10.00">bitset</text>
</a>
</g>
</g>
<!-- Node19&#45;&gt;Node20 -->
<g id="edge22_Node000019_Node000020" class="edge">
<title>Node19&#45;&gt;Node20</title>
<g id="a_edge22_Node000019_Node000020"><a xlink:title=" ">
<path fill="none" stroke="#63b8ff" d="M518.35,-58.51C514.83,-51.33 510.11,-41.74 505.9,-33.17"/>
<polygon fill="#63b8ff" stroke="#63b8ff" points="508.68,-31.89 501.13,-24.46 502.4,-34.98 508.68,-31.89"/>
</a>
</g>
</g>
<!-- Node21 -->
<g id="Node000021" class="node">
<title>Node21</title>
<g id="a_Node000021"><a xlink:title=" ">
<polygon fill="#e0e0e0" stroke="#999999" points="573.38,-23 534.12,-23 534.12,0 573.38,0 573.38,-23"/>
<text text-anchor="middle" x="553.75" y="-9.5" font-family="Helvetica,sans-Serif" font-size="10.00">limits</text>
</a>
</g>
</g>
<!-- Node19&#45;&gt;Node21 -->
<g id="edge23_Node000019_Node000021" class="edge">
<title>Node19&#45;&gt;Node21</title>
<g id="a_edge23_Node000019_Node000021"><a xlink:title=" ">
<path fill="none" stroke="#63b8ff" d="M529.53,-58.51C533.31,-51.33 538.36,-41.74 542.87,-33.17"/>
<polygon fill="#63b8ff" stroke="#63b8ff" points="546.42,-34.94 547.98,-24.46 540.23,-31.68 546.42,-34.94"/>
</a>
</g>
</g>
<!-- Node22 -->
<g id="Node000022" class="node">
<title>Node22</title>
<g id="a_Node000022"><a xlink:title=" ">
<polygon fill="#e0e0e0" stroke="#999999" points="636.38,-23 591.12,-23 591.12,0 636.38,0 636.38,-23"/>
<text text-anchor="middle" x="613.75" y="-9.5" font-family="Helvetica,sans-Serif" font-size="10.00">cstdint</text>
</a>
</g>
</g>
<!-- Node19&#45;&gt;Node22 -->
<g id="edge24_Node000019_Node000022" class="edge">
<title>Node19&#45;&gt;Node22</title>
<g id="a_edge24_Node000019_Node000022"><a xlink:title=" ">
<path fill="none" stroke="#63b8ff" d="M541.1,-58.51C554.18,-50.23 572.33,-38.73 587.22,-29.3"/>
<polygon fill="#63b8ff" stroke="#63b8ff" points="588.87,-31.76 595.45,-23.46 585.13,-25.85 588.87,-31.76"/>
</a>
</g>
</g>
<!-- Node23 -->
<g id="Node000023" class="node">
<title>Node23</title>
<g id="a_Node000023"><a xlink:title=" ">
<polygon fill="#e0e0e0" stroke="#999999" points="1001.75,-23 949.75,-23 949.75,0 1001.75,0 1001.75,-23"/>
<text text-anchor="middle" x="975.75" y="-9.5" font-family="Helvetica,sans-Serif" font-size="10.00">memory</text>
</a>
</g>
</g>
<!-- Node19&#45;&gt;Node23 -->
<g id="edge25_Node000019_Node000023" class="edge">
<title>Node19&#45;&gt;Node23</title>
<g id="a_edge25_Node000019_Node000023"><a xlink:title=" ">
<path fill="none" stroke="#63b8ff" d="M553.1,-60.9C556.01,-60.19 558.93,-59.54 561.75,-59 598.3,-51.94 843.83,-26.16 938.56,-16.34"/>
<polygon fill="#63b8ff" stroke="#63b8ff" points="938.76,-19.73 948.34,-15.22 938.04,-12.77 938.76,-19.73"/>
</a>
</g>
</g>
<!-- Node24 -->
<g id="Node000024" class="node">
<title>Node24</title>
<g id="a_Node000024"><a xlink:title=" ">
<polygon fill="#e0e0e0" stroke="#999999" points="694.75,-23 654.75,-23 654.75,0 694.75,0 694.75,-23"/>
<text text-anchor="middle" x="674.75" y="-9.5" font-family="Helvetica,sans-Serif" font-size="10.00">string</text>
</a>
</g>
</g>
<!-- Node19&#45;&gt;Node24 -->
<g id="edge26_Node000019_Node000024" class="edge">
<title>Node19&#45;&gt;Node24</title>
<g id="a_edge26_Node000019_Node000024"><a xlink:title=" ">
<path fill="none" stroke="#63b8ff" d="M552.86,-58.51C579.19,-48.57 617.81,-33.99 644.49,-23.92"/>
<polygon fill="#63b8ff" stroke="#63b8ff" points="645.31,-26.98 653.42,-20.17 642.83,-20.43 645.31,-26.98"/>
</a>
</g>
</g>
<!-- Node25 -->
<g id="Node000025" class="node">
<title>Node25</title>
<g id="a_Node000025"><a xlink:title=" ">
<polygon fill="#e0e0e0" stroke="#999999" points="756.62,-23 712.88,-23 712.88,0 756.62,0 756.62,-23"/>
<text text-anchor="middle" x="734.75" y="-9.5" font-family="Helvetica,sans-Serif" font-size="10.00">format</text>
</a>
</g>
</g>
<!-- Node19&#45;&gt;Node25 -->
<g id="edge27_Node000019_Node000025" class="edge">
<title>Node19&#45;&gt;Node25</title>
<g id="a_edge27_Node000019_Node000025"><a xlink:title=" ">
<path fill="none" stroke="#63b8ff" d="M553.19,-61.3C556.08,-60.51 558.97,-59.74 561.75,-59 621.49,-43.18 639.51,-41.59 702.03,-23.35"/>
<polygon fill="#63b8ff" stroke="#63b8ff" points="702.86,-26.46 711.47,-20.28 700.88,-19.75 702.86,-26.46"/>
</a>
</g>
</g>
<!-- Node26&#45;&gt;Node11 -->
<g id="edge32_Node000026_Node000011" class="edge">
<title>Node26&#45;&gt;Node11</title>
<g id="a_edge32_Node000026_Node000011"><a xlink:title=" ">
<path fill="none" stroke="#63b8ff" d="M756.1,-117.51C745.27,-109.39 730.31,-98.17 717.87,-88.84"/>
<polygon fill="#63b8ff" stroke="#63b8ff" points="720.46,-85.66 710.36,-82.46 716.26,-91.26 720.46,-85.66"/>
</a>
</g>
</g>
<!-- Node26&#45;&gt;Node15 -->
<g id="edge35_Node000026_Node000015" class="edge">
<title>Node26&#45;&gt;Node15</title>
<g id="a_edge35_Node000026_Node000015"><a xlink:title=" ">
<path fill="none" stroke="#63b8ff" d="M765.8,-117.57C760.14,-103.38 752.75,-78.16 761.75,-59 767.36,-47.06 777.71,-37.12 788,-29.54"/>
<polygon fill="#63b8ff" stroke="#63b8ff" points="789.59,-32.01 795.9,-23.49 785.66,-26.21 789.59,-32.01"/>
</a>
</g>
</g>
<!-- Node26&#45;&gt;Node23 -->
<g id="edge33_Node000026_Node000023" class="edge">
<title>Node26&#45;&gt;Node23</title>
<g id="a_edge33_Node000026_Node000023"><a xlink:title=" ">
<path fill="none" stroke="#63b8ff" d="M797.41,-120.11C800.21,-119.35 803.03,-118.63 805.75,-118 854.46,-106.8 995.36,-120.06 1027.75,-82 1042.33,-64.86 1022.2,-44.06 1002.9,-29.71"/>
<polygon fill="#63b8ff" stroke="#63b8ff" points="1005.13,-26.3 994.93,-23.42 1001.11,-32.03 1005.13,-26.3"/>
</a>
</g>
</g>
<!-- Node27 -->
<g id="Node000027" class="node">
<title>Node27</title>
<g id="a_Node000027"><a xlink:title=" ">
<polygon fill="#e0e0e0" stroke="#999999" points="826.62,-82 770.88,-82 770.88,-59 826.62,-59 826.62,-82"/>
<text text-anchor="middle" x="798.75" y="-68.5" font-family="Helvetica,sans-Serif" font-size="10.00">algorithm</text>
</a>
</g>
</g>
<!-- Node26&#45;&gt;Node27 -->
<g id="edge30_Node000026_Node000027" class="edge">
<title>Node26&#45;&gt;Node27</title>
<g id="a_edge30_Node000026_Node000027"><a xlink:title=" ">
<path fill="none" stroke="#63b8ff" d="M776.15,-117.51C779.67,-110.33 784.39,-100.74 788.6,-92.17"/>
<polygon fill="#63b8ff" stroke="#63b8ff" points="792.1,-93.98 793.37,-83.46 785.82,-90.89 792.1,-93.98"/>
</a>
</g>
</g>
<!-- Node28 -->
<g id="Node000028" class="node">
<title>Node28</title>
<g id="a_Node000028"><a xlink:title=" ">
<polygon fill="#e0e0e0" stroke="#999999" points="890.75,-82 844.75,-82 844.75,-59 890.75,-59 890.75,-82"/>
<text text-anchor="middle" x="867.75" y="-68.5" font-family="Helvetica,sans-Serif" font-size="10.00">iterator</text>
</a>
</g>
</g>
<!-- Node26&#45;&gt;Node28 -->
<g id="edge31_Node000026_Node000028" class="edge">
<title>Node26&#45;&gt;Node28</title>
<g id="a_edge31_Node000026_Node000028"><a xlink:title=" ">
<path fill="none" stroke="#63b8ff" d="M789.45,-117.51C803.81,-109.07 823.86,-97.29 840.07,-87.76"/>
<polygon fill="#63b8ff" stroke="#63b8ff" points="841.26,-90.54 848.1,-82.46 837.71,-84.51 841.26,-90.54"/>
</a>
</g>
</g>
<!-- Node29 -->
<g id="Node000029" class="node">
<title>Node29</title>
<g id="a_Node000029"><a xlink:title=" ">
<polygon fill="#e0e0e0" stroke="#999999" points="1018.25,-82 909.25,-82 909.25,-59 1018.25,-59 1018.25,-82"/>
<text text-anchor="middle" x="963.75" y="-68.5" font-family="Helvetica,sans-Serif" font-size="10.00">boost/type_index.hpp</text>
</a>
</g>
</g>
<!-- Node26&#45;&gt;Node29 -->
<g id="edge34_Node000026_Node000029" class="edge">
<title>Node26&#45;&gt;Node29</title>
<g id="a_edge34_Node000026_Node000029"><a xlink:title=" ">
<path fill="none" stroke="#63b8ff" d="M797.5,-120.46C800.28,-119.63 803.07,-118.8 805.75,-118 842.81,-106.99 884.8,-94.64 916.17,-85.43"/>
<polygon fill="#63b8ff" stroke="#63b8ff" points="916.77,-88.61 925.38,-82.44 914.8,-81.89 916.77,-88.61"/>
</a>
</g>
</g>
</g>
</svg>
