<?xml version="1.0" encoding="UTF-8" standalone="no"?>
<!DOCTYPE svg PUBLIC "-//W3C//DTD SVG 1.1//EN"
 "http://www.w3.org/Graphics/SVG/1.1/DTD/svg11.dtd">
<!-- Generated by graphviz version 8.0.5 (20230430.1635)
 -->
<!-- Title: cont::slist&lt; T, Allocator &gt; Pages: 1 -->
<svg width="231pt" height="1490pt"
 viewBox="0.00 0.00 231.00 1490.00" xmlns="http://www.w3.org/2000/svg" xmlns:xlink="http://www.w3.org/1999/xlink">
<g id="graph0" class="graph" transform="scale(1 1) rotate(0) translate(4 1486)">
<title>cont::slist&lt; T, Allocator &gt;</title>
<!-- Node1 -->
<g id="Node000001" class="node">
<title>Node1</title>
<g id="a_Node000001"><a xlink:title=" ">
<polygon fill="#999999" stroke="none" points="179.5,-669 60.5,-669 60.5,0 179.5,0 179.5,-669"/>
<text text-anchor="start" x="65.25" y="-655.5" font-family="Helvetica,sans-Serif" font-size="10.00">cont::slist&lt; T, Allocator &gt;</text>
<text text-anchor="start" x="69.5" y="-636.5" font-family="Helvetica,sans-Serif" font-size="10.00">&#45;</text>
<text text-anchor="start" x="81.5" y="-636.5" font-family="Helvetica,sans-Serif" font-size="10.00">size_</text>
<text text-anchor="start" x="69.5" y="-617.5" font-family="Helvetica,sans-Serif" font-size="10.00">&#45;</text>
<text text-anchor="start" x="81.5" y="-617.5" font-family="Helvetica,sans-Serif" font-size="10.00">node_alloc_</text>
<text text-anchor="start" x="68" y="-598.5" font-family="Helvetica,sans-Serif" font-size="10.00">+</text>
<text text-anchor="start" x="81.5" y="-598.5" font-family="Helvetica,sans-Serif" font-size="10.00">slist()</text>
<text text-anchor="start" x="68" y="-579.5" font-family="Helvetica,sans-Serif" font-size="10.00">+</text>
<text text-anchor="start" x="81.5" y="-579.5" font-family="Helvetica,sans-Serif" font-size="10.00">slist()</text>
<text text-anchor="start" x="68" y="-560.5" font-family="Helvetica,sans-Serif" font-size="10.00">+</text>
<text text-anchor="start" x="81.5" y="-560.5" font-family="Helvetica,sans-Serif" font-size="10.00">slist()</text>
<text text-anchor="start" x="68" y="-541.5" font-family="Helvetica,sans-Serif" font-size="10.00">+</text>
<text text-anchor="start" x="81.5" y="-541.5" font-family="Helvetica,sans-Serif" font-size="10.00">slist()</text>
<text text-anchor="start" x="68" y="-522.5" font-family="Helvetica,sans-Serif" font-size="10.00">+</text>
<text text-anchor="start" x="81.5" y="-522.5" font-family="Helvetica,sans-Serif" font-size="10.00">slist()</text>
<text text-anchor="start" x="68" y="-503.5" font-family="Helvetica,sans-Serif" font-size="10.00">+</text>
<text text-anchor="start" x="81.5" y="-503.5" font-family="Helvetica,sans-Serif" font-size="10.00">slist()</text>
<text text-anchor="start" x="68" y="-484.5" font-family="Helvetica,sans-Serif" font-size="10.00">+</text>
<text text-anchor="start" x="81.5" y="-484.5" font-family="Helvetica,sans-Serif" font-size="10.00">slist()</text>
<text text-anchor="start" x="68" y="-465.5" font-family="Helvetica,sans-Serif" font-size="10.00">+</text>
<text text-anchor="start" x="81.5" y="-465.5" font-family="Helvetica,sans-Serif" font-size="10.00">~slist()</text>
<text text-anchor="start" x="68" y="-446.5" font-family="Helvetica,sans-Serif" font-size="10.00">+</text>
<text text-anchor="start" x="81.5" y="-446.5" font-family="Helvetica,sans-Serif" font-size="10.00">operator=()</text>
<text text-anchor="start" x="68" y="-427.5" font-family="Helvetica,sans-Serif" font-size="10.00">+</text>
<text text-anchor="start" x="81.5" y="-427.5" font-family="Helvetica,sans-Serif" font-size="10.00">operator=()</text>
<text text-anchor="start" x="68" y="-408.5" font-family="Helvetica,sans-Serif" font-size="10.00">+</text>
<text text-anchor="start" x="81.5" y="-408.5" font-family="Helvetica,sans-Serif" font-size="10.00">swap()</text>
<text text-anchor="start" x="68" y="-389.5" font-family="Helvetica,sans-Serif" font-size="10.00">+</text>
<text text-anchor="start" x="81.5" y="-389.5" font-family="Helvetica,sans-Serif" font-size="10.00">size()</text>
<text text-anchor="start" x="68" y="-370.5" font-family="Helvetica,sans-Serif" font-size="10.00">+</text>
<text text-anchor="start" x="81.5" y="-370.5" font-family="Helvetica,sans-Serif" font-size="10.00">empty()</text>
<text text-anchor="start" x="68" y="-351.5" font-family="Helvetica,sans-Serif" font-size="10.00">+</text>
<text text-anchor="start" x="81.5" y="-351.5" font-family="Helvetica,sans-Serif" font-size="10.00">begin()</text>
<text text-anchor="start" x="68" y="-332.5" font-family="Helvetica,sans-Serif" font-size="10.00">+</text>
<text text-anchor="start" x="81.5" y="-332.5" font-family="Helvetica,sans-Serif" font-size="10.00">end()</text>
<text text-anchor="start" x="68" y="-313.5" font-family="Helvetica,sans-Serif" font-size="10.00">+</text>
<text text-anchor="start" x="81.5" y="-313.5" font-family="Helvetica,sans-Serif" font-size="10.00">begin()</text>
<text text-anchor="start" x="68" y="-294.5" font-family="Helvetica,sans-Serif" font-size="10.00">+</text>
<text text-anchor="start" x="81.5" y="-294.5" font-family="Helvetica,sans-Serif" font-size="10.00">end()</text>
<text text-anchor="start" x="68" y="-275.5" font-family="Helvetica,sans-Serif" font-size="10.00">+</text>
<text text-anchor="start" x="81.5" y="-275.5" font-family="Helvetica,sans-Serif" font-size="10.00">cbegin()</text>
<text text-anchor="start" x="68" y="-256.5" font-family="Helvetica,sans-Serif" font-size="10.00">+</text>
<text text-anchor="start" x="81.5" y="-256.5" font-family="Helvetica,sans-Serif" font-size="10.00">cend()</text>
<text text-anchor="start" x="68" y="-237.5" font-family="Helvetica,sans-Serif" font-size="10.00">+</text>
<text text-anchor="start" x="81.5" y="-237.5" font-family="Helvetica,sans-Serif" font-size="10.00">front()</text>
<text text-anchor="start" x="68" y="-218.5" font-family="Helvetica,sans-Serif" font-size="10.00">+</text>
<text text-anchor="start" x="81.5" y="-218.5" font-family="Helvetica,sans-Serif" font-size="10.00">front()</text>
<text text-anchor="start" x="68" y="-199.5" font-family="Helvetica,sans-Serif" font-size="10.00">+</text>
<text text-anchor="start" x="81.5" y="-199.5" font-family="Helvetica,sans-Serif" font-size="10.00">emplace()</text>
<text text-anchor="start" x="68" y="-180.5" font-family="Helvetica,sans-Serif" font-size="10.00">+</text>
<text text-anchor="start" x="81.5" y="-180.5" font-family="Helvetica,sans-Serif" font-size="10.00">emplace_front()</text>
<text text-anchor="start" x="68" y="-161.5" font-family="Helvetica,sans-Serif" font-size="10.00">+</text>
<text text-anchor="start" x="81.5" y="-161.5" font-family="Helvetica,sans-Serif" font-size="10.00">emplace_back()</text>
<text text-anchor="start" x="68" y="-142.5" font-family="Helvetica,sans-Serif" font-size="10.00">+</text>
<text text-anchor="start" x="81.5" y="-142.5" font-family="Helvetica,sans-Serif" font-size="10.00">insert()</text>
<text text-anchor="start" x="68" y="-123.5" font-family="Helvetica,sans-Serif" font-size="10.00">+</text>
<text text-anchor="start" x="81.5" y="-123.5" font-family="Helvetica,sans-Serif" font-size="10.00">push_front()</text>
<text text-anchor="start" x="68" y="-104.5" font-family="Helvetica,sans-Serif" font-size="10.00">+</text>
<text text-anchor="start" x="81.5" y="-104.5" font-family="Helvetica,sans-Serif" font-size="10.00">push_back()</text>
<text text-anchor="start" x="68" y="-85.5" font-family="Helvetica,sans-Serif" font-size="10.00">+</text>
<text text-anchor="start" x="81.5" y="-85.5" font-family="Helvetica,sans-Serif" font-size="10.00">erase()</text>
<text text-anchor="start" x="68" y="-66.5" font-family="Helvetica,sans-Serif" font-size="10.00">+</text>
<text text-anchor="start" x="81.5" y="-66.5" font-family="Helvetica,sans-Serif" font-size="10.00">erase()</text>
<text text-anchor="start" x="68" y="-47.5" font-family="Helvetica,sans-Serif" font-size="10.00">+</text>
<text text-anchor="start" x="81.5" y="-47.5" font-family="Helvetica,sans-Serif" font-size="10.00">pop_front()</text>
<text text-anchor="start" x="68" y="-28.5" font-family="Helvetica,sans-Serif" font-size="10.00">+</text>
<text text-anchor="start" x="81.5" y="-28.5" font-family="Helvetica,sans-Serif" font-size="10.00">get_allocator()</text>
<text text-anchor="start" x="68" y="-9.5" font-family="Helvetica,sans-Serif" font-size="10.00">+</text>
<text text-anchor="start" x="81.5" y="-9.5" font-family="Helvetica,sans-Serif" font-size="10.00">get_node_allocator()</text>
<polygon fill="#666666" stroke="#666666" points="60.5,-648 60.5,-648 179.5,-648 179.5,-648 60.5,-648"/>
<polygon fill="#666666" stroke="#666666" points="60.5,-610 60.5,-610 79.5,-610 79.5,-610 60.5,-610"/>
<polygon fill="#666666" stroke="#666666" points="79.5,-610 79.5,-610 179.5,-610 179.5,-610 79.5,-610"/>
<polygon fill="none" stroke="#666666" points="60.5,0 60.5,-669 179.5,-669 179.5,0 60.5,0"/>
</a>
</g>
</g>
<!-- Node2 -->
<g id="Node000002" class="node">
<title>Node2</title>
<g id="a_Node000002"><a xlink:href="structcont_1_1slist__details_1_1node__base.html" target="_top" xlink:title=" ">
<polygon fill="white" stroke="none" points="183.5,-887 56.5,-887 56.5,-735 183.5,-735 183.5,-887"/>
<text text-anchor="start" x="61.12" y="-873.5" font-family="Helvetica,sans-Serif" font-size="10.00">cont::slist_details</text>
<text text-anchor="start" x="61.12" y="-858.5" font-family="Helvetica,sans-Serif" font-size="10.00">::node_base&lt; value_type &gt;</text>
<text text-anchor="start" x="118.5" y="-839.5" font-family="Helvetica,sans-Serif" font-size="10.00"> </text>
<text text-anchor="start" x="74.5" y="-820.5" font-family="Helvetica,sans-Serif" font-size="10.00">+</text>
<text text-anchor="start" x="98.5" y="-820.5" font-family="Helvetica,sans-Serif" font-size="10.00">node_base()</text>
<text text-anchor="start" x="74.5" y="-801.5" font-family="Helvetica,sans-Serif" font-size="10.00">+</text>
<text text-anchor="start" x="98.5" y="-801.5" font-family="Helvetica,sans-Serif" font-size="10.00">node_base()</text>
<text text-anchor="start" x="74.5" y="-782.5" font-family="Helvetica,sans-Serif" font-size="10.00">+</text>
<text text-anchor="start" x="98.5" y="-782.5" font-family="Helvetica,sans-Serif" font-size="10.00">node_base()</text>
<text text-anchor="start" x="74.5" y="-763.5" font-family="Helvetica,sans-Serif" font-size="10.00">+</text>
<text text-anchor="start" x="98.5" y="-763.5" font-family="Helvetica,sans-Serif" font-size="10.00">operator=()</text>
<text text-anchor="start" x="74.5" y="-744.5" font-family="Helvetica,sans-Serif" font-size="10.00">+</text>
<text text-anchor="start" x="98.5" y="-744.5" font-family="Helvetica,sans-Serif" font-size="10.00">operator=()</text>
<polygon fill="#666666" stroke="#666666" points="56.5,-851 56.5,-851 183.5,-851 183.5,-851 56.5,-851"/>
<polygon fill="#666666" stroke="#666666" points="56.5,-832 56.5,-832 183.5,-832 183.5,-832 56.5,-832"/>
<polygon fill="none" stroke="#666666" points="56.5,-735 56.5,-887 183.5,-887 183.5,-735 56.5,-735"/>
</a>
</g>
</g>
<!-- Node2&#45;&gt;Node1 -->
<g id="edge1_Node000001_Node000002" class="edge">
<title>Node2&#45;&gt;Node1</title>
<g id="a_edge1_Node000001_Node000002"><a xlink:title=" ">
<path fill="none" stroke="#63b8ff" d="M120,-735.08C120,-718.9 120,-700.79 120,-681.46"/>
<polygon fill="none" stroke="#63b8ff" points="120,-681.48 116,-675.48 120,-669.48 124,-675.48 120,-681.48"/>
</a>
</g>
<text text-anchor="middle" x="136.12" y="-707.5" font-family="Helvetica,sans-Serif" font-size="10.00" fill="grey"> &#45;head_</text>
<text text-anchor="middle" x="136.12" y="-692.5" font-family="Helvetica,sans-Serif" font-size="10.00" fill="grey">&#45;ptail_</text>
</g>
<!-- Node3 -->
<g id="Node000003" class="node">
<title>Node3</title>
<g id="a_Node000003"><a xlink:href="structcont_1_1slist__details_1_1node.html" target="_top" xlink:title=" ">
<polygon fill="white" stroke="none" points="112.5,-1061.5 11.5,-1061.5 11.5,-966.5 112.5,-966.5 112.5,-1061.5"/>
<text text-anchor="start" x="16.25" y="-1048" font-family="Helvetica,sans-Serif" font-size="10.00">cont::slist_details</text>
<text text-anchor="start" x="16.25" y="-1033" font-family="Helvetica,sans-Serif" font-size="10.00">::node&lt; value_type &gt;</text>
<text text-anchor="start" x="29.5" y="-1014" font-family="Helvetica,sans-Serif" font-size="10.00">+</text>
<text text-anchor="start" x="53.5" y="-1014" font-family="Helvetica,sans-Serif" font-size="10.00">value_</text>
<text text-anchor="start" x="29.5" y="-995" font-family="Helvetica,sans-Serif" font-size="10.00">+</text>
<text text-anchor="start" x="53.5" y="-995" font-family="Helvetica,sans-Serif" font-size="10.00">@1</text>
<text text-anchor="start" x="60.5" y="-976" font-family="Helvetica,sans-Serif" font-size="10.00"> </text>
<polygon fill="#666666" stroke="#666666" points="11.5,-1025.5 11.5,-1025.5 112.5,-1025.5 112.5,-1025.5 11.5,-1025.5"/>
<polygon fill="#666666" stroke="#666666" points="11.5,-987.5 11.5,-987.5 51.5,-987.5 51.5,-987.5 11.5,-987.5"/>
<polygon fill="#666666" stroke="#666666" points="51.5,-987.5 51.5,-987.5 112.5,-987.5 112.5,-987.5 51.5,-987.5"/>
<polygon fill="none" stroke="#666666" points="11.5,-966.5 11.5,-1061.5 112.5,-1061.5 112.5,-966.5 11.5,-966.5"/>
</a>
</g>
</g>
<!-- Node3&#45;&gt;Node2 -->
<g id="edge2_Node000002_Node000003" class="edge">
<title>Node3&#45;&gt;Node2</title>
<g id="a_edge2_Node000002_Node000003"><a xlink:title=" ">
<path fill="none" stroke="#63b8ff" d="M75.38,-966.63C81.16,-946.59 88.13,-922.44 94.82,-899.25"/>
<polygon fill="none" stroke="#63b8ff" points="94.82,-899.27 92.64,-892.4 98.14,-887.74 100.32,-894.61 94.82,-899.27"/>
</a>
</g>
<text text-anchor="middle" x="109.5" y="-910.5" font-family="Helvetica,sans-Serif" font-size="10.00" fill="grey"> +next_</text>
</g>
<!-- Node4 -->
<g id="Node000004" class="node">
<title>Node4</title>
<g id="a_Node000004"><a xlink:href="structcont_1_1slist__details_1_1node__base.html" target="_top" xlink:title=" ">
<polygon fill="white" stroke="none" points="92,-1293 0,-1293 0,-1141 92,-1141 92,-1293"/>
<text text-anchor="start" x="4.75" y="-1279.5" font-family="Helvetica,sans-Serif" font-size="10.00">cont::slist_details</text>
<text text-anchor="start" x="4.75" y="-1264.5" font-family="Helvetica,sans-Serif" font-size="10.00">::node_base&lt; Tp &gt;</text>
<text text-anchor="start" x="9" y="-1245.5" font-family="Helvetica,sans-Serif" font-size="10.00">+</text>
<text text-anchor="start" x="24" y="-1245.5" font-family="Helvetica,sans-Serif" font-size="10.00">next_</text>
<text text-anchor="start" x="9" y="-1226.5" font-family="Helvetica,sans-Serif" font-size="10.00">+</text>
<text text-anchor="start" x="24" y="-1226.5" font-family="Helvetica,sans-Serif" font-size="10.00">node_base()</text>
<text text-anchor="start" x="9" y="-1207.5" font-family="Helvetica,sans-Serif" font-size="10.00">+</text>
<text text-anchor="start" x="24" y="-1207.5" font-family="Helvetica,sans-Serif" font-size="10.00">node_base()</text>
<text text-anchor="start" x="9" y="-1188.5" font-family="Helvetica,sans-Serif" font-size="10.00">+</text>
<text text-anchor="start" x="24" y="-1188.5" font-family="Helvetica,sans-Serif" font-size="10.00">operator=()</text>
<text text-anchor="start" x="9" y="-1169.5" font-family="Helvetica,sans-Serif" font-size="10.00">+</text>
<text text-anchor="start" x="24" y="-1169.5" font-family="Helvetica,sans-Serif" font-size="10.00">node_base()</text>
<text text-anchor="start" x="9" y="-1150.5" font-family="Helvetica,sans-Serif" font-size="10.00">+</text>
<text text-anchor="start" x="24" y="-1150.5" font-family="Helvetica,sans-Serif" font-size="10.00">operator=()</text>
<polygon fill="#666666" stroke="#666666" points="0,-1257 0,-1257 92,-1257 92,-1257 0,-1257"/>
<polygon fill="#666666" stroke="#666666" points="0,-1238 0,-1238 22,-1238 22,-1238 0,-1238"/>
<polygon fill="#666666" stroke="#666666" points="22,-1238 22,-1238 92,-1238 92,-1238 22,-1238"/>
<polygon fill="none" stroke="#666666" points="0,-1141 0,-1293 92,-1293 92,-1141 0,-1141"/>
</a>
</g>
</g>
<!-- Node4&#45;&gt;Node3 -->
<g id="edge3_Node000003_Node000004" class="edge">
<title>Node4&#45;&gt;Node3</title>
<g id="a_edge3_Node000003_Node000004"><a xlink:title=" ">
<path fill="none" stroke="#63b8ff" d="M52.82,-1130.36C54.7,-1106.66 56.68,-1081.83 58.31,-1061.3"/>
<polygon fill="none" stroke="#63b8ff" points="49.26,-1129.91 51.96,-1140.16 56.24,-1130.46 49.26,-1129.91"/>
</a>
</g>
</g>
<!-- Node5 -->
<g id="Node000005" class="node">
<title>Node5</title>
<g id="a_Node000005"><a xlink:href="structcont_1_1slist__details_1_1node.html" target="_top" xlink:title=" ">
<polygon fill="white" stroke="none" points="195.5,-1264.5 110.5,-1264.5 110.5,-1169.5 195.5,-1169.5 195.5,-1264.5"/>
<text text-anchor="start" x="115.12" y="-1251" font-family="Helvetica,sans-Serif" font-size="10.00">cont::slist_details</text>
<text text-anchor="start" x="124.88" y="-1236" font-family="Helvetica,sans-Serif" font-size="10.00">::node&lt; Tp &gt;</text>
<text text-anchor="start" x="124.5" y="-1217" font-family="Helvetica,sans-Serif" font-size="10.00">+</text>
<text text-anchor="start" x="144.5" y="-1217" font-family="Helvetica,sans-Serif" font-size="10.00">value_</text>
<text text-anchor="start" x="124.5" y="-1198" font-family="Helvetica,sans-Serif" font-size="10.00">+</text>
<text text-anchor="start" x="144.5" y="-1198" font-family="Helvetica,sans-Serif" font-size="10.00">@1</text>
<text text-anchor="start" x="151.5" y="-1179" font-family="Helvetica,sans-Serif" font-size="10.00"> </text>
<polygon fill="#666666" stroke="#666666" points="110.5,-1228.5 110.5,-1228.5 195.5,-1228.5 195.5,-1228.5 110.5,-1228.5"/>
<polygon fill="#666666" stroke="#666666" points="110.5,-1190.5 110.5,-1190.5 142.5,-1190.5 142.5,-1190.5 110.5,-1190.5"/>
<polygon fill="#666666" stroke="#666666" points="142.5,-1190.5 142.5,-1190.5 195.5,-1190.5 195.5,-1190.5 142.5,-1190.5"/>
<polygon fill="none" stroke="#666666" points="110.5,-1169.5 110.5,-1264.5 195.5,-1264.5 195.5,-1169.5 110.5,-1169.5"/>
</a>
</g>
</g>
<!-- Node5&#45;&gt;Node3 -->
<g id="edge4_Node000003_Node000005" class="edge">
<title>Node5&#45;&gt;Node3</title>
<g id="a_edge4_Node000003_Node000005"><a xlink:title=" ">
<path fill="none" stroke="orange" d="M127.57,-1159.84C113.54,-1128.84 96.32,-1090.8 83.04,-1061.48"/>
<polygon fill="orange" stroke="orange" points="124.7,-1160.97 132.01,-1168.63 131.07,-1158.08 124.7,-1160.97"/>
</a>
</g>
<text text-anchor="middle" x="144.75" y="-1113.5" font-family="Helvetica,sans-Serif" font-size="10.00" fill="grey"> &lt; value_type &gt;</text>
</g>
<!-- Node6 -->
<g id="Node000006" class="node">
<title>Node6</title>
<g id="a_Node000006"><a xlink:href="structcont_1_1slist__details_1_1node__base.html" target="_top" xlink:title=" ">
<polygon fill="white" stroke="none" points="199,-1482 107,-1482 107,-1330 199,-1330 199,-1482"/>
<text text-anchor="start" x="111.75" y="-1468.5" font-family="Helvetica,sans-Serif" font-size="10.00">cont::slist_details</text>
<text text-anchor="start" x="111.75" y="-1453.5" font-family="Helvetica,sans-Serif" font-size="10.00">::node_base&lt; Tp &gt;</text>
<text text-anchor="start" x="116" y="-1434.5" font-family="Helvetica,sans-Serif" font-size="10.00">+</text>
<text text-anchor="start" x="131" y="-1434.5" font-family="Helvetica,sans-Serif" font-size="10.00">next_</text>
<text text-anchor="start" x="116" y="-1415.5" font-family="Helvetica,sans-Serif" font-size="10.00">+</text>
<text text-anchor="start" x="131" y="-1415.5" font-family="Helvetica,sans-Serif" font-size="10.00">node_base()</text>
<text text-anchor="start" x="116" y="-1396.5" font-family="Helvetica,sans-Serif" font-size="10.00">+</text>
<text text-anchor="start" x="131" y="-1396.5" font-family="Helvetica,sans-Serif" font-size="10.00">node_base()</text>
<text text-anchor="start" x="116" y="-1377.5" font-family="Helvetica,sans-Serif" font-size="10.00">+</text>
<text text-anchor="start" x="131" y="-1377.5" font-family="Helvetica,sans-Serif" font-size="10.00">operator=()</text>
<text text-anchor="start" x="116" y="-1358.5" font-family="Helvetica,sans-Serif" font-size="10.00">+</text>
<text text-anchor="start" x="131" y="-1358.5" font-family="Helvetica,sans-Serif" font-size="10.00">node_base()</text>
<text text-anchor="start" x="116" y="-1339.5" font-family="Helvetica,sans-Serif" font-size="10.00">+</text>
<text text-anchor="start" x="131" y="-1339.5" font-family="Helvetica,sans-Serif" font-size="10.00">operator=()</text>
<polygon fill="#666666" stroke="#666666" points="107,-1446 107,-1446 199,-1446 199,-1446 107,-1446"/>
<polygon fill="#666666" stroke="#666666" points="107,-1427 107,-1427 129,-1427 129,-1427 107,-1427"/>
<polygon fill="#666666" stroke="#666666" points="129,-1427 129,-1427 199,-1427 199,-1427 129,-1427"/>
<polygon fill="none" stroke="#666666" points="107,-1330 107,-1482 199,-1482 199,-1330 107,-1330"/>
</a>
</g>
</g>
<!-- Node6&#45;&gt;Node5 -->
<g id="edge5_Node000005_Node000006" class="edge">
<title>Node6&#45;&gt;Node5</title>
<g id="a_edge5_Node000005_Node000006"><a xlink:title=" ">
<path fill="none" stroke="#63b8ff" d="M153,-1319.02C153,-1300.23 153,-1281.02 153,-1264.48"/>
<polygon fill="none" stroke="#63b8ff" points="149.5,-1319.02 153,-1329.02 156.5,-1319.02 149.5,-1319.02"/>
</a>
</g>
</g>
<!-- Node7 -->
<g id="Node000007" class="node">
<title>Node7</title>
<g id="a_Node000007"><a xlink:href="structcont_1_1slist__details_1_1node__base.html" target="_top" xlink:title=" ">
<polygon fill="white" stroke="none" points="223,-1090 131,-1090 131,-938 223,-938 223,-1090"/>
<text text-anchor="start" x="135.75" y="-1076.5" font-family="Helvetica,sans-Serif" font-size="10.00">cont::slist_details</text>
<text text-anchor="start" x="135.75" y="-1061.5" font-family="Helvetica,sans-Serif" font-size="10.00">::node_base&lt; Tp &gt;</text>
<text text-anchor="start" x="140" y="-1042.5" font-family="Helvetica,sans-Serif" font-size="10.00">+</text>
<text text-anchor="start" x="155" y="-1042.5" font-family="Helvetica,sans-Serif" font-size="10.00">next_</text>
<text text-anchor="start" x="140" y="-1023.5" font-family="Helvetica,sans-Serif" font-size="10.00">+</text>
<text text-anchor="start" x="155" y="-1023.5" font-family="Helvetica,sans-Serif" font-size="10.00">node_base()</text>
<text text-anchor="start" x="140" y="-1004.5" font-family="Helvetica,sans-Serif" font-size="10.00">+</text>
<text text-anchor="start" x="155" y="-1004.5" font-family="Helvetica,sans-Serif" font-size="10.00">node_base()</text>
<text text-anchor="start" x="140" y="-985.5" font-family="Helvetica,sans-Serif" font-size="10.00">+</text>
<text text-anchor="start" x="155" y="-985.5" font-family="Helvetica,sans-Serif" font-size="10.00">operator=()</text>
<text text-anchor="start" x="140" y="-966.5" font-family="Helvetica,sans-Serif" font-size="10.00">+</text>
<text text-anchor="start" x="155" y="-966.5" font-family="Helvetica,sans-Serif" font-size="10.00">node_base()</text>
<text text-anchor="start" x="140" y="-947.5" font-family="Helvetica,sans-Serif" font-size="10.00">+</text>
<text text-anchor="start" x="155" y="-947.5" font-family="Helvetica,sans-Serif" font-size="10.00">operator=()</text>
<polygon fill="#666666" stroke="#666666" points="131,-1054 131,-1054 223,-1054 223,-1054 131,-1054"/>
<polygon fill="#666666" stroke="#666666" points="131,-1035 131,-1035 153,-1035 153,-1035 131,-1035"/>
<polygon fill="#666666" stroke="#666666" points="153,-1035 153,-1035 223,-1035 223,-1035 153,-1035"/>
<polygon fill="none" stroke="#666666" points="131,-938 131,-1090 223,-1090 223,-938 131,-938"/>
</a>
</g>
</g>
<!-- Node7&#45;&gt;Node2 -->
<g id="edge6_Node000002_Node000007" class="edge">
<title>Node7&#45;&gt;Node2</title>
<g id="a_edge6_Node000002_Node000007"><a xlink:title=" ">
<path fill="none" stroke="orange" d="M152.85,-927.84C148.99,-914.24 145.03,-900.25 141.24,-886.91"/>
<polygon fill="orange" stroke="orange" points="149.68,-928.49 155.78,-937.16 156.41,-926.58 149.68,-928.49"/>
</a>
</g>
<text text-anchor="middle" x="183.75" y="-910.5" font-family="Helvetica,sans-Serif" font-size="10.00" fill="grey"> &lt; value_type &gt;</text>
</g>
</g>
</svg>
