<?xml version="1.0" encoding="UTF-8" standalone="no"?>
<!DOCTYPE svg PUBLIC "-//W3C//DTD SVG 1.1//EN"
 "http://www.w3.org/Graphics/SVG/1.1/DTD/svg11.dtd">
<!-- Generated by graphviz version 8.0.5 (20230430.1635)
 -->
<!-- Title: alloc::bpool::allocate Pages: 1 -->
<svg width="190pt" height="72pt"
 viewBox="0.00 0.00 190.00 72.00" xmlns="http://www.w3.org/2000/svg" xmlns:xlink="http://www.w3.org/1999/xlink">
<g id="graph0" class="graph" transform="scale(1 1) rotate(0) translate(4 68)">
<title>alloc::bpool::allocate</title>
<!-- Node1 -->
<g id="Node000001" class="node">
<title>Node1</title>
<g id="a_Node000001"><a xlink:title=" ">
<polygon fill="#999999" stroke="#666666" points="182,-43 76.75,-43 76.75,-20 182,-20 182,-43"/>
<text text-anchor="middle" x="129.38" y="-29.5" font-family="Helvetica,sans-Serif" font-size="10.00">alloc::bpool::allocate</text>
</a>
</g>
</g>
<!-- Node2 -->
<g id="Node000002" class="node">
<title>Node2</title>
<g id="a_Node000002"><a xlink:href="bpool__gtest_8cpp.html#aa42554e9dbb0d07a774b5fc81ddd524d" target="_top" xlink:title=" ">
<polygon fill="white" stroke="#666666" points="40.75,-64 0,-64 0,-41 40.75,-41 40.75,-64"/>
<text text-anchor="middle" x="20.38" y="-50.5" font-family="Helvetica,sans-Serif" font-size="10.00">TEST</text>
</a>
</g>
</g>
<!-- Node1&#45;&gt;Node2 -->
<g id="edge1_Node000001_Node000002" class="edge">
<title>Node1&#45;&gt;Node2</title>
<g id="a_edge1_Node000001_Node000002"><a xlink:title=" ">
<path fill="none" stroke="#63b8ff" d="M65.87,-43.77C56.95,-45.52 48.38,-47.2 41.17,-48.61"/>
<polygon fill="#63b8ff" stroke="#63b8ff" points="66.3,-47.05 75.44,-41.69 64.96,-40.18 66.3,-47.05"/>
</a>
</g>
</g>
<!-- Node3 -->
<g id="Node000003" class="node">
<title>Node3</title>
<g id="a_Node000003"><a xlink:href="bpool__gtest_8cpp.html#a46418538e14988323b559b82348746e4" target="_top" xlink:title=" ">
<polygon fill="white" stroke="#666666" points="40.75,-23 0,-23 0,0 40.75,0 40.75,-23"/>
<text text-anchor="middle" x="20.38" y="-9.5" font-family="Helvetica,sans-Serif" font-size="10.00">TEST</text>
</a>
</g>
</g>
<!-- Node1&#45;&gt;Node3 -->
<g id="edge2_Node000001_Node000003" class="edge">
<title>Node1&#45;&gt;Node3</title>
<g id="a_edge2_Node000001_Node000003"><a xlink:title=" ">
<path fill="none" stroke="#63b8ff" d="M65.87,-19.82C56.95,-18.15 48.38,-16.55 41.17,-15.2"/>
<polygon fill="#63b8ff" stroke="#63b8ff" points="64.97,-23.4 75.44,-21.79 66.26,-16.52 64.97,-23.4"/>
</a>
</g>
</g>
</g>
</svg>
