<?xml version="1.0" encoding="UTF-8" standalone="no"?>
<!DOCTYPE svg PUBLIC "-//W3C//DTD SVG 1.1//EN"
 "http://www.w3.org/Graphics/SVG/1.1/DTD/svg11.dtd">
<!-- Generated by graphviz version 8.0.5 (20230430.1635)
 -->
<!-- Title: cont::slist::push_front Pages: 1 -->
<svg width="253pt" height="72pt"
 viewBox="0.00 0.00 253.00 72.00" xmlns="http://www.w3.org/2000/svg" xmlns:xlink="http://www.w3.org/1999/xlink">
<g id="graph0" class="graph" transform="scale(1 1) rotate(0) translate(4 68)">
<title>cont::slist::push_front</title>
<!-- Node1 -->
<g id="Node000001" class="node">
<title>Node1</title>
<g id="a_Node000001"><a xlink:title=" ">
<polygon fill="#999999" stroke="#666666" points="109,-43 0,-43 0,-20 109,-20 109,-43"/>
<text text-anchor="middle" x="54.5" y="-29.5" font-family="Helvetica,sans-Serif" font-size="10.00">cont::slist::push_front</text>
</a>
</g>
</g>
<!-- Node2 -->
<g id="Node000002" class="node">
<title>Node2</title>
<g id="a_Node000002"><a xlink:href="structcont_1_1slist.html#aefb63000899494fd4885f6b9c77fdbd6" target="_top" xlink:title=" ">
<polygon fill="white" stroke="#666666" points="238.25,-64 151.75,-64 151.75,-41 238.25,-41 238.25,-64"/>
<text text-anchor="middle" x="195" y="-50.5" font-family="Helvetica,sans-Serif" font-size="10.00">cont::slist::begin</text>
</a>
</g>
</g>
<!-- Node1&#45;&gt;Node2 -->
<g id="edge1_Node000001_Node000002" class="edge">
<title>Node1&#45;&gt;Node2</title>
<g id="a_edge1_Node000001_Node000002"><a xlink:title=" ">
<path fill="none" stroke="#63b8ff" d="M109.44,-39.68C119.82,-41.25 130.67,-42.9 141.01,-44.47"/>
<polygon fill="#63b8ff" stroke="#63b8ff" points="140.15,-48.03 150.56,-46.07 141.2,-41.11 140.15,-48.03"/>
</a>
</g>
</g>
<!-- Node3 -->
<g id="Node000003" class="node">
<title>Node3</title>
<g id="a_Node000003"><a xlink:href="structcont_1_1slist.html#ad50169f77851a298b6af377bfe55fbf0" target="_top" xlink:title=" ">
<polygon fill="white" stroke="#666666" points="245,-23 145,-23 145,0 245,0 245,-23"/>
<text text-anchor="middle" x="195" y="-9.5" font-family="Helvetica,sans-Serif" font-size="10.00">cont::slist::emplace</text>
</a>
</g>
</g>
<!-- Node1&#45;&gt;Node3 -->
<g id="edge2_Node000001_Node000003" class="edge">
<title>Node1&#45;&gt;Node3</title>
<g id="a_edge2_Node000001_Node000003"><a xlink:title=" ">
<path fill="none" stroke="#63b8ff" d="M109.44,-23.71C117.58,-22.54 126.01,-21.32 134.25,-20.13"/>
<polygon fill="#63b8ff" stroke="#63b8ff" points="134.55,-23.48 143.95,-18.58 133.55,-16.55 134.55,-23.48"/>
</a>
</g>
</g>
</g>
</svg>
