<?xml version="1.0" encoding="UTF-8" standalone="no"?>
<!DOCTYPE svg PUBLIC "-//W3C//DTD SVG 1.1//EN"
 "http://www.w3.org/Graphics/SVG/1.1/DTD/svg11.dtd">
<!-- Generated by graphviz version 8.0.5 (20230430.1635)
 -->
<!-- Title: cont::slist_details::node&lt; Tp &gt; Pages: 1 -->
<svg width="100pt" height="291pt"
 viewBox="0.00 0.00 100.00 291.00" xmlns="http://www.w3.org/2000/svg" xmlns:xlink="http://www.w3.org/1999/xlink">

<svg id="main" version="1.1" xmlns="http://www.w3.org/2000/svg" xmlns:xlink="http://www.w3.org/1999/xlink" xml:space="preserve" onload="init(evt)">
<style type="text/css"><![CDATA[
.node, .edge {opacity: 0.7;}
.node.selected, .edge.selected {opacity: 1;}
.edge:hover path { stroke: red; }
.edge:hover polygon { stroke: red; fill: red; }
]]></style>
<script type="application/ecmascript" xlink:href="svg.min.js"/>
<svg id="graph" class="graph">
<g id="graph0" class="graph" transform="scale(1 1) rotate(0) translate(4 287)">
<title>cont::slist_details::node&lt; Tp &gt;</title>
<!-- Node1 -->
<g id="Node000001" class="node">
<title>Node1</title>
<g id="a_Node000001"><a xlink:title=" ">
<polygon fill="#999999" stroke="none" points="88.5,-95 3.5,-95 3.5,0 88.5,0 88.5,-95"/>
<text text-anchor="start" x="8.12" y="-81.5" font-family="Helvetica,sans-Serif" font-size="10.00">cont::slist_details</text>
<text text-anchor="start" x="17.88" y="-66.5" font-family="Helvetica,sans-Serif" font-size="10.00">::node&lt; Tp &gt;</text>
<text text-anchor="start" x="17.5" y="-47.5" font-family="Helvetica,sans-Serif" font-size="10.00">+</text>
<text text-anchor="start" x="37.5" y="-47.5" font-family="Helvetica,sans-Serif" font-size="10.00">value_</text>
<text text-anchor="start" x="17.5" y="-28.5" font-family="Helvetica,sans-Serif" font-size="10.00">+</text>
<text text-anchor="start" x="37.5" y="-28.5" font-family="Helvetica,sans-Serif" font-size="10.00">@1</text>
<text text-anchor="start" x="44.5" y="-9.5" font-family="Helvetica,sans-Serif" font-size="10.00"> </text>
<polygon fill="#666666" stroke="#666666" points="3.5,-59 3.5,-59 88.5,-59 88.5,-59 3.5,-59"/>
<polygon fill="#666666" stroke="#666666" points="3.5,-21 3.5,-21 35.5,-21 35.5,-21 3.5,-21"/>
<polygon fill="#666666" stroke="#666666" points="35.5,-21 35.5,-21 88.5,-21 88.5,-21 35.5,-21"/>
<polygon fill="none" stroke="#666666" points="3.5,0 3.5,-95 88.5,-95 88.5,0 3.5,0"/>
</a>
</g>
</g>
<!-- Node2 -->
<g id="Node000002" class="node">
<title>Node2</title>
<g id="a_Node000002"><a xlink:href="structcont_1_1slist__details_1_1node__base.html" target="_top" xlink:title=" ">
<polygon fill="white" stroke="none" points="92,-283 0,-283 0,-131 92,-131 92,-283"/>
<text text-anchor="start" x="4.75" y="-269.5" font-family="Helvetica,sans-Serif" font-size="10.00">cont::slist_details</text>
<text text-anchor="start" x="4.75" y="-254.5" font-family="Helvetica,sans-Serif" font-size="10.00">::node_base&lt; Tp &gt;</text>
<text text-anchor="start" x="9" y="-235.5" font-family="Helvetica,sans-Serif" font-size="10.00">+</text>
<text text-anchor="start" x="24" y="-235.5" font-family="Helvetica,sans-Serif" font-size="10.00">next_</text>
<text text-anchor="start" x="9" y="-216.5" font-family="Helvetica,sans-Serif" font-size="10.00">+</text>
<text text-anchor="start" x="24" y="-216.5" font-family="Helvetica,sans-Serif" font-size="10.00">node_base()</text>
<text text-anchor="start" x="9" y="-197.5" font-family="Helvetica,sans-Serif" font-size="10.00">+</text>
<text text-anchor="start" x="24" y="-197.5" font-family="Helvetica,sans-Serif" font-size="10.00">node_base()</text>
<text text-anchor="start" x="9" y="-178.5" font-family="Helvetica,sans-Serif" font-size="10.00">+</text>
<text text-anchor="start" x="24" y="-178.5" font-family="Helvetica,sans-Serif" font-size="10.00">operator=()</text>
<text text-anchor="start" x="9" y="-159.5" font-family="Helvetica,sans-Serif" font-size="10.00">+</text>
<text text-anchor="start" x="24" y="-159.5" font-family="Helvetica,sans-Serif" font-size="10.00">node_base()</text>
<text text-anchor="start" x="9" y="-140.5" font-family="Helvetica,sans-Serif" font-size="10.00">+</text>
<text text-anchor="start" x="24" y="-140.5" font-family="Helvetica,sans-Serif" font-size="10.00">operator=()</text>
<polygon fill="#666666" stroke="#666666" points="0,-247 0,-247 92,-247 92,-247 0,-247"/>
<polygon fill="#666666" stroke="#666666" points="0,-228 0,-228 22,-228 22,-228 0,-228"/>
<polygon fill="#666666" stroke="#666666" points="22,-228 22,-228 92,-228 92,-228 22,-228"/>
<polygon fill="none" stroke="#666666" points="0,-131 0,-283 92,-283 92,-131 0,-131"/>
</a>
</g>
</g>
<!-- Node2&#45;&gt;Node1 -->
<g id="edge1_Node000001_Node000002" class="edge">
<title>Node2&#45;&gt;Node1</title>
<g id="a_edge1_Node000001_Node000002"><a xlink:title=" ">
<path fill="none" stroke="#63b8ff" d="M46,-120.5C46,-111.59 46,-102.79 46,-94.57"/>
<polygon fill="none" stroke="#63b8ff" points="42.5,-120.4 46,-130.4 49.5,-120.4 42.5,-120.4"/>
</a>
</g>
</g>
</g>
</svg>
</svg>

<style type='text/css'>
<![CDATA[
[data-mouse-over-selected='false'] { opacity: 0.7; }
[data-mouse-over-selected='true']  { opacity: 1.0; }
]]>
</style>
<script type="application/ecmascript"><![CDATA[
document.addEventListener('DOMContentLoaded', (event) => {
  highlightEdges();
  highlightAdjacentNodes();
});
]]></script>
</svg>
