<?xml version="1.0" encoding="UTF-8" standalone="no"?>
<!DOCTYPE svg PUBLIC "-//W3C//DTD SVG 1.1//EN"
 "http://www.w3.org/Graphics/SVG/1.1/DTD/svg11.dtd">
<!-- Generated by graphviz version 8.0.5 (20230430.1635)
 -->
<!-- Title: alloc::bpool::repr Pages: 1 -->
<svg width="173pt" height="72pt"
 viewBox="0.00 0.00 172.75 72.00" xmlns="http://www.w3.org/2000/svg" xmlns:xlink="http://www.w3.org/1999/xlink">
<g id="graph0" class="graph" transform="scale(1 1) rotate(0) translate(4 68)">
<title>alloc::bpool::repr</title>
<!-- Node1 -->
<g id="Node000001" class="node">
<title>Node1</title>
<g id="a_Node000001"><a xlink:title=" ">
<polygon fill="#999999" stroke="#666666" points="164.75,-43 76.75,-43 76.75,-20 164.75,-20 164.75,-43"/>
<text text-anchor="middle" x="120.75" y="-29.5" font-family="Helvetica,sans-Serif" font-size="10.00">alloc::bpool::repr</text>
</a>
</g>
</g>
<!-- Node2 -->
<g id="Node000002" class="node">
<title>Node2</title>
<g id="a_Node000002"><a xlink:href="bpool__gtest_8cpp.html#aa42554e9dbb0d07a774b5fc81ddd524d" target="_top" xlink:title=" ">
<polygon fill="white" stroke="#666666" points="40.75,-64 0,-64 0,-41 40.75,-41 40.75,-64"/>
<text text-anchor="middle" x="20.38" y="-50.5" font-family="Helvetica,sans-Serif" font-size="10.00">TEST</text>
</a>
</g>
</g>
<!-- Node1&#45;&gt;Node2 -->
<g id="edge1_Node000001_Node000002" class="edge">
<title>Node1&#45;&gt;Node2</title>
<g id="a_edge1_Node000001_Node000002"><a xlink:title=" ">
<path fill="none" stroke="#63b8ff" d="M65.65,-43.05C56.92,-44.91 48.41,-46.73 41.21,-48.27"/>
<polygon fill="#63b8ff" stroke="#63b8ff" points="66.27,-46.28 75.31,-40.77 64.8,-39.44 66.27,-46.28"/>
</a>
</g>
</g>
<!-- Node3 -->
<g id="Node000003" class="node">
<title>Node3</title>
<g id="a_Node000003"><a xlink:href="bpool__gtest_8cpp.html#a46418538e14988323b559b82348746e4" target="_top" xlink:title=" ">
<polygon fill="white" stroke="#666666" points="40.75,-23 0,-23 0,0 40.75,0 40.75,-23"/>
<text text-anchor="middle" x="20.38" y="-9.5" font-family="Helvetica,sans-Serif" font-size="10.00">TEST</text>
</a>
</g>
</g>
<!-- Node1&#45;&gt;Node3 -->
<g id="edge2_Node000001_Node000003" class="edge">
<title>Node1&#45;&gt;Node3</title>
<g id="a_edge2_Node000001_Node000003"><a xlink:title=" ">
<path fill="none" stroke="#63b8ff" d="M65.65,-20.5C56.92,-18.73 48.41,-17 41.21,-15.53"/>
<polygon fill="#63b8ff" stroke="#63b8ff" points="64.82,-24.11 75.31,-22.67 66.21,-17.25 64.82,-24.11"/>
</a>
</g>
</g>
</g>
</svg>
