<?xml version="1.0" encoding="UTF-8" standalone="no"?>
<!DOCTYPE svg PUBLIC "-//W3C//DTD SVG 1.1//EN"
 "http://www.w3.org/Graphics/SVG/1.1/DTD/svg11.dtd">
<!-- Generated by graphviz version 8.0.5 (20230430.1635)
 -->
<!-- Title: alloc::bpool_base&lt; T &gt; Pages: 1 -->
<svg width="143pt" height="736pt"
 viewBox="0.00 0.00 143.00 736.00" xmlns="http://www.w3.org/2000/svg" xmlns:xlink="http://www.w3.org/1999/xlink">
<g id="graph0" class="graph" transform="scale(1 1) rotate(0) translate(4 732)">
<title>alloc::bpool_base&lt; T &gt;</title>
<!-- Node1 -->
<g id="Node000001" class="node">
<title>Node1</title>
<g id="a_Node000001"><a xlink:title=" ">
<polygon fill="#999999" stroke="none" points="122,-728 13,-728 13,-496 122,-496 122,-728"/>
<text text-anchor="start" x="17.62" y="-714.5" font-family="Helvetica,sans-Serif" font-size="10.00">alloc::bpool_base&lt; T &gt;</text>
<text text-anchor="start" x="66" y="-695.5" font-family="Helvetica,sans-Serif" font-size="10.00"> </text>
<text text-anchor="start" x="24.5" y="-676.5" font-family="Helvetica,sans-Serif" font-size="10.00">+</text>
<text text-anchor="start" x="42" y="-676.5" font-family="Helvetica,sans-Serif" font-size="10.00">~bpool_base()</text>
<text text-anchor="start" x="24.5" y="-657.5" font-family="Helvetica,sans-Serif" font-size="10.00">+</text>
<text text-anchor="start" x="42" y="-657.5" font-family="Helvetica,sans-Serif" font-size="10.00">allocate()</text>
<text text-anchor="start" x="24.5" y="-638.5" font-family="Helvetica,sans-Serif" font-size="10.00">+</text>
<text text-anchor="start" x="42" y="-638.5" font-family="Helvetica,sans-Serif" font-size="10.00">deallocate()</text>
<text text-anchor="start" x="24.5" y="-619.5" font-family="Helvetica,sans-Serif" font-size="10.00">+</text>
<text text-anchor="start" x="42" y="-619.5" font-family="Helvetica,sans-Serif" font-size="10.00">contains()</text>
<text text-anchor="start" x="24.5" y="-600.5" font-family="Helvetica,sans-Serif" font-size="10.00">+</text>
<text text-anchor="start" x="42" y="-600.5" font-family="Helvetica,sans-Serif" font-size="10.00">total_count()</text>
<text text-anchor="start" x="24.5" y="-581.5" font-family="Helvetica,sans-Serif" font-size="10.00">+</text>
<text text-anchor="start" x="42" y="-581.5" font-family="Helvetica,sans-Serif" font-size="10.00">free_count()</text>
<text text-anchor="start" x="24.5" y="-562.5" font-family="Helvetica,sans-Serif" font-size="10.00">+</text>
<text text-anchor="start" x="42" y="-562.5" font-family="Helvetica,sans-Serif" font-size="10.00">is_free()</text>
<text text-anchor="start" x="24.5" y="-543.5" font-family="Helvetica,sans-Serif" font-size="10.00">+</text>
<text text-anchor="start" x="42" y="-543.5" font-family="Helvetica,sans-Serif" font-size="10.00">set()</text>
<text text-anchor="start" x="24.5" y="-524.5" font-family="Helvetica,sans-Serif" font-size="10.00">+</text>
<text text-anchor="start" x="42" y="-524.5" font-family="Helvetica,sans-Serif" font-size="10.00">repr()</text>
<text text-anchor="start" x="24.5" y="-505.5" font-family="Helvetica,sans-Serif" font-size="10.00">+</text>
<text text-anchor="start" x="42" y="-505.5" font-family="Helvetica,sans-Serif" font-size="10.00">reset()</text>
<polygon fill="#666666" stroke="#666666" points="13,-707 13,-707 122,-707 122,-707 13,-707"/>
<polygon fill="#666666" stroke="#666666" points="13,-688 13,-688 122,-688 122,-688 13,-688"/>
<polygon fill="none" stroke="#666666" points="13,-496 13,-728 122,-728 122,-496 13,-496"/>
</a>
</g>
</g>
<!-- Node2 -->
<g id="Node000002" class="node">
<title>Node2</title>
<g id="a_Node000002"><a xlink:href="structalloc_1_1bpool.html" target="_top" xlink:title=" ">
<polygon fill="white" stroke="none" points="135,-460 0,-460 0,0 135,0 135,-460"/>
<text text-anchor="start" x="24.38" y="-446.5" font-family="Helvetica,sans-Serif" font-size="10.00">alloc::bpool&lt; T, N &gt;</text>
<text text-anchor="start" x="4" y="-427.5" font-family="Helvetica,sans-Serif" font-size="10.00">+</text>
<text text-anchor="start" x="14" y="-427.5" font-family="Helvetica,sans-Serif" font-size="10.00">value_size</text>
<text text-anchor="start" x="4" y="-408.5" font-family="Helvetica,sans-Serif" font-size="10.00">+</text>
<text text-anchor="start" x="14" y="-408.5" font-family="Helvetica,sans-Serif" font-size="10.00">value_alignment</text>
<text text-anchor="start" x="5.5" y="-389.5" font-family="Helvetica,sans-Serif" font-size="10.00">&#45;</text>
<text text-anchor="start" x="14" y="-389.5" font-family="Helvetica,sans-Serif" font-size="10.00">_pool</text>
<text text-anchor="start" x="5.5" y="-370.5" font-family="Helvetica,sans-Serif" font-size="10.00">&#45;</text>
<text text-anchor="start" x="14" y="-370.5" font-family="Helvetica,sans-Serif" font-size="10.00">_free</text>
<text text-anchor="start" x="5.5" y="-351.5" font-family="Helvetica,sans-Serif" font-size="10.00">&#45;</text>
<text text-anchor="start" x="14" y="-351.5" font-family="Helvetica,sans-Serif" font-size="10.00">_policy</text>
<text text-anchor="start" x="5.5" y="-332.5" font-family="Helvetica,sans-Serif" font-size="10.00">&#45;</text>
<text text-anchor="start" x="14" y="-332.5" font-family="Helvetica,sans-Serif" font-size="10.00">_last_idx</text>
<text text-anchor="start" x="4" y="-313.5" font-family="Helvetica,sans-Serif" font-size="10.00">+</text>
<text text-anchor="start" x="14" y="-313.5" font-family="Helvetica,sans-Serif" font-size="10.00">~bpool()</text>
<text text-anchor="start" x="4" y="-294.5" font-family="Helvetica,sans-Serif" font-size="10.00">+</text>
<text text-anchor="start" x="14" y="-294.5" font-family="Helvetica,sans-Serif" font-size="10.00">bpool()</text>
<text text-anchor="start" x="4" y="-275.5" font-family="Helvetica,sans-Serif" font-size="10.00">+</text>
<text text-anchor="start" x="14" y="-275.5" font-family="Helvetica,sans-Serif" font-size="10.00">bpool()</text>
<text text-anchor="start" x="4" y="-256.5" font-family="Helvetica,sans-Serif" font-size="10.00">+</text>
<text text-anchor="start" x="14" y="-256.5" font-family="Helvetica,sans-Serif" font-size="10.00">operator=()</text>
<text text-anchor="start" x="4" y="-237.5" font-family="Helvetica,sans-Serif" font-size="10.00">+</text>
<text text-anchor="start" x="14" y="-237.5" font-family="Helvetica,sans-Serif" font-size="10.00">allocate()</text>
<text text-anchor="start" x="4" y="-218.5" font-family="Helvetica,sans-Serif" font-size="10.00">+</text>
<text text-anchor="start" x="14" y="-218.5" font-family="Helvetica,sans-Serif" font-size="10.00">deallocate()</text>
<text text-anchor="start" x="4" y="-199.5" font-family="Helvetica,sans-Serif" font-size="10.00">+</text>
<text text-anchor="start" x="14" y="-199.5" font-family="Helvetica,sans-Serif" font-size="10.00">contains()</text>
<text text-anchor="start" x="4" y="-180.5" font-family="Helvetica,sans-Serif" font-size="10.00">+</text>
<text text-anchor="start" x="14" y="-180.5" font-family="Helvetica,sans-Serif" font-size="10.00">set()</text>
<text text-anchor="start" x="4" y="-161.5" font-family="Helvetica,sans-Serif" font-size="10.00">+</text>
<text text-anchor="start" x="14" y="-161.5" font-family="Helvetica,sans-Serif" font-size="10.00">total_count()</text>
<text text-anchor="start" x="4" y="-142.5" font-family="Helvetica,sans-Serif" font-size="10.00">+</text>
<text text-anchor="start" x="14" y="-142.5" font-family="Helvetica,sans-Serif" font-size="10.00">free_count()</text>
<text text-anchor="start" x="4" y="-123.5" font-family="Helvetica,sans-Serif" font-size="10.00">+</text>
<text text-anchor="start" x="14" y="-123.5" font-family="Helvetica,sans-Serif" font-size="10.00">is_free()</text>
<text text-anchor="start" x="4" y="-104.5" font-family="Helvetica,sans-Serif" font-size="10.00">+</text>
<text text-anchor="start" x="14" y="-104.5" font-family="Helvetica,sans-Serif" font-size="10.00">repr()</text>
<text text-anchor="start" x="4" y="-85.5" font-family="Helvetica,sans-Serif" font-size="10.00">+</text>
<text text-anchor="start" x="14" y="-85.5" font-family="Helvetica,sans-Serif" font-size="10.00">reset()</text>
<text text-anchor="start" x="5.5" y="-66.5" font-family="Helvetica,sans-Serif" font-size="10.00">&#45;</text>
<text text-anchor="start" x="14" y="-66.5" font-family="Helvetica,sans-Serif" font-size="10.00">_get_index_from_address()</text>
<text text-anchor="start" x="5.5" y="-47.5" font-family="Helvetica,sans-Serif" font-size="10.00">&#45;</text>
<text text-anchor="start" x="14" y="-47.5" font-family="Helvetica,sans-Serif" font-size="10.00">_find_placement()</text>
<text text-anchor="start" x="5.5" y="-28.5" font-family="Helvetica,sans-Serif" font-size="10.00">&#45;</text>
<text text-anchor="start" x="14" y="-28.5" font-family="Helvetica,sans-Serif" font-size="10.00">_find_placement_first()</text>
<text text-anchor="start" x="5.5" y="-9.5" font-family="Helvetica,sans-Serif" font-size="10.00">&#45;</text>
<text text-anchor="start" x="14" y="-9.5" font-family="Helvetica,sans-Serif" font-size="10.00">_find_placement_last()</text>
<polygon fill="#666666" stroke="#666666" points="0,-439 0,-439 135,-439 135,-439 0,-439"/>
<polygon fill="#666666" stroke="#666666" points="0,-325 0,-325 12,-325 12,-325 0,-325"/>
<polygon fill="#666666" stroke="#666666" points="12,-325 12,-325 135,-325 135,-325 12,-325"/>
<polygon fill="none" stroke="#666666" points="0,0 0,-460 135,-460 135,0 0,0"/>
</a>
</g>
</g>
<!-- Node1&#45;&gt;Node2 -->
<g id="edge1_Node000001_Node000002" class="edge">
<title>Node1&#45;&gt;Node2</title>
<g id="a_edge1_Node000001_Node000002"><a xlink:title=" ">
<path fill="none" stroke="#63b8ff" d="M67.5,-485.31C67.5,-476.92 67.5,-468.35 67.5,-459.66"/>
<polygon fill="none" stroke="#63b8ff" points="64,-485.21 67.5,-495.21 71,-485.21 64,-485.21"/>
</a>
</g>
</g>
</g>
</svg>
