<?xml version="1.0" encoding="UTF-8" standalone="no"?>
<!DOCTYPE svg PUBLIC "-//W3C//DTD SVG 1.1//EN"
 "http://www.w3.org/Graphics/SVG/1.1/DTD/svg11.dtd">
<!-- Generated by graphviz version 8.0.5 (20230430.1635)
 -->
<!-- Title: cont::slist::emplace_front Pages: 1 -->
<svg width="244pt" height="72pt"
 viewBox="0.00 0.00 244.00 72.00" xmlns="http://www.w3.org/2000/svg" xmlns:xlink="http://www.w3.org/1999/xlink">
<g id="graph0" class="graph" transform="scale(1 1) rotate(0) translate(4 68)">
<title>cont::slist::emplace_front</title>
<!-- Node1 -->
<g id="Node000001" class="node">
<title>Node1</title>
<g id="a_Node000001"><a xlink:title=" ">
<polygon fill="#999999" stroke="#666666" points="100,-50.5 0,-50.5 0,-12.5 100,-12.5 100,-50.5"/>
<text text-anchor="start" x="8" y="-37" font-family="Helvetica,sans-Serif" font-size="10.00">cont::slist::emplace</text>
<text text-anchor="middle" x="50" y="-22" font-family="Helvetica,sans-Serif" font-size="10.00">_front</text>
</a>
</g>
</g>
<!-- Node2 -->
<g id="Node000002" class="node">
<title>Node2</title>
<g id="a_Node000002"><a xlink:href="structcont_1_1slist.html#aefb63000899494fd4885f6b9c77fdbd6" target="_top" xlink:title=" ">
<polygon fill="white" stroke="#666666" points="229.25,-64 142.75,-64 142.75,-41 229.25,-41 229.25,-64"/>
<text text-anchor="middle" x="186" y="-50.5" font-family="Helvetica,sans-Serif" font-size="10.00">cont::slist::begin</text>
</a>
</g>
</g>
<!-- Node1&#45;&gt;Node2 -->
<g id="edge1_Node000001_Node000002" class="edge">
<title>Node1&#45;&gt;Node2</title>
<g id="a_edge1_Node000001_Node000002"><a xlink:title=" ">
<path fill="none" stroke="#63b8ff" d="M100.14,-39.2C110.45,-40.82 121.37,-42.53 131.82,-44.17"/>
<polygon fill="#63b8ff" stroke="#63b8ff" points="131.07,-47.75 141.5,-45.84 132.16,-40.83 131.07,-47.75"/>
</a>
</g>
</g>
<!-- Node3 -->
<g id="Node000003" class="node">
<title>Node3</title>
<g id="a_Node000003"><a xlink:href="structcont_1_1slist.html#ad50169f77851a298b6af377bfe55fbf0" target="_top" xlink:title=" ">
<polygon fill="white" stroke="#666666" points="236,-23 136,-23 136,0 236,0 236,-23"/>
<text text-anchor="middle" x="186" y="-9.5" font-family="Helvetica,sans-Serif" font-size="10.00">cont::slist::emplace</text>
</a>
</g>
</g>
<!-- Node1&#45;&gt;Node3 -->
<g id="edge2_Node000001_Node000003" class="edge">
<title>Node1&#45;&gt;Node3</title>
<g id="a_edge2_Node000001_Node000003"><a xlink:title=" ">
<path fill="none" stroke="#63b8ff" d="M100.14,-24.17C108.24,-22.96 116.72,-21.69 125.05,-20.45"/>
<polygon fill="#63b8ff" stroke="#63b8ff" points="125.5,-23.77 134.87,-18.83 124.46,-16.85 125.5,-23.77"/>
</a>
</g>
</g>
</g>
</svg>
