<?xml version="1.0" encoding="UTF-8" standalone="no"?>
<!DOCTYPE svg PUBLIC "-//W3C//DTD SVG 1.1//EN"
 "http://www.w3.org/Graphics/SVG/1.1/DTD/svg11.dtd">
<!-- Generated by graphviz version 8.0.5 (20230430.1635)
 -->
<!-- Title: cont::slist::push_front Pages: 1 -->
<svg width="234pt" height="113pt"
 viewBox="0.00 0.00 234.25 113.00" xmlns="http://www.w3.org/2000/svg" xmlns:xlink="http://www.w3.org/1999/xlink">
<g id="graph0" class="graph" transform="scale(1 1) rotate(0) translate(4 109)">
<title>cont::slist::push_front</title>
<!-- Node1 -->
<g id="Node000001" class="node">
<title>Node1</title>
<g id="a_Node000001"><a xlink:title=" ">
<polygon fill="#999999" stroke="#666666" points="226.25,-64 117.25,-64 117.25,-41 226.25,-41 226.25,-64"/>
<text text-anchor="middle" x="171.75" y="-50.5" font-family="Helvetica,sans-Serif" font-size="10.00">cont::slist::push_front</text>
</a>
</g>
</g>
<!-- Node2 -->
<g id="Node000002" class="node">
<title>Node2</title>
<g id="a_Node000002"><a xlink:href="structcont_1_1slist.html#a70ff0932566b39bc0d4c8d518c1d3957" target="_top" xlink:title=" ">
<polygon fill="white" stroke="#666666" points="81.25,-105 0,-105 0,-82 81.25,-82 81.25,-105"/>
<text text-anchor="middle" x="40.62" y="-91.5" font-family="Helvetica,sans-Serif" font-size="10.00">cont::slist::slist</text>
</a>
</g>
</g>
<!-- Node1&#45;&gt;Node2 -->
<g id="edge1_Node000001_Node000002" class="edge">
<title>Node1&#45;&gt;Node2</title>
<g id="a_edge1_Node000001_Node000002"><a xlink:title=" ">
<path fill="none" stroke="#63b8ff" d="M122.81,-67.72C108.39,-72.3 92.78,-77.26 79.14,-81.59"/>
<polygon fill="#63b8ff" stroke="#63b8ff" points="123.58,-70.83 132.05,-64.47 121.46,-64.16 123.58,-70.83"/>
</a>
</g>
</g>
<!-- Node3 -->
<g id="Node000003" class="node">
<title>Node3</title>
<g id="a_Node000003"><a xlink:href="slist__gtest_8cpp.html#a0b88b0cef1dc7ead8380573fff6f1cf8" target="_top" xlink:title=" ">
<polygon fill="white" stroke="#666666" points="61,-64 20.25,-64 20.25,-41 61,-41 61,-64"/>
<text text-anchor="middle" x="40.62" y="-50.5" font-family="Helvetica,sans-Serif" font-size="10.00">TEST</text>
</a>
</g>
</g>
<!-- Node1&#45;&gt;Node3 -->
<g id="edge2_Node000001_Node000003" class="edge">
<title>Node1&#45;&gt;Node3</title>
<g id="a_edge2_Node000001_Node000003"><a xlink:title=" ">
<path fill="none" stroke="#63b8ff" d="M106.41,-52.5C90.06,-52.5 73.69,-52.5 61.49,-52.5"/>
<polygon fill="#63b8ff" stroke="#63b8ff" points="106.11,-56 116.11,-52.5 106.11,-49 106.11,-56"/>
</a>
</g>
</g>
<!-- Node4 -->
<g id="Node000004" class="node">
<title>Node4</title>
<g id="a_Node000004"><a xlink:href="slist__gtest_8cpp.html#a315cfa2fb390f02859803482bf6b6442" target="_top" xlink:title=" ">
<polygon fill="white" stroke="#666666" points="61,-23 20.25,-23 20.25,0 61,0 61,-23"/>
<text text-anchor="middle" x="40.62" y="-9.5" font-family="Helvetica,sans-Serif" font-size="10.00">TEST</text>
</a>
</g>
</g>
<!-- Node1&#45;&gt;Node4 -->
<g id="edge3_Node000001_Node000004" class="edge">
<title>Node1&#45;&gt;Node4</title>
<g id="a_edge3_Node000001_Node000004"><a xlink:title=" ">
<path fill="none" stroke="#63b8ff" d="M122.83,-37.29C101.49,-30.51 77.55,-22.91 61.22,-17.72"/>
<polygon fill="#63b8ff" stroke="#63b8ff" points="121.46,-40.84 132.05,-40.53 123.58,-34.17 121.46,-40.84"/>
</a>
</g>
</g>
</g>
</svg>
