<?xml version="1.0" encoding="UTF-8" standalone="no"?>
<!DOCTYPE svg PUBLIC "-//W3C//DTD SVG 1.1//EN"
 "http://www.w3.org/Graphics/SVG/1.1/DTD/svg11.dtd">
<!-- Generated by graphviz version 8.0.5 (20230430.1635)
 -->
<!-- Title: alloc::bpool_alloc::_extend_bpool Pages: 1 -->
<svg width="303pt" height="46pt"
 viewBox="0.00 0.00 302.75 46.00" xmlns="http://www.w3.org/2000/svg" xmlns:xlink="http://www.w3.org/1999/xlink">
<g id="graph0" class="graph" transform="scale(1 1) rotate(0) translate(4 42)">
<title>alloc::bpool_alloc::_extend_bpool</title>
<!-- Node1 -->
<g id="Node000001" class="node">
<title>Node1</title>
<g id="a_Node000001"><a xlink:title=" ">
<polygon fill="#999999" stroke="#666666" points="294.75,-38 203.75,-38 203.75,0 294.75,0 294.75,-38"/>
<text text-anchor="start" x="211.75" y="-24.5" font-family="Helvetica,sans-Serif" font-size="10.00">alloc::bpool_alloc</text>
<text text-anchor="middle" x="249.25" y="-9.5" font-family="Helvetica,sans-Serif" font-size="10.00">::_extend_bpool</text>
</a>
</g>
</g>
<!-- Node2 -->
<g id="Node000002" class="node">
<title>Node2</title>
<g id="a_Node000002"><a xlink:href="structalloc_1_1bpool__alloc.html#acb2524d16480f987bafd356360c8bf98" target="_top" xlink:title=" ">
<polygon fill="white" stroke="#666666" points="167.75,-38 76.75,-38 76.75,0 167.75,0 167.75,-38"/>
<text text-anchor="start" x="84.75" y="-24.5" font-family="Helvetica,sans-Serif" font-size="10.00">alloc::bpool_alloc</text>
<text text-anchor="middle" x="122.25" y="-9.5" font-family="Helvetica,sans-Serif" font-size="10.00">::allocate</text>
</a>
</g>
</g>
<!-- Node1&#45;&gt;Node2 -->
<g id="edge1_Node000001_Node000002" class="edge">
<title>Node1&#45;&gt;Node2</title>
<g id="a_edge1_Node000001_Node000002"><a xlink:title=" ">
<path fill="none" stroke="#63b8ff" d="M192.5,-19C184.35,-19 176.03,-19 168.13,-19"/>
<polygon fill="#63b8ff" stroke="#63b8ff" points="192.48,-22.5 202.48,-19 192.48,-15.5 192.48,-22.5"/>
</a>
</g>
</g>
<!-- Node3 -->
<g id="Node000003" class="node">
<title>Node3</title>
<g id="a_Node000003"><a xlink:href="bpool__alloc__gtest_8cpp.html#ac289e30ec13303afc52c14d9df8db78e" target="_top" xlink:title=" ">
<polygon fill="white" stroke="#666666" points="40.75,-30.5 0,-30.5 0,-7.5 40.75,-7.5 40.75,-30.5"/>
<text text-anchor="middle" x="20.38" y="-17" font-family="Helvetica,sans-Serif" font-size="10.00">TEST</text>
</a>
</g>
</g>
<!-- Node2&#45;&gt;Node3 -->
<g id="edge2_Node000002_Node000003" class="edge">
<title>Node2&#45;&gt;Node3</title>
<g id="a_edge2_Node000002_Node000003"><a xlink:title=" ">
<path fill="none" stroke="#63b8ff" d="M65.56,-19C56.82,-19 48.31,-19 41.13,-19"/>
<polygon fill="#63b8ff" stroke="#63b8ff" points="65.28,-22.5 75.28,-19 65.28,-15.5 65.28,-22.5"/>
</a>
</g>
</g>
</g>
</svg>
