<?xml version="1.0" encoding="UTF-8" standalone="no"?>
<!DOCTYPE svg PUBLIC "-//W3C//DTD SVG 1.1//EN"
 "http://www.w3.org/Graphics/SVG/1.1/DTD/svg11.dtd">
<!-- Generated by graphviz version 8.0.5 (20230430.1635)
 -->
<!-- Title: cont::slist::size Pages: 1 -->
<svg width="213pt" height="72pt"
 viewBox="0.00 0.00 212.50 72.00" xmlns="http://www.w3.org/2000/svg" xmlns:xlink="http://www.w3.org/1999/xlink">
<g id="graph0" class="graph" transform="scale(1 1) rotate(0) translate(4 68)">
<title>cont::slist::size</title>
<!-- Node1 -->
<g id="Node000001" class="node">
<title>Node1</title>
<g id="a_Node000001"><a xlink:title=" ">
<polygon fill="#999999" stroke="#666666" points="204.5,-43 123.25,-43 123.25,-20 204.5,-20 204.5,-43"/>
<text text-anchor="middle" x="163.88" y="-29.5" font-family="Helvetica,sans-Serif" font-size="10.00">cont::slist::size</text>
</a>
</g>
</g>
<!-- Node2 -->
<g id="Node000002" class="node">
<title>Node2</title>
<g id="a_Node000002"><a xlink:href="namespacecont.html#a7b8905512fd83bb2cd66f8f988ad039f" target="_top" xlink:title=" ">
<polygon fill="white" stroke="#666666" points="87.25,-64 0,-64 0,-41 87.25,-41 87.25,-64"/>
<text text-anchor="middle" x="43.62" y="-50.5" font-family="Helvetica,sans-Serif" font-size="10.00">cont::operator==</text>
</a>
</g>
</g>
<!-- Node1&#45;&gt;Node2 -->
<g id="edge1_Node000001_Node000002" class="edge">
<title>Node1&#45;&gt;Node2</title>
<g id="a_edge1_Node000001_Node000002"><a xlink:title=" ">
<path fill="none" stroke="#63b8ff" d="M112.19,-40.5C103.95,-41.96 95.48,-43.47 87.45,-44.89"/>
<polygon fill="#63b8ff" stroke="#63b8ff" points="112.61,-43.8 121.84,-38.61 111.38,-36.91 112.61,-43.8"/>
</a>
</g>
</g>
<!-- Node3 -->
<g id="Node000003" class="node">
<title>Node3</title>
<g id="a_Node000003"><a xlink:href="structcont_1_1slist.html#a70ff0932566b39bc0d4c8d518c1d3957" target="_top" xlink:title=" ">
<polygon fill="white" stroke="#666666" points="84.25,-23 3,-23 3,0 84.25,0 84.25,-23"/>
<text text-anchor="middle" x="43.62" y="-9.5" font-family="Helvetica,sans-Serif" font-size="10.00">cont::slist::slist</text>
</a>
</g>
</g>
<!-- Node1&#45;&gt;Node3 -->
<g id="edge2_Node000001_Node000003" class="edge">
<title>Node1&#45;&gt;Node3</title>
<g id="a_edge2_Node000001_Node000003"><a xlink:title=" ">
<path fill="none" stroke="#63b8ff" d="M112.2,-22.93C102.98,-21.37 93.48,-19.76 84.62,-18.26"/>
<polygon fill="#63b8ff" stroke="#63b8ff" points="111.4,-26.51 121.84,-24.73 112.56,-19.61 111.4,-26.51"/>
</a>
</g>
</g>
</g>
</svg>
