<?xml version="1.0" encoding="UTF-8" standalone="no"?>
<!DOCTYPE svg PUBLIC "-//W3C//DTD SVG 1.1//EN"
 "http://www.w3.org/Graphics/SVG/1.1/DTD/svg11.dtd">
<!-- Generated by graphviz version 8.0.5 (20230430.1635)
 -->
<!-- Title: cont::slist_details::node_base&lt; Tp &gt; Pages: 1 -->
<svg width="301pt" height="509pt"
 viewBox="0.00 0.00 301.00 509.00" xmlns="http://www.w3.org/2000/svg" xmlns:xlink="http://www.w3.org/1999/xlink">
<g id="graph0" class="graph" transform="scale(1 1) rotate(0) translate(4 505)">
<title>cont::slist_details::node_base&lt; Tp &gt;</title>
<!-- Node1 -->
<g id="Node000001" class="node">
<title>Node1</title>
<g id="a_Node000001"><a xlink:title=" ">
<polygon fill="#999999" stroke="none" points="151.5,-501 59.5,-501 59.5,-349 151.5,-349 151.5,-501"/>
<text text-anchor="start" x="64.25" y="-487.5" font-family="Helvetica,sans-Serif" font-size="10.00">cont::slist_details</text>
<text text-anchor="start" x="64.25" y="-472.5" font-family="Helvetica,sans-Serif" font-size="10.00">::node_base&lt; Tp &gt;</text>
<text text-anchor="start" x="68.5" y="-453.5" font-family="Helvetica,sans-Serif" font-size="10.00">+</text>
<text text-anchor="start" x="83.5" y="-453.5" font-family="Helvetica,sans-Serif" font-size="10.00">next_</text>
<text text-anchor="start" x="68.5" y="-434.5" font-family="Helvetica,sans-Serif" font-size="10.00">+</text>
<text text-anchor="start" x="83.5" y="-434.5" font-family="Helvetica,sans-Serif" font-size="10.00">node_base()</text>
<text text-anchor="start" x="68.5" y="-415.5" font-family="Helvetica,sans-Serif" font-size="10.00">+</text>
<text text-anchor="start" x="83.5" y="-415.5" font-family="Helvetica,sans-Serif" font-size="10.00">node_base()</text>
<text text-anchor="start" x="68.5" y="-396.5" font-family="Helvetica,sans-Serif" font-size="10.00">+</text>
<text text-anchor="start" x="83.5" y="-396.5" font-family="Helvetica,sans-Serif" font-size="10.00">operator=()</text>
<text text-anchor="start" x="68.5" y="-377.5" font-family="Helvetica,sans-Serif" font-size="10.00">+</text>
<text text-anchor="start" x="83.5" y="-377.5" font-family="Helvetica,sans-Serif" font-size="10.00">node_base()</text>
<text text-anchor="start" x="68.5" y="-358.5" font-family="Helvetica,sans-Serif" font-size="10.00">+</text>
<text text-anchor="start" x="83.5" y="-358.5" font-family="Helvetica,sans-Serif" font-size="10.00">operator=()</text>
<polygon fill="#666666" stroke="#666666" points="59.5,-465 59.5,-465 151.5,-465 151.5,-465 59.5,-465"/>
<polygon fill="#666666" stroke="#666666" points="59.5,-446 59.5,-446 81.5,-446 81.5,-446 59.5,-446"/>
<polygon fill="#666666" stroke="#666666" points="81.5,-446 81.5,-446 151.5,-446 151.5,-446 81.5,-446"/>
<polygon fill="none" stroke="#666666" points="59.5,-349 59.5,-501 151.5,-501 151.5,-349 59.5,-349"/>
</a>
</g>
</g>
<!-- Node2 -->
<g id="Node000002" class="node">
<title>Node2</title>
<g id="a_Node000002"><a xlink:href="structcont_1_1slist__details_1_1node.html" target="_top" xlink:title=" ">
<polygon fill="white" stroke="none" points="101,-95 0,-95 0,0 101,0 101,-95"/>
<text text-anchor="start" x="4.75" y="-81.5" font-family="Helvetica,sans-Serif" font-size="10.00">cont::slist_details</text>
<text text-anchor="start" x="4.75" y="-66.5" font-family="Helvetica,sans-Serif" font-size="10.00">::node&lt; value_type &gt;</text>
<text text-anchor="start" x="18" y="-47.5" font-family="Helvetica,sans-Serif" font-size="10.00">+</text>
<text text-anchor="start" x="42" y="-47.5" font-family="Helvetica,sans-Serif" font-size="10.00">value_</text>
<text text-anchor="start" x="18" y="-28.5" font-family="Helvetica,sans-Serif" font-size="10.00">+</text>
<text text-anchor="start" x="42" y="-28.5" font-family="Helvetica,sans-Serif" font-size="10.00">@1</text>
<text text-anchor="start" x="49" y="-9.5" font-family="Helvetica,sans-Serif" font-size="10.00"> </text>
<polygon fill="#666666" stroke="#666666" points="0,-59 0,-59 101,-59 101,-59 0,-59"/>
<polygon fill="#666666" stroke="#666666" points="0,-21 0,-21 40,-21 40,-21 0,-21"/>
<polygon fill="#666666" stroke="#666666" points="40,-21 40,-21 101,-21 101,-21 40,-21"/>
<polygon fill="none" stroke="#666666" points="0,0 0,-95 101,-95 101,0 0,0"/>
</a>
</g>
</g>
<!-- Node1&#45;&gt;Node2 -->
<g id="edge1_Node000001_Node000002" class="edge">
<title>Node1&#45;&gt;Node2</title>
<g id="a_edge1_Node000001_Node000002"><a xlink:title=" ">
<path fill="none" stroke="#63b8ff" d="M65.38,-339C60.51,-325.54 56.28,-311.58 53.5,-298 39.22,-228.18 42.06,-145.07 45.9,-94.58"/>
<polygon fill="none" stroke="#63b8ff" points="62.41,-340.05 69.21,-348.18 68.96,-337.58 62.41,-340.05"/>
</a>
</g>
</g>
<!-- Node3 -->
<g id="Node000003" class="node">
<title>Node3</title>
<g id="a_Node000003"><a xlink:href="structcont_1_1slist__details_1_1node.html" target="_top" xlink:title=" ">
<polygon fill="white" stroke="none" points="148,-269.5 63,-269.5 63,-174.5 148,-174.5 148,-269.5"/>
<text text-anchor="start" x="67.62" y="-256" font-family="Helvetica,sans-Serif" font-size="10.00">cont::slist_details</text>
<text text-anchor="start" x="77.38" y="-241" font-family="Helvetica,sans-Serif" font-size="10.00">::node&lt; Tp &gt;</text>
<text text-anchor="start" x="77" y="-222" font-family="Helvetica,sans-Serif" font-size="10.00">+</text>
<text text-anchor="start" x="97" y="-222" font-family="Helvetica,sans-Serif" font-size="10.00">value_</text>
<text text-anchor="start" x="77" y="-203" font-family="Helvetica,sans-Serif" font-size="10.00">+</text>
<text text-anchor="start" x="97" y="-203" font-family="Helvetica,sans-Serif" font-size="10.00">@1</text>
<text text-anchor="start" x="104" y="-184" font-family="Helvetica,sans-Serif" font-size="10.00"> </text>
<polygon fill="#666666" stroke="#666666" points="63,-233.5 63,-233.5 148,-233.5 148,-233.5 63,-233.5"/>
<polygon fill="#666666" stroke="#666666" points="63,-195.5 63,-195.5 95,-195.5 95,-195.5 63,-195.5"/>
<polygon fill="#666666" stroke="#666666" points="95,-195.5 95,-195.5 148,-195.5 148,-195.5 95,-195.5"/>
<polygon fill="none" stroke="#666666" points="63,-174.5 63,-269.5 148,-269.5 148,-174.5 63,-174.5"/>
</a>
</g>
</g>
<!-- Node1&#45;&gt;Node3 -->
<g id="edge2_Node000001_Node000003" class="edge">
<title>Node1&#45;&gt;Node3</title>
<g id="a_edge2_Node000001_Node000003"><a xlink:title=" ">
<path fill="none" stroke="#63b8ff" d="M105.5,-338.36C105.5,-314.66 105.5,-289.83 105.5,-269.3"/>
<polygon fill="none" stroke="#63b8ff" points="102,-338.15 105.5,-348.16 109,-338.16 102,-338.15"/>
</a>
</g>
</g>
<!-- Node4 -->
<g id="Node000004" class="node">
<title>Node4</title>
<g id="a_Node000004"><a xlink:href="structcont_1_1slist__details_1_1node__base.html" target="_top" xlink:title=" ">
<polygon fill="white" stroke="none" points="293,-298 166,-298 166,-146 293,-146 293,-298"/>
<text text-anchor="start" x="170.62" y="-284.5" font-family="Helvetica,sans-Serif" font-size="10.00">cont::slist_details</text>
<text text-anchor="start" x="170.62" y="-269.5" font-family="Helvetica,sans-Serif" font-size="10.00">::node_base&lt; value_type &gt;</text>
<text text-anchor="start" x="184" y="-250.5" font-family="Helvetica,sans-Serif" font-size="10.00">+</text>
<text text-anchor="start" x="208" y="-250.5" font-family="Helvetica,sans-Serif" font-size="10.00">next_</text>
<text text-anchor="start" x="184" y="-231.5" font-family="Helvetica,sans-Serif" font-size="10.00">+</text>
<text text-anchor="start" x="208" y="-231.5" font-family="Helvetica,sans-Serif" font-size="10.00">node_base()</text>
<text text-anchor="start" x="184" y="-212.5" font-family="Helvetica,sans-Serif" font-size="10.00">+</text>
<text text-anchor="start" x="208" y="-212.5" font-family="Helvetica,sans-Serif" font-size="10.00">node_base()</text>
<text text-anchor="start" x="184" y="-193.5" font-family="Helvetica,sans-Serif" font-size="10.00">+</text>
<text text-anchor="start" x="208" y="-193.5" font-family="Helvetica,sans-Serif" font-size="10.00">node_base()</text>
<text text-anchor="start" x="184" y="-174.5" font-family="Helvetica,sans-Serif" font-size="10.00">+</text>
<text text-anchor="start" x="208" y="-174.5" font-family="Helvetica,sans-Serif" font-size="10.00">operator=()</text>
<text text-anchor="start" x="184" y="-155.5" font-family="Helvetica,sans-Serif" font-size="10.00">+</text>
<text text-anchor="start" x="208" y="-155.5" font-family="Helvetica,sans-Serif" font-size="10.00">operator=()</text>
<polygon fill="#666666" stroke="#666666" points="166,-262 166,-262 293,-262 293,-262 166,-262"/>
<polygon fill="#666666" stroke="#666666" points="166,-243 166,-243 206,-243 206,-243 166,-243"/>
<polygon fill="#666666" stroke="#666666" points="206,-243 206,-243 293,-243 293,-243 206,-243"/>
<polygon fill="none" stroke="#666666" points="166,-146 166,-298 293,-298 293,-146 166,-146"/>
</a>
</g>
</g>
<!-- Node1&#45;&gt;Node4 -->
<g id="edge4_Node000001_Node000004" class="edge">
<title>Node1&#45;&gt;Node4</title>
<g id="a_edge4_Node000001_Node000004"><a xlink:title=" ">
<path fill="none" stroke="orange" d="M157.16,-340.26C165.86,-326.16 174.83,-311.62 183.37,-297.77"/>
<polygon fill="orange" stroke="orange" points="153.77,-338.09 151.5,-348.44 159.73,-341.77 153.77,-338.09"/>
</a>
</g>
<text text-anchor="middle" x="205.25" y="-321.5" font-family="Helvetica,sans-Serif" font-size="10.00" fill="grey"> &lt; value_type &gt;</text>
</g>
<!-- Node3&#45;&gt;Node2 -->
<g id="edge3_Node000003_Node000002" class="edge">
<title>Node3&#45;&gt;Node2</title>
<g id="a_edge3_Node000003_Node000002"><a xlink:title=" ">
<path fill="none" stroke="orange" d="M87.43,-164.33C80.25,-141.82 72.1,-116.24 65.28,-94.85"/>
<polygon fill="orange" stroke="orange" points="84.39,-165.31 90.76,-173.77 91.06,-163.18 84.39,-165.31"/>
</a>
</g>
<text text-anchor="middle" x="109.25" y="-118.5" font-family="Helvetica,sans-Serif" font-size="10.00" fill="grey"> &lt; value_type &gt;</text>
</g>
</g>
</svg>
