<?xml version="1.0" encoding="UTF-8" standalone="no"?>
<!DOCTYPE svg PUBLIC "-//W3C//DTD SVG 1.1//EN"
 "http://www.w3.org/Graphics/SVG/1.1/DTD/svg11.dtd">
<!-- Generated by graphviz version 8.0.5 (20230430.1635)
 -->
<!-- Title: cont::slist::emplace Pages: 1 -->
<svg width="388pt" height="252pt"
 viewBox="0.00 0.00 387.50 252.00" xmlns="http://www.w3.org/2000/svg" xmlns:xlink="http://www.w3.org/1999/xlink">
<g id="graph0" class="graph" transform="scale(1 1) rotate(0) translate(4 248)">
<title>cont::slist::emplace</title>
<!-- Node1 -->
<g id="Node000001" class="node">
<title>Node1</title>
<g id="a_Node000001"><a xlink:title=" ">
<polygon fill="#999999" stroke="#666666" points="379.5,-146 279.5,-146 279.5,-123 379.5,-123 379.5,-146"/>
<text text-anchor="middle" x="329.5" y="-132.5" font-family="Helvetica,sans-Serif" font-size="10.00">cont::slist::emplace</text>
</a>
</g>
</g>
<!-- Node2 -->
<g id="Node000002" class="node">
<title>Node2</title>
<g id="a_Node000002"><a xlink:href="structcont_1_1slist.html#ab175f983cf5b156c4a5b4afad6ed5d59" target="_top" xlink:title=" ">
<polygon fill="white" stroke="#666666" points="243.5,-244 117.25,-244 117.25,-221 243.5,-221 243.5,-244"/>
<text text-anchor="middle" x="180.38" y="-230.5" font-family="Helvetica,sans-Serif" font-size="10.00">cont::slist::emplace_back</text>
</a>
</g>
</g>
<!-- Node1&#45;&gt;Node2 -->
<g id="edge1_Node000001_Node000002" class="edge">
<title>Node1&#45;&gt;Node2</title>
<g id="a_edge1_Node000001_Node000002"><a xlink:title=" ">
<path fill="none" stroke="#63b8ff" d="M311.31,-154.09C295.27,-171.32 269.91,-195.99 243.5,-211.5 237.61,-214.96 231.07,-217.95 224.5,-220.5"/>
<polygon fill="#63b8ff" stroke="#63b8ff" points="313.25,-157.06 317.4,-147.31 308.08,-152.35 313.25,-157.06"/>
</a>
</g>
</g>
<!-- Node3 -->
<g id="Node000003" class="node">
<title>Node3</title>
<g id="a_Node000003"><a xlink:href="structcont_1_1slist.html#a2f7a38914b868010b2cd1f14eaf7d4e7" target="_top" xlink:title=" ">
<polygon fill="white" stroke="#666666" points="230.38,-202.5 130.38,-202.5 130.38,-164.5 230.38,-164.5 230.38,-202.5"/>
<text text-anchor="start" x="138.38" y="-189" font-family="Helvetica,sans-Serif" font-size="10.00">cont::slist::emplace</text>
<text text-anchor="middle" x="180.38" y="-174" font-family="Helvetica,sans-Serif" font-size="10.00">_front</text>
</a>
</g>
</g>
<!-- Node1&#45;&gt;Node3 -->
<g id="edge2_Node000001_Node000003" class="edge">
<title>Node1&#45;&gt;Node3</title>
<g id="a_edge2_Node000001_Node000003"><a xlink:title=" ">
<path fill="none" stroke="#63b8ff" d="M282.08,-149.96C265.69,-155.42 247.21,-161.57 230.6,-167.11"/>
<polygon fill="#63b8ff" stroke="#63b8ff" points="283.13,-152.97 291.51,-146.49 280.92,-146.33 283.13,-152.97"/>
</a>
</g>
</g>
<!-- Node4 -->
<g id="Node000004" class="node">
<title>Node4</title>
<g id="a_Node000004"><a xlink:href="structcont_1_1slist.html#abd2f375dc665a69144dcf8bee13ea314" target="_top" xlink:title=" ">
<polygon fill="white" stroke="#666666" points="224.38,-146 136.38,-146 136.38,-123 224.38,-123 224.38,-146"/>
<text text-anchor="middle" x="180.38" y="-132.5" font-family="Helvetica,sans-Serif" font-size="10.00">cont::slist::insert</text>
</a>
</g>
</g>
<!-- Node1&#45;&gt;Node4 -->
<g id="edge3_Node000001_Node000004" class="edge">
<title>Node1&#45;&gt;Node4</title>
<g id="a_edge3_Node000001_Node000004"><a xlink:title=" ">
<path fill="none" stroke="#63b8ff" d="M268.53,-134.5C253.77,-134.5 238.26,-134.5 224.48,-134.5"/>
<polygon fill="#63b8ff" stroke="#63b8ff" points="268.1,-138 278.1,-134.5 268.1,-131 268.1,-138"/>
</a>
</g>
</g>
<!-- Node5 -->
<g id="Node000005" class="node">
<title>Node5</title>
<g id="a_Node000005"><a xlink:href="structcont_1_1slist.html#a7476c307cd7a30879c82289dd07e154f" target="_top" xlink:title=" ">
<polygon fill="white" stroke="#666666" points="235.62,-105 125.12,-105 125.12,-82 235.62,-82 235.62,-105"/>
<text text-anchor="middle" x="180.38" y="-91.5" font-family="Helvetica,sans-Serif" font-size="10.00">cont::slist::push_back</text>
</a>
</g>
</g>
<!-- Node1&#45;&gt;Node5 -->
<g id="edge4_Node000001_Node000005" class="edge">
<title>Node1&#45;&gt;Node5</title>
<g id="a_edge4_Node000001_Node000005"><a xlink:title=" ">
<path fill="none" stroke="#63b8ff" d="M275.36,-119.69C258.61,-115.02 240.33,-109.93 224.38,-105.48"/>
<polygon fill="#63b8ff" stroke="#63b8ff" points="273.98,-123.22 284.55,-122.53 275.86,-116.47 273.98,-123.22"/>
</a>
</g>
</g>
<!-- Node8 -->
<g id="Node000008" class="node">
<title>Node8</title>
<g id="a_Node000008"><a xlink:href="structcont_1_1slist.html#ab7ccea9953e3150c3b8c881a294a9010" target="_top" xlink:title=" ">
<polygon fill="white" stroke="#666666" points="234.88,-64 125.88,-64 125.88,-41 234.88,-41 234.88,-64"/>
<text text-anchor="middle" x="180.38" y="-50.5" font-family="Helvetica,sans-Serif" font-size="10.00">cont::slist::push_front</text>
</a>
</g>
</g>
<!-- Node1&#45;&gt;Node8 -->
<g id="edge7_Node000001_Node000008" class="edge">
<title>Node1&#45;&gt;Node8</title>
<g id="a_edge7_Node000001_Node000008"><a xlink:title=" ">
<path fill="none" stroke="#63b8ff" d="M306.21,-115.68C289.72,-102.49 266.27,-85.19 243.5,-73.5 236.92,-70.12 229.67,-67.1 222.52,-64.48"/>
<polygon fill="#63b8ff" stroke="#63b8ff" points="303.65,-118.92 313.61,-122.53 308.07,-113.5 303.65,-118.92"/>
</a>
</g>
</g>
<!-- Node6 -->
<g id="Node000006" class="node">
<title>Node6</title>
<g id="a_Node000006"><a xlink:href="slist__gtest_8cpp.html#a0b88b0cef1dc7ead8380573fff6f1cf8" target="_top" xlink:title=" ">
<polygon fill="white" stroke="#666666" points="61,-64 20.25,-64 20.25,-41 61,-41 61,-64"/>
<text text-anchor="middle" x="40.62" y="-50.5" font-family="Helvetica,sans-Serif" font-size="10.00">TEST</text>
</a>
</g>
</g>
<!-- Node5&#45;&gt;Node6 -->
<g id="edge5_Node000005_Node000006" class="edge">
<title>Node5&#45;&gt;Node6</title>
<g id="a_edge5_Node000005_Node000006"><a xlink:title=" ">
<path fill="none" stroke="#63b8ff" d="M128.68,-78.41C105.3,-71.45 78.92,-63.6 61.39,-58.38"/>
<polygon fill="#63b8ff" stroke="#63b8ff" points="127.58,-82.03 138.16,-81.53 129.58,-75.32 127.58,-82.03"/>
</a>
</g>
</g>
<!-- Node7 -->
<g id="Node000007" class="node">
<title>Node7</title>
<g id="a_Node000007"><a xlink:href="slist__gtest_8cpp.html#a315cfa2fb390f02859803482bf6b6442" target="_top" xlink:title=" ">
<polygon fill="white" stroke="#666666" points="61,-105 20.25,-105 20.25,-82 61,-82 61,-105"/>
<text text-anchor="middle" x="40.62" y="-91.5" font-family="Helvetica,sans-Serif" font-size="10.00">TEST</text>
</a>
</g>
</g>
<!-- Node5&#45;&gt;Node7 -->
<g id="edge6_Node000005_Node000007" class="edge">
<title>Node5&#45;&gt;Node7</title>
<g id="a_edge6_Node000005_Node000007"><a xlink:title=" ">
<path fill="none" stroke="#63b8ff" d="M114.04,-93.5C94.86,-93.5 75.32,-93.5 61.37,-93.5"/>
<polygon fill="#63b8ff" stroke="#63b8ff" points="113.93,-97 123.93,-93.5 113.93,-90 113.93,-97"/>
</a>
</g>
</g>
<!-- Node8&#45;&gt;Node6 -->
<g id="edge9_Node000008_Node000006" class="edge">
<title>Node8&#45;&gt;Node6</title>
<g id="a_edge9_Node000008_Node000006"><a xlink:title=" ">
<path fill="none" stroke="#63b8ff" d="M114.97,-52.5C95.45,-52.5 75.46,-52.5 61.28,-52.5"/>
<polygon fill="#63b8ff" stroke="#63b8ff" points="114.72,-56 124.72,-52.5 114.72,-49 114.72,-56"/>
</a>
</g>
</g>
<!-- Node8&#45;&gt;Node7 -->
<g id="edge10_Node000008_Node000007" class="edge">
<title>Node8&#45;&gt;Node7</title>
<g id="a_edge10_Node000008_Node000007"><a xlink:title=" ">
<path fill="none" stroke="#63b8ff" d="M128.68,-67.59C105.3,-74.55 78.92,-82.4 61.39,-87.62"/>
<polygon fill="#63b8ff" stroke="#63b8ff" points="129.58,-70.68 138.16,-64.47 127.58,-63.97 129.58,-70.68"/>
</a>
</g>
</g>
<!-- Node9 -->
<g id="Node000009" class="node">
<title>Node9</title>
<g id="a_Node000009"><a xlink:href="structcont_1_1slist.html#a70ff0932566b39bc0d4c8d518c1d3957" target="_top" xlink:title=" ">
<polygon fill="white" stroke="#666666" points="81.25,-23 0,-23 0,0 81.25,0 81.25,-23"/>
<text text-anchor="middle" x="40.62" y="-9.5" font-family="Helvetica,sans-Serif" font-size="10.00">cont::slist::slist</text>
</a>
</g>
</g>
<!-- Node8&#45;&gt;Node9 -->
<g id="edge8_Node000008_Node000009" class="edge">
<title>Node8&#45;&gt;Node9</title>
<g id="a_edge8_Node000008_Node000009"><a xlink:title=" ">
<path fill="none" stroke="#63b8ff" d="M128.68,-37.41C113.17,-32.8 96.34,-27.79 81.65,-23.41"/>
<polygon fill="#63b8ff" stroke="#63b8ff" points="127.58,-41.03 138.16,-40.53 129.58,-34.32 127.58,-41.03"/>
</a>
</g>
</g>
</g>
</svg>
