<?xml version="1.0" encoding="UTF-8" standalone="no"?>
<!DOCTYPE svg PUBLIC "-//W3C//DTD SVG 1.1//EN"
 "http://www.w3.org/Graphics/SVG/1.1/DTD/svg11.dtd">
<!-- Generated by graphviz version 8.0.5 (20230430.1635)
 -->
<!-- Title: cont::slist::slist Pages: 1 -->
<svg width="370pt" height="92pt"
 viewBox="0.00 0.00 370.25 92.00" xmlns="http://www.w3.org/2000/svg" xmlns:xlink="http://www.w3.org/1999/xlink">
<g id="graph0" class="graph" transform="scale(1 1) rotate(0) translate(4 88)">
<title>cont::slist::slist</title>
<!-- Node1 -->
<g id="Node000001" class="node">
<title>Node1</title>
<g id="a_Node000001"><a xlink:title=" ">
<polygon fill="#999999" stroke="#666666" points="81.25,-43 0,-43 0,-20 81.25,-20 81.25,-43"/>
<text text-anchor="middle" x="40.62" y="-29.5" font-family="Helvetica,sans-Serif" font-size="10.00">cont::slist::slist</text>
</a>
</g>
</g>
<!-- Node2 -->
<g id="Node000002" class="node">
<title>Node2</title>
<g id="a_Node000002"><a xlink:href="structcont_1_1slist.html#ab7ccea9953e3150c3b8c881a294a9010" target="_top" xlink:title=" ">
<polygon fill="white" stroke="#666666" points="226.25,-64 117.25,-64 117.25,-41 226.25,-41 226.25,-64"/>
<text text-anchor="middle" x="171.75" y="-50.5" font-family="Helvetica,sans-Serif" font-size="10.00">cont::slist::push_front</text>
</a>
</g>
</g>
<!-- Node1&#45;&gt;Node2 -->
<g id="edge1_Node000001_Node000002" class="edge">
<title>Node1&#45;&gt;Node2</title>
<g id="a_edge1_Node000001_Node000002"><a xlink:title=" ">
<path fill="none" stroke="#63b8ff" d="M81.42,-37.97C89.34,-39.26 97.85,-40.64 106.35,-42.03"/>
<polygon fill="#63b8ff" stroke="#63b8ff" points="105.64,-45.62 116.07,-43.77 106.76,-38.71 105.64,-45.62"/>
</a>
</g>
</g>
<!-- Node5 -->
<g id="Node000005" class="node">
<title>Node5</title>
<g id="a_Node000005"><a xlink:href="structcont_1_1slist.html#add9b602d2e823e038618784db92e9980" target="_top" xlink:title=" ">
<polygon fill="white" stroke="#666666" points="212.38,-23 131.12,-23 131.12,0 212.38,0 212.38,-23"/>
<text text-anchor="middle" x="171.75" y="-9.5" font-family="Helvetica,sans-Serif" font-size="10.00">cont::slist::size</text>
</a>
</g>
</g>
<!-- Node1&#45;&gt;Node5 -->
<g id="edge4_Node000001_Node000005" class="edge">
<title>Node1&#45;&gt;Node5</title>
<g id="a_edge4_Node000001_Node000005"><a xlink:title=" ">
<path fill="none" stroke="#63b8ff" d="M81.42,-25.34C93.69,-23.44 107.37,-21.32 120.27,-19.32"/>
<polygon fill="#63b8ff" stroke="#63b8ff" points="120.52,-22.67 129.86,-17.68 119.45,-15.75 120.52,-22.67"/>
</a>
</g>
</g>
<!-- Node3 -->
<g id="Node000003" class="node">
<title>Node3</title>
<g id="a_Node000003"><a xlink:href="structcont_1_1slist.html#aefb63000899494fd4885f6b9c77fdbd6" target="_top" xlink:title=" ">
<polygon fill="white" stroke="#666666" points="355.5,-84 269,-84 269,-61 355.5,-61 355.5,-84"/>
<text text-anchor="middle" x="312.25" y="-70.5" font-family="Helvetica,sans-Serif" font-size="10.00">cont::slist::begin</text>
</a>
</g>
</g>
<!-- Node2&#45;&gt;Node3 -->
<g id="edge2_Node000002_Node000003" class="edge">
<title>Node2&#45;&gt;Node3</title>
<g id="a_edge2_Node000002_Node000003"><a xlink:title=" ">
<path fill="none" stroke="#63b8ff" d="M226.69,-60.29C236.96,-61.77 247.69,-63.32 257.94,-64.8"/>
<polygon fill="#63b8ff" stroke="#63b8ff" points="257.42,-68.41 267.81,-66.37 258.42,-61.48 257.42,-68.41"/>
</a>
</g>
</g>
<!-- Node4 -->
<g id="Node000004" class="node">
<title>Node4</title>
<g id="a_Node000004"><a xlink:href="structcont_1_1slist.html#ad50169f77851a298b6af377bfe55fbf0" target="_top" xlink:title=" ">
<polygon fill="white" stroke="#666666" points="362.25,-43 262.25,-43 262.25,-20 362.25,-20 362.25,-43"/>
<text text-anchor="middle" x="312.25" y="-29.5" font-family="Helvetica,sans-Serif" font-size="10.00">cont::slist::emplace</text>
</a>
</g>
</g>
<!-- Node2&#45;&gt;Node4 -->
<g id="edge3_Node000002_Node000004" class="edge">
<title>Node2&#45;&gt;Node4</title>
<g id="a_edge3_Node000002_Node000004"><a xlink:title=" ">
<path fill="none" stroke="#63b8ff" d="M226.69,-44.32C234.83,-43.09 243.26,-41.81 251.5,-40.56"/>
<polygon fill="#63b8ff" stroke="#63b8ff" points="251.84,-43.9 261.2,-38.94 250.79,-36.98 251.84,-43.9"/>
</a>
</g>
</g>
</g>
</svg>
