<?xml version="1.0" encoding="UTF-8" standalone="no"?>
<!DOCTYPE svg PUBLIC "-//W3C//DTD SVG 1.1//EN"
 "http://www.w3.org/Graphics/SVG/1.1/DTD/svg11.dtd">
<!-- Generated by graphviz version 8.0.5 (20230430.1635)
 -->
<!-- Title: cont::slist::begin Pages: 1 -->
<svg width="357pt" height="412pt"
 viewBox="0.00 0.00 356.75 411.50" xmlns="http://www.w3.org/2000/svg" xmlns:xlink="http://www.w3.org/1999/xlink">

<svg id="main" version="1.1" xmlns="http://www.w3.org/2000/svg" xmlns:xlink="http://www.w3.org/1999/xlink" xml:space="preserve" onload="init(evt)">
<style type="text/css"><![CDATA[
.node, .edge {opacity: 0.7;}
.node.selected, .edge.selected {opacity: 1;}
.edge:hover path { stroke: red; }
.edge:hover polygon { stroke: red; fill: red; }
]]></style>
<script type="application/ecmascript" xlink:href="svg.min.js"/>
<svg id="graph" class="graph">
<g id="graph0" class="graph" transform="scale(1 1) rotate(0) translate(4 407.5)">
<title>cont::slist::begin</title>
<!-- Node1 -->
<g id="Node000001" class="node">
<title>Node1</title>
<g id="a_Node000001"><a xlink:title=" ">
<polygon fill="#999999" stroke="#666666" points="348.75,-205 262.25,-205 262.25,-182 348.75,-182 348.75,-205"/>
<text text-anchor="middle" x="305.5" y="-191.5" font-family="Helvetica,sans-Serif" font-size="10.00">cont::slist::begin</text>
</a>
</g>
</g>
<!-- Node2 -->
<g id="Node000002" class="node">
<title>Node2</title>
<g id="a_Node000002"><a xlink:href="structcont_1_1slist.html#a2f7a38914b868010b2cd1f14eaf7d4e7" target="_top" xlink:title=" ">
<polygon fill="white" stroke="#666666" points="221.75,-403.5 121.75,-403.5 121.75,-365.5 221.75,-365.5 221.75,-403.5"/>
<text text-anchor="start" x="129.75" y="-390" font-family="Helvetica,sans-Serif" font-size="10.00">cont::slist::emplace</text>
<text text-anchor="middle" x="171.75" y="-375" font-family="Helvetica,sans-Serif" font-size="10.00">_front</text>
</a>
</g>
</g>
<!-- Node1&#45;&gt;Node2 -->
<g id="edge1_Node000001_Node000002" class="edge">
<title>Node1&#45;&gt;Node2</title>
<g id="a_edge1_Node000001_Node000002"><a xlink:title=" ">
<path fill="none" stroke="#63b8ff" d="M298.82,-215.47C289.07,-249.44 266.22,-315.12 226.25,-356.5 223.19,-359.67 219.7,-362.55 215.99,-365.15"/>
<polygon fill="#63b8ff" stroke="#63b8ff" points="302.36,-216.81 301.63,-206.24 295.61,-214.96 302.36,-216.81"/>
</a>
</g>
</g>
<!-- Node3 -->
<g id="Node000003" class="node">
<title>Node3</title>
<g id="a_Node000003"><a xlink:href="main_8cpp.html#abf9e6b7e6f15df4b525a2e7705ba3089" target="_top" xlink:title=" ">
<polygon fill="white" stroke="#666666" points="190.25,-347 153.25,-347 153.25,-324 190.25,-324 190.25,-347"/>
<text text-anchor="middle" x="171.75" y="-333.5" font-family="Helvetica,sans-Serif" font-size="10.00">main</text>
</a>
</g>
</g>
<!-- Node1&#45;&gt;Node3 -->
<g id="edge2_Node000001_Node000003" class="edge">
<title>Node1&#45;&gt;Node3</title>
<g id="a_edge2_Node000001_Node000003"><a xlink:title=" ">
<path fill="none" stroke="#63b8ff" d="M295.69,-215.38C283.75,-242.45 259.98,-288.27 226.25,-315.5 215.91,-323.85 201.74,-328.93 190.58,-331.89"/>
<polygon fill="#63b8ff" stroke="#63b8ff" points="299.26,-216.93 299.94,-206.36 292.81,-214.19 299.26,-216.93"/>
</a>
</g>
</g>
<!-- Node4 -->
<g id="Node000004" class="node">
<title>Node4</title>
<g id="a_Node000004"><a xlink:href="namespacecont.html#a7b8905512fd83bb2cd66f8f988ad039f" target="_top" xlink:title=" ">
<polygon fill="white" stroke="#666666" points="215.38,-306 128.12,-306 128.12,-283 215.38,-283 215.38,-306"/>
<text text-anchor="middle" x="171.75" y="-292.5" font-family="Helvetica,sans-Serif" font-size="10.00">cont::operator==</text>
</a>
</g>
</g>
<!-- Node1&#45;&gt;Node4 -->
<g id="edge3_Node000001_Node000004" class="edge">
<title>Node1&#45;&gt;Node4</title>
<g id="a_edge3_Node000001_Node000004"><a xlink:title=" ">
<path fill="none" stroke="#63b8ff" d="M289.16,-213.92C274.68,-231.99 251.46,-257.98 226.25,-274.5 221.61,-277.54 216.43,-280.21 211.19,-282.53"/>
<polygon fill="#63b8ff" stroke="#63b8ff" points="292.51,-216.32 295.91,-206.29 286.99,-212.01 292.51,-216.32"/>
</a>
</g>
</g>
<!-- Node5 -->
<g id="Node000005" class="node">
<title>Node5</title>
<g id="a_Node000005"><a xlink:href="structcont_1_1slist.html#acc601c53026c9f9fe3eb665c349c7883" target="_top" xlink:title=" ">
<polygon fill="white" stroke="#666666" points="223.62,-265 119.88,-265 119.88,-242 223.62,-242 223.62,-265"/>
<text text-anchor="middle" x="171.75" y="-251.5" font-family="Helvetica,sans-Serif" font-size="10.00">cont::slist::pop_front</text>
</a>
</g>
</g>
<!-- Node1&#45;&gt;Node5 -->
<g id="edge4_Node000001_Node000005" class="edge">
<title>Node1&#45;&gt;Node5</title>
<g id="a_edge4_Node000001_Node000005"><a xlink:title=" ">
<path fill="none" stroke="#63b8ff" d="M268.21,-210.03C246.3,-220.01 218.87,-232.49 199.05,-241.52"/>
<polygon fill="#63b8ff" stroke="#63b8ff" points="269.5,-212.83 277.16,-205.5 266.6,-206.46 269.5,-212.83"/>
</a>
</g>
</g>
<!-- Node6 -->
<g id="Node000006" class="node">
<title>Node6</title>
<g id="a_Node000006"><a xlink:href="structcont_1_1slist.html#ab7ccea9953e3150c3b8c881a294a9010" target="_top" xlink:title=" ">
<polygon fill="white" stroke="#666666" points="226.25,-185 117.25,-185 117.25,-162 226.25,-162 226.25,-185"/>
<text text-anchor="middle" x="171.75" y="-171.5" font-family="Helvetica,sans-Serif" font-size="10.00">cont::slist::push_front</text>
</a>
</g>
</g>
<!-- Node1&#45;&gt;Node6 -->
<g id="edge5_Node000001_Node000006" class="edge">
<title>Node1&#45;&gt;Node6</title>
<g id="a_edge5_Node000001_Node000006"><a xlink:title=" ">
<path fill="none" stroke="#63b8ff" d="M251.25,-185.42C243.14,-184.19 234.77,-182.92 226.66,-181.68"/>
<polygon fill="#63b8ff" stroke="#63b8ff" points="250.68,-189.02 261.09,-187.06 251.73,-182.1 250.68,-189.02"/>
</a>
</g>
</g>
<!-- Node8 -->
<g id="Node000008" class="node">
<title>Node8</title>
<g id="a_Node000008"><a xlink:href="slist__gtest_8cpp.html#a0b88b0cef1dc7ead8380573fff6f1cf8" target="_top" xlink:title=" ">
<polygon fill="white" stroke="#666666" points="61,-226 20.25,-226 20.25,-203 61,-203 61,-226"/>
<text text-anchor="middle" x="40.62" y="-212.5" font-family="Helvetica,sans-Serif" font-size="10.00">TEST</text>
</a>
</g>
</g>
<!-- Node1&#45;&gt;Node8 -->
<g id="edge11_Node000001_Node000008" class="edge">
<title>Node1&#45;&gt;Node8</title>
<g id="a_edge11_Node000001_Node000008"><a xlink:title=" ">
<path fill="none" stroke="#63b8ff" d="M251.04,-197.77C192.3,-202.46 101.02,-209.76 61.25,-212.93"/>
<polygon fill="#63b8ff" stroke="#63b8ff" points="251.28,-201.18 260.97,-196.9 250.73,-194.2 251.28,-201.18"/>
</a>
</g>
</g>
<!-- Node9 -->
<g id="Node000009" class="node">
<title>Node9</title>
<g id="a_Node000009"><a xlink:href="slist__gtest_8cpp.html#a315cfa2fb390f02859803482bf6b6442" target="_top" xlink:title=" ">
<polygon fill="white" stroke="#666666" points="61,-144 20.25,-144 20.25,-121 61,-121 61,-144"/>
<text text-anchor="middle" x="40.62" y="-130.5" font-family="Helvetica,sans-Serif" font-size="10.00">TEST</text>
</a>
</g>
</g>
<!-- Node1&#45;&gt;Node9 -->
<g id="edge12_Node000001_Node000009" class="edge">
<title>Node1&#45;&gt;Node9</title>
<g id="a_edge12_Node000001_Node000009"><a xlink:title=" ">
<path fill="none" stroke="#63b8ff" d="M277.3,-176.01C262.72,-167.49 244.13,-157.94 226.25,-152.5 168.11,-134.82 95.49,-132.33 61.24,-132.25"/>
<polygon fill="#63b8ff" stroke="#63b8ff" points="275.31,-179.5 285.68,-181.68 278.93,-173.51 275.31,-179.5"/>
</a>
</g>
</g>
<!-- Node10 -->
<g id="Node000010" class="node">
<title>Node10</title>
<g id="a_Node000010"><a xlink:href="slist__gtest_8cpp.html#abf8de842858f9204c142372cfcc5bea2" target="_top" xlink:title=" ">
<polygon fill="white" stroke="#666666" points="192.12,-105 151.38,-105 151.38,-82 192.12,-82 192.12,-105"/>
<text text-anchor="middle" x="171.75" y="-91.5" font-family="Helvetica,sans-Serif" font-size="10.00">TEST</text>
</a>
</g>
</g>
<!-- Node1&#45;&gt;Node10 -->
<g id="edge9_Node000001_Node000010" class="edge">
<title>Node1&#45;&gt;Node10</title>
<g id="a_edge9_Node000001_Node000010"><a xlink:title=" ">
<path fill="none" stroke="#63b8ff" d="M286.93,-173.84C271.92,-157.82 249.17,-135.35 226.25,-119.5 215.8,-112.28 203.04,-105.99 192.61,-101.41"/>
<polygon fill="#63b8ff" stroke="#63b8ff" points="283.69,-175.57 293.04,-180.55 288.84,-170.82 283.69,-175.57"/>
</a>
</g>
</g>
<!-- Node11 -->
<g id="Node000011" class="node">
<title>Node11</title>
<g id="a_Node000011"><a xlink:href="slist__gtest_8cpp.html#a7445ea25364e22a7db53092592149429" target="_top" xlink:title=" ">
<polygon fill="white" stroke="#666666" points="192.12,-64 151.38,-64 151.38,-41 192.12,-41 192.12,-64"/>
<text text-anchor="middle" x="171.75" y="-50.5" font-family="Helvetica,sans-Serif" font-size="10.00">TEST</text>
</a>
</g>
</g>
<!-- Node1&#45;&gt;Node11 -->
<g id="edge10_Node000001_Node000011" class="edge">
<title>Node1&#45;&gt;Node11</title>
<g id="a_edge10_Node000001_Node000011"><a xlink:title=" ">
<path fill="none" stroke="#63b8ff" d="M295.64,-171.8C283.65,-144.96 259.83,-99.51 226.25,-72.5 216.51,-64.67 203.4,-59.7 192.59,-56.68"/>
<polygon fill="#63b8ff" stroke="#63b8ff" points="292.75,-172.94 299.92,-180.74 299.18,-170.17 292.75,-172.94"/>
</a>
</g>
</g>
<!-- Node12 -->
<g id="Node000012" class="node">
<title>Node12</title>
<g id="a_Node000012"><a xlink:href="structcont_1_1slist.html#a6319bcb602a2c65e82b8f8fa2ea3da73" target="_top" xlink:title=" ">
<polygon fill="white" stroke="#666666" points="215.38,-23 128.12,-23 128.12,0 215.38,0 215.38,-23"/>
<text text-anchor="middle" x="171.75" y="-9.5" font-family="Helvetica,sans-Serif" font-size="10.00">cont::slist::~slist</text>
</a>
</g>
</g>
<!-- Node1&#45;&gt;Node12 -->
<g id="edge13_Node000001_Node000012" class="edge">
<title>Node1&#45;&gt;Node12</title>
<g id="a_edge13_Node000001_Node000012"><a xlink:title=" ">
<path fill="none" stroke="#63b8ff" d="M299.52,-171.55C290.61,-137.1 268.76,-70.26 226.25,-31.5 222.81,-28.36 218.82,-25.7 214.62,-23.45"/>
<polygon fill="#63b8ff" stroke="#63b8ff" points="296.27,-172.03 302.05,-180.91 303.07,-170.36 296.27,-172.03"/>
</a>
</g>
</g>
<!-- Node7 -->
<g id="Node000007" class="node">
<title>Node7</title>
<g id="a_Node000007"><a xlink:href="structcont_1_1slist.html#a70ff0932566b39bc0d4c8d518c1d3957" target="_top" xlink:title=" ">
<polygon fill="white" stroke="#666666" points="81.25,-185 0,-185 0,-162 81.25,-162 81.25,-185"/>
<text text-anchor="middle" x="40.62" y="-171.5" font-family="Helvetica,sans-Serif" font-size="10.00">cont::slist::slist</text>
</a>
</g>
</g>
<!-- Node6&#45;&gt;Node7 -->
<g id="edge6_Node000006_Node000007" class="edge">
<title>Node6&#45;&gt;Node7</title>
<g id="a_edge6_Node000006_Node000007"><a xlink:title=" ">
<path fill="none" stroke="#63b8ff" d="M106.12,-173.5C97.73,-173.5 89.34,-173.5 81.51,-173.5"/>
<polygon fill="#63b8ff" stroke="#63b8ff" points="106.11,-177 116.11,-173.5 106.11,-170 106.11,-177"/>
</a>
</g>
</g>
<!-- Node6&#45;&gt;Node8 -->
<g id="edge7_Node000006_Node000008" class="edge">
<title>Node6&#45;&gt;Node8</title>
<g id="a_edge7_Node000006_Node000008"><a xlink:title=" ">
<path fill="none" stroke="#63b8ff" d="M122.83,-188.71C101.49,-195.49 77.55,-203.09 61.22,-208.28"/>
<polygon fill="#63b8ff" stroke="#63b8ff" points="123.58,-191.83 132.05,-185.47 121.46,-185.16 123.58,-191.83"/>
</a>
</g>
</g>
<!-- Node6&#45;&gt;Node9 -->
<g id="edge8_Node000006_Node000009" class="edge">
<title>Node6&#45;&gt;Node9</title>
<g id="a_edge8_Node000006_Node000009"><a xlink:title=" ">
<path fill="none" stroke="#63b8ff" d="M122.83,-158.29C101.49,-151.51 77.55,-143.91 61.22,-138.72"/>
<polygon fill="#63b8ff" stroke="#63b8ff" points="121.46,-161.84 132.05,-161.53 123.58,-155.17 121.46,-161.84"/>
</a>
</g>
</g>
</g>
</svg>
</svg>

<style type='text/css'>
<![CDATA[
[data-mouse-over-selected='false'] { opacity: 0.7; }
[data-mouse-over-selected='true']  { opacity: 1.0; }
]]>
</style>
<script type="application/ecmascript"><![CDATA[
document.addEventListener('DOMContentLoaded', (event) => {
  highlightEdges();
  highlightAdjacentNodes();
});
]]></script>
</svg>
