<?xml version="1.0" encoding="UTF-8" standalone="no"?>
<!DOCTYPE svg PUBLIC "-//W3C//DTD SVG 1.1//EN"
 "http://www.w3.org/Graphics/SVG/1.1/DTD/svg11.dtd">
<!-- Generated by graphviz version 8.0.5 (20230430.1635)
 -->
<!-- Title: anonymous_namespace{main.cpp}::fact&lt; N &gt; Pages: 1 -->
<svg width="123pt" height="211pt"
 viewBox="0.00 0.00 123.00 211.00" xmlns="http://www.w3.org/2000/svg" xmlns:xlink="http://www.w3.org/1999/xlink">
<g id="graph0" class="graph" transform="scale(1 1) rotate(0) translate(4 207)">
<title>anonymous_namespace{main.cpp}::fact&lt; N &gt;</title>
<!-- Node1 -->
<g id="Node000001" class="node">
<title>Node1</title>
<g id="a_Node000001"><a xlink:title=" ">
<polygon fill="#999999" stroke="none" points="115,-76 0,-76 0,0 115,0 115,-76"/>
<text text-anchor="start" x="4.62" y="-62.5" font-family="Helvetica,sans-Serif" font-size="10.00">anonymous_namespace</text>
<text text-anchor="start" x="10.62" y="-47.5" font-family="Helvetica,sans-Serif" font-size="10.00">{main.cpp}::fact&lt; N &gt;</text>
<text text-anchor="start" x="56" y="-28.5" font-family="Helvetica,sans-Serif" font-size="10.00"> </text>
<text text-anchor="start" x="56" y="-9.5" font-family="Helvetica,sans-Serif" font-size="10.00"> </text>
<polygon fill="#666666" stroke="#666666" points="0,-40 0,-40 115,-40 115,-40 0,-40"/>
<polygon fill="#666666" stroke="#666666" points="0,-21 0,-21 115,-21 115,-21 0,-21"/>
<polygon fill="none" stroke="#666666" points="0,0 0,-76 115,-76 115,0 0,0"/>
</a>
</g>
</g>
<!-- Node2 -->
<g id="Node000002" class="node">
<title>Node2</title>
<g id="a_Node000002"><a xlink:title=" ">
<polygon fill="white" stroke="none" points="109,-203 6,-203 6,-112 109,-112 109,-203"/>
<text text-anchor="start" x="10.62" y="-189.5" font-family="Helvetica,sans-Serif" font-size="10.00">std::integral_constant</text>
<text text-anchor="start" x="10.62" y="-174.5" font-family="Helvetica,sans-Serif" font-size="10.00">&lt; uint_t, N *fact&lt; N </text>
<text text-anchor="start" x="41.38" y="-159.5" font-family="Helvetica,sans-Serif" font-size="10.00">&#45; 1 &gt;()&gt;</text>
<text text-anchor="start" x="56" y="-140.5" font-family="Helvetica,sans-Serif" font-size="10.00"> </text>
<text text-anchor="start" x="56" y="-121.5" font-family="Helvetica,sans-Serif" font-size="10.00"> </text>
<polygon fill="#666666" stroke="#666666" points="6,-152 6,-152 109,-152 109,-152 6,-152"/>
<polygon fill="#666666" stroke="#666666" points="6,-133 6,-133 109,-133 109,-133 6,-133"/>
<polygon fill="none" stroke="#666666" points="6,-112 6,-203 109,-203 109,-112 6,-112"/>
</a>
</g>
</g>
<!-- Node2&#45;&gt;Node1 -->
<g id="edge1_Node000001_Node000002" class="edge">
<title>Node2&#45;&gt;Node1</title>
<g id="a_edge1_Node000001_Node000002"><a xlink:title=" ">
<path fill="none" stroke="#63b8ff" d="M57.5,-101.26C57.5,-92.63 57.5,-83.91 57.5,-75.83"/>
<polygon fill="none" stroke="#63b8ff" points="54,-101.08 57.5,-111.08 61,-101.08 54,-101.08"/>
</a>
</g>
</g>
</g>
</svg>
