<?xml version="1.0" encoding="UTF-8" standalone="no"?>
<!DOCTYPE svg PUBLIC "-//W3C//DTD SVG 1.1//EN"
 "http://www.w3.org/Graphics/SVG/1.1/DTD/svg11.dtd">
<!-- Generated by graphviz version 8.0.5 (20230430.1635)
 -->
<!-- Title: cont::slist_details::iterator&lt; Tp &gt; Pages: 1 -->
<svg width="112pt" height="386pt"
 viewBox="0.00 0.00 112.00 386.00" xmlns="http://www.w3.org/2000/svg" xmlns:xlink="http://www.w3.org/1999/xlink">
<g id="graph0" class="graph" transform="scale(1 1) rotate(0) translate(4 382)">
<title>cont::slist_details::iterator&lt; Tp &gt;</title>
<!-- Node1 -->
<g id="Node000001" class="node">
<title>Node1</title>
<g id="a_Node000001"><a xlink:title=" ">
<polygon fill="#999999" stroke="none" points="94.5,-152 9.5,-152 9.5,0 94.5,0 94.5,-152"/>
<text text-anchor="start" x="14.12" y="-138.5" font-family="Helvetica,sans-Serif" font-size="10.00">cont::slist_details</text>
<text text-anchor="start" x="19.38" y="-123.5" font-family="Helvetica,sans-Serif" font-size="10.00">::iterator&lt; Tp &gt;</text>
<text text-anchor="start" x="50.5" y="-104.5" font-family="Helvetica,sans-Serif" font-size="10.00"> </text>
<text text-anchor="start" x="17" y="-85.5" font-family="Helvetica,sans-Serif" font-size="10.00">+</text>
<text text-anchor="start" x="30.5" y="-85.5" font-family="Helvetica,sans-Serif" font-size="10.00">operator*()</text>
<text text-anchor="start" x="17" y="-66.5" font-family="Helvetica,sans-Serif" font-size="10.00">+</text>
<text text-anchor="start" x="30.5" y="-66.5" font-family="Helvetica,sans-Serif" font-size="10.00">operator&#45;&gt;()</text>
<text text-anchor="start" x="17" y="-47.5" font-family="Helvetica,sans-Serif" font-size="10.00">+</text>
<text text-anchor="start" x="30.5" y="-47.5" font-family="Helvetica,sans-Serif" font-size="10.00">operator++()</text>
<text text-anchor="start" x="17" y="-28.5" font-family="Helvetica,sans-Serif" font-size="10.00">+</text>
<text text-anchor="start" x="30.5" y="-28.5" font-family="Helvetica,sans-Serif" font-size="10.00">operator++()</text>
<text text-anchor="start" x="17" y="-9.5" font-family="Helvetica,sans-Serif" font-size="10.00">+</text>
<text text-anchor="start" x="30.5" y="-9.5" font-family="Helvetica,sans-Serif" font-size="10.00">iterator()</text>
<polygon fill="#666666" stroke="#666666" points="9.5,-116 9.5,-116 94.5,-116 94.5,-116 9.5,-116"/>
<polygon fill="#666666" stroke="#666666" points="9.5,-97 9.5,-97 94.5,-97 94.5,-97 9.5,-97"/>
<polygon fill="none" stroke="#666666" points="9.5,0 9.5,-152 94.5,-152 94.5,0 9.5,0"/>
</a>
</g>
</g>
<!-- Node2 -->
<g id="Node000002" class="node">
<title>Node2</title>
<g id="a_Node000002"><a xlink:href="structcont_1_1slist__details_1_1const__iterator.html" target="_top" xlink:title=" ">
<polygon fill="white" stroke="none" points="104,-378 0,-378 0,-188 104,-188 104,-378"/>
<text text-anchor="start" x="4.75" y="-364.5" font-family="Helvetica,sans-Serif" font-size="10.00">cont::slist_details</text>
<text text-anchor="start" x="4.75" y="-349.5" font-family="Helvetica,sans-Serif" font-size="10.00">::const_iterator&lt; Tp &gt;</text>
<text text-anchor="start" x="9" y="-330.5" font-family="Helvetica,sans-Serif" font-size="10.00">+</text>
<text text-anchor="start" x="24" y="-330.5" font-family="Helvetica,sans-Serif" font-size="10.00">prev_</text>
<text text-anchor="start" x="9" y="-311.5" font-family="Helvetica,sans-Serif" font-size="10.00">+</text>
<text text-anchor="start" x="24" y="-311.5" font-family="Helvetica,sans-Serif" font-size="10.00">operator*()</text>
<text text-anchor="start" x="9" y="-292.5" font-family="Helvetica,sans-Serif" font-size="10.00">+</text>
<text text-anchor="start" x="24" y="-292.5" font-family="Helvetica,sans-Serif" font-size="10.00">operator&#45;&gt;()</text>
<text text-anchor="start" x="9" y="-273.5" font-family="Helvetica,sans-Serif" font-size="10.00">+</text>
<text text-anchor="start" x="24" y="-273.5" font-family="Helvetica,sans-Serif" font-size="10.00">operator++()</text>
<text text-anchor="start" x="9" y="-254.5" font-family="Helvetica,sans-Serif" font-size="10.00">+</text>
<text text-anchor="start" x="24" y="-254.5" font-family="Helvetica,sans-Serif" font-size="10.00">operator++()</text>
<text text-anchor="start" x="9" y="-235.5" font-family="Helvetica,sans-Serif" font-size="10.00">+</text>
<text text-anchor="start" x="24" y="-235.5" font-family="Helvetica,sans-Serif" font-size="10.00">operator==()</text>
<text text-anchor="start" x="9" y="-216.5" font-family="Helvetica,sans-Serif" font-size="10.00">+</text>
<text text-anchor="start" x="24" y="-216.5" font-family="Helvetica,sans-Serif" font-size="10.00">operator!=()</text>
<text text-anchor="start" x="9" y="-197.5" font-family="Helvetica,sans-Serif" font-size="10.00">+</text>
<text text-anchor="start" x="24" y="-197.5" font-family="Helvetica,sans-Serif" font-size="10.00">const_iterator()</text>
<polygon fill="#666666" stroke="#666666" points="0,-342 0,-342 104,-342 104,-342 0,-342"/>
<polygon fill="#666666" stroke="#666666" points="0,-323 0,-323 22,-323 22,-323 0,-323"/>
<polygon fill="#666666" stroke="#666666" points="22,-323 22,-323 104,-323 104,-323 22,-323"/>
<polygon fill="none" stroke="#666666" points="0,-188 0,-378 104,-378 104,-188 0,-188"/>
</a>
</g>
</g>
<!-- Node2&#45;&gt;Node1 -->
<g id="edge1_Node000001_Node000002" class="edge">
<title>Node2&#45;&gt;Node1</title>
<g id="a_edge1_Node000001_Node000002"><a xlink:title=" ">
<path fill="none" stroke="#63b8ff" d="M52,-177.28C52,-168.66 52,-160.05 52,-151.71"/>
<polygon fill="none" stroke="#63b8ff" points="48.5,-177.2 52,-187.2 55.5,-177.2 48.5,-177.2"/>
</a>
</g>
</g>
</g>
</svg>
