<?xml version="1.0" encoding="UTF-8" standalone="no"?>
<!DOCTYPE svg PUBLIC "-//W3C//DTD SVG 1.1//EN"
 "http://www.w3.org/Graphics/SVG/1.1/DTD/svg11.dtd">
<!-- Generated by graphviz version 8.0.5 (20230430.1635)
 -->
<!-- Title: cont::slist::end Pages: 1 -->
<svg width="326pt" height="355pt"
 viewBox="0.00 0.00 326.00 355.00" xmlns="http://www.w3.org/2000/svg" xmlns:xlink="http://www.w3.org/1999/xlink">

<svg id="main" version="1.1" xmlns="http://www.w3.org/2000/svg" xmlns:xlink="http://www.w3.org/1999/xlink" xml:space="preserve" onload="init(evt)">
<style type="text/css"><![CDATA[
.node, .edge {opacity: 0.7;}
.node.selected, .edge.selected {opacity: 1;}
.edge:hover path { stroke: red; }
.edge:hover polygon { stroke: red; fill: red; }
]]></style>
<script type="application/ecmascript" xlink:href="svg.min.js"/>
<svg id="graph" class="graph">
<g id="graph0" class="graph" transform="scale(1 1) rotate(0) translate(4 351)">
<title>cont::slist::end</title>
<!-- Node1 -->
<g id="Node000001" class="node">
<title>Node1</title>
<g id="a_Node000001"><a xlink:title=" ">
<polygon fill="#999999" stroke="#666666" points="318,-185 239,-185 239,-162 318,-162 318,-185"/>
<text text-anchor="middle" x="278.5" y="-171.5" font-family="Helvetica,sans-Serif" font-size="10.00">cont::slist::end</text>
</a>
</g>
</g>
<!-- Node2 -->
<g id="Node000002" class="node">
<title>Node2</title>
<g id="a_Node000002"><a xlink:href="structcont_1_1slist.html#ab175f983cf5b156c4a5b4afad6ed5d59" target="_top" xlink:title=" ">
<polygon fill="white" stroke="#666666" points="203,-347 76.75,-347 76.75,-324 203,-324 203,-347"/>
<text text-anchor="middle" x="139.88" y="-333.5" font-family="Helvetica,sans-Serif" font-size="10.00">cont::slist::emplace_back</text>
</a>
</g>
</g>
<!-- Node1&#45;&gt;Node2 -->
<g id="edge1_Node000001_Node000002" class="edge">
<title>Node1&#45;&gt;Node2</title>
<g id="a_edge1_Node000001_Node000002"><a xlink:title=" ">
<path fill="none" stroke="#63b8ff" d="M271.69,-195.6C262.36,-226.76 241.13,-283.41 203,-315.5 199.27,-318.64 195.04,-321.28 190.59,-323.52"/>
<polygon fill="#63b8ff" stroke="#63b8ff" points="275.23,-196.93 274.59,-186.36 268.49,-195.02 275.23,-196.93"/>
</a>
</g>
</g>
<!-- Node3 -->
<g id="Node000003" class="node">
<title>Node3</title>
<g id="a_Node000003"><a xlink:href="main_8cpp.html#abf9e6b7e6f15df4b525a2e7705ba3089" target="_top" xlink:title=" ">
<polygon fill="white" stroke="#666666" points="158.38,-306 121.38,-306 121.38,-283 158.38,-283 158.38,-306"/>
<text text-anchor="middle" x="139.88" y="-292.5" font-family="Helvetica,sans-Serif" font-size="10.00">main</text>
</a>
</g>
</g>
<!-- Node1&#45;&gt;Node3 -->
<g id="edge2_Node000001_Node000003" class="edge">
<title>Node1&#45;&gt;Node3</title>
<g id="a_edge2_Node000001_Node000003"><a xlink:title=" ">
<path fill="none" stroke="#63b8ff" d="M266.96,-194.86C254.64,-217.72 232.15,-253.54 203,-274.5 189.84,-283.96 172,-289.09 158.81,-291.78"/>
<polygon fill="#63b8ff" stroke="#63b8ff" points="270.39,-196.85 271.9,-186.36 264.18,-193.62 270.39,-196.85"/>
</a>
</g>
</g>
<!-- Node4 -->
<g id="Node000004" class="node">
<title>Node4</title>
<g id="a_Node000004"><a xlink:href="namespacecont.html#a7b8905512fd83bb2cd66f8f988ad039f" target="_top" xlink:title=" ">
<polygon fill="white" stroke="#666666" points="183.5,-265 96.25,-265 96.25,-242 183.5,-242 183.5,-265"/>
<text text-anchor="middle" x="139.88" y="-251.5" font-family="Helvetica,sans-Serif" font-size="10.00">cont::operator==</text>
</a>
</g>
</g>
<!-- Node1&#45;&gt;Node4 -->
<g id="edge3_Node000001_Node000004" class="edge">
<title>Node1&#45;&gt;Node4</title>
<g id="a_edge3_Node000001_Node000004"><a xlink:title=" ">
<path fill="none" stroke="#63b8ff" d="M255.1,-191.84C240.76,-203.03 221.45,-217.13 203,-227.5 193.72,-232.71 183.19,-237.5 173.47,-241.51"/>
<polygon fill="#63b8ff" stroke="#63b8ff" points="256.67,-194.26 262.33,-185.31 252.32,-188.78 256.67,-194.26"/>
</a>
</g>
</g>
<!-- Node5 -->
<g id="Node000005" class="node">
<title>Node5</title>
<g id="a_Node000005"><a xlink:href="structcont_1_1slist.html#a7476c307cd7a30879c82289dd07e154f" target="_top" xlink:title=" ">
<polygon fill="white" stroke="#666666" points="195.12,-185 84.62,-185 84.62,-162 195.12,-162 195.12,-185"/>
<text text-anchor="middle" x="139.88" y="-171.5" font-family="Helvetica,sans-Serif" font-size="10.00">cont::slist::push_back</text>
</a>
</g>
</g>
<!-- Node1&#45;&gt;Node5 -->
<g id="edge4_Node000001_Node000005" class="edge">
<title>Node1&#45;&gt;Node5</title>
<g id="a_edge4_Node000001_Node000005"><a xlink:title=" ">
<path fill="none" stroke="#63b8ff" d="M228.01,-173.5C217.47,-173.5 206.29,-173.5 195.57,-173.5"/>
<polygon fill="#63b8ff" stroke="#63b8ff" points="227.71,-177 237.71,-173.5 227.71,-170 227.71,-177"/>
</a>
</g>
</g>
<!-- Node6 -->
<g id="Node000006" class="node">
<title>Node6</title>
<g id="a_Node000006"><a xlink:href="slist__gtest_8cpp.html#a0b88b0cef1dc7ead8380573fff6f1cf8" target="_top" xlink:title=" ">
<polygon fill="white" stroke="#666666" points="40.75,-215 0,-215 0,-192 40.75,-192 40.75,-215"/>
<text text-anchor="middle" x="20.38" y="-201.5" font-family="Helvetica,sans-Serif" font-size="10.00">TEST</text>
</a>
</g>
</g>
<!-- Node1&#45;&gt;Node6 -->
<g id="edge9_Node000001_Node000006" class="edge">
<title>Node1&#45;&gt;Node6</title>
<g id="a_edge9_Node000001_Node000006"><a xlink:title=" ">
<path fill="none" stroke="#63b8ff" d="M230.97,-188.35C221.78,-190.79 212.15,-193 203,-194.5 144.74,-204.03 74.68,-204.44 41.15,-203.97"/>
<polygon fill="#63b8ff" stroke="#63b8ff" points="231.8,-191.47 240.49,-185.42 229.92,-184.73 231.8,-191.47"/>
</a>
</g>
</g>
<!-- Node7 -->
<g id="Node000007" class="node">
<title>Node7</title>
<g id="a_Node000007"><a xlink:href="slist__gtest_8cpp.html#a315cfa2fb390f02859803482bf6b6442" target="_top" xlink:title=" ">
<polygon fill="white" stroke="#666666" points="40.75,-164 0,-164 0,-141 40.75,-141 40.75,-164"/>
<text text-anchor="middle" x="20.38" y="-150.5" font-family="Helvetica,sans-Serif" font-size="10.00">TEST</text>
</a>
</g>
</g>
<!-- Node1&#45;&gt;Node7 -->
<g id="edge10_Node000001_Node000007" class="edge">
<title>Node1&#45;&gt;Node7</title>
<g id="a_edge10_Node000001_Node000007"><a xlink:title=" ">
<path fill="none" stroke="#63b8ff" d="M232.19,-158.6C222.65,-156.06 212.57,-153.82 203,-152.5 144.59,-144.43 74.6,-148.15 41.12,-150.74"/>
<polygon fill="#63b8ff" stroke="#63b8ff" points="231.1,-162.21 241.68,-161.55 233,-155.47 231.1,-162.21"/>
</a>
</g>
</g>
<!-- Node8 -->
<g id="Node000008" class="node">
<title>Node8</title>
<g id="a_Node000008"><a xlink:href="slist__gtest_8cpp.html#abf8de842858f9204c142372cfcc5bea2" target="_top" xlink:title=" ">
<polygon fill="white" stroke="#666666" points="160.25,-105 119.5,-105 119.5,-82 160.25,-82 160.25,-105"/>
<text text-anchor="middle" x="139.88" y="-91.5" font-family="Helvetica,sans-Serif" font-size="10.00">TEST</text>
</a>
</g>
</g>
<!-- Node1&#45;&gt;Node8 -->
<g id="edge7_Node000001_Node000008" class="edge">
<title>Node1&#45;&gt;Node8</title>
<g id="a_edge7_Node000001_Node000008"><a xlink:title=" ">
<path fill="none" stroke="#63b8ff" d="M255.1,-155.16C240.76,-143.97 221.45,-129.87 203,-119.5 189.44,-111.88 173.2,-105.16 160.73,-100.46"/>
<polygon fill="#63b8ff" stroke="#63b8ff" points="252.32,-158.22 262.33,-161.69 256.67,-152.74 252.32,-158.22"/>
</a>
</g>
</g>
<!-- Node9 -->
<g id="Node000009" class="node">
<title>Node9</title>
<g id="a_Node000009"><a xlink:href="slist__gtest_8cpp.html#a7445ea25364e22a7db53092592149429" target="_top" xlink:title=" ">
<polygon fill="white" stroke="#666666" points="160.25,-64 119.5,-64 119.5,-41 160.25,-41 160.25,-64"/>
<text text-anchor="middle" x="139.88" y="-50.5" font-family="Helvetica,sans-Serif" font-size="10.00">TEST</text>
</a>
</g>
</g>
<!-- Node1&#45;&gt;Node9 -->
<g id="edge8_Node000001_Node000009" class="edge">
<title>Node1&#45;&gt;Node9</title>
<g id="a_edge8_Node000001_Node000009"><a xlink:title=" ">
<path fill="none" stroke="#63b8ff" d="M266.96,-152.14C254.64,-129.28 232.15,-93.46 203,-72.5 190.4,-63.44 173.49,-58.35 160.5,-55.57"/>
<polygon fill="#63b8ff" stroke="#63b8ff" points="264.18,-153.38 271.9,-160.64 270.39,-150.15 264.18,-153.38"/>
</a>
</g>
</g>
<!-- Node10 -->
<g id="Node000010" class="node">
<title>Node10</title>
<g id="a_Node000010"><a xlink:href="structcont_1_1slist.html#a6319bcb602a2c65e82b8f8fa2ea3da73" target="_top" xlink:title=" ">
<polygon fill="white" stroke="#666666" points="183.5,-23 96.25,-23 96.25,0 183.5,0 183.5,-23"/>
<text text-anchor="middle" x="139.88" y="-9.5" font-family="Helvetica,sans-Serif" font-size="10.00">cont::slist::~slist</text>
</a>
</g>
</g>
<!-- Node1&#45;&gt;Node10 -->
<g id="edge11_Node000001_Node000010" class="edge">
<title>Node1&#45;&gt;Node10</title>
<g id="a_edge11_Node000001_Node000010"><a xlink:title=" ">
<path fill="none" stroke="#63b8ff" d="M271.69,-151.4C262.36,-120.24 241.13,-63.59 203,-31.5 197.45,-26.83 190.79,-23.25 183.93,-20.5"/>
<polygon fill="#63b8ff" stroke="#63b8ff" points="268.49,-151.98 274.59,-160.64 275.23,-150.07 268.49,-151.98"/>
</a>
</g>
</g>
<!-- Node5&#45;&gt;Node6 -->
<g id="edge5_Node000005_Node000006" class="edge">
<title>Node5&#45;&gt;Node6</title>
<g id="a_edge5_Node000005_Node000006"><a xlink:title=" ">
<path fill="none" stroke="#63b8ff" d="M81.55,-188.14C66.96,-191.86 52.26,-195.61 41.04,-198.48"/>
<polygon fill="#63b8ff" stroke="#63b8ff" points="82.27,-191.31 91.1,-185.44 80.54,-184.53 82.27,-191.31"/>
</a>
</g>
</g>
<!-- Node5&#45;&gt;Node7 -->
<g id="edge6_Node000005_Node000007" class="edge">
<title>Node5&#45;&gt;Node7</title>
<g id="a_edge6_Node000005_Node000007"><a xlink:title=" ">
<path fill="none" stroke="#63b8ff" d="M73.73,-161.86C61.81,-159.73 50.25,-157.66 41.03,-156.01"/>
<polygon fill="#63b8ff" stroke="#63b8ff" points="72.79,-165.42 83.25,-163.74 74.02,-158.53 72.79,-165.42"/>
</a>
</g>
</g>
</g>
</svg>
</svg>

<style type='text/css'>
<![CDATA[
[data-mouse-over-selected='false'] { opacity: 0.7; }
[data-mouse-over-selected='true']  { opacity: 1.0; }
]]>
</style>
<script type="application/ecmascript"><![CDATA[
document.addEventListener('DOMContentLoaded', (event) => {
  highlightEdges();
  highlightAdjacentNodes();
});
]]></script>
</svg>
