<?xml version="1.0" encoding="UTF-8" standalone="no"?>
<!DOCTYPE svg PUBLIC "-//W3C//DTD SVG 1.1//EN"
 "http://www.w3.org/Graphics/SVG/1.1/DTD/svg11.dtd">
<!-- Generated by graphviz version 8.0.5 (20230430.1635)
 -->
<!-- Title: cont::slist&lt; T, Allocator &gt; Pages: 1 -->
<!--zoomable 1490 -->

<svg id="main" version="1.1" xmlns="http://www.w3.org/2000/svg" xmlns:xlink="http://www.w3.org/1999/xlink" xml:space="preserve" onload="init(evt)">
<style type="text/css"><![CDATA[
.node, .edge {opacity: 0.7;}
.node.selected, .edge.selected {opacity: 1;}
.edge:hover path { stroke: red; }
.edge:hover polygon { stroke: red; fill: red; }
]]></style>

<defs>
  <circle id="rim" cx="0" cy="0" r="7"/>
  <circle id="rim2" cx="0" cy="0" r="3.5"/>
  <g id="zoomPlus">
    <use xlink:href="#rim" fill="#404040"><set attributeName="fill" to="#808080" begin="zoomplus.mouseover" end="zoomplus.mouseout"/></use>
    <path d="M-4,0h8M0,-4v8" fill="none" stroke="white" stroke-width="1.5" pointer-events="none"/>
  </g>
  <g id="zoomMin">
    <use xlink:href="#rim" fill="#404040"><set attributeName="fill" to="#808080" begin="zoomminus.mouseover" end="zoomminus.mouseout"/></use>
    <path d="M-4,0h8" fill="none" stroke="white" stroke-width="1.5" pointer-events="none"/>
  </g>
  <g id="arrowUp" transform="translate(30 24)">
    <use xlink:href="#rim"/>
    <path pointer-events="none" fill="none" stroke="white" stroke-width="1.5" d="M0,-3.0v7 M-2.5,-0.5L0,-3.0L2.5,-0.5"/>
  </g>
  <g id="arrowRight" transform="rotate(90) translate(36 -43)">
    <use xlink:href="#rim"/>
    <path pointer-events="none" fill="none" stroke="white" stroke-width="1.5" d="M0,-3.0v7 M-2.5,-0.5L0,-3.0L2.5,-0.5"/>
  </g>
  <g id="arrowDown" transform="rotate(180) translate(-30 -48)">
    <use xlink:href="#rim"/>
    <path pointer-events="none" fill="none" stroke="white" stroke-width="1.5" d="M0,-3.0v7 M-2.5,-0.5L0,-3.0L2.5,-0.5"/>
  </g>
  <g id="arrowLeft" transform="rotate(270) translate(-36 17)">
    <use xlink:href="#rim"/>
    <path pointer-events="none" fill="none" stroke="white" stroke-width="1.5" d="M0,-3.0v7 M-2.5,-0.5L0,-3.0L2.5,-0.5"/>
  </g>
  <g id="resetDef">
    <use xlink:href="#rim2" fill="#404040"><set attributeName="fill" to="#808080" begin="reset.mouseover" end="reset.mouseout"/></use>
  </g>
</defs>
<script type="application/ecmascript">
var viewWidth = 231;
var viewHeight = 1490;
var sectionId = 'dynsection-0';
</script>
<script type="application/ecmascript" xlink:href="svg.min.js"/>
<svg id="graph" class="graph">
<g id="viewport">
<title>cont::slist&lt; T, Allocator &gt;</title>
<!-- Node1 -->
<g id="Node000001" class="node">
<title>Node1</title>
<g id="a_Node000001"><a xlink:title=" ">
<polygon fill="#999999" stroke="none" points="179.5,-669 60.5,-669 60.5,0 179.5,0 179.5,-669"/>
<text text-anchor="start" x="65.25" y="-655.5" font-family="Helvetica,sans-Serif" font-size="10.00">cont::slist&lt; T, Allocator &gt;</text>
<text text-anchor="start" x="69.5" y="-636.5" font-family="Helvetica,sans-Serif" font-size="10.00">&#45;</text>
<text text-anchor="start" x="81.5" y="-636.5" font-family="Helvetica,sans-Serif" font-size="10.00">size_</text>
<text text-anchor="start" x="69.5" y="-617.5" font-family="Helvetica,sans-Serif" font-size="10.00">&#45;</text>
<text text-anchor="start" x="81.5" y="-617.5" font-family="Helvetica,sans-Serif" font-size="10.00">node_alloc_</text>
<text text-anchor="start" x="68" y="-598.5" font-family="Helvetica,sans-Serif" font-size="10.00">+</text>
<text text-anchor="start" x="81.5" y="-598.5" font-family="Helvetica,sans-Serif" font-size="10.00">slist()</text>
<text text-anchor="start" x="68" y="-579.5" font-family="Helvetica,sans-Serif" font-size="10.00">+</text>
<text text-anchor="start" x="81.5" y="-579.5" font-family="Helvetica,sans-Serif" font-size="10.00">slist()</text>
<text text-anchor="start" x="68" y="-560.5" font-family="Helvetica,sans-Serif" font-size="10.00">+</text>
<text text-anchor="start" x="81.5" y="-560.5" font-family="Helvetica,sans-Serif" font-size="10.00">slist()</text>
<text text-anchor="start" x="68" y="-541.5" font-family="Helvetica,sans-Serif" font-size="10.00">+</text>
<text text-anchor="start" x="81.5" y="-541.5" font-family="Helvetica,sans-Serif" font-size="10.00">slist()</text>
<text text-anchor="start" x="68" y="-522.5" font-family="Helvetica,sans-Serif" font-size="10.00">+</text>
<text text-anchor="start" x="81.5" y="-522.5" font-family="Helvetica,sans-Serif" font-size="10.00">slist()</text>
<text text-anchor="start" x="68" y="-503.5" font-family="Helvetica,sans-Serif" font-size="10.00">+</text>
<text text-anchor="start" x="81.5" y="-503.5" font-family="Helvetica,sans-Serif" font-size="10.00">slist()</text>
<text text-anchor="start" x="68" y="-484.5" font-family="Helvetica,sans-Serif" font-size="10.00">+</text>
<text text-anchor="start" x="81.5" y="-484.5" font-family="Helvetica,sans-Serif" font-size="10.00">slist()</text>
<text text-anchor="start" x="68" y="-465.5" font-family="Helvetica,sans-Serif" font-size="10.00">+</text>
<text text-anchor="start" x="81.5" y="-465.5" font-family="Helvetica,sans-Serif" font-size="10.00">~slist()</text>
<text text-anchor="start" x="68" y="-446.5" font-family="Helvetica,sans-Serif" font-size="10.00">+</text>
<text text-anchor="start" x="81.5" y="-446.5" font-family="Helvetica,sans-Serif" font-size="10.00">operator=()</text>
<text text-anchor="start" x="68" y="-427.5" font-family="Helvetica,sans-Serif" font-size="10.00">+</text>
<text text-anchor="start" x="81.5" y="-427.5" font-family="Helvetica,sans-Serif" font-size="10.00">operator=()</text>
<text text-anchor="start" x="68" y="-408.5" font-family="Helvetica,sans-Serif" font-size="10.00">+</text>
<text text-anchor="start" x="81.5" y="-408.5" font-family="Helvetica,sans-Serif" font-size="10.00">swap()</text>
<text text-anchor="start" x="68" y="-389.5" font-family="Helvetica,sans-Serif" font-size="10.00">+</text>
<text text-anchor="start" x="81.5" y="-389.5" font-family="Helvetica,sans-Serif" font-size="10.00">size()</text>
<text text-anchor="start" x="68" y="-370.5" font-family="Helvetica,sans-Serif" font-size="10.00">+</text>
<text text-anchor="start" x="81.5" y="-370.5" font-family="Helvetica,sans-Serif" font-size="10.00">empty()</text>
<text text-anchor="start" x="68" y="-351.5" font-family="Helvetica,sans-Serif" font-size="10.00">+</text>
<text text-anchor="start" x="81.5" y="-351.5" font-family="Helvetica,sans-Serif" font-size="10.00">begin()</text>
<text text-anchor="start" x="68" y="-332.5" font-family="Helvetica,sans-Serif" font-size="10.00">+</text>
<text text-anchor="start" x="81.5" y="-332.5" font-family="Helvetica,sans-Serif" font-size="10.00">end()</text>
<text text-anchor="start" x="68" y="-313.5" font-family="Helvetica,sans-Serif" font-size="10.00">+</text>
<text text-anchor="start" x="81.5" y="-313.5" font-family="Helvetica,sans-Serif" font-size="10.00">begin()</text>
<text text-anchor="start" x="68" y="-294.5" font-family="Helvetica,sans-Serif" font-size="10.00">+</text>
<text text-anchor="start" x="81.5" y="-294.5" font-family="Helvetica,sans-Serif" font-size="10.00">end()</text>
<text text-anchor="start" x="68" y="-275.5" font-family="Helvetica,sans-Serif" font-size="10.00">+</text>
<text text-anchor="start" x="81.5" y="-275.5" font-family="Helvetica,sans-Serif" font-size="10.00">cbegin()</text>
<text text-anchor="start" x="68" y="-256.5" font-family="Helvetica,sans-Serif" font-size="10.00">+</text>
<text text-anchor="start" x="81.5" y="-256.5" font-family="Helvetica,sans-Serif" font-size="10.00">cend()</text>
<text text-anchor="start" x="68" y="-237.5" font-family="Helvetica,sans-Serif" font-size="10.00">+</text>
<text text-anchor="start" x="81.5" y="-237.5" font-family="Helvetica,sans-Serif" font-size="10.00">front()</text>
<text text-anchor="start" x="68" y="-218.5" font-family="Helvetica,sans-Serif" font-size="10.00">+</text>
<text text-anchor="start" x="81.5" y="-218.5" font-family="Helvetica,sans-Serif" font-size="10.00">front()</text>
<text text-anchor="start" x="68" y="-199.5" font-family="Helvetica,sans-Serif" font-size="10.00">+</text>
<text text-anchor="start" x="81.5" y="-199.5" font-family="Helvetica,sans-Serif" font-size="10.00">emplace()</text>
<text text-anchor="start" x="68" y="-180.5" font-family="Helvetica,sans-Serif" font-size="10.00">+</text>
<text text-anchor="start" x="81.5" y="-180.5" font-family="Helvetica,sans-Serif" font-size="10.00">emplace_front()</text>
<text text-anchor="start" x="68" y="-161.5" font-family="Helvetica,sans-Serif" font-size="10.00">+</text>
<text text-anchor="start" x="81.5" y="-161.5" font-family="Helvetica,sans-Serif" font-size="10.00">emplace_back()</text>
<text text-anchor="start" x="68" y="-142.5" font-family="Helvetica,sans-Serif" font-size="10.00">+</text>
<text text-anchor="start" x="81.5" y="-142.5" font-family="Helvetica,sans-Serif" font-size="10.00">insert()</text>
<text text-anchor="start" x="68" y="-123.5" font-family="Helvetica,sans-Serif" font-size="10.00">+</text>
<text text-anchor="start" x="81.5" y="-123.5" font-family="Helvetica,sans-Serif" font-size="10.00">push_front()</text>
<text text-anchor="start" x="68" y="-104.5" font-family="Helvetica,sans-Serif" font-size="10.00">+</text>
<text text-anchor="start" x="81.5" y="-104.5" font-family="Helvetica,sans-Serif" font-size="10.00">push_back()</text>
<text text-anchor="start" x="68" y="-85.5" font-family="Helvetica,sans-Serif" font-size="10.00">+</text>
<text text-anchor="start" x="81.5" y="-85.5" font-family="Helvetica,sans-Serif" font-size="10.00">erase()</text>
<text text-anchor="start" x="68" y="-66.5" font-family="Helvetica,sans-Serif" font-size="10.00">+</text>
<text text-anchor="start" x="81.5" y="-66.5" font-family="Helvetica,sans-Serif" font-size="10.00">erase()</text>
<text text-anchor="start" x="68" y="-47.5" font-family="Helvetica,sans-Serif" font-size="10.00">+</text>
<text text-anchor="start" x="81.5" y="-47.5" font-family="Helvetica,sans-Serif" font-size="10.00">pop_front()</text>
<text text-anchor="start" x="68" y="-28.5" font-family="Helvetica,sans-Serif" font-size="10.00">+</text>
<text text-anchor="start" x="81.5" y="-28.5" font-family="Helvetica,sans-Serif" font-size="10.00">get_allocator()</text>
<text text-anchor="start" x="68" y="-9.5" font-family="Helvetica,sans-Serif" font-size="10.00">+</text>
<text text-anchor="start" x="81.5" y="-9.5" font-family="Helvetica,sans-Serif" font-size="10.00">get_node_allocator()</text>
<polygon fill="#666666" stroke="#666666" points="60.5,-648 60.5,-648 179.5,-648 179.5,-648 60.5,-648"/>
<polygon fill="#666666" stroke="#666666" points="60.5,-610 60.5,-610 79.5,-610 79.5,-610 60.5,-610"/>
<polygon fill="#666666" stroke="#666666" points="79.5,-610 79.5,-610 179.5,-610 179.5,-610 79.5,-610"/>
<polygon fill="none" stroke="#666666" points="60.5,0 60.5,-669 179.5,-669 179.5,0 60.5,0"/>
</a>
</g>
</g>
<!-- Node2 -->
<g id="Node000002" class="node">
<title>Node2</title>
<g id="a_Node000002"><a xlink:href="structcont_1_1slist__details_1_1node__base.html" target="_top" xlink:title=" ">
<polygon fill="white" stroke="none" points="183.5,-887 56.5,-887 56.5,-735 183.5,-735 183.5,-887"/>
<text text-anchor="start" x="61.12" y="-873.5" font-family="Helvetica,sans-Serif" font-size="10.00">cont::slist_details</text>
<text text-anchor="start" x="61.12" y="-858.5" font-family="Helvetica,sans-Serif" font-size="10.00">::node_base&lt; value_type &gt;</text>
<text text-anchor="start" x="118.5" y="-839.5" font-family="Helvetica,sans-Serif" font-size="10.00"> </text>
<text text-anchor="start" x="74.5" y="-820.5" font-family="Helvetica,sans-Serif" font-size="10.00">+</text>
<text text-anchor="start" x="98.5" y="-820.5" font-family="Helvetica,sans-Serif" font-size="10.00">node_base()</text>
<text text-anchor="start" x="74.5" y="-801.5" font-family="Helvetica,sans-Serif" font-size="10.00">+</text>
<text text-anchor="start" x="98.5" y="-801.5" font-family="Helvetica,sans-Serif" font-size="10.00">node_base()</text>
<text text-anchor="start" x="74.5" y="-782.5" font-family="Helvetica,sans-Serif" font-size="10.00">+</text>
<text text-anchor="start" x="98.5" y="-782.5" font-family="Helvetica,sans-Serif" font-size="10.00">node_base()</text>
<text text-anchor="start" x="74.5" y="-763.5" font-family="Helvetica,sans-Serif" font-size="10.00">+</text>
<text text-anchor="start" x="98.5" y="-763.5" font-family="Helvetica,sans-Serif" font-size="10.00">operator=()</text>
<text text-anchor="start" x="74.5" y="-744.5" font-family="Helvetica,sans-Serif" font-size="10.00">+</text>
<text text-anchor="start" x="98.5" y="-744.5" font-family="Helvetica,sans-Serif" font-size="10.00">operator=()</text>
<polygon fill="#666666" stroke="#666666" points="56.5,-851 56.5,-851 183.5,-851 183.5,-851 56.5,-851"/>
<polygon fill="#666666" stroke="#666666" points="56.5,-832 56.5,-832 183.5,-832 183.5,-832 56.5,-832"/>
<polygon fill="none" stroke="#666666" points="56.5,-735 56.5,-887 183.5,-887 183.5,-735 56.5,-735"/>
</a>
</g>
</g>
<!-- Node2&#45;&gt;Node1 -->
<g id="edge1_Node000001_Node000002" class="edge">
<title>Node2&#45;&gt;Node1</title>
<g id="a_edge1_Node000001_Node000002"><a xlink:title=" ">
<path fill="none" stroke="#63b8ff" d="M120,-735.08C120,-718.9 120,-700.79 120,-681.46"/>
<polygon fill="none" stroke="#63b8ff" points="120,-681.48 116,-675.48 120,-669.48 124,-675.48 120,-681.48"/>
</a>
</g>
<text text-anchor="middle" x="136.12" y="-707.5" font-family="Helvetica,sans-Serif" font-size="10.00" fill="grey"> &#45;head_</text>
<text text-anchor="middle" x="136.12" y="-692.5" font-family="Helvetica,sans-Serif" font-size="10.00" fill="grey">&#45;ptail_</text>
</g>
<!-- Node3 -->
<g id="Node000003" class="node">
<title>Node3</title>
<g id="a_Node000003"><a xlink:href="structcont_1_1slist__details_1_1node.html" target="_top" xlink:title=" ">
<polygon fill="white" stroke="none" points="112.5,-1061.5 11.5,-1061.5 11.5,-966.5 112.5,-966.5 112.5,-1061.5"/>
<text text-anchor="start" x="16.25" y="-1048" font-family="Helvetica,sans-Serif" font-size="10.00">cont::slist_details</text>
<text text-anchor="start" x="16.25" y="-1033" font-family="Helvetica,sans-Serif" font-size="10.00">::node&lt; value_type &gt;</text>
<text text-anchor="start" x="29.5" y="-1014" font-family="Helvetica,sans-Serif" font-size="10.00">+</text>
<text text-anchor="start" x="53.5" y="-1014" font-family="Helvetica,sans-Serif" font-size="10.00">value_</text>
<text text-anchor="start" x="29.5" y="-995" font-family="Helvetica,sans-Serif" font-size="10.00">+</text>
<text text-anchor="start" x="53.5" y="-995" font-family="Helvetica,sans-Serif" font-size="10.00">@1</text>
<text text-anchor="start" x="60.5" y="-976" font-family="Helvetica,sans-Serif" font-size="10.00"> </text>
<polygon fill="#666666" stroke="#666666" points="11.5,-1025.5 11.5,-1025.5 112.5,-1025.5 112.5,-1025.5 11.5,-1025.5"/>
<polygon fill="#666666" stroke="#666666" points="11.5,-987.5 11.5,-987.5 51.5,-987.5 51.5,-987.5 11.5,-987.5"/>
<polygon fill="#666666" stroke="#666666" points="51.5,-987.5 51.5,-987.5 112.5,-987.5 112.5,-987.5 51.5,-987.5"/>
<polygon fill="none" stroke="#666666" points="11.5,-966.5 11.5,-1061.5 112.5,-1061.5 112.5,-966.5 11.5,-966.5"/>
</a>
</g>
</g>
<!-- Node3&#45;&gt;Node2 -->
<g id="edge2_Node000002_Node000003" class="edge">
<title>Node3&#45;&gt;Node2</title>
<g id="a_edge2_Node000002_Node000003"><a xlink:title=" ">
<path fill="none" stroke="#63b8ff" d="M75.38,-966.63C81.16,-946.59 88.13,-922.44 94.82,-899.25"/>
<polygon fill="none" stroke="#63b8ff" points="94.82,-899.27 92.64,-892.4 98.14,-887.74 100.32,-894.61 94.82,-899.27"/>
</a>
</g>
<text text-anchor="middle" x="109.5" y="-910.5" font-family="Helvetica,sans-Serif" font-size="10.00" fill="grey"> +next_</text>
</g>
<!-- Node4 -->
<g id="Node000004" class="node">
<title>Node4</title>
<g id="a_Node000004"><a xlink:href="structcont_1_1slist__details_1_1node__base.html" target="_top" xlink:title=" ">
<polygon fill="white" stroke="none" points="92,-1293 0,-1293 0,-1141 92,-1141 92,-1293"/>
<text text-anchor="start" x="4.75" y="-1279.5" font-family="Helvetica,sans-Serif" font-size="10.00">cont::slist_details</text>
<text text-anchor="start" x="4.75" y="-1264.5" font-family="Helvetica,sans-Serif" font-size="10.00">::node_base&lt; Tp &gt;</text>
<text text-anchor="start" x="9" y="-1245.5" font-family="Helvetica,sans-Serif" font-size="10.00">+</text>
<text text-anchor="start" x="24" y="-1245.5" font-family="Helvetica,sans-Serif" font-size="10.00">next_</text>
<text text-anchor="start" x="9" y="-1226.5" font-family="Helvetica,sans-Serif" font-size="10.00">+</text>
<text text-anchor="start" x="24" y="-1226.5" font-family="Helvetica,sans-Serif" font-size="10.00">node_base()</text>
<text text-anchor="start" x="9" y="-1207.5" font-family="Helvetica,sans-Serif" font-size="10.00">+</text>
<text text-anchor="start" x="24" y="-1207.5" font-family="Helvetica,sans-Serif" font-size="10.00">node_base()</text>
<text text-anchor="start" x="9" y="-1188.5" font-family="Helvetica,sans-Serif" font-size="10.00">+</text>
<text text-anchor="start" x="24" y="-1188.5" font-family="Helvetica,sans-Serif" font-size="10.00">operator=()</text>
<text text-anchor="start" x="9" y="-1169.5" font-family="Helvetica,sans-Serif" font-size="10.00">+</text>
<text text-anchor="start" x="24" y="-1169.5" font-family="Helvetica,sans-Serif" font-size="10.00">node_base()</text>
<text text-anchor="start" x="9" y="-1150.5" font-family="Helvetica,sans-Serif" font-size="10.00">+</text>
<text text-anchor="start" x="24" y="-1150.5" font-family="Helvetica,sans-Serif" font-size="10.00">operator=()</text>
<polygon fill="#666666" stroke="#666666" points="0,-1257 0,-1257 92,-1257 92,-1257 0,-1257"/>
<polygon fill="#666666" stroke="#666666" points="0,-1238 0,-1238 22,-1238 22,-1238 0,-1238"/>
<polygon fill="#666666" stroke="#666666" points="22,-1238 22,-1238 92,-1238 92,-1238 22,-1238"/>
<polygon fill="none" stroke="#666666" points="0,-1141 0,-1293 92,-1293 92,-1141 0,-1141"/>
</a>
</g>
</g>
<!-- Node4&#45;&gt;Node3 -->
<g id="edge3_Node000003_Node000004" class="edge">
<title>Node4&#45;&gt;Node3</title>
<g id="a_edge3_Node000003_Node000004"><a xlink:title=" ">
<path fill="none" stroke="#63b8ff" d="M52.82,-1130.36C54.7,-1106.66 56.68,-1081.83 58.31,-1061.3"/>
<polygon fill="none" stroke="#63b8ff" points="49.26,-1129.91 51.96,-1140.16 56.24,-1130.46 49.26,-1129.91"/>
</a>
</g>
</g>
<!-- Node5 -->
<g id="Node000005" class="node">
<title>Node5</title>
<g id="a_Node000005"><a xlink:href="structcont_1_1slist__details_1_1node.html" target="_top" xlink:title=" ">
<polygon fill="white" stroke="none" points="195.5,-1264.5 110.5,-1264.5 110.5,-1169.5 195.5,-1169.5 195.5,-1264.5"/>
<text text-anchor="start" x="115.12" y="-1251" font-family="Helvetica,sans-Serif" font-size="10.00">cont::slist_details</text>
<text text-anchor="start" x="124.88" y="-1236" font-family="Helvetica,sans-Serif" font-size="10.00">::node&lt; Tp &gt;</text>
<text text-anchor="start" x="124.5" y="-1217" font-family="Helvetica,sans-Serif" font-size="10.00">+</text>
<text text-anchor="start" x="144.5" y="-1217" font-family="Helvetica,sans-Serif" font-size="10.00">value_</text>
<text text-anchor="start" x="124.5" y="-1198" font-family="Helvetica,sans-Serif" font-size="10.00">+</text>
<text text-anchor="start" x="144.5" y="-1198" font-family="Helvetica,sans-Serif" font-size="10.00">@1</text>
<text text-anchor="start" x="151.5" y="-1179" font-family="Helvetica,sans-Serif" font-size="10.00"> </text>
<polygon fill="#666666" stroke="#666666" points="110.5,-1228.5 110.5,-1228.5 195.5,-1228.5 195.5,-1228.5 110.5,-1228.5"/>
<polygon fill="#666666" stroke="#666666" points="110.5,-1190.5 110.5,-1190.5 142.5,-1190.5 142.5,-1190.5 110.5,-1190.5"/>
<polygon fill="#666666" stroke="#666666" points="142.5,-1190.5 142.5,-1190.5 195.5,-1190.5 195.5,-1190.5 142.5,-1190.5"/>
<polygon fill="none" stroke="#666666" points="110.5,-1169.5 110.5,-1264.5 195.5,-1264.5 195.5,-1169.5 110.5,-1169.5"/>
</a>
</g>
</g>
<!-- Node5&#45;&gt;Node3 -->
<g id="edge4_Node000003_Node000005" class="edge">
<title>Node5&#45;&gt;Node3</title>
<g id="a_edge4_Node000003_Node000005"><a xlink:title=" ">
<path fill="none" stroke="orange" d="M127.57,-1159.84C113.54,-1128.84 96.32,-1090.8 83.04,-1061.48"/>
<polygon fill="orange" stroke="orange" points="124.7,-1160.97 132.01,-1168.63 131.07,-1158.08 124.7,-1160.97"/>
</a>
</g>
<text text-anchor="middle" x="144.75" y="-1113.5" font-family="Helvetica,sans-Serif" font-size="10.00" fill="grey"> &lt; value_type &gt;</text>
</g>
<!-- Node6 -->
<g id="Node000006" class="node">
<title>Node6</title>
<g id="a_Node000006"><a xlink:href="structcont_1_1slist__details_1_1node__base.html" target="_top" xlink:title=" ">
<polygon fill="white" stroke="none" points="199,-1482 107,-1482 107,-1330 199,-1330 199,-1482"/>
<text text-anchor="start" x="111.75" y="-1468.5" font-family="Helvetica,sans-Serif" font-size="10.00">cont::slist_details</text>
<text text-anchor="start" x="111.75" y="-1453.5" font-family="Helvetica,sans-Serif" font-size="10.00">::node_base&lt; Tp &gt;</text>
<text text-anchor="start" x="116" y="-1434.5" font-family="Helvetica,sans-Serif" font-size="10.00">+</text>
<text text-anchor="start" x="131" y="-1434.5" font-family="Helvetica,sans-Serif" font-size="10.00">next_</text>
<text text-anchor="start" x="116" y="-1415.5" font-family="Helvetica,sans-Serif" font-size="10.00">+</text>
<text text-anchor="start" x="131" y="-1415.5" font-family="Helvetica,sans-Serif" font-size="10.00">node_base()</text>
<text text-anchor="start" x="116" y="-1396.5" font-family="Helvetica,sans-Serif" font-size="10.00">+</text>
<text text-anchor="start" x="131" y="-1396.5" font-family="Helvetica,sans-Serif" font-size="10.00">node_base()</text>
<text text-anchor="start" x="116" y="-1377.5" font-family="Helvetica,sans-Serif" font-size="10.00">+</text>
<text text-anchor="start" x="131" y="-1377.5" font-family="Helvetica,sans-Serif" font-size="10.00">operator=()</text>
<text text-anchor="start" x="116" y="-1358.5" font-family="Helvetica,sans-Serif" font-size="10.00">+</text>
<text text-anchor="start" x="131" y="-1358.5" font-family="Helvetica,sans-Serif" font-size="10.00">node_base()</text>
<text text-anchor="start" x="116" y="-1339.5" font-family="Helvetica,sans-Serif" font-size="10.00">+</text>
<text text-anchor="start" x="131" y="-1339.5" font-family="Helvetica,sans-Serif" font-size="10.00">operator=()</text>
<polygon fill="#666666" stroke="#666666" points="107,-1446 107,-1446 199,-1446 199,-1446 107,-1446"/>
<polygon fill="#666666" stroke="#666666" points="107,-1427 107,-1427 129,-1427 129,-1427 107,-1427"/>
<polygon fill="#666666" stroke="#666666" points="129,-1427 129,-1427 199,-1427 199,-1427 129,-1427"/>
<polygon fill="none" stroke="#666666" points="107,-1330 107,-1482 199,-1482 199,-1330 107,-1330"/>
</a>
</g>
</g>
<!-- Node6&#45;&gt;Node5 -->
<g id="edge5_Node000005_Node000006" class="edge">
<title>Node6&#45;&gt;Node5</title>
<g id="a_edge5_Node000005_Node000006"><a xlink:title=" ">
<path fill="none" stroke="#63b8ff" d="M153,-1319.02C153,-1300.23 153,-1281.02 153,-1264.48"/>
<polygon fill="none" stroke="#63b8ff" points="149.5,-1319.02 153,-1329.02 156.5,-1319.02 149.5,-1319.02"/>
</a>
</g>
</g>
<!-- Node7 -->
<g id="Node000007" class="node">
<title>Node7</title>
<g id="a_Node000007"><a xlink:href="structcont_1_1slist__details_1_1node__base.html" target="_top" xlink:title=" ">
<polygon fill="white" stroke="none" points="223,-1090 131,-1090 131,-938 223,-938 223,-1090"/>
<text text-anchor="start" x="135.75" y="-1076.5" font-family="Helvetica,sans-Serif" font-size="10.00">cont::slist_details</text>
<text text-anchor="start" x="135.75" y="-1061.5" font-family="Helvetica,sans-Serif" font-size="10.00">::node_base&lt; Tp &gt;</text>
<text text-anchor="start" x="140" y="-1042.5" font-family="Helvetica,sans-Serif" font-size="10.00">+</text>
<text text-anchor="start" x="155" y="-1042.5" font-family="Helvetica,sans-Serif" font-size="10.00">next_</text>
<text text-anchor="start" x="140" y="-1023.5" font-family="Helvetica,sans-Serif" font-size="10.00">+</text>
<text text-anchor="start" x="155" y="-1023.5" font-family="Helvetica,sans-Serif" font-size="10.00">node_base()</text>
<text text-anchor="start" x="140" y="-1004.5" font-family="Helvetica,sans-Serif" font-size="10.00">+</text>
<text text-anchor="start" x="155" y="-1004.5" font-family="Helvetica,sans-Serif" font-size="10.00">node_base()</text>
<text text-anchor="start" x="140" y="-985.5" font-family="Helvetica,sans-Serif" font-size="10.00">+</text>
<text text-anchor="start" x="155" y="-985.5" font-family="Helvetica,sans-Serif" font-size="10.00">operator=()</text>
<text text-anchor="start" x="140" y="-966.5" font-family="Helvetica,sans-Serif" font-size="10.00">+</text>
<text text-anchor="start" x="155" y="-966.5" font-family="Helvetica,sans-Serif" font-size="10.00">node_base()</text>
<text text-anchor="start" x="140" y="-947.5" font-family="Helvetica,sans-Serif" font-size="10.00">+</text>
<text text-anchor="start" x="155" y="-947.5" font-family="Helvetica,sans-Serif" font-size="10.00">operator=()</text>
<polygon fill="#666666" stroke="#666666" points="131,-1054 131,-1054 223,-1054 223,-1054 131,-1054"/>
<polygon fill="#666666" stroke="#666666" points="131,-1035 131,-1035 153,-1035 153,-1035 131,-1035"/>
<polygon fill="#666666" stroke="#666666" points="153,-1035 153,-1035 223,-1035 223,-1035 153,-1035"/>
<polygon fill="none" stroke="#666666" points="131,-938 131,-1090 223,-1090 223,-938 131,-938"/>
</a>
</g>
</g>
<!-- Node7&#45;&gt;Node2 -->
<g id="edge6_Node000002_Node000007" class="edge">
<title>Node7&#45;&gt;Node2</title>
<g id="a_edge6_Node000002_Node000007"><a xlink:title=" ">
<path fill="none" stroke="orange" d="M152.85,-927.84C148.99,-914.24 145.03,-900.25 141.24,-886.91"/>
<polygon fill="orange" stroke="orange" points="149.68,-928.49 155.78,-937.16 156.41,-926.58 149.68,-928.49"/>
</a>
</g>
<text text-anchor="middle" x="183.75" y="-910.5" font-family="Helvetica,sans-Serif" font-size="10.00" fill="grey"> &lt; value_type &gt;</text>
</g>
</g>
</svg>

<g id="navigator" transform="translate(0 0)" fill="#404254">
  <rect fill="#f2f5e9" fill-opacity="0.5" stroke="#606060" stroke-width=".5" x="0" y="0" width="60" height="60"/>
  <use id="zoomplus" xlink:href="#zoomPlus" x="17" y="9" onmousedown="handleZoom(evt,'in')"/>
  <use id="zoomminus" xlink:href="#zoomMin" x="42" y="9" onmousedown="handleZoom(evt,'out')"/>
  <use id="reset" xlink:href="#resetDef" x="30" y="36" onmousedown="handleReset()"/>
   <use id="arrowup" xlink:href="#arrowUp" x="0" y="0" onmousedown="handlePan(0,-1)"/>
  <use id="arrowright" xlink:href="#arrowRight" x="0" y="0" onmousedown="handlePan(1,0)"/>
  <use id="arrowdown" xlink:href="#arrowDown" x="0" y="0" onmousedown="handlePan(0,1)"/>
  <use id="arrowleft" xlink:href="#arrowLeft" x="0" y="0" onmousedown="handlePan(-1,0)"/>
</g>
<svg viewBox="0 0 15 15" width="100%" height="30px" preserveAspectRatio="xMaxYMin meet">
 <g id="arrow_out" transform="scale(0.3 0.3)">
  <a xlink:href="structcont_1_1slist__coll__graph_org.svg" target="_base">
   <rect id="button" ry="5" rx="5" y="6" x="6" height="38" width="38"
        fill="#f2f5e9" fill-opacity="0.5" stroke="#606060" stroke-width="1.0"/>
   <path id="arrow"
     d="M 11.500037,31.436501 C 11.940474,20.09759 22.043105,11.32322 32.158766,21.979434 L 37.068811,17.246167 C 37.068811,17.246167 37.088388,32 37.088388,32 L 22.160133,31.978069 C 22.160133,31.978069 26.997745,27.140456 26.997745,27.140456 C 18.528582,18.264221 13.291696,25.230495 11.500037,31.436501 z"
     style="fill:#404040;"/>
  </a>
 </g>
</svg>

<style type='text/css'>
<![CDATA[
[data-mouse-over-selected='false'] { opacity: 0.7; }
[data-mouse-over-selected='true']  { opacity: 1.0; }
]]>
</style>
<script type="application/ecmascript"><![CDATA[
document.addEventListener('DOMContentLoaded', (event) => {
  highlightEdges();
  highlightAdjacentNodes();
});
]]></script>
</svg>
