<?xml version="1.0" encoding="UTF-8" standalone="no"?>
<!DOCTYPE svg PUBLIC "-//W3C//DTD SVG 1.1//EN"
 "http://www.w3.org/Graphics/SVG/1.1/DTD/svg11.dtd">
<!-- Generated by graphviz version 8.0.5 (20230430.1635)
 -->
<!-- Title: cont::slist::operator= Pages: 1 -->
<svg width="230pt" height="113pt"
 viewBox="0.00 0.00 229.75 113.00" xmlns="http://www.w3.org/2000/svg" xmlns:xlink="http://www.w3.org/1999/xlink">
<g id="graph0" class="graph" transform="scale(1 1) rotate(0) translate(4 109)">
<title>cont::slist::operator=</title>
<!-- Node1 -->
<g id="Node000001" class="node">
<title>Node1</title>
<g id="a_Node000001"><a xlink:title=" ">
<polygon fill="#999999" stroke="#666666" points="221.75,-64 117.25,-64 117.25,-41 221.75,-41 221.75,-64"/>
<text text-anchor="middle" x="169.5" y="-50.5" font-family="Helvetica,sans-Serif" font-size="10.00">cont::slist::operator=</text>
</a>
</g>
</g>
<!-- Node2 -->
<g id="Node000002" class="node">
<title>Node2</title>
<g id="a_Node000002"><a xlink:href="structcont_1_1slist.html#a84e7ce907c4da9810f86898dbaacacdf" target="_top" xlink:title=" ">
<polygon fill="white" stroke="#666666" points="81.25,-105 0,-105 0,-82 81.25,-82 81.25,-105"/>
<text text-anchor="middle" x="40.62" y="-91.5" font-family="Helvetica,sans-Serif" font-size="10.00">cont::slist::slist</text>
</a>
</g>
</g>
<!-- Node1&#45;&gt;Node2 -->
<g id="edge1_Node000001_Node000002" class="edge">
<title>Node1&#45;&gt;Node2</title>
<g id="a_edge1_Node000001_Node000002"><a xlink:title=" ">
<path fill="none" stroke="#63b8ff" d="M121.4,-67.72C107.23,-72.3 91.89,-77.26 78.49,-81.59"/>
<polygon fill="#63b8ff" stroke="#63b8ff" points="122.02,-70.87 130.46,-64.47 119.87,-64.21 122.02,-70.87"/>
</a>
</g>
</g>
<!-- Node3 -->
<g id="Node000003" class="node">
<title>Node3</title>
<g id="a_Node000003"><a xlink:href="structcont_1_1slist.html#a2a94d3252d8575f38d0bc635cd1b4140" target="_top" xlink:title=" ">
<polygon fill="white" stroke="#666666" points="81.25,-64 0,-64 0,-41 81.25,-41 81.25,-64"/>
<text text-anchor="middle" x="40.62" y="-50.5" font-family="Helvetica,sans-Serif" font-size="10.00">cont::slist::slist</text>
</a>
</g>
</g>
<!-- Node1&#45;&gt;Node3 -->
<g id="edge2_Node000001_Node000003" class="edge">
<title>Node1&#45;&gt;Node3</title>
<g id="a_edge2_Node000001_Node000003"><a xlink:title=" ">
<path fill="none" stroke="#63b8ff" d="M106,-52.5C97.67,-52.5 89.31,-52.5 81.51,-52.5"/>
<polygon fill="#63b8ff" stroke="#63b8ff" points="105.9,-56 115.9,-52.5 105.9,-49 105.9,-56"/>
</a>
</g>
</g>
<!-- Node4 -->
<g id="Node000004" class="node">
<title>Node4</title>
<g id="a_Node000004"><a xlink:href="structcont_1_1slist.html#a04d956cc77b0e5a5b6e7bed3529e919d" target="_top" xlink:title=" ">
<polygon fill="white" stroke="#666666" points="81.25,-23 0,-23 0,0 81.25,0 81.25,-23"/>
<text text-anchor="middle" x="40.62" y="-9.5" font-family="Helvetica,sans-Serif" font-size="10.00">cont::slist::slist</text>
</a>
</g>
</g>
<!-- Node1&#45;&gt;Node4 -->
<g id="edge3_Node000001_Node000004" class="edge">
<title>Node1&#45;&gt;Node4</title>
<g id="a_edge3_Node000001_Node000004"><a xlink:title=" ">
<path fill="none" stroke="#63b8ff" d="M121.4,-37.28C107.23,-32.7 91.89,-27.74 78.49,-23.41"/>
<polygon fill="#63b8ff" stroke="#63b8ff" points="119.87,-40.79 130.46,-40.53 122.02,-34.13 119.87,-40.79"/>
</a>
</g>
</g>
</g>
</svg>
