<?xml version="1.0" encoding="UTF-8" standalone="no"?>
<!DOCTYPE svg PUBLIC "-//W3C//DTD SVG 1.1//EN"
 "http://www.w3.org/Graphics/SVG/1.1/DTD/svg11.dtd">
<!-- Generated by graphviz version 8.0.5 (20230430.1635)
 -->
<!-- Title: src/utils/trace.hpp Pages: 1 -->
<svg width="461pt" height="164pt"
 viewBox="0.00 0.00 461.38 164.00" xmlns="http://www.w3.org/2000/svg" xmlns:xlink="http://www.w3.org/1999/xlink">

<svg id="main" version="1.1" xmlns="http://www.w3.org/2000/svg" xmlns:xlink="http://www.w3.org/1999/xlink" xml:space="preserve" onload="init(evt)">
<style type="text/css"><![CDATA[
.node, .edge {opacity: 0.7;}
.node.selected, .edge.selected {opacity: 1;}
.edge:hover path { stroke: red; }
.edge:hover polygon { stroke: red; fill: red; }
]]></style>
<script type="application/ecmascript" xlink:href="svg.min.js"/>
<svg id="graph" class="graph">
<g id="graph0" class="graph" transform="scale(1 1) rotate(0) translate(4 160)">
<title>src/utils/trace.hpp</title>
<!-- Node1 -->
<g id="Node000001" class="node">
<title>Node1</title>
<g id="a_Node000001"><a xlink:title=" ">
<polygon fill="#999999" stroke="#666666" points="396.25,-156 302.25,-156 302.25,-133 396.25,-133 396.25,-156"/>
<text text-anchor="middle" x="349.25" y="-142.5" font-family="Helvetica,sans-Serif" font-size="10.00">src/utils/trace.hpp</text>
</a>
</g>
</g>
<!-- Node2 -->
<g id="Node000002" class="node">
<title>Node2</title>
<g id="a_Node000002"><a xlink:href="bpool__alloc_8hpp.html" target="_top" xlink:title=" ">
<polygon fill="white" stroke="#666666" points="365.88,-97 242.62,-97 242.62,-74 365.88,-74 365.88,-97"/>
<text text-anchor="middle" x="304.25" y="-83.5" font-family="Helvetica,sans-Serif" font-size="10.00">src/alloc/bpool_alloc.hpp</text>
</a>
</g>
</g>
<!-- Node1&#45;&gt;Node2 -->
<g id="edge1_Node000001_Node000002" class="edge">
<title>Node1&#45;&gt;Node2</title>
<g id="a_edge1_Node000001_Node000002"><a xlink:title=" ">
<path fill="none" stroke="#63b8ff" d="M333.79,-123.91C326.8,-115.06 318.81,-104.94 312.9,-97.46"/>
<polygon fill="#63b8ff" stroke="#63b8ff" points="331.63,-125.83 340.57,-131.51 337.12,-121.49 331.63,-125.83"/>
</a>
</g>
</g>
<!-- Node6 -->
<g id="Node000006" class="node">
<title>Node6</title>
<g id="a_Node000006"><a xlink:href="main_8cpp.html" target="_top" xlink:title=" ">
<polygon fill="white" stroke="#666666" points="453.38,-30.5 381.12,-30.5 381.12,-7.5 453.38,-7.5 453.38,-30.5"/>
<text text-anchor="middle" x="417.25" y="-17" font-family="Helvetica,sans-Serif" font-size="10.00">src/main.cpp</text>
</a>
</g>
</g>
<!-- Node1&#45;&gt;Node6 -->
<g id="edge6_Node000001_Node000006" class="edge">
<title>Node1&#45;&gt;Node6</title>
<g id="a_edge6_Node000001_Node000006"><a xlink:title=" ">
<path fill="none" stroke="#63b8ff" d="M360.57,-123.36C365.15,-115.19 370.47,-105.65 375.25,-97 388.21,-73.54 403.2,-45.94 411.3,-30.99"/>
<polygon fill="#63b8ff" stroke="#63b8ff" points="357.11,-121.37 355.27,-131.81 363.22,-124.8 357.11,-121.37"/>
</a>
</g>
</g>
<!-- Node3 -->
<g id="Node000003" class="node">
<title>Node3</title>
<g id="a_Node000003"><a xlink:href="bpool__alloc__gbenchmark_8cpp.html" target="_top" xlink:title=" ">
<polygon fill="white" stroke="#666666" points="104.5,-38 0,-38 0,0 104.5,0 104.5,-38"/>
<text text-anchor="start" x="8" y="-24.5" font-family="Helvetica,sans-Serif" font-size="10.00">src/alloc/bpool_alloc</text>
<text text-anchor="middle" x="52.25" y="-9.5" font-family="Helvetica,sans-Serif" font-size="10.00">_gbenchmark.cpp</text>
</a>
</g>
</g>
<!-- Node2&#45;&gt;Node3 -->
<g id="edge2_Node000002_Node000003" class="edge">
<title>Node2&#45;&gt;Node3</title>
<g id="a_edge2_Node000002_Node000003"><a xlink:title=" ">
<path fill="none" stroke="#63b8ff" d="M246.95,-71.15C209.16,-62.18 158.63,-49.87 114.25,-38 111.22,-37.19 108.11,-36.34 104.97,-35.47"/>
<polygon fill="#63b8ff" stroke="#63b8ff" points="245.72,-74.69 256.26,-73.59 247.33,-67.88 245.72,-74.69"/>
</a>
</g>
</g>
<!-- Node4 -->
<g id="Node000004" class="node">
<title>Node4</title>
<g id="a_Node000004"><a xlink:href="bpool__alloc__gtest_8cpp.html" target="_top" xlink:title=" ">
<polygon fill="white" stroke="#666666" points="227.5,-38 123,-38 123,0 227.5,0 227.5,-38"/>
<text text-anchor="start" x="131" y="-24.5" font-family="Helvetica,sans-Serif" font-size="10.00">src/alloc/bpool_alloc</text>
<text text-anchor="middle" x="175.25" y="-9.5" font-family="Helvetica,sans-Serif" font-size="10.00">_gtest.cpp</text>
</a>
</g>
</g>
<!-- Node2&#45;&gt;Node4 -->
<g id="edge3_Node000002_Node000004" class="edge">
<title>Node2&#45;&gt;Node4</title>
<g id="a_edge3_Node000002_Node000004"><a xlink:title=" ">
<path fill="none" stroke="#63b8ff" d="M272.76,-68.75C254.47,-59.61 231.32,-48.04 212.17,-38.46"/>
<polygon fill="#63b8ff" stroke="#63b8ff" points="270.86,-72.22 281.37,-73.56 273.99,-65.96 270.86,-72.22"/>
</a>
</g>
</g>
<!-- Node5 -->
<g id="Node000005" class="node">
<title>Node5</title>
<g id="a_Node000005"><a xlink:href="slist__gtest_8cpp.html" target="_top" xlink:title=" ">
<polygon fill="white" stroke="#666666" points="363.25,-30.5 245.25,-30.5 245.25,-7.5 363.25,-7.5 363.25,-30.5"/>
<text text-anchor="middle" x="304.25" y="-17" font-family="Helvetica,sans-Serif" font-size="10.00">src/cont/slist_gtest.cpp</text>
</a>
</g>
</g>
<!-- Node2&#45;&gt;Node5 -->
<g id="edge4_Node000002_Node000005" class="edge">
<title>Node2&#45;&gt;Node5</title>
<g id="a_edge4_Node000002_Node000005"><a xlink:title=" ">
<path fill="none" stroke="#63b8ff" d="M304.25,-62.82C304.25,-52.05 304.25,-39.5 304.25,-30.78"/>
<polygon fill="#63b8ff" stroke="#63b8ff" points="300.75,-62.56 304.25,-72.56 307.75,-62.56 300.75,-62.56"/>
</a>
</g>
</g>
<!-- Node2&#45;&gt;Node6 -->
<g id="edge5_Node000002_Node000006" class="edge">
<title>Node2&#45;&gt;Node6</title>
<g id="a_edge5_Node000002_Node000006"><a xlink:title=" ">
<path fill="none" stroke="#63b8ff" d="M332.84,-68.18C353.23,-56.54 380.1,-41.21 397.99,-31"/>
<polygon fill="#63b8ff" stroke="#63b8ff" points="331.37,-65.56 324.42,-73.56 334.84,-71.64 331.37,-65.56"/>
</a>
</g>
</g>
</g>
</svg>
</svg>

<style type='text/css'>
<![CDATA[
[data-mouse-over-selected='false'] { opacity: 0.7; }
[data-mouse-over-selected='true']  { opacity: 1.0; }
]]>
</style>
<script type="application/ecmascript"><![CDATA[
document.addEventListener('DOMContentLoaded', (event) => {
  highlightEdges();
  highlightAdjacentNodes();
});
]]></script>
</svg>
