<?xml version="1.0" encoding="UTF-8" standalone="no"?>
<!DOCTYPE svg PUBLIC "-//W3C//DTD SVG 1.1//EN"
 "http://www.w3.org/Graphics/SVG/1.1/DTD/svg11.dtd">
<!-- Generated by graphviz version 8.0.5 (20230430.1635)
 -->
<!-- Title: src/utils/trace.hpp Pages: 1 -->
<svg width="398pt" height="90pt"
 viewBox="0.00 0.00 397.88 90.00" xmlns="http://www.w3.org/2000/svg" xmlns:xlink="http://www.w3.org/1999/xlink">
<g id="graph0" class="graph" transform="scale(1 1) rotate(0) translate(4 86)">
<title>src/utils/trace.hpp</title>
<!-- Node1 -->
<g id="Node000001" class="node">
<title>Node1</title>
<g id="a_Node000001"><a xlink:title=" ">
<polygon fill="#999999" stroke="#666666" points="199,-82 105,-82 105,-59 199,-59 199,-82"/>
<text text-anchor="middle" x="152" y="-68.5" font-family="Helvetica,sans-Serif" font-size="10.00">src/utils/trace.hpp</text>
</a>
</g>
</g>
<!-- Node2 -->
<g id="Node000002" class="node">
<title>Node2</title>
<g id="a_Node000002"><a xlink:title=" ">
<polygon fill="#e0e0e0" stroke="#999999" points="58,-23 0,-23 0,0 58,0 58,-23"/>
<text text-anchor="middle" x="29" y="-9.5" font-family="Helvetica,sans-Serif" font-size="10.00">stdexcept</text>
</a>
</g>
</g>
<!-- Node1&#45;&gt;Node2 -->
<g id="edge1_Node000001_Node000002" class="edge">
<title>Node1&#45;&gt;Node2</title>
<g id="a_edge1_Node000001_Node000002"><a xlink:title=" ">
<path fill="none" stroke="#63b8ff" d="M128.28,-58.51C109.57,-49.84 83.23,-37.63 62.38,-27.97"/>
<polygon fill="#63b8ff" stroke="#63b8ff" points="64.19,-24.49 53.64,-23.46 61.24,-30.84 64.19,-24.49"/>
</a>
</g>
</g>
<!-- Node3 -->
<g id="Node000003" class="node">
<title>Node3</title>
<g id="a_Node000003"><a xlink:title=" ">
<polygon fill="#e0e0e0" stroke="#999999" points="129.75,-23 76.25,-23 76.25,0 129.75,0 129.75,-23"/>
<text text-anchor="middle" x="103" y="-9.5" font-family="Helvetica,sans-Serif" font-size="10.00">iostream</text>
</a>
</g>
</g>
<!-- Node1&#45;&gt;Node3 -->
<g id="edge2_Node000001_Node000003" class="edge">
<title>Node1&#45;&gt;Node3</title>
<g id="a_edge2_Node000001_Node000003"><a xlink:title=" ">
<path fill="none" stroke="#63b8ff" d="M142.55,-58.51C136.04,-50.94 127.22,-40.68 119.56,-31.77"/>
<polygon fill="#63b8ff" stroke="#63b8ff" points="121.59,-29.76 112.42,-24.46 116.28,-34.32 121.59,-29.76"/>
</a>
</g>
</g>
<!-- Node4 -->
<g id="Node000004" class="node">
<title>Node4</title>
<g id="a_Node000004"><a xlink:title=" ">
<polygon fill="#e0e0e0" stroke="#999999" points="255.75,-23 148.25,-23 148.25,0 255.75,0 255.75,-23"/>
<text text-anchor="middle" x="202" y="-9.5" font-family="Helvetica,sans-Serif" font-size="10.00">boost/stacktrace.hpp</text>
</a>
</g>
</g>
<!-- Node1&#45;&gt;Node4 -->
<g id="edge3_Node000001_Node000004" class="edge">
<title>Node1&#45;&gt;Node4</title>
<g id="a_edge3_Node000001_Node000004"><a xlink:title=" ">
<path fill="none" stroke="#63b8ff" d="M161.64,-58.51C168.35,-50.86 177.47,-40.46 185.34,-31.49"/>
<polygon fill="#63b8ff" stroke="#63b8ff" points="188.43,-34.28 192.39,-24.46 183.16,-29.67 188.43,-34.28"/>
</a>
</g>
</g>
<!-- Node5 -->
<g id="Node000005" class="node">
<title>Node5</title>
<g id="a_Node000005"><a xlink:title=" ">
<polygon fill="#e0e0e0" stroke="#999999" points="389.88,-23 274.12,-23 274.12,0 389.88,0 389.88,-23"/>
<text text-anchor="middle" x="332" y="-9.5" font-family="Helvetica,sans-Serif" font-size="10.00">boost/exception/all.hpp</text>
</a>
</g>
</g>
<!-- Node1&#45;&gt;Node5 -->
<g id="edge4_Node000001_Node000005" class="edge">
<title>Node1&#45;&gt;Node5</title>
<g id="a_edge4_Node000001_Node000005"><a xlink:title=" ">
<path fill="none" stroke="#63b8ff" d="M186.71,-58.51C215.34,-49.44 256.17,-36.51 287.26,-26.67"/>
<polygon fill="#63b8ff" stroke="#63b8ff" points="287.92,-29.81 296.4,-23.46 285.81,-23.14 287.92,-29.81"/>
</a>
</g>
</g>
</g>
</svg>
