<?xml version="1.0" encoding="UTF-8" standalone="no"?>
<!DOCTYPE svg PUBLIC "-//W3C//DTD SVG 1.1//EN"
 "http://www.w3.org/Graphics/SVG/1.1/DTD/svg11.dtd">
<!-- Generated by graphviz version 8.0.5 (20230430.1635)
 -->
<!-- Title: src/info/src/version.cpp Pages: 1 -->
<svg width="178pt" height="149pt"
 viewBox="0.00 0.00 177.88 149.00" xmlns="http://www.w3.org/2000/svg" xmlns:xlink="http://www.w3.org/1999/xlink">

<svg id="main" version="1.1" xmlns="http://www.w3.org/2000/svg" xmlns:xlink="http://www.w3.org/1999/xlink" xml:space="preserve" onload="init(evt)">
<style type="text/css"><![CDATA[
.node, .edge {opacity: 0.7;}
.node.selected, .edge.selected {opacity: 1;}
.edge:hover path { stroke: red; }
.edge:hover polygon { stroke: red; fill: red; }
]]></style>
<script type="application/ecmascript" xlink:href="svg.min.js"/>
<svg id="graph" class="graph">
<g id="graph0" class="graph" transform="scale(1 1) rotate(0) translate(4 145)">
<title>src/info/src/version.cpp</title>
<!-- Node1 -->
<g id="Node000001" class="node">
<title>Node1</title>
<g id="a_Node000001"><a xlink:title=" ">
<polygon fill="#999999" stroke="#666666" points="124.62,-141 6.62,-141 6.62,-118 124.62,-118 124.62,-141"/>
<text text-anchor="middle" x="65.62" y="-127.5" font-family="Helvetica,sans-Serif" font-size="10.00">src/info/src/version.cpp</text>
</a>
</g>
</g>
<!-- Node2 -->
<g id="Node000002" class="node">
<title>Node2</title>
<g id="a_Node000002"><a xlink:title=" ">
<polygon fill="#e0e0e0" stroke="#999999" points="51.25,-82 0,-82 0,-59 51.25,-59 51.25,-82"/>
<text text-anchor="middle" x="25.62" y="-68.5" font-family="Helvetica,sans-Serif" font-size="10.00">sstream</text>
</a>
</g>
</g>
<!-- Node1&#45;&gt;Node2 -->
<g id="edge1_Node000001_Node000002" class="edge">
<title>Node1&#45;&gt;Node2</title>
<g id="a_edge1_Node000001_Node000002"><a xlink:title=" ">
<path fill="none" stroke="#63b8ff" d="M57.91,-117.51C52.71,-110.1 45.7,-100.11 39.54,-91.33"/>
<polygon fill="#63b8ff" stroke="#63b8ff" points="41.92,-89.63 33.31,-83.46 36.19,-93.65 41.92,-89.63"/>
</a>
</g>
</g>
<!-- Node3 -->
<g id="Node000003" class="node">
<title>Node3</title>
<g id="a_Node000003"><a xlink:href="version_8h.html" target="_top" xlink:title=" ">
<polygon fill="white" stroke="#666666" points="143.88,-82 69.38,-82 69.38,-59 143.88,-59 143.88,-82"/>
<text text-anchor="middle" x="106.62" y="-68.5" font-family="Helvetica,sans-Serif" font-size="10.00">info/version.h</text>
</a>
</g>
</g>
<!-- Node1&#45;&gt;Node3 -->
<g id="edge2_Node000001_Node000003" class="edge">
<title>Node1&#45;&gt;Node3</title>
<g id="a_edge2_Node000001_Node000003"><a xlink:title=" ">
<path fill="none" stroke="#63b8ff" d="M73.53,-117.51C78.86,-110.1 86.05,-100.11 92.36,-91.33"/>
<polygon fill="#63b8ff" stroke="#63b8ff" points="95.75,-93.62 98.74,-83.46 90.06,-89.53 95.75,-93.62"/>
</a>
</g>
</g>
<!-- Node4 -->
<g id="Node000004" class="node">
<title>Node4</title>
<g id="a_Node000004"><a xlink:title=" ">
<polygon fill="#e0e0e0" stroke="#999999" points="101.38,-23 35.88,-23 35.88,0 101.38,0 101.38,-23"/>
<text text-anchor="middle" x="68.62" y="-9.5" font-family="Helvetica,sans-Serif" font-size="10.00">string_view</text>
</a>
</g>
</g>
<!-- Node3&#45;&gt;Node4 -->
<g id="edge3_Node000003_Node000004" class="edge">
<title>Node3&#45;&gt;Node4</title>
<g id="a_edge3_Node000003_Node000004"><a xlink:title=" ">
<path fill="none" stroke="#63b8ff" d="M99.3,-58.51C94.41,-51.18 87.84,-41.32 82.03,-32.61"/>
<polygon fill="#63b8ff" stroke="#63b8ff" points="84.39,-30.84 75.93,-24.46 78.56,-34.72 84.39,-30.84"/>
</a>
</g>
</g>
<!-- Node5 -->
<g id="Node000005" class="node">
<title>Node5</title>
<g id="a_Node000005"><a xlink:href="config_8h.html" target="_top" xlink:title=" ">
<polygon fill="white" stroke="#666666" points="169.88,-23 119.38,-23 119.38,0 169.88,0 169.88,-23"/>
<text text-anchor="middle" x="144.62" y="-9.5" font-family="Helvetica,sans-Serif" font-size="10.00">config.h</text>
</a>
</g>
</g>
<!-- Node3&#45;&gt;Node5 -->
<g id="edge4_Node000003_Node000005" class="edge">
<title>Node3&#45;&gt;Node5</title>
<g id="a_edge4_Node000003_Node000005"><a xlink:title=" ">
<path fill="none" stroke="#63b8ff" d="M113.95,-58.51C118.84,-51.18 125.41,-41.32 131.22,-32.61"/>
<polygon fill="#63b8ff" stroke="#63b8ff" points="134.69,-34.72 137.32,-24.46 128.86,-30.84 134.69,-34.72"/>
</a>
</g>
</g>
</g>
</svg>
</svg>

<style type='text/css'>
<![CDATA[
[data-mouse-over-selected='false'] { opacity: 0.7; }
[data-mouse-over-selected='true']  { opacity: 1.0; }
]]>
</style>
<script type="application/ecmascript"><![CDATA[
document.addEventListener('DOMContentLoaded', (event) => {
  highlightEdges();
  highlightAdjacentNodes();
});
]]></script>
</svg>
